%TF.GenerationSoftware,KiCad,Pcbnew,(6.99.0-907-g90f6edad61)*%
%TF.CreationDate,2022-02-13T13:40:20+01:00*%
%TF.ProjectId,tuxpin,74757870-696e-42e6-9b69-6361645f7063,rev?*%
%TF.SameCoordinates,Original*%
%TF.FileFunction,Soldermask,Top*%
%TF.FilePolarity,Negative*%
%FSLAX46Y46*%
G04 Gerber Fmt 4.6, Leading zero omitted, Abs format (unit mm)*
G04 Created by KiCad (PCBNEW (6.99.0-907-g90f6edad61)) date 2022-02-13 13:40:20*
%MOMM*%
%LPD*%
G01*
G04 APERTURE LIST*
G04 Aperture macros list*
%AMRoundRect*
0 Rectangle with rounded corners*
0 $1 Rounding radius*
0 $2 $3 $4 $5 $6 $7 $8 $9 X,Y pos of 4 corners*
0 Add a 4 corners polygon primitive as box body*
4,1,4,$2,$3,$4,$5,$6,$7,$8,$9,$2,$3,0*
0 Add four circle primitives for the rounded corners*
1,1,$1+$1,$2,$3*
1,1,$1+$1,$4,$5*
1,1,$1+$1,$6,$7*
1,1,$1+$1,$8,$9*
0 Add four rect primitives between the rounded corners*
20,1,$1+$1,$2,$3,$4,$5,0*
20,1,$1+$1,$4,$5,$6,$7,0*
20,1,$1+$1,$6,$7,$8,$9,0*
20,1,$1+$1,$8,$9,$2,$3,0*%
G04 Aperture macros list end*
%ADD10RoundRect,0.150000X0.587500X0.150000X-0.587500X0.150000X-0.587500X-0.150000X0.587500X-0.150000X0*%
%ADD11R,0.650000X0.600000*%
%ADD12RoundRect,0.150000X-0.150000X0.587500X-0.150000X-0.587500X0.150000X-0.587500X0.150000X0.587500X0*%
%ADD13RoundRect,0.237500X0.237500X-0.250000X0.237500X0.250000X-0.237500X0.250000X-0.237500X-0.250000X0*%
%ADD14RoundRect,0.250000X-0.350000X-0.450000X0.350000X-0.450000X0.350000X0.450000X-0.350000X0.450000X0*%
%ADD15RoundRect,0.250001X-0.624999X0.462499X-0.624999X-0.462499X0.624999X-0.462499X0.624999X0.462499X0*%
%ADD16RoundRect,0.250000X-0.450000X0.350000X-0.450000X-0.350000X0.450000X-0.350000X0.450000X0.350000X0*%
%ADD17R,2.500000X2.500000*%
%ADD18RoundRect,0.237500X0.250000X0.237500X-0.250000X0.237500X-0.250000X-0.237500X0.250000X-0.237500X0*%
%ADD19R,0.650000X1.560000*%
%ADD20RoundRect,0.250000X0.350000X0.450000X-0.350000X0.450000X-0.350000X-0.450000X0.350000X-0.450000X0*%
%ADD21RoundRect,0.250000X0.450000X-0.350000X0.450000X0.350000X-0.450000X0.350000X-0.450000X-0.350000X0*%
%ADD22RoundRect,0.237500X-0.300000X-0.237500X0.300000X-0.237500X0.300000X0.237500X-0.300000X0.237500X0*%
%ADD23R,3.300000X3.500000*%
%ADD24C,10.200000*%
%ADD25RoundRect,0.237500X-0.237500X0.300000X-0.237500X-0.300000X0.237500X-0.300000X0.237500X0.300000X0*%
%ADD26RoundRect,0.250000X0.337500X0.475000X-0.337500X0.475000X-0.337500X-0.475000X0.337500X-0.475000X0*%
G04 APERTURE END LIST*
D10*
%TO.C,Q2*%
X167561500Y-102042000D03*
X167561500Y-100142000D03*
X165686500Y-101092000D03*
%TD*%
D11*
%TO.C,U1*%
X157203999Y-119734999D03*
X157203999Y-122834999D03*
X154453999Y-119734999D03*
X154453999Y-122834999D03*
%TD*%
D12*
%TO.C,Q3*%
X154239000Y-89867500D03*
X152339000Y-89867500D03*
X153289000Y-91742500D03*
%TD*%
D13*
%TO.C,R3*%
X157226000Y-112926500D03*
X157226000Y-111101500D03*
%TD*%
D14*
%TO.C,R10*%
X161687000Y-100711000D03*
X163687000Y-100711000D03*
%TD*%
D10*
%TO.C,Q6*%
X154861500Y-109027000D03*
X154861500Y-107127000D03*
X152986500Y-108077000D03*
%TD*%
D15*
%TO.C,D2*%
X152908000Y-97953500D03*
X152908000Y-100928500D03*
%TD*%
D16*
%TO.C,R11*%
X158115000Y-91345000D03*
X158115000Y-93345000D03*
%TD*%
D17*
%TO.C,TP1*%
X152145999Y-103885999D03*
%TD*%
D18*
%TO.C,R9*%
X163599500Y-98806000D03*
X161774500Y-98806000D03*
%TD*%
D13*
%TO.C,R5*%
X155194000Y-112910500D03*
X155194000Y-111085500D03*
%TD*%
D19*
%TO.C,U2*%
X154751999Y-117808999D03*
X155701999Y-117808999D03*
X156651999Y-117808999D03*
X156651999Y-115108999D03*
X155701999Y-115108999D03*
X154751999Y-115108999D03*
%TD*%
D12*
%TO.C,Q5*%
X159954000Y-99773500D03*
X158054000Y-99773500D03*
X159004000Y-101648500D03*
%TD*%
D13*
%TO.C,R4*%
X154813000Y-105433500D03*
X154813000Y-103608500D03*
%TD*%
D20*
%TO.C,R12*%
X160004000Y-95250000D03*
X158004000Y-95250000D03*
%TD*%
D16*
%TO.C,R14*%
X158242000Y-84979000D03*
X158242000Y-86979000D03*
%TD*%
D21*
%TO.C,R7*%
X156083000Y-95488000D03*
X156083000Y-93488000D03*
%TD*%
%TO.C,R13*%
X160528000Y-85709000D03*
X160528000Y-83709000D03*
%TD*%
D17*
%TO.C,TP2*%
X162686999Y-103885999D03*
%TD*%
D22*
%TO.C,C1*%
X154077500Y-87122000D03*
X155802500Y-87122000D03*
%TD*%
D13*
%TO.C,R2*%
X159385000Y-105433500D03*
X159385000Y-103608500D03*
%TD*%
D12*
%TO.C,Q4*%
X152588000Y-93931500D03*
X150688000Y-93931500D03*
X151638000Y-95806500D03*
%TD*%
D13*
%TO.C,R6*%
X157226000Y-109116500D03*
X157226000Y-107291500D03*
%TD*%
D18*
%TO.C,R8*%
X163599500Y-97155000D03*
X161774500Y-97155000D03*
%TD*%
D23*
%TO.C,BT1*%
X166918999Y-120929999D03*
X166918999Y-105129999D03*
D24*
X166919000Y-113030000D03*
%TD*%
D12*
%TO.C,Q1*%
X162113000Y-87660000D03*
X160213000Y-87660000D03*
X161163000Y-89535000D03*
%TD*%
D15*
%TO.C,D1*%
X155194000Y-97953500D03*
X155194000Y-100928500D03*
%TD*%
D25*
%TO.C,C3*%
X154178000Y-93752500D03*
X154178000Y-95477500D03*
%TD*%
D26*
%TO.C,C2*%
X160041500Y-97536000D03*
X157966500Y-97536000D03*
%TD*%
%TO.C,C4*%
X158009500Y-89027000D03*
X155934500Y-89027000D03*
%TD*%
D13*
%TO.C,R1*%
X156972000Y-105433500D03*
X156972000Y-103608500D03*
%TD*%
M02*
