%TF.GenerationSoftware,KiCad,Pcbnew,(6.99.0-907-g90f6edad61)*%
%TF.CreationDate,2022-02-13T13:40:20+01:00*%
%TF.ProjectId,tuxpin,74757870-696e-42e6-9b69-6361645f7063,rev?*%
%TF.SameCoordinates,Original*%
%TF.FileFunction,Copper,L1,Top*%
%TF.FilePolarity,Positive*%
%FSLAX46Y46*%
G04 Gerber Fmt 4.6, Leading zero omitted, Abs format (unit mm)*
G04 Created by KiCad (PCBNEW (6.99.0-907-g90f6edad61)) date 2022-02-13 13:40:20*
%MOMM*%
%LPD*%
G01*
G04 APERTURE LIST*
G04 Aperture macros list*
%AMRoundRect*
0 Rectangle with rounded corners*
0 $1 Rounding radius*
0 $2 $3 $4 $5 $6 $7 $8 $9 X,Y pos of 4 corners*
0 Add a 4 corners polygon primitive as box body*
4,1,4,$2,$3,$4,$5,$6,$7,$8,$9,$2,$3,0*
0 Add four circle primitives for the rounded corners*
1,1,$1+$1,$2,$3*
1,1,$1+$1,$4,$5*
1,1,$1+$1,$6,$7*
1,1,$1+$1,$8,$9*
0 Add four rect primitives between the rounded corners*
20,1,$1+$1,$2,$3,$4,$5,0*
20,1,$1+$1,$4,$5,$6,$7,0*
20,1,$1+$1,$6,$7,$8,$9,0*
20,1,$1+$1,$8,$9,$2,$3,0*%
G04 Aperture macros list end*
%TA.AperFunction,SMDPad,CuDef*%
%ADD10RoundRect,0.150000X0.587500X0.150000X-0.587500X0.150000X-0.587500X-0.150000X0.587500X-0.150000X0*%
%TD*%
%TA.AperFunction,SMDPad,CuDef*%
%ADD11R,0.650000X0.600000*%
%TD*%
%TA.AperFunction,SMDPad,CuDef*%
%ADD12RoundRect,0.150000X-0.150000X0.587500X-0.150000X-0.587500X0.150000X-0.587500X0.150000X0.587500X0*%
%TD*%
%TA.AperFunction,SMDPad,CuDef*%
%ADD13RoundRect,0.237500X0.237500X-0.250000X0.237500X0.250000X-0.237500X0.250000X-0.237500X-0.250000X0*%
%TD*%
%TA.AperFunction,SMDPad,CuDef*%
%ADD14RoundRect,0.250000X-0.350000X-0.450000X0.350000X-0.450000X0.350000X0.450000X-0.350000X0.450000X0*%
%TD*%
%TA.AperFunction,SMDPad,CuDef*%
%ADD15RoundRect,0.250001X-0.624999X0.462499X-0.624999X-0.462499X0.624999X-0.462499X0.624999X0.462499X0*%
%TD*%
%TA.AperFunction,SMDPad,CuDef*%
%ADD16RoundRect,0.250000X-0.450000X0.350000X-0.450000X-0.350000X0.450000X-0.350000X0.450000X0.350000X0*%
%TD*%
%TA.AperFunction,SMDPad,CuDef*%
%ADD17R,2.500000X2.500000*%
%TD*%
%TA.AperFunction,SMDPad,CuDef*%
%ADD18RoundRect,0.237500X0.250000X0.237500X-0.250000X0.237500X-0.250000X-0.237500X0.250000X-0.237500X0*%
%TD*%
%TA.AperFunction,SMDPad,CuDef*%
%ADD19R,0.650000X1.560000*%
%TD*%
%TA.AperFunction,SMDPad,CuDef*%
%ADD20RoundRect,0.250000X0.350000X0.450000X-0.350000X0.450000X-0.350000X-0.450000X0.350000X-0.450000X0*%
%TD*%
%TA.AperFunction,SMDPad,CuDef*%
%ADD21RoundRect,0.250000X0.450000X-0.350000X0.450000X0.350000X-0.450000X0.350000X-0.450000X-0.350000X0*%
%TD*%
%TA.AperFunction,SMDPad,CuDef*%
%ADD22RoundRect,0.237500X-0.300000X-0.237500X0.300000X-0.237500X0.300000X0.237500X-0.300000X0.237500X0*%
%TD*%
%TA.AperFunction,SMDPad,CuDef*%
%ADD23R,3.300000X3.500000*%
%TD*%
%TA.AperFunction,SMDPad,CuDef*%
%ADD24C,10.200000*%
%TD*%
%TA.AperFunction,SMDPad,CuDef*%
%ADD25RoundRect,0.237500X-0.237500X0.300000X-0.237500X-0.300000X0.237500X-0.300000X0.237500X0.300000X0*%
%TD*%
%TA.AperFunction,SMDPad,CuDef*%
%ADD26RoundRect,0.250000X0.337500X0.475000X-0.337500X0.475000X-0.337500X-0.475000X0.337500X-0.475000X0*%
%TD*%
%TA.AperFunction,ViaPad*%
%ADD27C,1.000000*%
%TD*%
%TA.AperFunction,ViaPad*%
%ADD28C,0.800000*%
%TD*%
%TA.AperFunction,Conductor*%
%ADD29C,0.600000*%
%TD*%
%TA.AperFunction,Conductor*%
%ADD30C,0.400000*%
%TD*%
%TA.AperFunction,Conductor*%
%ADD31C,0.800000*%
%TD*%
%TA.AperFunction,Conductor*%
%ADD32C,0.650000*%
%TD*%
%TA.AperFunction,Conductor*%
%ADD33C,0.700000*%
%TD*%
%TA.AperFunction,Conductor*%
%ADD34C,1.000000*%
%TD*%
G04 APERTURE END LIST*
D10*
%TO.P,Q2,1,B*%
%TO.N,Net-(Q2-B)*%
X167561500Y-102042000D03*
%TO.P,Q2,2,E*%
%TO.N,GND*%
X167561500Y-100142000D03*
%TO.P,Q2,3,C*%
%TO.N,Net-(Q2-C)*%
X165686500Y-101092000D03*
%TD*%
D11*
%TO.P,U1,1*%
%TO.N,GND*%
X157203999Y-119734999D03*
%TO.P,U1,2*%
X157203999Y-122834999D03*
%TO.P,U1,3*%
%TO.N,Net-(U2-IN)*%
X154453999Y-119734999D03*
%TO.P,U1,4*%
%TO.N,unconnected-(U1-Pad4)*%
X154453999Y-122834999D03*
%TD*%
D12*
%TO.P,Q3,1,B*%
%TO.N,Net-(Q3-B)*%
X154239000Y-89867500D03*
%TO.P,Q3,2,E*%
%TO.N,Net-(D2-K)*%
X152339000Y-89867500D03*
%TO.P,Q3,3,C*%
%TO.N,Net-(Q3-C)*%
X153289000Y-91742500D03*
%TD*%
D13*
%TO.P,R3,1*%
%TO.N,Net-(U2-~{OUT})*%
X157226000Y-112926500D03*
%TO.P,R3,2*%
%TO.N,Net-(Q6-B)*%
X157226000Y-111101500D03*
%TD*%
D14*
%TO.P,R10,1*%
%TO.N,Net-(Q5-B)*%
X161687000Y-100711000D03*
%TO.P,R10,2*%
%TO.N,Net-(Q2-C)*%
X163687000Y-100711000D03*
%TD*%
D10*
%TO.P,Q6,1,B*%
%TO.N,Net-(Q6-B)*%
X154861500Y-109027000D03*
%TO.P,Q6,2,E*%
%TO.N,VCC*%
X154861500Y-107127000D03*
%TO.P,Q6,3,C*%
%TO.N,+3V0*%
X152986500Y-108077000D03*
%TD*%
D15*
%TO.P,D2,1,K*%
%TO.N,Net-(D2-K)*%
X152908000Y-97953500D03*
%TO.P,D2,2,A*%
%TO.N,Net-(D2-A)*%
X152908000Y-100928500D03*
%TD*%
D16*
%TO.P,R11,1*%
%TO.N,Net-(Q3-B)*%
X158115000Y-91345000D03*
%TO.P,R11,2*%
%TO.N,Net-(Q5-B)*%
X158115000Y-93345000D03*
%TD*%
D17*
%TO.P,TP1,1,1*%
%TO.N,unconnected-(TP1-Pad1)*%
X152145999Y-103885999D03*
%TD*%
D18*
%TO.P,R9,1*%
%TO.N,VCC*%
X163599500Y-98806000D03*
%TO.P,R9,2*%
%TO.N,Net-(C2-Pad1)*%
X161774500Y-98806000D03*
%TD*%
D13*
%TO.P,R5,1*%
%TO.N,Net-(U2-OUT)*%
X155194000Y-112910500D03*
%TO.P,R5,2*%
%TO.N,Net-(Q6-B)*%
X155194000Y-111085500D03*
%TD*%
D19*
%TO.P,U2,1,IN*%
%TO.N,Net-(U2-IN)*%
X154751999Y-117808999D03*
%TO.P,U2,2,GND*%
%TO.N,GND*%
X155701999Y-117808999D03*
%TO.P,U2,3,CLEAR*%
X156651999Y-117808999D03*
%TO.P,U2,4,~{OUT}*%
%TO.N,Net-(U2-~{OUT})*%
X156651999Y-115108999D03*
%TO.P,U2,5,OUT*%
%TO.N,Net-(U2-OUT)*%
X155701999Y-115108999D03*
%TO.P,U2,6,VCC*%
%TO.N,+3V0*%
X154751999Y-115108999D03*
%TD*%
D12*
%TO.P,Q5,1,B*%
%TO.N,Net-(Q5-B)*%
X159954000Y-99773500D03*
%TO.P,Q5,2,E*%
%TO.N,Net-(Q5-E)*%
X158054000Y-99773500D03*
%TO.P,Q5,3,C*%
%TO.N,Net-(D1-K)*%
X159004000Y-101648500D03*
%TD*%
D13*
%TO.P,R4,1*%
%TO.N,VCC*%
X154813000Y-105433500D03*
%TO.P,R4,2*%
%TO.N,Net-(D2-A)*%
X154813000Y-103608500D03*
%TD*%
D20*
%TO.P,R12,1*%
%TO.N,Net-(C2-Pad1)*%
X160004000Y-95250000D03*
%TO.P,R12,2*%
%TO.N,Net-(Q4-B)*%
X158004000Y-95250000D03*
%TD*%
D16*
%TO.P,R14,1*%
%TO.N,Net-(Q1-B)*%
X158242000Y-84979000D03*
%TO.P,R14,2*%
%TO.N,Net-(C4-Pad1)*%
X158242000Y-86979000D03*
%TD*%
D21*
%TO.P,R7,1*%
%TO.N,Net-(D1-K)*%
X156083000Y-95488000D03*
%TO.P,R7,2*%
%TO.N,Net-(Q1-C)*%
X156083000Y-93488000D03*
%TD*%
%TO.P,R13,1*%
%TO.N,Net-(Q1-E)*%
X160528000Y-85709000D03*
%TO.P,R13,2*%
%TO.N,GND*%
X160528000Y-83709000D03*
%TD*%
D17*
%TO.P,TP2,1,1*%
%TO.N,unconnected-(TP2-Pad1)*%
X162686999Y-103885999D03*
%TD*%
D22*
%TO.P,C1,1*%
%TO.N,Net-(D2-K)*%
X154077500Y-87122000D03*
%TO.P,C1,2*%
%TO.N,Net-(Q1-B)*%
X155802500Y-87122000D03*
%TD*%
D13*
%TO.P,R2,1*%
%TO.N,VCC*%
X159385000Y-105433500D03*
%TO.P,R2,2*%
%TO.N,Net-(Q5-B)*%
X159385000Y-103608500D03*
%TD*%
D12*
%TO.P,Q4,1,B*%
%TO.N,Net-(Q4-B)*%
X152588000Y-93931500D03*
%TO.P,Q4,2,E*%
%TO.N,GND*%
X150688000Y-93931500D03*
%TO.P,Q4,3,C*%
%TO.N,Net-(D2-K)*%
X151638000Y-95806500D03*
%TD*%
D13*
%TO.P,R6,1*%
%TO.N,Net-(Q6-B)*%
X157226000Y-109116500D03*
%TO.P,R6,2*%
%TO.N,+3V0*%
X157226000Y-107291500D03*
%TD*%
D18*
%TO.P,R8,1*%
%TO.N,VCC*%
X163599500Y-97155000D03*
%TO.P,R8,2*%
%TO.N,Net-(Q1-B)*%
X161774500Y-97155000D03*
%TD*%
D23*
%TO.P,BT1,1,+*%
%TO.N,+3V0*%
X166918999Y-120929999D03*
X166918999Y-105129999D03*
D24*
%TO.P,BT1,2,-*%
%TO.N,GND*%
X166919000Y-113030000D03*
%TD*%
D12*
%TO.P,Q1,1,B*%
%TO.N,Net-(Q1-B)*%
X162113000Y-87660000D03*
%TO.P,Q1,2,E*%
%TO.N,Net-(Q1-E)*%
X160213000Y-87660000D03*
%TO.P,Q1,3,C*%
%TO.N,Net-(Q1-C)*%
X161163000Y-89535000D03*
%TD*%
D15*
%TO.P,D1,1,K*%
%TO.N,Net-(D1-K)*%
X155194000Y-97953500D03*
%TO.P,D1,2,A*%
%TO.N,Net-(D1-A)*%
X155194000Y-100928500D03*
%TD*%
D25*
%TO.P,C3,1*%
%TO.N,Net-(Q4-B)*%
X154178000Y-93752500D03*
%TO.P,C3,2*%
%TO.N,Net-(D1-K)*%
X154178000Y-95477500D03*
%TD*%
D26*
%TO.P,C2,1*%
%TO.N,Net-(C2-Pad1)*%
X160041500Y-97536000D03*
%TO.P,C2,2*%
%TO.N,Net-(Q5-E)*%
X157966500Y-97536000D03*
%TD*%
%TO.P,C4,1*%
%TO.N,Net-(C4-Pad1)*%
X158009500Y-89027000D03*
%TO.P,C4,2*%
%TO.N,Net-(Q3-C)*%
X155934500Y-89027000D03*
%TD*%
D13*
%TO.P,R1,1*%
%TO.N,VCC*%
X156972000Y-105433500D03*
%TO.P,R1,2*%
%TO.N,Net-(D1-A)*%
X156972000Y-103608500D03*
%TD*%
D27*
%TO.N,GND*%
X155829000Y-121285000D03*
D28*
%TO.N,VCC*%
X164973000Y-98679000D03*
%TO.N,Net-(Q2-B)*%
X164846000Y-102870000D03*
%TD*%
D29*
%TO.N,Net-(D2-K)*%
X151638000Y-95806500D02*
X151638000Y-96683500D01*
X153924000Y-87122000D02*
X152339000Y-88707000D01*
X151638000Y-96683500D02*
X152908000Y-97953500D01*
X152339000Y-88707000D02*
X152339000Y-89867500D01*
X152339000Y-91628000D02*
X152339000Y-89867500D01*
X154077500Y-87122000D02*
X153924000Y-87122000D01*
X151638000Y-95806500D02*
X151638000Y-92329000D01*
X151638000Y-92329000D02*
X152339000Y-91628000D01*
D30*
%TO.N,VCC*%
X162433000Y-101981000D02*
X162687480Y-101726520D01*
X162687480Y-101726520D02*
X162687480Y-99718020D01*
X161290000Y-101981000D02*
X162433000Y-101981000D01*
X159742500Y-105433500D02*
X160655000Y-104521000D01*
X160655000Y-104521000D02*
X160655000Y-102616000D01*
X160655000Y-102616000D02*
X161290000Y-101981000D01*
X162687480Y-99718020D02*
X163599500Y-98806000D01*
X159385000Y-105433500D02*
X159742500Y-105433500D01*
%TO.N,Net-(Q4-B)*%
X158004000Y-95250000D02*
X157242480Y-94488480D01*
X154178000Y-93752500D02*
X152767000Y-93752500D01*
X152767000Y-93752500D02*
X152588000Y-93931500D01*
X154913980Y-94488480D02*
X154178000Y-93752500D01*
X154913980Y-94488480D02*
X157242480Y-94488480D01*
D29*
%TO.N,Net-(Q5-E)*%
X158054000Y-99773500D02*
X158054000Y-97623500D01*
X158054000Y-97623500D02*
X157966500Y-97536000D01*
D30*
X158054000Y-99773500D02*
X158054000Y-97877500D01*
X158054000Y-97877500D02*
X158141500Y-97790000D01*
D29*
%TO.N,Net-(Q3-C)*%
X153289000Y-88887692D02*
X153663846Y-88512846D01*
X153289000Y-91742500D02*
X153289000Y-88887692D01*
X153663846Y-88512846D02*
X155420346Y-88512846D01*
X155420346Y-88512846D02*
X155934500Y-89027000D01*
%TO.N,Net-(Q2-B)*%
X167561500Y-102042000D02*
X165674000Y-102042000D01*
X165674000Y-102042000D02*
X164846000Y-102870000D01*
D31*
%TO.N,Net-(D1-A)*%
X156972000Y-102706500D02*
X155194000Y-100928500D01*
X156972000Y-103608500D02*
X156972000Y-102706500D01*
%TO.N,Net-(D2-A)*%
X154813000Y-103608500D02*
X154813000Y-103124000D01*
X152908000Y-101219000D02*
X152908000Y-100928500D01*
X154813000Y-103124000D02*
X152908000Y-101219000D01*
D29*
%TO.N,Net-(Q2-C)*%
X165686500Y-101092000D02*
X164068000Y-101092000D01*
X164068000Y-101092000D02*
X163687000Y-100711000D01*
D32*
%TO.N,+3V0*%
X154852489Y-116413511D02*
X160990511Y-116413511D01*
X160990511Y-116413511D02*
X163830000Y-119253000D01*
X160990511Y-116413511D02*
X162496500Y-117919500D01*
X163830000Y-119253000D02*
X164988000Y-119253000D01*
X164988000Y-119253000D02*
X166792000Y-121057000D01*
X154752000Y-116313022D02*
X154852489Y-116413511D01*
D29*
X162496500Y-117919500D02*
X163830000Y-119253000D01*
D31*
X157226000Y-107291500D02*
X164757500Y-107291500D01*
D29*
X156353000Y-108077000D02*
X157226000Y-107204000D01*
X152986500Y-108077000D02*
X156353000Y-108077000D01*
D32*
X154752000Y-115109000D02*
X154752000Y-116313022D01*
D31*
X164757500Y-107291500D02*
X166919000Y-105130000D01*
D29*
%TO.N,Net-(U2-IN)*%
X154454000Y-119735000D02*
X154454000Y-118107000D01*
X154454000Y-118107000D02*
X154752000Y-117809000D01*
D32*
%TO.N,Net-(U2-~{OUT})*%
X156652000Y-113588000D02*
X157226000Y-113014000D01*
X156652000Y-115109000D02*
X156652000Y-113588000D01*
%TO.N,Net-(U2-OUT)*%
X155702000Y-113506000D02*
X155194000Y-112998000D01*
X155702000Y-115109000D02*
X155702000Y-113506000D01*
D29*
%TO.N,Net-(Q3-B)*%
X154239000Y-89867500D02*
X154239000Y-90485000D01*
X154239000Y-90485000D02*
X155099000Y-91345000D01*
X155099000Y-91345000D02*
X158115000Y-91345000D01*
%TO.N,Net-(Q5-B)*%
X160015000Y-100711000D02*
X159954000Y-100650000D01*
D30*
X159003520Y-94233520D02*
X159003520Y-98297520D01*
X159003520Y-98297520D02*
X159954000Y-99248000D01*
D29*
X159954000Y-100650000D02*
X159954000Y-103039500D01*
D30*
X158115000Y-93345000D02*
X159003520Y-94233520D01*
D29*
X161687000Y-100711000D02*
X160015000Y-100711000D01*
X159954000Y-99773500D02*
X159954000Y-100650000D01*
X159954000Y-103039500D02*
X159385000Y-103608500D01*
D30*
X159954000Y-99248000D02*
X159954000Y-99773500D01*
%TO.N,Net-(D1-K)*%
X158163500Y-101648500D02*
X157226000Y-100711000D01*
D31*
X155194000Y-95504000D02*
X155167500Y-95477500D01*
X155194000Y-97953500D02*
X155194000Y-95504000D01*
D30*
X156972000Y-96377000D02*
X156083000Y-95488000D01*
X157226000Y-98552000D02*
X156972000Y-98298000D01*
D31*
X156072500Y-95477500D02*
X156083000Y-95488000D01*
X155167500Y-95477500D02*
X156072500Y-95477500D01*
X154178000Y-95477500D02*
X155167500Y-95477500D01*
D30*
X156972000Y-98298000D02*
X156972000Y-96377000D01*
X159004000Y-101648500D02*
X158163500Y-101648500D01*
X157226000Y-100711000D02*
X157226000Y-98552000D01*
D33*
%TO.N,Net-(C2-Pad1)*%
X161152250Y-98160250D02*
X160665750Y-98160250D01*
D34*
X160041500Y-95287500D02*
X160004000Y-95250000D01*
D33*
X160665750Y-98160250D02*
X160041500Y-97536000D01*
X161774500Y-98806000D02*
X161774500Y-98782500D01*
D34*
X160041500Y-97536000D02*
X160041500Y-95287500D01*
D33*
X161774500Y-98782500D02*
X161152250Y-98160250D01*
D31*
%TO.N,Net-(C4-Pad1)*%
X158009500Y-87211500D02*
X158242000Y-86979000D01*
X158009500Y-89027000D02*
X158009500Y-87211500D01*
D30*
%TO.N,Net-(Q1-B)*%
X161774500Y-97155000D02*
X161003520Y-96384020D01*
X160274000Y-91948000D02*
X162113000Y-90109000D01*
X162113000Y-90109000D02*
X162113000Y-87660000D01*
X162113000Y-85151000D02*
X162113000Y-87660000D01*
X161671480Y-84709480D02*
X162113000Y-85151000D01*
X161003520Y-96384020D02*
X161003520Y-94530961D01*
X160274000Y-93801441D02*
X160274000Y-91948000D01*
D31*
X158242000Y-84979000D02*
X157945500Y-84979000D01*
X157945500Y-84979000D02*
X155802500Y-87122000D01*
D30*
X158511520Y-84709480D02*
X161671480Y-84709480D01*
X158242000Y-84979000D02*
X158511520Y-84709480D01*
X161003520Y-94530961D02*
X160274000Y-93801441D01*
%TO.N,Net-(Q1-C)*%
X161163000Y-90043000D02*
X161163000Y-89535000D01*
X158860520Y-92345480D02*
X161163000Y-90043000D01*
X156083000Y-93488000D02*
X157225520Y-92345480D01*
X157225520Y-92345480D02*
X158860520Y-92345480D01*
D29*
%TO.N,Net-(Q1-E)*%
X160213000Y-86024000D02*
X160528000Y-85709000D01*
X160213000Y-87660000D02*
X160213000Y-86024000D01*
%TD*%
%TA.AperFunction,Conductor*%
%TO.N,VCC*%
G36*
X164280121Y-96667002D02*
G01*
X164326614Y-96720658D01*
X164338000Y-96773000D01*
X164338000Y-98044000D01*
X165609000Y-98044000D01*
X165677121Y-98064002D01*
X165723614Y-98117658D01*
X165735000Y-98170000D01*
X165735000Y-99315000D01*
X165714998Y-99383121D01*
X165661342Y-99429614D01*
X165609000Y-99441000D01*
X163067000Y-99441000D01*
X162998879Y-99420998D01*
X162952386Y-99367342D01*
X162941000Y-99315000D01*
X162941000Y-96773000D01*
X162961002Y-96704879D01*
X163014658Y-96658386D01*
X163067000Y-96647000D01*
X164212000Y-96647000D01*
X164280121Y-96667002D01*
G37*
%TD.AperFunction*%
%TD*%
%TA.AperFunction,Conductor*%
%TO.N,Net-(Q6-B)*%
G36*
X158438121Y-108224002D02*
G01*
X158484614Y-108277658D01*
X158496000Y-108330000D01*
X158496000Y-111634000D01*
X158475998Y-111702121D01*
X158422342Y-111748614D01*
X158370000Y-111760000D01*
X154558000Y-111760000D01*
X154489879Y-111739998D01*
X154443386Y-111686342D01*
X154432000Y-111634000D01*
X154432000Y-109805986D01*
X154424683Y-109720075D01*
X154417476Y-109678073D01*
X154395738Y-109594645D01*
X154328629Y-109466570D01*
X154304794Y-109433565D01*
X154289701Y-109412665D01*
X154289698Y-109412662D01*
X154287064Y-109409014D01*
X154232524Y-109352581D01*
X154225250Y-109343396D01*
X154226403Y-109342243D01*
X154165394Y-109281234D01*
X154146036Y-109256279D01*
X154142885Y-109250951D01*
X154130342Y-109221966D01*
X154128504Y-109215640D01*
X154123500Y-109180485D01*
X154123500Y-109011500D01*
X154143502Y-108943379D01*
X154197158Y-108896886D01*
X154249500Y-108885500D01*
X156444097Y-108885500D01*
X156481743Y-108876908D01*
X156495669Y-108874541D01*
X156503193Y-108873694D01*
X156527021Y-108871009D01*
X156527024Y-108871008D01*
X156534047Y-108870217D01*
X156570497Y-108857462D01*
X156584075Y-108853551D01*
X156614822Y-108846534D01*
X156614827Y-108846532D01*
X156621720Y-108844959D01*
X156656515Y-108828203D01*
X156669566Y-108822797D01*
X156673893Y-108821283D01*
X156706015Y-108810043D01*
X156738713Y-108789498D01*
X156751074Y-108782666D01*
X156765916Y-108775518D01*
X156779494Y-108768980D01*
X156779497Y-108768978D01*
X156785870Y-108765909D01*
X156816072Y-108741823D01*
X156827578Y-108733659D01*
X156860281Y-108713111D01*
X156989111Y-108584281D01*
X157248987Y-108324404D01*
X157311299Y-108290378D01*
X157338082Y-108287499D01*
X157513212Y-108287499D01*
X157516389Y-108287174D01*
X157516398Y-108287174D01*
X157564265Y-108282284D01*
X157615381Y-108277062D01*
X157780920Y-108222209D01*
X157787169Y-108218354D01*
X157792634Y-108215806D01*
X157845886Y-108204000D01*
X158370000Y-108204000D01*
X158438121Y-108224002D01*
G37*
%TD.AperFunction*%
%TD*%
%TA.AperFunction,Conductor*%
%TO.N,+3V0*%
G36*
X153777671Y-107716002D02*
G01*
X153798645Y-107732905D01*
X153867193Y-107801453D01*
X153874017Y-107805489D01*
X153875228Y-107806428D01*
X153916793Y-107863984D01*
X153924000Y-107905986D01*
X153924000Y-108248014D01*
X153903998Y-108316135D01*
X153875228Y-108347572D01*
X153874017Y-108348511D01*
X153867193Y-108352547D01*
X153749547Y-108470193D01*
X153745511Y-108477017D01*
X153745509Y-108477020D01*
X153705560Y-108544571D01*
X153664855Y-108613399D01*
X153662644Y-108621010D01*
X153662643Y-108621012D01*
X153657900Y-108637337D01*
X153618438Y-108773169D01*
X153615500Y-108810498D01*
X153615500Y-109243502D01*
X153618438Y-109280831D01*
X153664855Y-109440601D01*
X153668892Y-109447427D01*
X153745509Y-109576980D01*
X153745511Y-109576983D01*
X153749547Y-109583807D01*
X153867193Y-109701453D01*
X153874017Y-109705489D01*
X153875228Y-109706428D01*
X153916793Y-109763984D01*
X153924000Y-109805986D01*
X153924000Y-113792000D01*
X154523566Y-113792000D01*
X154589714Y-113810759D01*
X154639080Y-113841209D01*
X154677522Y-113853947D01*
X154782132Y-113888611D01*
X154840504Y-113929025D01*
X154867760Y-113994581D01*
X154868500Y-114008216D01*
X154868500Y-115937638D01*
X154875011Y-115998201D01*
X154926111Y-116135204D01*
X155013739Y-116252261D01*
X155020950Y-116257659D01*
X155069004Y-116293632D01*
X155111551Y-116350468D01*
X155116615Y-116421283D01*
X155082590Y-116483596D01*
X155020278Y-116517621D01*
X154993495Y-116520500D01*
X154378362Y-116520500D01*
X154375015Y-116520860D01*
X154375012Y-116520860D01*
X154354705Y-116523043D01*
X154317799Y-116527011D01*
X154180796Y-116578111D01*
X154113391Y-116628570D01*
X154046871Y-116653381D01*
X153977497Y-116638290D01*
X153927295Y-116588088D01*
X153912366Y-116538735D01*
X153911578Y-116529764D01*
X153891884Y-116305733D01*
X153891717Y-116302880D01*
X153891829Y-116300233D01*
X153888588Y-116268133D01*
X153888440Y-116266559D01*
X153887183Y-116252261D01*
X153885616Y-116234429D01*
X153885009Y-116231840D01*
X153884638Y-116229001D01*
X153861337Y-115998201D01*
X153843748Y-115823969D01*
X153843219Y-115806105D01*
X153844377Y-115778188D01*
X153826710Y-115707272D01*
X153823476Y-115694251D01*
X153811380Y-115645538D01*
X153811379Y-115645534D01*
X153809208Y-115636794D01*
X153795105Y-115612668D01*
X153787206Y-115596644D01*
X153738442Y-115476976D01*
X153670159Y-115309411D01*
X153591830Y-115117192D01*
X153589753Y-115111737D01*
X153411660Y-114609274D01*
X153409982Y-114604200D01*
X153257093Y-114106805D01*
X153255772Y-114102195D01*
X153125032Y-113611015D01*
X153124019Y-113606940D01*
X153012313Y-113122917D01*
X153011572Y-113119484D01*
X152996538Y-113044779D01*
X152916371Y-112646442D01*
X152915661Y-112642612D01*
X152758538Y-111714393D01*
X152758235Y-111712514D01*
X152530203Y-110229568D01*
X152505115Y-110066419D01*
X152504314Y-110058449D01*
X152503862Y-110054677D01*
X152503647Y-110050191D01*
X152499043Y-110026337D01*
X152498227Y-110021624D01*
X152495226Y-110002110D01*
X152494542Y-109997660D01*
X152493233Y-109993357D01*
X152492378Y-109989604D01*
X152490465Y-109981889D01*
X152431533Y-109676531D01*
X152430466Y-109668857D01*
X152429840Y-109664906D01*
X152429454Y-109660414D01*
X152423949Y-109636752D01*
X152422954Y-109632076D01*
X152419199Y-109612617D01*
X152419198Y-109612614D01*
X152418346Y-109608198D01*
X152416873Y-109603946D01*
X152415845Y-109600112D01*
X152413682Y-109592618D01*
X152346781Y-109305057D01*
X152344719Y-109293960D01*
X152344251Y-109290613D01*
X152344249Y-109290605D01*
X152343626Y-109286147D01*
X152338210Y-109267432D01*
X152336522Y-109260960D01*
X152333125Y-109246359D01*
X152333122Y-109246350D01*
X152332103Y-109241969D01*
X152330469Y-109237774D01*
X152330466Y-109237764D01*
X152329238Y-109234611D01*
X152325614Y-109223911D01*
X152246288Y-108949814D01*
X152244092Y-108941063D01*
X152242190Y-108932144D01*
X152242187Y-108932135D01*
X152241250Y-108927739D01*
X152236494Y-108914824D01*
X152233699Y-108906314D01*
X152231121Y-108897405D01*
X152231117Y-108897394D01*
X152229869Y-108893082D01*
X152224258Y-108880667D01*
X152220841Y-108872322D01*
X152128685Y-108622098D01*
X152125353Y-108611676D01*
X152124229Y-108607551D01*
X152124227Y-108607544D01*
X152123047Y-108603214D01*
X152121264Y-108599098D01*
X152121260Y-108599086D01*
X152115646Y-108586124D01*
X152113032Y-108579596D01*
X152108150Y-108566343D01*
X152106596Y-108562123D01*
X152102424Y-108554406D01*
X152097646Y-108544571D01*
X152023659Y-108373756D01*
X152021527Y-108368512D01*
X152020540Y-108365917D01*
X152019244Y-108361609D01*
X152015034Y-108352547D01*
X152007430Y-108336180D01*
X152006079Y-108333171D01*
X151998700Y-108316135D01*
X151994941Y-108307456D01*
X151992583Y-108303622D01*
X151991304Y-108301167D01*
X151988790Y-108296061D01*
X151922290Y-108152931D01*
X151919867Y-108147369D01*
X151919676Y-108146899D01*
X151918280Y-108142622D01*
X151916291Y-108138588D01*
X151916287Y-108138579D01*
X151905460Y-108116624D01*
X151904198Y-108113990D01*
X151901362Y-108107885D01*
X151891993Y-108087722D01*
X151889534Y-108083951D01*
X151889296Y-108083521D01*
X151886491Y-108078162D01*
X151821803Y-107946990D01*
X151820082Y-107943247D01*
X151818945Y-107939956D01*
X151804833Y-107912536D01*
X151803861Y-107910608D01*
X151792161Y-107886883D01*
X151792158Y-107886877D01*
X151790171Y-107882849D01*
X151790680Y-107882598D01*
X151774289Y-107816761D01*
X151797106Y-107749530D01*
X151852649Y-107705309D01*
X151900180Y-107696000D01*
X153709550Y-107696000D01*
X153777671Y-107716002D01*
G37*
%TD.AperFunction*%
%TD*%
%TA.AperFunction,Conductor*%
%TO.N,VCC*%
G36*
X160089121Y-104795002D02*
G01*
X160135614Y-104848658D01*
X160147000Y-104901000D01*
X160147000Y-106257000D01*
X160126998Y-106325121D01*
X160073342Y-106371614D01*
X160021000Y-106383000D01*
X157852659Y-106383000D01*
X157794404Y-106366479D01*
X157793814Y-106367744D01*
X157787163Y-106364642D01*
X157780920Y-106360791D01*
X157773959Y-106358484D01*
X157773956Y-106358483D01*
X157621907Y-106308100D01*
X157621903Y-106308099D01*
X157615381Y-106305938D01*
X157608547Y-106305240D01*
X157608543Y-106305239D01*
X157516397Y-106295825D01*
X157516391Y-106295825D01*
X157513213Y-106295500D01*
X157226045Y-106295500D01*
X156938788Y-106295501D01*
X156935611Y-106295826D01*
X156935602Y-106295826D01*
X156887735Y-106300716D01*
X156836619Y-106305938D01*
X156671080Y-106360791D01*
X156522654Y-106452342D01*
X156399342Y-106575654D01*
X156307791Y-106724080D01*
X156300372Y-106746470D01*
X156261359Y-106864207D01*
X156252938Y-106889619D01*
X156252240Y-106896453D01*
X156252239Y-106896457D01*
X156242825Y-106988603D01*
X156242500Y-106991787D01*
X156242500Y-106994990D01*
X156242337Y-106998194D01*
X156240682Y-106998110D01*
X156222498Y-107060039D01*
X156205595Y-107081013D01*
X156055013Y-107231595D01*
X155992701Y-107265621D01*
X155965918Y-107268500D01*
X154177000Y-107268500D01*
X154108879Y-107248498D01*
X154062386Y-107194842D01*
X154051000Y-107142500D01*
X154051000Y-104901000D01*
X154071002Y-104832879D01*
X154124658Y-104786386D01*
X154177000Y-104775000D01*
X160021000Y-104775000D01*
X160089121Y-104795002D01*
G37*
%TD.AperFunction*%
%TD*%
%TA.AperFunction,Conductor*%
%TO.N,GND*%
G36*
X160567945Y-77988621D02*
G01*
X160626702Y-78028473D01*
X160653605Y-78087049D01*
X161196513Y-81214481D01*
X161202511Y-81249035D01*
X161203735Y-81259175D01*
X161203141Y-81267136D01*
X161215847Y-81326414D01*
X161216781Y-81331236D01*
X161220867Y-81354777D01*
X161222261Y-81359059D01*
X161222909Y-81361672D01*
X161224370Y-81367100D01*
X161225119Y-81369681D01*
X161226062Y-81374078D01*
X161227622Y-81378299D01*
X161227622Y-81378300D01*
X161234338Y-81396475D01*
X161235960Y-81401143D01*
X161254719Y-81458777D01*
X161255924Y-81460538D01*
X161256661Y-81464782D01*
X161258346Y-81464075D01*
X161265417Y-81480928D01*
X161267418Y-81486002D01*
X161275253Y-81507209D01*
X161277401Y-81511171D01*
X161277403Y-81511176D01*
X161277526Y-81511403D01*
X161282925Y-81522663D01*
X161284258Y-81525838D01*
X161288420Y-81537271D01*
X161290121Y-81542753D01*
X161292047Y-81546808D01*
X161292048Y-81546809D01*
X161299410Y-81562303D01*
X161301787Y-81567620D01*
X161310168Y-81587595D01*
X161312476Y-81591445D01*
X161312477Y-81591447D01*
X161313110Y-81592502D01*
X161318861Y-81603240D01*
X161319715Y-81605038D01*
X161324263Y-81615897D01*
X161326524Y-81622094D01*
X161328648Y-81626051D01*
X161328651Y-81626058D01*
X161336342Y-81640387D01*
X161339127Y-81645895D01*
X161348058Y-81664690D01*
X161351711Y-81670189D01*
X161357852Y-81680460D01*
X161358172Y-81681058D01*
X161363071Y-81691297D01*
X161365935Y-81698048D01*
X161368268Y-81701906D01*
X161368269Y-81701907D01*
X161376322Y-81715222D01*
X161379526Y-81720840D01*
X161386874Y-81734530D01*
X161389003Y-81738496D01*
X161391673Y-81742116D01*
X161391674Y-81742118D01*
X161393178Y-81744157D01*
X161405000Y-81763665D01*
X161408322Y-81770469D01*
X161419298Y-81786616D01*
X161422900Y-81792231D01*
X161433009Y-81808945D01*
X161435870Y-81812435D01*
X161435871Y-81812436D01*
X161437396Y-81814296D01*
X161450042Y-81832884D01*
X161453534Y-81839155D01*
X161456259Y-81842733D01*
X161456262Y-81842738D01*
X161465198Y-81854473D01*
X161469157Y-81859972D01*
X161470502Y-81861950D01*
X161479985Y-81875901D01*
X161483019Y-81879225D01*
X161484325Y-81880656D01*
X161497882Y-81898458D01*
X161501317Y-81903913D01*
X161513818Y-81918613D01*
X161518052Y-81923875D01*
X161526978Y-81935597D01*
X161526982Y-81935601D01*
X161529711Y-81939185D01*
X161532923Y-81942344D01*
X161533681Y-81943090D01*
X161545840Y-81957404D01*
X161545850Y-81957396D01*
X161546299Y-81957944D01*
X161548255Y-81960247D01*
X161551293Y-81964550D01*
X161554383Y-81967817D01*
X161564752Y-81978780D01*
X161569189Y-81983727D01*
X161581876Y-81998646D01*
X161585256Y-82001630D01*
X161588404Y-82004837D01*
X161588321Y-82004918D01*
X161597085Y-82014202D01*
X161597208Y-82014091D01*
X161600228Y-82017419D01*
X161603008Y-82020959D01*
X161617649Y-82034942D01*
X161622125Y-82039440D01*
X161636033Y-82054144D01*
X161639564Y-82056944D01*
X161642875Y-82059978D01*
X161642676Y-82060195D01*
X161649560Y-82066789D01*
X161649819Y-82066530D01*
X161653013Y-82069728D01*
X161655950Y-82073120D01*
X161659343Y-82076063D01*
X161671920Y-82086972D01*
X161676383Y-82091034D01*
X161688429Y-82102539D01*
X161688434Y-82102543D01*
X161691683Y-82105646D01*
X161695343Y-82108257D01*
X161698815Y-82111128D01*
X161698696Y-82111272D01*
X161704145Y-82115688D01*
X161706545Y-82117886D01*
X161709639Y-82121157D01*
X161713171Y-82123957D01*
X161727125Y-82135019D01*
X161731414Y-82138576D01*
X161744872Y-82150250D01*
X161744877Y-82150253D01*
X161748276Y-82153202D01*
X161752065Y-82155640D01*
X161754795Y-82157685D01*
X161760426Y-82162169D01*
X161763590Y-82165258D01*
X161781222Y-82178127D01*
X161782747Y-82179240D01*
X161786738Y-82182276D01*
X161805317Y-82197004D01*
X161809199Y-82199266D01*
X161809591Y-82199533D01*
X161814809Y-82203361D01*
X161817399Y-82205718D01*
X161821123Y-82208241D01*
X161821130Y-82208247D01*
X161838314Y-82219891D01*
X161841913Y-82222422D01*
X161862314Y-82237312D01*
X161865415Y-82238957D01*
X161870506Y-82242380D01*
X161872399Y-82243745D01*
X161875852Y-82246632D01*
X161895417Y-82258719D01*
X161899831Y-82261576D01*
X161918870Y-82274478D01*
X161922917Y-82276447D01*
X161923111Y-82276559D01*
X161933918Y-82282506D01*
X161950500Y-82292750D01*
X161967633Y-82303335D01*
X161977477Y-82310081D01*
X161978884Y-82311147D01*
X161978891Y-82311151D01*
X161982467Y-82313860D01*
X161986400Y-82316036D01*
X161986401Y-82316037D01*
X162000934Y-82324079D01*
X162006158Y-82327136D01*
X162020298Y-82335872D01*
X162020303Y-82335874D01*
X162024130Y-82338239D01*
X162028252Y-82340034D01*
X162028261Y-82340038D01*
X162029874Y-82340740D01*
X162040590Y-82346022D01*
X162399888Y-82544845D01*
X162403844Y-82547129D01*
X162448117Y-82573788D01*
X162497419Y-82603476D01*
X162500428Y-82605346D01*
X162544533Y-82633624D01*
X162546751Y-82635080D01*
X162593536Y-82666526D01*
X162595913Y-82668165D01*
X162643214Y-82701583D01*
X162645727Y-82703405D01*
X162693838Y-82739204D01*
X162696406Y-82741167D01*
X162745457Y-82779659D01*
X162748002Y-82781710D01*
X162783440Y-82811060D01*
X162791587Y-82818431D01*
X162970148Y-82994765D01*
X162988971Y-83013353D01*
X162990008Y-83014390D01*
X163141563Y-83167599D01*
X163171845Y-83198212D01*
X163173544Y-83199963D01*
X163324171Y-83358250D01*
X163326679Y-83360964D01*
X163447782Y-83495941D01*
X163448556Y-83496804D01*
X163451949Y-83500746D01*
X163548520Y-83617756D01*
X163552696Y-83623103D01*
X163631547Y-83729866D01*
X163634987Y-83734763D01*
X163663929Y-83778116D01*
X163666246Y-83781718D01*
X163694855Y-83827898D01*
X163697065Y-83831607D01*
X163723431Y-83877669D01*
X163725489Y-83881412D01*
X163748002Y-83924097D01*
X163750721Y-83929572D01*
X163794859Y-84024189D01*
X163800720Y-84036752D01*
X163803508Y-84043193D01*
X163844172Y-84144783D01*
X163851310Y-84162617D01*
X163853137Y-84167467D01*
X163903752Y-84310734D01*
X163904803Y-84313837D01*
X163960269Y-84484868D01*
X163960823Y-84486619D01*
X164085934Y-84892467D01*
X164086052Y-84892900D01*
X164086136Y-84893427D01*
X164096800Y-84927715D01*
X164107254Y-84961626D01*
X164107478Y-84962100D01*
X164107624Y-84962519D01*
X164170578Y-85164926D01*
X164171029Y-85166556D01*
X164171319Y-85168276D01*
X164181657Y-85200558D01*
X164181870Y-85201233D01*
X164191910Y-85233514D01*
X164192657Y-85235082D01*
X164193223Y-85236675D01*
X164277593Y-85500141D01*
X164279001Y-85504848D01*
X164285412Y-85527937D01*
X164287224Y-85532063D01*
X164288208Y-85534826D01*
X164290009Y-85539585D01*
X164291079Y-85542255D01*
X164292450Y-85546535D01*
X164302952Y-85568127D01*
X164305012Y-85572583D01*
X164305476Y-85573641D01*
X164307756Y-85579715D01*
X164307818Y-85579691D01*
X164309472Y-85583876D01*
X164310822Y-85588165D01*
X164312767Y-85592216D01*
X164312768Y-85592217D01*
X164321873Y-85611174D01*
X164323664Y-85615072D01*
X164333924Y-85638443D01*
X164336306Y-85642272D01*
X164336956Y-85643505D01*
X164340470Y-85650882D01*
X164341564Y-85654048D01*
X164354182Y-85678551D01*
X164355735Y-85681672D01*
X164367650Y-85706480D01*
X164370164Y-85710229D01*
X164371069Y-85711813D01*
X164376232Y-85721869D01*
X164377809Y-85726085D01*
X164379972Y-85730036D01*
X164379974Y-85730041D01*
X164391395Y-85750905D01*
X164392891Y-85753722D01*
X164403805Y-85774917D01*
X164405865Y-85778917D01*
X164408472Y-85782583D01*
X164409537Y-85784331D01*
X164412448Y-85789369D01*
X164414404Y-85792943D01*
X164417098Y-85798150D01*
X164417830Y-85799649D01*
X164419510Y-85803821D01*
X164421765Y-85807708D01*
X164433789Y-85828439D01*
X164435310Y-85831138D01*
X164449002Y-85856152D01*
X164451690Y-85859736D01*
X164452613Y-85861169D01*
X164455666Y-85866160D01*
X164460925Y-85875225D01*
X164463712Y-85880294D01*
X164464764Y-85882315D01*
X164466548Y-85886439D01*
X164468900Y-85890265D01*
X164468901Y-85890267D01*
X164481340Y-85910501D01*
X164482990Y-85913265D01*
X164497147Y-85937673D01*
X164499937Y-85941205D01*
X164501207Y-85943074D01*
X164504342Y-85947921D01*
X164512301Y-85960868D01*
X164515101Y-85965657D01*
X164516913Y-85968918D01*
X164518810Y-85972993D01*
X164521268Y-85976756D01*
X164521271Y-85976762D01*
X164533926Y-85996138D01*
X164535753Y-85999019D01*
X164550260Y-86022619D01*
X164553134Y-86026073D01*
X164555303Y-86029094D01*
X164558443Y-86033677D01*
X164568866Y-86049638D01*
X164571745Y-86054637D01*
X164571874Y-86054560D01*
X164574185Y-86058439D01*
X164576201Y-86062448D01*
X164591542Y-86084460D01*
X164593620Y-86087539D01*
X164608283Y-86109991D01*
X164611259Y-86113375D01*
X164613977Y-86116951D01*
X164613856Y-86117043D01*
X164617417Y-86121587D01*
X164630648Y-86140570D01*
X164634074Y-86146105D01*
X164634134Y-86146066D01*
X164636565Y-86149848D01*
X164638722Y-86153799D01*
X164654079Y-86174313D01*
X164656540Y-86177720D01*
X164671175Y-86198719D01*
X164674246Y-86202006D01*
X164677081Y-86205511D01*
X164677026Y-86205555D01*
X164681202Y-86210543D01*
X164697436Y-86232227D01*
X164697470Y-86232273D01*
X164702503Y-86239779D01*
X164704183Y-86242182D01*
X164706493Y-86246046D01*
X164711414Y-86252111D01*
X164721599Y-86264665D01*
X164724618Y-86268538D01*
X164736285Y-86284123D01*
X164736290Y-86284129D01*
X164738986Y-86287730D01*
X164742170Y-86290914D01*
X164744119Y-86293163D01*
X164750125Y-86299825D01*
X164769565Y-86323785D01*
X164776804Y-86333654D01*
X164779833Y-86338233D01*
X164782822Y-86341591D01*
X164782825Y-86341596D01*
X164794389Y-86354591D01*
X164798106Y-86358965D01*
X164811885Y-86375948D01*
X164815920Y-86379680D01*
X164824475Y-86388400D01*
X164847417Y-86414182D01*
X164854448Y-86422827D01*
X164856668Y-86425818D01*
X164856675Y-86425826D01*
X164859357Y-86429439D01*
X164868600Y-86438756D01*
X164872843Y-86443034D01*
X164877509Y-86447999D01*
X164890247Y-86462313D01*
X164893695Y-86465222D01*
X164893698Y-86465225D01*
X164896537Y-86467621D01*
X164904733Y-86475181D01*
X164931891Y-86502557D01*
X164938474Y-86509727D01*
X164943220Y-86515315D01*
X164943227Y-86515322D01*
X164946135Y-86518746D01*
X164957806Y-86529063D01*
X164963783Y-86534706D01*
X164974742Y-86545753D01*
X164984184Y-86552881D01*
X164991711Y-86559033D01*
X165019210Y-86583340D01*
X165026874Y-86590714D01*
X165033468Y-86597617D01*
X165047490Y-86608623D01*
X165053130Y-86613323D01*
X165066494Y-86625136D01*
X165070253Y-86627605D01*
X165073832Y-86630339D01*
X165073808Y-86630371D01*
X165079847Y-86634836D01*
X165080877Y-86635690D01*
X165084121Y-86638796D01*
X165087774Y-86641408D01*
X165087777Y-86641411D01*
X165102170Y-86651704D01*
X165106669Y-86655076D01*
X165124101Y-86668759D01*
X165127711Y-86670839D01*
X165131863Y-86673792D01*
X165134411Y-86675698D01*
X165137812Y-86678644D01*
X165155101Y-86689749D01*
X165160262Y-86693249D01*
X165176979Y-86705205D01*
X165180977Y-86707276D01*
X165183021Y-86708528D01*
X165187608Y-86711692D01*
X165187674Y-86711593D01*
X165191430Y-86714090D01*
X165194986Y-86716838D01*
X165211229Y-86726035D01*
X165217229Y-86729658D01*
X165232931Y-86739744D01*
X165237014Y-86741608D01*
X165240977Y-86743771D01*
X165240853Y-86743999D01*
X165248451Y-86748268D01*
X165248516Y-86748155D01*
X165252403Y-86750403D01*
X165256132Y-86752930D01*
X165260181Y-86754900D01*
X165260184Y-86754902D01*
X165271023Y-86760176D01*
X165277980Y-86763834D01*
X165288460Y-86769768D01*
X165288465Y-86769770D01*
X165292378Y-86771986D01*
X165296566Y-86773622D01*
X165296574Y-86773626D01*
X165297779Y-86774097D01*
X165315163Y-86782477D01*
X165317869Y-86784047D01*
X165317880Y-86784052D01*
X165321768Y-86786309D01*
X165334959Y-86791625D01*
X165342981Y-86795189D01*
X165351708Y-86799435D01*
X165352148Y-86799649D01*
X165352155Y-86799653D01*
X165355760Y-86801407D01*
X165355645Y-86801644D01*
X165381808Y-86816567D01*
X165389414Y-86822413D01*
X165394496Y-86826534D01*
X165430188Y-86857041D01*
X165434153Y-86860577D01*
X165478510Y-86901850D01*
X165481932Y-86905156D01*
X165499863Y-86923150D01*
X165531108Y-86954506D01*
X165534278Y-86957806D01*
X165576649Y-87003542D01*
X165585551Y-87013151D01*
X165588673Y-87016650D01*
X165639561Y-87075854D01*
X165642755Y-87079723D01*
X165691155Y-87140792D01*
X165694522Y-87145239D01*
X165738364Y-87205889D01*
X165741983Y-87211173D01*
X165782103Y-87273072D01*
X165784972Y-87277717D01*
X165798539Y-87300804D01*
X165800531Y-87304325D01*
X165808406Y-87318796D01*
X165823397Y-87388190D01*
X165812805Y-87430342D01*
X165805248Y-87447286D01*
X165804920Y-87448022D01*
X165801201Y-87455311D01*
X165799607Y-87458589D01*
X165797356Y-87462483D01*
X165788344Y-87484963D01*
X165786492Y-87489340D01*
X165776609Y-87511499D01*
X165775377Y-87515838D01*
X165774122Y-87519296D01*
X165771489Y-87527007D01*
X165702184Y-87699886D01*
X165699866Y-87705667D01*
X165697198Y-87711389D01*
X165697283Y-87711427D01*
X165695450Y-87715534D01*
X165693325Y-87719507D01*
X165684476Y-87743874D01*
X165683003Y-87747730D01*
X165673367Y-87771766D01*
X165672302Y-87776146D01*
X165670933Y-87780421D01*
X165670844Y-87780393D01*
X165669023Y-87786421D01*
X165608033Y-87954357D01*
X165605967Y-87959667D01*
X165604909Y-87962213D01*
X165602893Y-87966233D01*
X165601470Y-87970495D01*
X165601467Y-87970503D01*
X165594021Y-87992811D01*
X165592951Y-87995885D01*
X165583365Y-88022280D01*
X165582445Y-88026689D01*
X165581687Y-88029357D01*
X165580006Y-88034796D01*
X165526641Y-88194669D01*
X165524722Y-88199974D01*
X165522898Y-88203812D01*
X165521568Y-88208098D01*
X165514115Y-88232114D01*
X165513293Y-88234664D01*
X165503934Y-88262702D01*
X165503173Y-88266898D01*
X165501648Y-88272286D01*
X165251452Y-89078493D01*
X165250217Y-89082262D01*
X165188335Y-89261523D01*
X165186801Y-89265725D01*
X165120978Y-89436494D01*
X165118734Y-89441934D01*
X165047831Y-89603033D01*
X165044764Y-89609496D01*
X164966661Y-89762724D01*
X164962703Y-89769903D01*
X164874940Y-89917494D01*
X164870106Y-89925003D01*
X164769799Y-90069331D01*
X164764206Y-90076776D01*
X164647945Y-90220171D01*
X164641803Y-90227198D01*
X164502439Y-90375196D01*
X164497421Y-90380231D01*
X164487321Y-90389812D01*
X164487317Y-90389816D01*
X164484045Y-90392920D01*
X164481251Y-90396454D01*
X164478494Y-90399941D01*
X164471390Y-90408169D01*
X164465260Y-90414679D01*
X164454651Y-90429776D01*
X164450415Y-90435456D01*
X164398293Y-90501381D01*
X164389145Y-90512951D01*
X164382803Y-90520364D01*
X164374727Y-90529094D01*
X164315993Y-90592586D01*
X164310051Y-90598592D01*
X164231588Y-90672757D01*
X164226187Y-90677576D01*
X164141572Y-90748816D01*
X164134725Y-90754188D01*
X163918937Y-90911708D01*
X163911940Y-90916461D01*
X163673830Y-91066768D01*
X163668130Y-91070160D01*
X163018590Y-91433666D01*
X162601479Y-91667096D01*
X162592246Y-91671775D01*
X162587015Y-91674162D01*
X162582908Y-91676036D01*
X162568512Y-91685281D01*
X162561977Y-91689202D01*
X162550963Y-91695366D01*
X162550960Y-91695368D01*
X162547036Y-91697564D01*
X162543464Y-91700296D01*
X162543463Y-91700297D01*
X162538873Y-91703808D01*
X162530399Y-91709755D01*
X162329573Y-91838718D01*
X162323321Y-91842482D01*
X162311577Y-91849096D01*
X162311569Y-91849101D01*
X162307656Y-91851305D01*
X162300174Y-91857060D01*
X162291457Y-91863196D01*
X162283527Y-91868288D01*
X162280129Y-91871230D01*
X162280124Y-91871234D01*
X162269959Y-91880036D01*
X162264307Y-91884651D01*
X162085157Y-92022462D01*
X162080276Y-92026033D01*
X162066650Y-92035510D01*
X162066644Y-92035515D01*
X162062947Y-92038086D01*
X162058368Y-92042356D01*
X162058356Y-92042367D01*
X162049252Y-92050083D01*
X162044280Y-92053908D01*
X162041144Y-92057128D01*
X162041141Y-92057130D01*
X162029564Y-92069015D01*
X162025236Y-92073249D01*
X161962086Y-92132133D01*
X161956492Y-92137049D01*
X161946410Y-92145392D01*
X161946404Y-92145398D01*
X161942943Y-92148262D01*
X161939916Y-92151599D01*
X161939912Y-92151603D01*
X161936358Y-92155521D01*
X161928959Y-92163023D01*
X161925093Y-92166628D01*
X161925088Y-92166633D01*
X161921794Y-92169705D01*
X161918739Y-92173502D01*
X161910780Y-92183394D01*
X161905942Y-92189057D01*
X161858404Y-92241470D01*
X161850441Y-92250249D01*
X161846994Y-92253900D01*
X161830422Y-92270758D01*
X161827759Y-92274380D01*
X161826531Y-92275822D01*
X161821706Y-92281724D01*
X161820510Y-92283248D01*
X161817486Y-92286582D01*
X161814968Y-92290311D01*
X161814961Y-92290320D01*
X161804278Y-92306142D01*
X161801369Y-92310270D01*
X161750467Y-92379501D01*
X161748285Y-92382468D01*
X161746878Y-92384343D01*
X161728475Y-92408394D01*
X161726405Y-92412091D01*
X161725702Y-92413183D01*
X161723190Y-92416599D01*
X161721073Y-92420556D01*
X161721072Y-92420558D01*
X161708899Y-92443315D01*
X161707744Y-92445424D01*
X161705331Y-92449736D01*
X161695662Y-92467006D01*
X161695505Y-92467245D01*
X161695260Y-92467486D01*
X161659916Y-92530857D01*
X161642331Y-92562268D01*
X161642184Y-92562651D01*
X161641986Y-92563005D01*
X161630261Y-92593601D01*
X161629315Y-92596069D01*
X161629242Y-92596258D01*
X161618193Y-92624951D01*
X161616790Y-92628018D01*
X161614536Y-92631091D01*
X161611469Y-92639561D01*
X161591659Y-92694271D01*
X161590841Y-92696465D01*
X161581566Y-92720666D01*
X161581564Y-92720673D01*
X161579957Y-92724866D01*
X161579009Y-92729043D01*
X161578759Y-92729895D01*
X161577299Y-92733928D01*
X161576385Y-92738331D01*
X161576385Y-92738332D01*
X161571117Y-92763718D01*
X161570621Y-92766000D01*
X161561650Y-92805529D01*
X161559219Y-92804977D01*
X161558982Y-92808991D01*
X161559846Y-92809146D01*
X161556155Y-92829743D01*
X161554318Y-92829414D01*
X161553528Y-92831475D01*
X161555773Y-92831877D01*
X161548487Y-92872542D01*
X161547833Y-92875923D01*
X161543647Y-92896096D01*
X161542215Y-92902994D01*
X161541938Y-92907480D01*
X161541613Y-92909901D01*
X161541351Y-92912369D01*
X161540556Y-92916803D01*
X161540401Y-92921305D01*
X161539601Y-92944466D01*
X161539435Y-92947901D01*
X161536603Y-92993655D01*
X161534723Y-92993539D01*
X161534797Y-92994232D01*
X161535287Y-92994192D01*
X161535356Y-92995043D01*
X161536174Y-92995050D01*
X161536145Y-92998239D01*
X161535984Y-93002789D01*
X161536014Y-93003165D01*
X161535961Y-93003419D01*
X161535917Y-93004658D01*
X161535920Y-93004690D01*
X161535460Y-93012127D01*
X161535458Y-93012164D01*
X161534858Y-93012127D01*
X161534727Y-93012980D01*
X161533999Y-93012868D01*
X161533663Y-93014485D01*
X161535993Y-93014507D01*
X161535993Y-93014508D01*
X161535686Y-93047601D01*
X161535569Y-93060141D01*
X161535500Y-93063278D01*
X161534522Y-93091616D01*
X161535007Y-93096079D01*
X161535078Y-93097993D01*
X161535199Y-93099938D01*
X161535157Y-93104435D01*
X161535756Y-93108895D01*
X161538927Y-93132512D01*
X161539310Y-93135662D01*
X161546343Y-93200347D01*
X161545017Y-93200491D01*
X161544875Y-93204613D01*
X161547929Y-93204162D01*
X161554667Y-93249782D01*
X161554898Y-93251421D01*
X161559178Y-93283290D01*
X161560092Y-93286514D01*
X161560582Y-93289830D01*
X161561864Y-93294136D01*
X161561867Y-93294148D01*
X161569766Y-93320670D01*
X161570229Y-93322263D01*
X161585265Y-93375290D01*
X161589014Y-93388513D01*
X161590493Y-93390861D01*
X161591399Y-93393312D01*
X161603806Y-93434974D01*
X161603940Y-93435430D01*
X161613712Y-93468870D01*
X161614257Y-93470068D01*
X161614631Y-93471323D01*
X161616342Y-93475031D01*
X161629149Y-93502793D01*
X161629418Y-93503381D01*
X161678775Y-93611830D01*
X161680061Y-93614753D01*
X161689378Y-93636683D01*
X161689382Y-93636691D01*
X161691139Y-93640826D01*
X161693473Y-93644679D01*
X161694356Y-93646404D01*
X161695302Y-93648143D01*
X161697167Y-93652240D01*
X161699594Y-93656028D01*
X161699596Y-93656031D01*
X161712426Y-93676052D01*
X161714114Y-93678761D01*
X161777143Y-93782831D01*
X161779939Y-93787688D01*
X161790590Y-93807181D01*
X161793278Y-93810770D01*
X161793283Y-93810778D01*
X161793675Y-93811301D01*
X161800594Y-93821552D01*
X161803267Y-93825965D01*
X161806116Y-93829435D01*
X161806117Y-93829437D01*
X161817382Y-93843159D01*
X161820844Y-93847573D01*
X161868133Y-93910710D01*
X161875149Y-93922534D01*
X161875264Y-93922460D01*
X161880133Y-93930039D01*
X161883877Y-93938239D01*
X161889779Y-93945052D01*
X161916950Y-93976417D01*
X161922564Y-93983383D01*
X161928145Y-93990834D01*
X161930850Y-93994445D01*
X161934037Y-93997630D01*
X161940449Y-94004039D01*
X161946611Y-94010657D01*
X161955489Y-94020905D01*
X161958879Y-94023843D01*
X161965930Y-94029954D01*
X161972475Y-94036047D01*
X162008208Y-94071761D01*
X162016115Y-94076076D01*
X162023334Y-94081477D01*
X162023253Y-94081585D01*
X162034547Y-94089426D01*
X162157865Y-94196309D01*
X162163703Y-94201702D01*
X162172105Y-94209970D01*
X162172110Y-94209975D01*
X162175312Y-94213125D01*
X162178932Y-94215790D01*
X162178937Y-94215794D01*
X162184258Y-94219711D01*
X162192084Y-94225967D01*
X162200466Y-94233232D01*
X162214184Y-94242050D01*
X162220711Y-94246543D01*
X162375056Y-94360160D01*
X162453523Y-94417921D01*
X162462752Y-94425412D01*
X162467521Y-94429670D01*
X162471272Y-94432160D01*
X162471279Y-94432166D01*
X162485006Y-94441280D01*
X162490004Y-94444775D01*
X162506900Y-94457213D01*
X162512529Y-94460228D01*
X162522734Y-94466330D01*
X162783916Y-94639752D01*
X163224161Y-94932070D01*
X163226442Y-94933683D01*
X163228415Y-94935400D01*
X163232191Y-94937839D01*
X163232193Y-94937840D01*
X163255518Y-94952903D01*
X163256861Y-94953782D01*
X163283798Y-94971668D01*
X163286158Y-94972788D01*
X163288556Y-94974239D01*
X164609354Y-95827212D01*
X165246987Y-96238996D01*
X165327183Y-96290787D01*
X165329482Y-96292308D01*
X165897358Y-96676912D01*
X165899147Y-96678147D01*
X166471148Y-97080617D01*
X166473411Y-97082247D01*
X166627235Y-97195789D01*
X167037233Y-97498421D01*
X167040076Y-97500583D01*
X167585568Y-97927635D01*
X167589007Y-97930426D01*
X168105830Y-98365173D01*
X168109959Y-98368803D01*
X168587799Y-98807749D01*
X168592729Y-98812532D01*
X169024178Y-99254570D01*
X169025347Y-99255768D01*
X169029581Y-99260327D01*
X169218955Y-99474701D01*
X169222080Y-99478380D01*
X169402361Y-99699101D01*
X169404227Y-99701443D01*
X169713814Y-100100076D01*
X169953150Y-100408253D01*
X169954924Y-100410592D01*
X170451127Y-101081577D01*
X170453083Y-101084299D01*
X170900238Y-101724332D01*
X170902367Y-101727479D01*
X170971517Y-101833102D01*
X171271829Y-102291815D01*
X171305256Y-102342874D01*
X171307470Y-102346382D01*
X171431403Y-102550014D01*
X171670842Y-102943435D01*
X171673068Y-102947239D01*
X172001866Y-103532657D01*
X172004016Y-103536653D01*
X172174782Y-103868115D01*
X172294953Y-104101369D01*
X172303057Y-104117100D01*
X172305052Y-104121148D01*
X172579144Y-104703494D01*
X172580917Y-104707436D01*
X172834801Y-105298668D01*
X172836312Y-105302347D01*
X173064193Y-105882912D01*
X173074533Y-105909256D01*
X173075763Y-105912520D01*
X173241075Y-106370777D01*
X173302836Y-106541984D01*
X173303803Y-106544769D01*
X173522330Y-107198058D01*
X173523305Y-107200974D01*
X173524294Y-107204061D01*
X173617652Y-107509129D01*
X173962569Y-108636230D01*
X173963252Y-108638544D01*
X174415043Y-110222657D01*
X174418186Y-110236653D01*
X174422578Y-110263211D01*
X174572956Y-111172436D01*
X174574020Y-111180461D01*
X174666137Y-112101797D01*
X174666643Y-112108865D01*
X174705115Y-112994665D01*
X174705233Y-113000716D01*
X174701329Y-113843093D01*
X174701207Y-113848068D01*
X174678545Y-114361244D01*
X174666480Y-114634469D01*
X174666281Y-114638967D01*
X174666057Y-114642755D01*
X174638886Y-115007459D01*
X174611576Y-115374035D01*
X174611338Y-115376810D01*
X174492857Y-116601168D01*
X174492540Y-116603662D01*
X174492001Y-116605992D01*
X174491621Y-116610460D01*
X174491620Y-116610466D01*
X174489231Y-116638559D01*
X174489098Y-116640016D01*
X174485957Y-116672478D01*
X174486068Y-116674871D01*
X174485930Y-116677370D01*
X174448718Y-117114928D01*
X174447180Y-117126564D01*
X174445981Y-117133227D01*
X174445823Y-117137716D01*
X174445822Y-117137722D01*
X174445254Y-117153835D01*
X174444880Y-117160060D01*
X174443133Y-117180600D01*
X174443393Y-117185085D01*
X174443393Y-117185101D01*
X174443524Y-117187350D01*
X174443658Y-117199088D01*
X174430721Y-117565926D01*
X174430674Y-117567245D01*
X174430566Y-117569639D01*
X174428918Y-117599840D01*
X174429291Y-117604061D01*
X174429327Y-117605422D01*
X174429178Y-117609655D01*
X174431982Y-117635624D01*
X174432426Y-117639741D01*
X174432661Y-117642135D01*
X174452177Y-117862655D01*
X174451895Y-117874901D01*
X174452361Y-117874897D01*
X174452440Y-117883912D01*
X174451235Y-117892840D01*
X174455414Y-117920217D01*
X174459233Y-117945236D01*
X174460185Y-117953139D01*
X174461621Y-117969363D01*
X174462652Y-117973745D01*
X174462652Y-117973746D01*
X174464160Y-117980156D01*
X174466063Y-117989986D01*
X174467058Y-117996502D01*
X174467060Y-117996509D01*
X174467739Y-118000959D01*
X174469045Y-118005269D01*
X174469046Y-118005272D01*
X174472466Y-118016555D01*
X174474527Y-118024219D01*
X174486669Y-118075828D01*
X174491122Y-118083664D01*
X174491972Y-118085832D01*
X174499736Y-118116496D01*
X174500141Y-118119797D01*
X174500143Y-118119804D01*
X174501240Y-118128744D01*
X174515931Y-118162758D01*
X174517861Y-118168040D01*
X174518022Y-118167978D01*
X174519634Y-118172188D01*
X174520937Y-118176488D01*
X174522837Y-118180554D01*
X174522842Y-118180568D01*
X174532369Y-118200959D01*
X174533884Y-118204329D01*
X174542822Y-118225023D01*
X174542828Y-118225035D01*
X174544606Y-118229151D01*
X174546955Y-118232978D01*
X174549032Y-118236976D01*
X174548883Y-118237054D01*
X174551551Y-118242013D01*
X174553439Y-118246053D01*
X174567233Y-118275577D01*
X174573192Y-118282335D01*
X174579353Y-118289322D01*
X174592231Y-118306742D01*
X174604911Y-118327400D01*
X174607021Y-118330968D01*
X174637975Y-118385352D01*
X174644459Y-118391611D01*
X174665476Y-118411900D01*
X174674871Y-118422021D01*
X174699299Y-118451419D01*
X174748857Y-118484738D01*
X174757615Y-118491604D01*
X174760984Y-118495686D01*
X174768445Y-118500738D01*
X174768447Y-118500740D01*
X174813642Y-118531343D01*
X174816710Y-118533487D01*
X174838548Y-118549241D01*
X174842538Y-118551329D01*
X174846364Y-118553693D01*
X174846279Y-118553830D01*
X174851178Y-118556759D01*
X174872400Y-118571129D01*
X174881941Y-118577590D01*
X174899286Y-118583139D01*
X174919312Y-118591509D01*
X174919991Y-118591864D01*
X174927469Y-118595778D01*
X174927471Y-118595779D01*
X174935451Y-118599955D01*
X174944286Y-118601714D01*
X174944288Y-118601715D01*
X174961249Y-118605092D01*
X174971900Y-118607213D01*
X174977413Y-118608641D01*
X174977452Y-118608481D01*
X174981821Y-118609542D01*
X174986112Y-118610915D01*
X174990550Y-118611662D01*
X174990553Y-118611663D01*
X175012624Y-118615379D01*
X175016310Y-118616056D01*
X175078717Y-118628483D01*
X175081992Y-118628191D01*
X175096066Y-118630254D01*
X175138417Y-118640503D01*
X175188505Y-118638089D01*
X175197587Y-118637979D01*
X175212326Y-118638333D01*
X175238731Y-118638968D01*
X175238734Y-118638968D01*
X175247736Y-118639184D01*
X175296661Y-118626086D01*
X175305329Y-118624091D01*
X175319553Y-118621341D01*
X175342488Y-118619291D01*
X175344323Y-118619051D01*
X175353336Y-118619165D01*
X175370723Y-118614298D01*
X175398635Y-118606485D01*
X175408676Y-118604113D01*
X175418822Y-118602151D01*
X175423073Y-118600677D01*
X175423081Y-118600675D01*
X175434943Y-118596562D01*
X175442238Y-118594279D01*
X175458658Y-118589682D01*
X175468112Y-118585508D01*
X175477699Y-118581737D01*
X175522158Y-118566322D01*
X175529497Y-118561090D01*
X175537507Y-118556955D01*
X175537693Y-118557316D01*
X175559951Y-118546074D01*
X175566770Y-118544880D01*
X175620009Y-118518576D01*
X175624900Y-118516290D01*
X175641527Y-118508950D01*
X175645643Y-118507133D01*
X175649636Y-118504638D01*
X175660613Y-118498516D01*
X175664827Y-118496434D01*
X175683494Y-118483617D01*
X175688037Y-118480640D01*
X175730752Y-118453946D01*
X175738393Y-118449171D01*
X175744187Y-118442653D01*
X175753504Y-118435547D01*
X175997730Y-118267861D01*
X176000194Y-118266212D01*
X176020626Y-118252880D01*
X176020632Y-118252875D01*
X176024395Y-118250420D01*
X176027774Y-118247451D01*
X176028350Y-118247013D01*
X176028948Y-118246581D01*
X176029013Y-118246530D01*
X176029583Y-118246053D01*
X176030149Y-118245601D01*
X176033863Y-118243052D01*
X176055095Y-118223490D01*
X176057302Y-118221504D01*
X176455749Y-117871386D01*
X176458141Y-117869337D01*
X176797951Y-117585479D01*
X177155001Y-117287220D01*
X177165043Y-117279650D01*
X177165172Y-117279562D01*
X177165174Y-117279560D01*
X177168901Y-117277032D01*
X177185703Y-117261724D01*
X177189766Y-117258180D01*
X177203740Y-117246507D01*
X177203743Y-117246504D01*
X177207198Y-117243618D01*
X177210319Y-117240145D01*
X177219173Y-117231231D01*
X177506004Y-116969911D01*
X177510504Y-116966253D01*
X177510407Y-116966137D01*
X177513855Y-116963246D01*
X177517504Y-116960606D01*
X177536770Y-116941958D01*
X177539509Y-116939386D01*
X177555949Y-116924408D01*
X177559275Y-116921378D01*
X177562135Y-116917906D01*
X177565236Y-116914648D01*
X177565344Y-116914750D01*
X177569271Y-116910500D01*
X177837326Y-116651030D01*
X177841886Y-116647084D01*
X177841803Y-116646991D01*
X177845157Y-116643995D01*
X177848721Y-116641241D01*
X177867085Y-116622310D01*
X177869870Y-116619529D01*
X177885574Y-116604327D01*
X177888810Y-116601195D01*
X177891565Y-116597637D01*
X177894568Y-116594284D01*
X177894659Y-116594366D01*
X177898618Y-116589803D01*
X178082853Y-116399876D01*
X178151539Y-116329068D01*
X178156145Y-116324816D01*
X178156078Y-116324746D01*
X178159340Y-116321634D01*
X178162799Y-116318776D01*
X178165811Y-116315461D01*
X178165819Y-116315453D01*
X178180271Y-116299545D01*
X178183088Y-116296545D01*
X178198021Y-116281150D01*
X178201159Y-116277915D01*
X178203803Y-116274269D01*
X178206696Y-116270826D01*
X178206770Y-116270888D01*
X178210722Y-116266027D01*
X178448888Y-116003868D01*
X178453502Y-115999314D01*
X178453450Y-115999263D01*
X178456597Y-115996050D01*
X178459973Y-115993063D01*
X178476554Y-115973522D01*
X178479345Y-115970344D01*
X178493538Y-115954721D01*
X178496565Y-115951389D01*
X178499086Y-115947661D01*
X178501867Y-115944123D01*
X178501924Y-115944168D01*
X178505849Y-115938996D01*
X178562571Y-115872147D01*
X178729609Y-115675285D01*
X178734210Y-115670421D01*
X178734173Y-115670387D01*
X178737209Y-115667063D01*
X178740472Y-115663966D01*
X178743264Y-115660433D01*
X178756131Y-115644149D01*
X178758917Y-115640747D01*
X178772351Y-115624914D01*
X178772356Y-115624907D01*
X178775264Y-115621480D01*
X178777657Y-115617670D01*
X178780314Y-115614043D01*
X178780355Y-115614073D01*
X178784209Y-115608613D01*
X178993933Y-115343185D01*
X178998481Y-115338021D01*
X178998458Y-115338001D01*
X179001368Y-115334575D01*
X179004521Y-115331360D01*
X179019303Y-115311204D01*
X179022002Y-115307660D01*
X179037488Y-115288061D01*
X179039748Y-115284168D01*
X179042279Y-115280446D01*
X179042304Y-115280463D01*
X179046071Y-115274706D01*
X179242073Y-115007459D01*
X179246535Y-115002006D01*
X179246524Y-115001998D01*
X179249305Y-114998469D01*
X179252338Y-114995140D01*
X179266197Y-114974710D01*
X179268865Y-114970928D01*
X179280802Y-114954652D01*
X179280804Y-114954649D01*
X179283461Y-114951026D01*
X179285576Y-114947060D01*
X179287975Y-114943246D01*
X179287986Y-114943253D01*
X179291624Y-114937226D01*
X179474249Y-114668007D01*
X179478597Y-114662271D01*
X179481234Y-114658654D01*
X179484142Y-114655212D01*
X179486527Y-114651396D01*
X179486532Y-114651389D01*
X179497107Y-114634469D01*
X179499682Y-114630515D01*
X179510882Y-114614005D01*
X179510886Y-114613998D01*
X179513411Y-114610276D01*
X179515383Y-114606228D01*
X179517635Y-114602336D01*
X179521115Y-114596054D01*
X179690676Y-114324752D01*
X179695219Y-114318265D01*
X179697384Y-114315046D01*
X179700150Y-114311506D01*
X179712246Y-114290408D01*
X179714678Y-114286347D01*
X179727560Y-114265736D01*
X179729378Y-114261618D01*
X179731202Y-114258175D01*
X179734763Y-114251134D01*
X179891590Y-113977602D01*
X179896117Y-113970583D01*
X179897958Y-113967605D01*
X179900589Y-113963958D01*
X179911806Y-113942528D01*
X179914120Y-113938307D01*
X179917021Y-113933247D01*
X179926140Y-113917342D01*
X179927796Y-113913171D01*
X179929322Y-113910005D01*
X179932801Y-113902418D01*
X180077197Y-113626546D01*
X180081527Y-113619228D01*
X180083195Y-113616282D01*
X180085688Y-113612530D01*
X180096040Y-113590749D01*
X180098207Y-113586408D01*
X180107300Y-113569035D01*
X180107302Y-113569032D01*
X180109386Y-113565049D01*
X180110885Y-113560804D01*
X180112219Y-113557740D01*
X180115478Y-113549846D01*
X180247753Y-113271513D01*
X180251816Y-113264000D01*
X180253349Y-113261029D01*
X180255696Y-113257184D01*
X180265206Y-113235005D01*
X180267190Y-113230616D01*
X180267770Y-113229397D01*
X180277546Y-113208825D01*
X180278876Y-113204537D01*
X180280080Y-113201454D01*
X180283053Y-113193385D01*
X180375408Y-112978003D01*
X180403504Y-112912483D01*
X180407167Y-112905039D01*
X180408673Y-112901824D01*
X180410865Y-112897901D01*
X180419530Y-112875342D01*
X180421347Y-112870870D01*
X180429103Y-112852783D01*
X180429105Y-112852777D01*
X180430879Y-112848640D01*
X180432048Y-112844287D01*
X180433217Y-112840913D01*
X180435777Y-112833044D01*
X180544704Y-112549456D01*
X180547894Y-112542297D01*
X180549429Y-112538668D01*
X180551470Y-112534665D01*
X180559326Y-112511639D01*
X180560934Y-112507202D01*
X180569658Y-112484488D01*
X180570658Y-112480099D01*
X180571800Y-112476344D01*
X180573940Y-112468800D01*
X180671650Y-112182384D01*
X180674314Y-112175741D01*
X180674313Y-112175741D01*
X180675907Y-112171541D01*
X180677801Y-112167456D01*
X180679096Y-112163139D01*
X180684833Y-112144012D01*
X180686269Y-112139530D01*
X180692721Y-112120616D01*
X180694176Y-112116351D01*
X180695008Y-112111929D01*
X180696155Y-112107573D01*
X180697850Y-112100607D01*
X180702219Y-112086042D01*
X180786253Y-111805849D01*
X180789911Y-111795358D01*
X180791334Y-111791790D01*
X180791335Y-111791788D01*
X180793004Y-111787604D01*
X180797475Y-111769086D01*
X180799263Y-111762475D01*
X180803443Y-111748534D01*
X180803445Y-111748527D01*
X180804738Y-111744214D01*
X180805974Y-111735957D01*
X180808099Y-111725069D01*
X180829009Y-111638448D01*
X180969892Y-111054813D01*
X180972394Y-111045899D01*
X180974993Y-111037795D01*
X180976370Y-111033502D01*
X180978765Y-111019344D01*
X180980517Y-111010797D01*
X180982830Y-111001215D01*
X180982830Y-111001214D01*
X180983887Y-110996836D01*
X180985110Y-110983869D01*
X180986318Y-110974688D01*
X181103149Y-110283997D01*
X181105174Y-110274340D01*
X181106871Y-110267580D01*
X181106873Y-110267571D01*
X181107967Y-110263211D01*
X181109604Y-110247398D01*
X181110699Y-110239360D01*
X181112602Y-110228109D01*
X181112603Y-110228104D01*
X181113354Y-110223661D01*
X181113639Y-110212178D01*
X181114270Y-110202332D01*
X181187369Y-109496193D01*
X181188896Y-109485738D01*
X181189870Y-109480594D01*
X181189871Y-109480585D01*
X181190706Y-109476174D01*
X181191489Y-109458507D01*
X181192034Y-109451131D01*
X181193852Y-109433565D01*
X181193467Y-109423862D01*
X181193491Y-109413291D01*
X181225498Y-108690668D01*
X181226505Y-108679409D01*
X181226952Y-108676092D01*
X181227554Y-108671627D01*
X181227382Y-108652094D01*
X181227501Y-108645418D01*
X181227806Y-108638544D01*
X181228365Y-108625931D01*
X181227592Y-108618110D01*
X181226985Y-108606814D01*
X181224991Y-108379396D01*
X181222036Y-108042532D01*
X181220493Y-107866601D01*
X181220962Y-107854576D01*
X181221482Y-107848613D01*
X181220288Y-107827265D01*
X181220096Y-107821335D01*
X181219948Y-107804428D01*
X181219948Y-107804422D01*
X181219908Y-107799921D01*
X181219003Y-107793995D01*
X181217757Y-107782015D01*
X181175295Y-107022942D01*
X181175236Y-107011452D01*
X181175212Y-107010524D01*
X181175417Y-107006033D01*
X181173161Y-106982899D01*
X181172766Y-106977733D01*
X181171719Y-106959016D01*
X181171719Y-106959013D01*
X181171467Y-106954515D01*
X181170577Y-106950096D01*
X181170462Y-106949195D01*
X181168766Y-106937814D01*
X181092353Y-106154045D01*
X181091759Y-106142369D01*
X181091749Y-106139998D01*
X181091748Y-106139991D01*
X181091729Y-106135496D01*
X181091070Y-106131049D01*
X181091069Y-106131035D01*
X181088726Y-106115224D01*
X181087960Y-106108985D01*
X181086405Y-106093032D01*
X181086402Y-106093015D01*
X181085967Y-106088551D01*
X181084334Y-106081876D01*
X181082083Y-106070391D01*
X181025351Y-105687476D01*
X181024728Y-105682630D01*
X180983794Y-105306178D01*
X180983338Y-105300990D01*
X180959773Y-104949660D01*
X180959523Y-104944063D01*
X180952206Y-104618949D01*
X180952216Y-104612857D01*
X180955765Y-104475600D01*
X180959919Y-104314987D01*
X180960270Y-104308306D01*
X180961354Y-104294638D01*
X180981609Y-104039049D01*
X180982421Y-104031618D01*
X180983301Y-104025310D01*
X180999180Y-103911397D01*
X181015767Y-103792405D01*
X181017221Y-103784044D01*
X181060562Y-103576506D01*
X181062933Y-103567010D01*
X181113645Y-103392998D01*
X181117361Y-103382122D01*
X181171873Y-103243562D01*
X181177586Y-103231081D01*
X181186847Y-103213457D01*
X181230944Y-103129539D01*
X181239633Y-103115365D01*
X181285114Y-103051109D01*
X181298108Y-103035568D01*
X181300310Y-103033329D01*
X181306617Y-103026913D01*
X181317005Y-103016347D01*
X181379026Y-102981794D01*
X181449882Y-102986256D01*
X181468038Y-102994534D01*
X181519665Y-103023211D01*
X181535509Y-103033645D01*
X181613028Y-103093533D01*
X181616320Y-103096076D01*
X181627963Y-103106272D01*
X181729388Y-103206747D01*
X181737947Y-103216127D01*
X181853950Y-103356884D01*
X181860317Y-103365305D01*
X181986196Y-103547157D01*
X181991004Y-103554656D01*
X182123172Y-103777790D01*
X182126864Y-103784477D01*
X182262573Y-104048929D01*
X182265449Y-104054916D01*
X182392856Y-104339140D01*
X182402561Y-104360791D01*
X182404825Y-104366174D01*
X182503105Y-104615898D01*
X182541548Y-104713580D01*
X182543357Y-104718472D01*
X182622918Y-104948120D01*
X182678187Y-105107654D01*
X182679643Y-105112127D01*
X182811206Y-105543286D01*
X182812385Y-105547398D01*
X182939498Y-106021002D01*
X182940455Y-106024804D01*
X183061951Y-106541150D01*
X183062730Y-106544684D01*
X183171200Y-107073330D01*
X183173409Y-107089113D01*
X183212731Y-107606818D01*
X183212888Y-107609176D01*
X183242769Y-108133440D01*
X183242844Y-108134759D01*
X183242994Y-108138259D01*
X183271371Y-109119903D01*
X183271601Y-109127856D01*
X183271649Y-109132564D01*
X183268515Y-109496193D01*
X183263964Y-110024248D01*
X183263836Y-110028949D01*
X183227249Y-110824736D01*
X183226947Y-110829404D01*
X183168770Y-111528087D01*
X183168298Y-111532726D01*
X183095833Y-112133276D01*
X183095187Y-112137902D01*
X183039598Y-112488681D01*
X183015783Y-112638954D01*
X183014954Y-112643619D01*
X182936353Y-113042051D01*
X182935153Y-113047495D01*
X182815429Y-113538814D01*
X182814043Y-113544014D01*
X182673062Y-114031105D01*
X182671489Y-114036143D01*
X182509772Y-114518278D01*
X182508029Y-114523141D01*
X182326495Y-114998612D01*
X182326101Y-114999644D01*
X182324196Y-115004348D01*
X182151147Y-115407946D01*
X182122534Y-115474679D01*
X182120476Y-115479228D01*
X181899613Y-115942719D01*
X181897415Y-115947110D01*
X181657866Y-116403155D01*
X181655535Y-116407392D01*
X181550598Y-116589803D01*
X181501332Y-116675443D01*
X181400798Y-116850200D01*
X181397078Y-116856263D01*
X180839102Y-117710522D01*
X180826035Y-117730527D01*
X180820654Y-117738136D01*
X180186793Y-118567495D01*
X180180973Y-118574561D01*
X179485408Y-119359108D01*
X179479168Y-119365655D01*
X179211247Y-119627176D01*
X178726439Y-120100404D01*
X178719721Y-120106505D01*
X177914424Y-120786547D01*
X177907236Y-120792183D01*
X177787002Y-120879620D01*
X177054003Y-121412674D01*
X177046341Y-121417827D01*
X176144685Y-121977205D01*
X176138617Y-121980737D01*
X175680704Y-122230465D01*
X175676518Y-122232647D01*
X175370652Y-122384703D01*
X175204352Y-122467376D01*
X175199976Y-122469447D01*
X175084709Y-122521327D01*
X174728363Y-122681713D01*
X174719391Y-122685751D01*
X174714882Y-122687676D01*
X174613490Y-122728638D01*
X174226318Y-122885052D01*
X174221659Y-122886827D01*
X173725762Y-123064684D01*
X173720960Y-123066298D01*
X173496535Y-123136746D01*
X173218274Y-123224093D01*
X173213361Y-123225526D01*
X172993030Y-123284919D01*
X172704433Y-123362714D01*
X172699354Y-123363971D01*
X172184715Y-123480011D01*
X172179502Y-123481071D01*
X171659734Y-123575412D01*
X171654397Y-123576263D01*
X171398296Y-123611479D01*
X171144176Y-123646422D01*
X171133055Y-123647452D01*
X170908107Y-123658242D01*
X170022063Y-123700743D01*
X170017835Y-123700875D01*
X169312479Y-123711000D01*
X168937446Y-123716384D01*
X168933665Y-123716381D01*
X167893907Y-123699967D01*
X167890693Y-123699875D01*
X166886891Y-123658241D01*
X166883521Y-123658055D01*
X164942334Y-123524838D01*
X164940721Y-123524717D01*
X164082865Y-123454262D01*
X163101690Y-123373679D01*
X163097462Y-123373217D01*
X163094004Y-123372489D01*
X163063255Y-123370503D01*
X163061062Y-123370342D01*
X163060725Y-123370314D01*
X163030377Y-123367822D01*
X163026847Y-123368037D01*
X163022607Y-123367878D01*
X162218093Y-123315922D01*
X161241330Y-123252842D01*
X161235117Y-123252095D01*
X161235107Y-123252193D01*
X161230634Y-123251730D01*
X161226196Y-123250947D01*
X161200239Y-123250121D01*
X161196161Y-123249925D01*
X161170207Y-123248249D01*
X161165719Y-123248601D01*
X161161225Y-123248632D01*
X161161224Y-123248535D01*
X161154956Y-123248680D01*
X160767893Y-123236367D01*
X160294594Y-123221310D01*
X160288589Y-123220782D01*
X160288580Y-123220907D01*
X160284082Y-123220584D01*
X160279632Y-123219942D01*
X160275137Y-123219940D01*
X160275131Y-123219940D01*
X160262505Y-123219936D01*
X160253219Y-123219933D01*
X160249293Y-123219869D01*
X160236636Y-123219467D01*
X160227451Y-123219174D01*
X160227448Y-123219174D01*
X160222950Y-123219031D01*
X160218480Y-123219529D01*
X160213979Y-123219707D01*
X160213974Y-123219584D01*
X160207963Y-123219915D01*
X159334661Y-123219598D01*
X159327244Y-123219206D01*
X159322971Y-123219060D01*
X159318486Y-123218585D01*
X159313981Y-123218753D01*
X159313980Y-123218753D01*
X159294116Y-123219494D01*
X159289373Y-123219582D01*
X159283965Y-123219580D01*
X159264961Y-123219573D01*
X159260496Y-123220213D01*
X159256218Y-123220518D01*
X159248829Y-123221183D01*
X158950015Y-123232327D01*
X158354469Y-123254537D01*
X158341868Y-123254376D01*
X158337303Y-123254089D01*
X158314552Y-123255912D01*
X158309208Y-123256225D01*
X158290926Y-123256907D01*
X158290925Y-123256907D01*
X158286422Y-123257075D01*
X158281994Y-123257881D01*
X158281984Y-123257882D01*
X158281902Y-123257897D01*
X158269418Y-123259528D01*
X157683807Y-123306457D01*
X157348638Y-123333316D01*
X157336501Y-123333702D01*
X157335659Y-123333688D01*
X157335240Y-123333681D01*
X157335239Y-123333681D01*
X157330745Y-123333607D01*
X157326287Y-123334173D01*
X157326274Y-123334174D01*
X157309264Y-123336335D01*
X157303454Y-123336936D01*
X157281922Y-123338662D01*
X157277544Y-123339653D01*
X157277534Y-123339655D01*
X157276317Y-123339931D01*
X157264369Y-123342038D01*
X156311832Y-123463039D01*
X156300009Y-123463978D01*
X156298043Y-123464041D01*
X156298039Y-123464041D01*
X156293547Y-123464186D01*
X156289118Y-123464969D01*
X156289119Y-123464969D01*
X156272972Y-123467824D01*
X156266917Y-123468743D01*
X156250623Y-123470813D01*
X156250610Y-123470816D01*
X156246159Y-123471381D01*
X156241830Y-123472575D01*
X156241825Y-123472576D01*
X156239923Y-123473101D01*
X156228360Y-123475712D01*
X155309764Y-123638138D01*
X155239201Y-123630303D01*
X155184076Y-123585562D01*
X155161890Y-123518121D01*
X155179688Y-123449391D01*
X155186957Y-123438554D01*
X155188839Y-123436040D01*
X155229889Y-123381204D01*
X155280989Y-123244201D01*
X155287500Y-123183638D01*
X155287500Y-122486362D01*
X155280989Y-122425799D01*
X155229889Y-122288796D01*
X155221948Y-122278187D01*
X155147659Y-122178950D01*
X155142261Y-122171739D01*
X155051284Y-122103634D01*
X155032418Y-122089511D01*
X155032416Y-122089510D01*
X155025204Y-122084111D01*
X154888201Y-122033011D01*
X154851295Y-122029043D01*
X154830988Y-122026860D01*
X154830985Y-122026860D01*
X154827638Y-122026500D01*
X154080362Y-122026500D01*
X154077015Y-122026860D01*
X154077012Y-122026860D01*
X154056705Y-122029043D01*
X154019799Y-122033011D01*
X153882796Y-122084111D01*
X153875584Y-122089510D01*
X153875582Y-122089511D01*
X153856716Y-122103634D01*
X153765739Y-122171739D01*
X153760341Y-122178950D01*
X153686053Y-122278187D01*
X153678111Y-122288796D01*
X153627011Y-122425799D01*
X153620500Y-122486362D01*
X153620500Y-123183638D01*
X153627011Y-123244201D01*
X153678111Y-123381204D01*
X153683511Y-123388417D01*
X153687829Y-123396325D01*
X153685188Y-123397767D01*
X153704708Y-123450130D01*
X153689604Y-123519501D01*
X153639393Y-123569695D01*
X153570017Y-123584774D01*
X153553603Y-123582505D01*
X153501441Y-123571759D01*
X153495901Y-123570487D01*
X153318949Y-123525626D01*
X153295066Y-123519571D01*
X153289824Y-123518121D01*
X153085233Y-123456710D01*
X153080361Y-123455138D01*
X152870349Y-123382660D01*
X152865910Y-123381035D01*
X152648796Y-123296865D01*
X152644831Y-123295250D01*
X152419201Y-123198840D01*
X152415721Y-123197290D01*
X152180192Y-123088115D01*
X152177183Y-123086671D01*
X151930583Y-122964328D01*
X151928019Y-122963020D01*
X151858651Y-122926607D01*
X151713434Y-122850380D01*
X151697665Y-122840555D01*
X151689970Y-122834933D01*
X151687421Y-122833021D01*
X151668571Y-122818504D01*
X151665004Y-122815757D01*
X151661520Y-122813792D01*
X151659287Y-122812253D01*
X151640488Y-122798777D01*
X151639714Y-122798216D01*
X151612594Y-122778402D01*
X151610947Y-122777527D01*
X151609432Y-122776511D01*
X151568154Y-122746918D01*
X151565447Y-122744922D01*
X151557411Y-122738824D01*
X151515240Y-122681713D01*
X151512560Y-122673524D01*
X151508836Y-122660673D01*
X151507825Y-122656973D01*
X151503503Y-122640137D01*
X151502682Y-122636734D01*
X151497983Y-122616008D01*
X151497313Y-122612861D01*
X151492384Y-122588194D01*
X151491839Y-122585291D01*
X151486801Y-122556593D01*
X151486368Y-122553965D01*
X151481347Y-122521327D01*
X151479882Y-122501978D01*
X151479973Y-122442094D01*
X151480054Y-122437776D01*
X151482878Y-122358914D01*
X151483154Y-122353951D01*
X151488045Y-122289071D01*
X151488604Y-122283379D01*
X151489234Y-122278187D01*
X151494813Y-122232163D01*
X151495768Y-122225692D01*
X151502425Y-122187498D01*
X151503917Y-122180218D01*
X151510036Y-122154265D01*
X151512214Y-122146224D01*
X151516830Y-122131178D01*
X151519965Y-122122189D01*
X151520021Y-122122046D01*
X151548676Y-122078472D01*
X151551730Y-122075447D01*
X151566915Y-122063704D01*
X151566834Y-122063603D01*
X151573851Y-122057943D01*
X151581598Y-122053342D01*
X151587735Y-122046744D01*
X151590370Y-122044619D01*
X151599880Y-122037656D01*
X152170527Y-121659551D01*
X153266586Y-120933314D01*
X153277403Y-120926900D01*
X153281500Y-120924740D01*
X153285146Y-120922093D01*
X153285150Y-120922090D01*
X153299890Y-120911386D01*
X153304334Y-120908302D01*
X153319539Y-120898228D01*
X153319542Y-120898226D01*
X153323292Y-120895741D01*
X153326651Y-120892748D01*
X153330215Y-120890001D01*
X153330410Y-120890255D01*
X153334936Y-120886778D01*
X153335796Y-120886294D01*
X153339360Y-120883557D01*
X153339370Y-120883550D01*
X153357855Y-120869352D01*
X153360550Y-120867339D01*
X153383054Y-120850997D01*
X153384502Y-120849590D01*
X153387498Y-120847281D01*
X153389892Y-120845838D01*
X153410580Y-120828926D01*
X153413572Y-120826555D01*
X153431192Y-120813022D01*
X153431201Y-120813014D01*
X153434771Y-120810272D01*
X153436699Y-120808295D01*
X153440613Y-120805085D01*
X153443623Y-120803128D01*
X153462876Y-120786269D01*
X153466128Y-120783518D01*
X153482475Y-120770156D01*
X153482479Y-120770152D01*
X153485956Y-120767310D01*
X153488294Y-120764764D01*
X153493252Y-120760406D01*
X153496808Y-120757899D01*
X153514555Y-120741140D01*
X153518041Y-120737970D01*
X153533034Y-120724842D01*
X153533040Y-120724836D01*
X153536424Y-120721873D01*
X153539100Y-120718753D01*
X153544285Y-120713837D01*
X153545679Y-120712597D01*
X153549242Y-120709857D01*
X153565394Y-120693281D01*
X153569126Y-120689607D01*
X153582694Y-120676794D01*
X153585962Y-120673708D01*
X153588756Y-120670190D01*
X153589253Y-120669649D01*
X153594129Y-120664625D01*
X153597186Y-120661646D01*
X153600627Y-120658740D01*
X153615165Y-120642390D01*
X153619072Y-120638194D01*
X153624953Y-120632158D01*
X153634335Y-120622529D01*
X153636985Y-120618891D01*
X153639635Y-120615752D01*
X153644421Y-120610720D01*
X153644308Y-120610615D01*
X153647368Y-120607319D01*
X153650661Y-120604245D01*
X153663522Y-120588242D01*
X153667576Y-120583447D01*
X153678224Y-120571472D01*
X153681218Y-120568105D01*
X153683704Y-120564344D01*
X153686441Y-120560783D01*
X153686684Y-120560970D01*
X153693060Y-120553003D01*
X153692900Y-120552870D01*
X153695777Y-120549416D01*
X153698901Y-120546167D01*
X153704891Y-120537831D01*
X153710122Y-120530550D01*
X153714230Y-120525146D01*
X153715585Y-120523460D01*
X153722327Y-120515070D01*
X153780588Y-120474499D01*
X153851536Y-120471867D01*
X153877886Y-120482214D01*
X153882796Y-120485889D01*
X153891237Y-120489037D01*
X153891240Y-120489039D01*
X153961035Y-120515071D01*
X154019799Y-120536989D01*
X154056705Y-120540957D01*
X154077012Y-120543140D01*
X154077015Y-120543140D01*
X154080362Y-120543500D01*
X154401516Y-120543500D01*
X154415623Y-120544292D01*
X154454000Y-120548616D01*
X154461029Y-120547824D01*
X154492377Y-120544292D01*
X154506484Y-120543500D01*
X154827638Y-120543500D01*
X154830985Y-120543140D01*
X154830988Y-120543140D01*
X154851295Y-120540957D01*
X154888201Y-120536989D01*
X155025204Y-120485889D01*
X155040420Y-120474499D01*
X155135050Y-120403659D01*
X155142261Y-120398261D01*
X155175284Y-120354147D01*
X155224489Y-120288418D01*
X155224490Y-120288416D01*
X155229889Y-120281204D01*
X155280989Y-120144201D01*
X155287500Y-120083638D01*
X155287500Y-119386362D01*
X155280989Y-119325799D01*
X155270445Y-119297530D01*
X155262500Y-119253497D01*
X155262500Y-119146334D01*
X155282502Y-119078213D01*
X155323393Y-119040142D01*
X155323204Y-119039889D01*
X155325553Y-119038131D01*
X155325555Y-119038129D01*
X155440261Y-118952261D01*
X155527889Y-118835204D01*
X155578989Y-118698201D01*
X155585500Y-118637638D01*
X155585500Y-117373011D01*
X155605502Y-117304890D01*
X155659158Y-117258397D01*
X155711500Y-117247011D01*
X157768733Y-117247011D01*
X157836854Y-117267013D01*
X157883347Y-117320669D01*
X157893451Y-117390943D01*
X157882756Y-117426629D01*
X157881672Y-117428933D01*
X157876713Y-117436464D01*
X157874549Y-117443541D01*
X157873613Y-117445707D01*
X157872575Y-117447753D01*
X157849448Y-117490176D01*
X157847539Y-117498981D01*
X157847178Y-117500647D01*
X157839195Y-117525088D01*
X157831495Y-117542428D01*
X157829671Y-117546536D01*
X157828977Y-117548994D01*
X157827966Y-117551334D01*
X157826788Y-117555673D01*
X157819292Y-117583283D01*
X157818956Y-117584498D01*
X157804525Y-117635624D01*
X157801687Y-117644427D01*
X157797232Y-117656688D01*
X157796314Y-117661087D01*
X157796313Y-117661090D01*
X157794303Y-117670722D01*
X157792224Y-117679202D01*
X157788329Y-117693003D01*
X157786607Y-117705943D01*
X157785053Y-117715049D01*
X157775315Y-117761707D01*
X157772245Y-117773522D01*
X157770593Y-117778810D01*
X157767107Y-117800407D01*
X157766075Y-117805988D01*
X157761605Y-117827408D01*
X157761322Y-117831904D01*
X157761257Y-117832931D01*
X157759898Y-117845083D01*
X157755086Y-117874897D01*
X157750966Y-117900422D01*
X157749540Y-117906992D01*
X157749586Y-117907001D01*
X157748711Y-117911403D01*
X157747518Y-117915752D01*
X157744375Y-117940786D01*
X157743755Y-117945103D01*
X157739735Y-117970015D01*
X157739658Y-117974515D01*
X157739260Y-117978993D01*
X157739214Y-117978989D01*
X157738736Y-117985707D01*
X157730351Y-118052496D01*
X157729307Y-118058187D01*
X157729458Y-118058212D01*
X157728713Y-118062655D01*
X157727655Y-118067023D01*
X157727230Y-118071491D01*
X157727229Y-118071499D01*
X157725120Y-118093699D01*
X157724708Y-118097435D01*
X157721371Y-118124022D01*
X157721452Y-118128519D01*
X157721211Y-118133018D01*
X157721060Y-118133010D01*
X157720836Y-118138782D01*
X157713427Y-118216753D01*
X157712794Y-118222168D01*
X157712194Y-118226485D01*
X157711259Y-118230887D01*
X157710221Y-118246453D01*
X157709434Y-118258247D01*
X157709148Y-118261778D01*
X157708613Y-118267415D01*
X157706556Y-118289060D01*
X157706773Y-118293565D01*
X157706672Y-118297892D01*
X157706428Y-118303327D01*
X157703088Y-118353397D01*
X157700581Y-118390986D01*
X157700100Y-118396416D01*
X157699625Y-118400723D01*
X157698815Y-118405143D01*
X157698642Y-118409629D01*
X157698642Y-118409631D01*
X157697760Y-118432540D01*
X157697574Y-118436075D01*
X157695749Y-118463442D01*
X157696092Y-118467938D01*
X157696113Y-118472249D01*
X157696021Y-118477705D01*
X157695751Y-118484731D01*
X157692425Y-118571129D01*
X157692361Y-118572780D01*
X157691820Y-118578425D01*
X157691986Y-118578438D01*
X157691624Y-118582933D01*
X157690946Y-118587372D01*
X157690759Y-118608481D01*
X157690707Y-118614298D01*
X157690620Y-118618001D01*
X157689581Y-118644981D01*
X157690049Y-118649453D01*
X157690197Y-118653951D01*
X157690031Y-118653956D01*
X157690304Y-118659624D01*
X157689499Y-118750268D01*
X157689413Y-118759962D01*
X157689012Y-118766202D01*
X157689112Y-118766207D01*
X157688898Y-118770699D01*
X157688363Y-118775166D01*
X157688980Y-118801165D01*
X157689010Y-118805252D01*
X157688779Y-118831261D01*
X157689381Y-118835726D01*
X157689662Y-118840216D01*
X157689562Y-118840222D01*
X157690055Y-118846452D01*
X157692513Y-118950070D01*
X157692305Y-118957213D01*
X157692308Y-118957213D01*
X157692261Y-118961719D01*
X157691894Y-118966198D01*
X157692168Y-118970685D01*
X157692168Y-118970693D01*
X157693388Y-118990665D01*
X157693587Y-118995347D01*
X157694169Y-119019864D01*
X157694917Y-119024311D01*
X157695343Y-119028777D01*
X157695339Y-119028777D01*
X157696150Y-119035874D01*
X157702567Y-119140944D01*
X157702712Y-119153347D01*
X157702692Y-119153887D01*
X157702692Y-119153894D01*
X157702523Y-119158397D01*
X157702996Y-119162875D01*
X157704865Y-119180574D01*
X157705328Y-119186120D01*
X157706690Y-119208429D01*
X157707599Y-119212824D01*
X157707709Y-119213356D01*
X157709623Y-119225639D01*
X157712564Y-119253497D01*
X157720719Y-119330737D01*
X157721398Y-119341879D01*
X157721459Y-119345588D01*
X157721460Y-119345596D01*
X157721534Y-119350093D01*
X157724037Y-119365663D01*
X157724574Y-119369005D01*
X157725473Y-119375768D01*
X157727013Y-119390356D01*
X157727016Y-119390371D01*
X157727487Y-119394836D01*
X157728590Y-119399191D01*
X157728592Y-119399204D01*
X157729503Y-119402802D01*
X157731762Y-119413736D01*
X157748554Y-119518222D01*
X157749693Y-119527492D01*
X157750784Y-119540266D01*
X157751799Y-119544639D01*
X157751801Y-119544653D01*
X157754076Y-119554457D01*
X157755740Y-119562941D01*
X157757334Y-119572860D01*
X157757337Y-119572872D01*
X157758050Y-119577310D01*
X157759390Y-119581608D01*
X157759391Y-119581614D01*
X157761865Y-119589553D01*
X157764311Y-119598562D01*
X157786720Y-119695134D01*
X157788566Y-119704787D01*
X157789624Y-119711790D01*
X157789628Y-119711807D01*
X157790298Y-119716242D01*
X157791593Y-119720540D01*
X157791596Y-119720551D01*
X157794861Y-119731383D01*
X157796958Y-119739253D01*
X157800530Y-119754646D01*
X157802157Y-119758832D01*
X157802158Y-119758834D01*
X157804729Y-119765447D01*
X157807929Y-119774737D01*
X157812478Y-119789828D01*
X157815276Y-119800906D01*
X157816794Y-119808316D01*
X157820764Y-119819368D01*
X157823493Y-119826964D01*
X157825547Y-119833186D01*
X157831268Y-119852168D01*
X157833169Y-119856252D01*
X157834771Y-119860456D01*
X157834527Y-119860549D01*
X157841950Y-119882807D01*
X157847574Y-119909428D01*
X157851845Y-119917363D01*
X157853884Y-119922931D01*
X157857655Y-119932113D01*
X157860122Y-119937516D01*
X157862662Y-119946165D01*
X157887830Y-119985328D01*
X157893135Y-119994395D01*
X157910722Y-120027554D01*
X157910724Y-120027557D01*
X157914946Y-120035517D01*
X157921239Y-120041965D01*
X157926552Y-120049245D01*
X157925895Y-120049724D01*
X157928190Y-120052832D01*
X157928858Y-120052333D01*
X157934249Y-120059550D01*
X157938560Y-120067465D01*
X157944924Y-120073842D01*
X157944926Y-120073845D01*
X157989000Y-120118010D01*
X157989440Y-120118454D01*
X158033375Y-120162920D01*
X158033381Y-120162925D01*
X158039713Y-120169333D01*
X158059738Y-120180424D01*
X158069331Y-120186313D01*
X158084377Y-120196502D01*
X158089340Y-120200041D01*
X158106144Y-120212648D01*
X158110085Y-120214806D01*
X158110089Y-120214808D01*
X158111740Y-120215712D01*
X158121881Y-120221903D01*
X158123427Y-120222950D01*
X158123440Y-120222957D01*
X158127156Y-120225474D01*
X158146055Y-120234662D01*
X158151443Y-120237444D01*
X158202083Y-120265164D01*
X158210507Y-120267006D01*
X158222296Y-120272173D01*
X158228425Y-120275273D01*
X158232245Y-120276562D01*
X158235867Y-120278323D01*
X158263167Y-120287059D01*
X158265664Y-120287858D01*
X158267550Y-120288478D01*
X158310295Y-120302903D01*
X158312766Y-120303766D01*
X158336535Y-120312341D01*
X158336543Y-120312343D01*
X158340772Y-120313869D01*
X158344843Y-120314709D01*
X158344882Y-120314721D01*
X158346971Y-120315287D01*
X158347030Y-120315301D01*
X158350975Y-120316632D01*
X158355401Y-120317450D01*
X158355406Y-120317451D01*
X158380241Y-120322039D01*
X158382768Y-120322532D01*
X158483366Y-120343284D01*
X158497754Y-120346252D01*
X158503198Y-120347502D01*
X158520426Y-120351860D01*
X158520429Y-120351861D01*
X158524787Y-120352963D01*
X158529857Y-120353497D01*
X158542108Y-120355401D01*
X158547103Y-120356432D01*
X158551592Y-120356705D01*
X158551595Y-120356705D01*
X158569347Y-120357783D01*
X158574911Y-120358245D01*
X158642613Y-120365378D01*
X158702162Y-120371653D01*
X158712237Y-120373128D01*
X158718310Y-120374270D01*
X158718320Y-120374271D01*
X158722745Y-120375103D01*
X158727251Y-120375297D01*
X158739419Y-120375821D01*
X158747202Y-120376398D01*
X158759330Y-120377676D01*
X158759332Y-120377676D01*
X158763810Y-120378148D01*
X158768306Y-120377978D01*
X158768312Y-120377978D01*
X158774497Y-120377744D01*
X158784681Y-120377771D01*
X158919319Y-120383570D01*
X158931802Y-120384732D01*
X158932039Y-120384766D01*
X158932042Y-120384766D01*
X158936497Y-120385406D01*
X158959149Y-120385402D01*
X158964549Y-120385518D01*
X158987182Y-120386493D01*
X158991655Y-120386045D01*
X158991662Y-120386045D01*
X158991898Y-120386021D01*
X159004427Y-120385394D01*
X159046339Y-120385387D01*
X159148327Y-120385369D01*
X159154595Y-120385714D01*
X159154599Y-120385617D01*
X159159084Y-120385790D01*
X159163564Y-120386284D01*
X159168061Y-120386136D01*
X159168066Y-120386136D01*
X159189488Y-120385430D01*
X159193613Y-120385362D01*
X159215066Y-120385358D01*
X159215069Y-120385358D01*
X159219565Y-120385357D01*
X159224018Y-120384716D01*
X159228506Y-120384394D01*
X159228513Y-120384489D01*
X159234774Y-120383937D01*
X159386305Y-120378942D01*
X159391928Y-120378883D01*
X159395153Y-120378921D01*
X159399626Y-120379293D01*
X159412579Y-120378519D01*
X159427448Y-120377631D01*
X159430809Y-120377475D01*
X159441411Y-120377125D01*
X159458646Y-120376557D01*
X159463087Y-120375768D01*
X159466229Y-120375439D01*
X159471837Y-120374978D01*
X159531355Y-120371422D01*
X159628374Y-120365625D01*
X159634406Y-120365410D01*
X159635053Y-120365402D01*
X159639536Y-120365670D01*
X159644015Y-120365297D01*
X159644018Y-120365297D01*
X159668335Y-120363272D01*
X159671274Y-120363061D01*
X159680027Y-120362538D01*
X159700154Y-120361335D01*
X159704569Y-120360429D01*
X159705175Y-120360349D01*
X159711173Y-120359704D01*
X159867450Y-120346689D01*
X159873398Y-120346341D01*
X159877820Y-120346507D01*
X159906961Y-120343430D01*
X159909726Y-120343169D01*
X159938967Y-120340733D01*
X159943283Y-120339741D01*
X159949221Y-120338966D01*
X160027797Y-120330667D01*
X160098164Y-120323235D01*
X160104263Y-120322741D01*
X160104448Y-120322731D01*
X160108948Y-120322797D01*
X160113406Y-120322223D01*
X160113408Y-120322223D01*
X160137823Y-120319080D01*
X160140675Y-120318746D01*
X160146705Y-120318109D01*
X160169607Y-120315690D01*
X160173978Y-120314583D01*
X160174140Y-120314554D01*
X160180197Y-120313624D01*
X160314889Y-120296284D01*
X160320569Y-120295684D01*
X160323189Y-120295467D01*
X160327679Y-120295416D01*
X160355490Y-120291098D01*
X160358602Y-120290656D01*
X160386538Y-120287059D01*
X160390873Y-120285856D01*
X160393459Y-120285333D01*
X160399074Y-120284330D01*
X160434072Y-120278896D01*
X160514318Y-120266435D01*
X160520716Y-120265796D01*
X160520707Y-120265718D01*
X160525184Y-120265195D01*
X160529679Y-120264994D01*
X160554930Y-120260201D01*
X160559066Y-120259488D01*
X160580025Y-120256233D01*
X160580037Y-120256230D01*
X160584482Y-120255540D01*
X160588787Y-120254223D01*
X160593168Y-120253218D01*
X160593186Y-120253295D01*
X160599435Y-120251752D01*
X160694676Y-120233672D01*
X160706135Y-120232038D01*
X160708789Y-120231783D01*
X160708796Y-120231782D01*
X160713286Y-120231351D01*
X160732945Y-120226571D01*
X160739179Y-120225223D01*
X160741311Y-120224818D01*
X160759035Y-120221454D01*
X160763289Y-120219995D01*
X160763301Y-120219992D01*
X160765827Y-120219126D01*
X160776932Y-120215879D01*
X160777619Y-120215712D01*
X160859173Y-120195886D01*
X160864690Y-120194675D01*
X160881969Y-120191288D01*
X160881971Y-120191287D01*
X160886386Y-120190422D01*
X160890675Y-120188922D01*
X160891374Y-120188678D01*
X160903194Y-120185184D01*
X160908313Y-120183940D01*
X160928839Y-120175711D01*
X160934083Y-120173744D01*
X160938192Y-120172307D01*
X160946190Y-120169991D01*
X160953127Y-120169402D01*
X160961532Y-120166139D01*
X161011217Y-120146850D01*
X161015197Y-120145382D01*
X161039334Y-120136942D01*
X161043326Y-120134868D01*
X161047158Y-120133213D01*
X161050900Y-120131444D01*
X161055084Y-120129819D01*
X161058994Y-120127616D01*
X161059000Y-120127613D01*
X161077355Y-120117270D01*
X161081156Y-120115213D01*
X161082724Y-120114399D01*
X161092591Y-120109806D01*
X161124223Y-120096715D01*
X161139350Y-120084533D01*
X161175675Y-120055279D01*
X161177859Y-120053559D01*
X161180714Y-120051362D01*
X161230187Y-120013289D01*
X161235491Y-120006003D01*
X161239100Y-120002297D01*
X161241742Y-119999110D01*
X161241811Y-119999037D01*
X161248860Y-119993419D01*
X161253654Y-119986593D01*
X161253696Y-119986553D01*
X161256660Y-119983272D01*
X161256703Y-119983217D01*
X161263009Y-119977753D01*
X161267881Y-119970172D01*
X161267887Y-119970165D01*
X161295452Y-119927272D01*
X161298340Y-119922975D01*
X161303703Y-119915339D01*
X161304673Y-119914123D01*
X161306498Y-119911407D01*
X161306638Y-119911203D01*
X161306641Y-119911196D01*
X161307246Y-119910295D01*
X161308130Y-119909037D01*
X161314015Y-119902518D01*
X161317046Y-119896223D01*
X161317836Y-119895566D01*
X161317481Y-119895320D01*
X161326005Y-119883051D01*
X161334004Y-119871538D01*
X161336736Y-119863337D01*
X161337310Y-119862137D01*
X161341985Y-119854864D01*
X161346092Y-119840878D01*
X161354623Y-119819368D01*
X161355429Y-119817780D01*
X161357463Y-119813771D01*
X161358801Y-119809822D01*
X161358818Y-119809785D01*
X161359638Y-119807780D01*
X161359657Y-119807728D01*
X161361464Y-119803975D01*
X161370439Y-119775561D01*
X161371232Y-119773140D01*
X161384063Y-119735278D01*
X161392566Y-119710186D01*
X161392787Y-119704811D01*
X161393197Y-119703514D01*
X161394577Y-119695134D01*
X161397828Y-119675382D01*
X161398366Y-119672348D01*
X161400570Y-119660762D01*
X161402060Y-119653963D01*
X161406581Y-119635761D01*
X161407448Y-119627176D01*
X161409029Y-119616296D01*
X161410643Y-119607810D01*
X161411490Y-119589079D01*
X161411999Y-119582107D01*
X161412883Y-119573356D01*
X161413645Y-119567292D01*
X161416086Y-119551049D01*
X161416756Y-119546593D01*
X161416797Y-119540162D01*
X161417432Y-119528301D01*
X161417628Y-119526363D01*
X161417628Y-119526362D01*
X161418080Y-119521888D01*
X161417198Y-119500962D01*
X161417089Y-119494848D01*
X161417493Y-119431757D01*
X161417741Y-119424620D01*
X161418615Y-119410789D01*
X161418615Y-119410786D01*
X161418899Y-119406290D01*
X161418181Y-119397303D01*
X161417784Y-119386458D01*
X161417813Y-119381952D01*
X161417842Y-119377452D01*
X161416683Y-119369005D01*
X161415344Y-119359246D01*
X161414574Y-119352150D01*
X161409172Y-119284534D01*
X161408772Y-119274207D01*
X161408786Y-119268382D01*
X161408786Y-119268376D01*
X161408796Y-119263892D01*
X161406406Y-119246989D01*
X161405565Y-119239383D01*
X161404564Y-119226856D01*
X161404206Y-119222372D01*
X161401930Y-119212311D01*
X161400066Y-119202154D01*
X161390559Y-119134929D01*
X161389442Y-119122878D01*
X161389382Y-119121516D01*
X161389381Y-119121509D01*
X161389182Y-119117026D01*
X161385176Y-119095874D01*
X161384217Y-119090071D01*
X161381835Y-119073232D01*
X161381833Y-119073225D01*
X161381203Y-119068767D01*
X161379900Y-119064292D01*
X161379566Y-119063142D01*
X161376747Y-119051380D01*
X161373547Y-119034489D01*
X161363644Y-118982212D01*
X161362467Y-118973549D01*
X161361977Y-118970407D01*
X161361603Y-118965915D01*
X161356215Y-118942479D01*
X161355212Y-118937696D01*
X161353107Y-118926582D01*
X161350739Y-118914080D01*
X161349279Y-118909817D01*
X161348478Y-118906789D01*
X161346069Y-118898346D01*
X161329752Y-118827370D01*
X161328619Y-118820846D01*
X161328562Y-118820857D01*
X161327716Y-118816439D01*
X161327188Y-118811970D01*
X161326030Y-118807626D01*
X161326028Y-118807616D01*
X161320648Y-118787437D01*
X161319598Y-118783206D01*
X161314926Y-118762882D01*
X161314924Y-118762877D01*
X161313915Y-118758486D01*
X161312289Y-118754280D01*
X161310974Y-118749988D01*
X161311031Y-118749971D01*
X161308981Y-118743673D01*
X161289922Y-118672177D01*
X161288627Y-118665974D01*
X161288540Y-118665994D01*
X161287547Y-118661597D01*
X161286872Y-118657154D01*
X161281835Y-118640489D01*
X161279383Y-118632379D01*
X161278247Y-118628382D01*
X161272748Y-118607755D01*
X161272744Y-118607745D01*
X161271587Y-118603403D01*
X161269823Y-118599269D01*
X161268354Y-118595008D01*
X161268440Y-118594978D01*
X161266279Y-118589031D01*
X161265215Y-118585509D01*
X161245012Y-118518674D01*
X161243475Y-118512370D01*
X161243405Y-118512388D01*
X161242264Y-118508028D01*
X161241439Y-118503611D01*
X161239995Y-118499360D01*
X161239993Y-118499352D01*
X161233211Y-118479385D01*
X161231907Y-118475323D01*
X161228262Y-118463262D01*
X161224499Y-118450815D01*
X161222600Y-118446743D01*
X161220991Y-118442531D01*
X161221057Y-118442506D01*
X161218636Y-118436476D01*
X161218500Y-118436075D01*
X161195712Y-118368983D01*
X161193770Y-118362094D01*
X161193769Y-118362094D01*
X161192468Y-118357788D01*
X161191477Y-118353397D01*
X161187084Y-118341893D01*
X161182735Y-118330508D01*
X161181135Y-118326070D01*
X161174716Y-118307170D01*
X161173270Y-118302912D01*
X161171232Y-118298902D01*
X161169484Y-118294754D01*
X161169485Y-118294754D01*
X161166581Y-118288207D01*
X161142398Y-118224884D01*
X161138559Y-118213133D01*
X161138382Y-118212485D01*
X161137198Y-118208148D01*
X161128357Y-118187771D01*
X161126239Y-118182575D01*
X161120688Y-118168040D01*
X161118314Y-118161823D01*
X161115802Y-118157307D01*
X161110327Y-118146213D01*
X161106336Y-118137013D01*
X161084810Y-118087396D01*
X161080976Y-118077418D01*
X161077996Y-118068552D01*
X161069876Y-118052448D01*
X161066797Y-118045878D01*
X161059611Y-118029315D01*
X161054704Y-118021351D01*
X161049478Y-118011998D01*
X161035903Y-117985078D01*
X161023091Y-117915247D01*
X161050066Y-117849575D01*
X161108264Y-117808911D01*
X161179207Y-117806167D01*
X161237503Y-117839250D01*
X163213031Y-119814778D01*
X163219969Y-119822302D01*
X163249000Y-119856481D01*
X163249004Y-119856485D01*
X163253422Y-119861686D01*
X163258858Y-119865818D01*
X163258864Y-119865824D01*
X163315277Y-119908707D01*
X163317951Y-119910797D01*
X163333046Y-119922931D01*
X163371381Y-119953745D01*
X163378457Y-119959433D01*
X163384579Y-119962469D01*
X163388449Y-119964943D01*
X163392315Y-119967269D01*
X163397752Y-119971402D01*
X163403949Y-119974269D01*
X163403959Y-119974275D01*
X163468237Y-120004013D01*
X163471315Y-120005487D01*
X163487046Y-120013289D01*
X163540875Y-120039986D01*
X163547509Y-120041635D01*
X163551779Y-120043204D01*
X163556089Y-120044656D01*
X163562293Y-120047527D01*
X163597510Y-120055279D01*
X163638120Y-120064218D01*
X163641435Y-120064995D01*
X163716814Y-120083740D01*
X163723632Y-120083925D01*
X163728095Y-120084533D01*
X163732678Y-120085031D01*
X163739351Y-120086500D01*
X163816994Y-120086500D01*
X163820406Y-120086546D01*
X163898045Y-120088649D01*
X163904748Y-120087363D01*
X163910237Y-120086916D01*
X163920462Y-120086500D01*
X164590563Y-120086500D01*
X164658684Y-120106502D01*
X164679658Y-120123405D01*
X164723595Y-120167342D01*
X164757621Y-120229654D01*
X164760500Y-120256437D01*
X164760500Y-122728638D01*
X164767011Y-122789201D01*
X164818111Y-122926204D01*
X164823510Y-122933416D01*
X164823511Y-122933418D01*
X164868985Y-122994163D01*
X164905739Y-123043261D01*
X164912950Y-123048659D01*
X164966667Y-123088871D01*
X165022796Y-123130889D01*
X165159799Y-123181989D01*
X165196705Y-123185957D01*
X165217012Y-123188140D01*
X165217015Y-123188140D01*
X165220362Y-123188500D01*
X168617638Y-123188500D01*
X168620985Y-123188140D01*
X168620988Y-123188140D01*
X168641295Y-123185957D01*
X168678201Y-123181989D01*
X168815204Y-123130889D01*
X168871334Y-123088871D01*
X168925050Y-123048659D01*
X168932261Y-123043261D01*
X168969015Y-122994163D01*
X169014489Y-122933418D01*
X169014490Y-122933416D01*
X169019889Y-122926204D01*
X169070989Y-122789201D01*
X169077500Y-122728638D01*
X169077500Y-119131362D01*
X169076442Y-119121516D01*
X169071831Y-119078633D01*
X169070989Y-119070799D01*
X169019889Y-118933796D01*
X169008437Y-118918497D01*
X168937659Y-118823950D01*
X168932261Y-118816739D01*
X168876726Y-118775166D01*
X168822418Y-118734511D01*
X168822416Y-118734510D01*
X168815204Y-118729111D01*
X168678201Y-118678011D01*
X168632121Y-118673057D01*
X168620988Y-118671860D01*
X168620985Y-118671860D01*
X168617638Y-118671500D01*
X165642407Y-118671500D01*
X165574286Y-118651498D01*
X165564781Y-118644048D01*
X165564579Y-118644314D01*
X165502731Y-118597299D01*
X165500092Y-118595237D01*
X165439544Y-118546567D01*
X165433426Y-118543532D01*
X165429561Y-118541062D01*
X165425682Y-118538729D01*
X165420248Y-118534598D01*
X165349785Y-118501998D01*
X165346708Y-118500524D01*
X165309515Y-118482078D01*
X165277125Y-118466014D01*
X165270495Y-118464365D01*
X165266218Y-118462794D01*
X165261908Y-118461342D01*
X165255707Y-118458473D01*
X165179861Y-118441778D01*
X165176547Y-118441002D01*
X165175880Y-118440836D01*
X165154600Y-118435544D01*
X165107810Y-118423908D01*
X165107808Y-118423908D01*
X165101186Y-118422261D01*
X165094363Y-118422076D01*
X165089856Y-118421462D01*
X165085324Y-118420969D01*
X165078649Y-118419500D01*
X165000990Y-118419500D01*
X164997578Y-118419454D01*
X164919955Y-118417351D01*
X164913252Y-118418637D01*
X164907763Y-118419084D01*
X164897538Y-118419500D01*
X164227437Y-118419500D01*
X164159316Y-118399498D01*
X164138342Y-118382595D01*
X161607480Y-115851733D01*
X161600542Y-115844209D01*
X161571511Y-115810030D01*
X161571507Y-115810026D01*
X161567089Y-115804825D01*
X161561653Y-115800693D01*
X161561647Y-115800687D01*
X161505242Y-115757810D01*
X161502603Y-115755748D01*
X161442055Y-115707078D01*
X161435937Y-115704043D01*
X161432072Y-115701573D01*
X161428193Y-115699240D01*
X161422759Y-115695109D01*
X161352296Y-115662509D01*
X161349219Y-115661035D01*
X161308312Y-115640747D01*
X161279636Y-115626525D01*
X161273006Y-115624876D01*
X161268729Y-115623305D01*
X161264419Y-115621853D01*
X161258218Y-115618984D01*
X161182372Y-115602289D01*
X161179058Y-115601513D01*
X161110321Y-115584419D01*
X161110319Y-115584419D01*
X161103697Y-115582772D01*
X161096874Y-115582587D01*
X161092367Y-115581973D01*
X161087835Y-115581480D01*
X161081160Y-115580011D01*
X161003501Y-115580011D01*
X161000089Y-115579965D01*
X160922466Y-115577862D01*
X160915763Y-115579148D01*
X160910274Y-115579595D01*
X160900049Y-115580011D01*
X157611500Y-115580011D01*
X157543379Y-115560009D01*
X157496886Y-115506353D01*
X157485500Y-115454011D01*
X157485500Y-114039115D01*
X157505502Y-113970994D01*
X157559158Y-113924501D01*
X157598692Y-113913768D01*
X157608536Y-113912762D01*
X157608543Y-113912761D01*
X157615381Y-113912062D01*
X157780920Y-113857209D01*
X157929346Y-113765658D01*
X158052658Y-113642346D01*
X158065999Y-113620718D01*
X158140358Y-113500163D01*
X158144209Y-113493920D01*
X158187149Y-113364334D01*
X158196900Y-113334907D01*
X158196901Y-113334903D01*
X158199062Y-113328381D01*
X158205640Y-113264000D01*
X158209175Y-113229397D01*
X158209175Y-113229391D01*
X158209500Y-113226213D01*
X158209499Y-112626788D01*
X158199062Y-112524619D01*
X158194771Y-112511668D01*
X158168913Y-112433632D01*
X158166473Y-112362677D01*
X158202782Y-112301667D01*
X158266311Y-112269972D01*
X158288518Y-112268000D01*
X158370000Y-112268000D01*
X158477980Y-112256391D01*
X158481264Y-112255677D01*
X158481268Y-112255676D01*
X158509939Y-112249439D01*
X158530322Y-112245005D01*
X158633372Y-112210707D01*
X158755010Y-112132535D01*
X158768766Y-112120616D01*
X158805273Y-112088982D01*
X158808666Y-112086042D01*
X158903355Y-111976766D01*
X158963421Y-111845240D01*
X158979115Y-111791790D01*
X158982154Y-111781442D01*
X158982155Y-111781438D01*
X158983423Y-111777119D01*
X158984577Y-111769095D01*
X159003361Y-111638448D01*
X159003362Y-111638441D01*
X159004000Y-111634000D01*
X159004000Y-108330000D01*
X159004612Y-108330000D01*
X159020300Y-108263639D01*
X159071395Y-108214346D01*
X159129786Y-108200000D01*
X164676083Y-108200000D01*
X164695792Y-108201551D01*
X164709690Y-108203752D01*
X164716277Y-108203407D01*
X164716282Y-108203407D01*
X164777980Y-108200173D01*
X164784574Y-108200000D01*
X164805110Y-108200000D01*
X164808382Y-108199656D01*
X164808384Y-108199656D01*
X164825542Y-108197853D01*
X164832116Y-108197336D01*
X164893808Y-108194103D01*
X164893812Y-108194102D01*
X164900403Y-108193757D01*
X164906784Y-108192047D01*
X164906786Y-108192047D01*
X164913991Y-108190117D01*
X164933425Y-108186515D01*
X164940854Y-108185734D01*
X164940863Y-108185732D01*
X164947428Y-108185042D01*
X165012497Y-108163900D01*
X165018799Y-108162033D01*
X165084870Y-108144329D01*
X165097408Y-108137940D01*
X165115674Y-108130375D01*
X165122772Y-108128069D01*
X165122774Y-108128068D01*
X165129056Y-108126027D01*
X165188285Y-108091831D01*
X165194079Y-108088685D01*
X165255030Y-108057629D01*
X165265967Y-108048773D01*
X165282263Y-108037573D01*
X165288724Y-108033843D01*
X165288728Y-108033840D01*
X165294444Y-108030540D01*
X165299350Y-108026123D01*
X165299355Y-108026119D01*
X165345269Y-107984778D01*
X165350284Y-107980494D01*
X165363677Y-107969648D01*
X165366241Y-107967572D01*
X165380756Y-107953057D01*
X165385541Y-107948516D01*
X165431457Y-107907173D01*
X165436366Y-107902753D01*
X165444640Y-107891365D01*
X165457481Y-107876332D01*
X165908408Y-107425405D01*
X165970720Y-107391379D01*
X165997503Y-107388500D01*
X168617638Y-107388500D01*
X168620985Y-107388140D01*
X168620988Y-107388140D01*
X168641295Y-107385957D01*
X168678201Y-107381989D01*
X168815204Y-107330889D01*
X168932261Y-107243261D01*
X168973629Y-107188000D01*
X169014489Y-107133418D01*
X169014490Y-107133416D01*
X169019889Y-107126204D01*
X169070989Y-106989201D01*
X169076514Y-106937814D01*
X169077140Y-106931988D01*
X169077140Y-106931985D01*
X169077500Y-106928638D01*
X169077500Y-103331362D01*
X169070989Y-103270799D01*
X169019889Y-103133796D01*
X169008195Y-103118174D01*
X168937659Y-103023950D01*
X168932261Y-103016739D01*
X168853702Y-102957930D01*
X168822418Y-102934511D01*
X168822416Y-102934510D01*
X168815204Y-102929111D01*
X168678201Y-102878011D01*
X168670360Y-102877168D01*
X168667588Y-102876513D01*
X168605892Y-102841382D01*
X168572983Y-102778474D01*
X168579309Y-102707759D01*
X168607466Y-102664794D01*
X168673453Y-102598807D01*
X168677489Y-102591983D01*
X168677491Y-102591980D01*
X168754108Y-102462427D01*
X168758145Y-102455601D01*
X168760494Y-102447518D01*
X168785644Y-102360947D01*
X168804562Y-102295831D01*
X168805773Y-102280454D01*
X168807307Y-102260958D01*
X168807307Y-102260950D01*
X168807500Y-102258502D01*
X168807500Y-101825498D01*
X168805836Y-101804353D01*
X168805067Y-101794579D01*
X168805066Y-101794574D01*
X168804562Y-101788169D01*
X168758145Y-101628399D01*
X168696019Y-101523350D01*
X168677491Y-101492020D01*
X168677489Y-101492017D01*
X168673453Y-101485193D01*
X168555807Y-101367547D01*
X168548983Y-101363511D01*
X168548980Y-101363509D01*
X168419427Y-101286892D01*
X168419428Y-101286892D01*
X168412601Y-101282855D01*
X168404990Y-101280644D01*
X168404988Y-101280643D01*
X168352769Y-101265472D01*
X168252831Y-101236438D01*
X168246426Y-101235934D01*
X168246421Y-101235933D01*
X168217958Y-101233693D01*
X168217950Y-101233693D01*
X168215502Y-101233500D01*
X167058500Y-101233500D01*
X166990379Y-101213498D01*
X166943886Y-101159842D01*
X166932500Y-101107500D01*
X166932500Y-100875498D01*
X166929562Y-100838169D01*
X166883145Y-100678399D01*
X166854363Y-100629731D01*
X166802491Y-100542020D01*
X166802489Y-100542017D01*
X166798453Y-100535193D01*
X166680807Y-100417547D01*
X166673983Y-100413511D01*
X166673980Y-100413509D01*
X166544427Y-100336892D01*
X166544428Y-100336892D01*
X166537601Y-100332855D01*
X166529990Y-100330644D01*
X166529988Y-100330643D01*
X166477769Y-100315472D01*
X166377831Y-100286438D01*
X166371426Y-100285934D01*
X166371421Y-100285933D01*
X166342958Y-100283693D01*
X166342950Y-100283693D01*
X166340502Y-100283500D01*
X164916745Y-100283500D01*
X164848624Y-100263498D01*
X164802131Y-100209842D01*
X164791397Y-100170304D01*
X164791357Y-100169905D01*
X164784887Y-100106574D01*
X164784887Y-100106573D01*
X164786095Y-100106450D01*
X164790877Y-100042576D01*
X164833612Y-99985882D01*
X164900214Y-99961292D01*
X164908786Y-99961000D01*
X165609000Y-99961000D01*
X165612347Y-99960640D01*
X165612350Y-99960640D01*
X165716167Y-99949479D01*
X165716173Y-99949478D01*
X165719531Y-99949117D01*
X165771873Y-99937731D01*
X165775248Y-99936584D01*
X165775253Y-99936583D01*
X165875748Y-99902441D01*
X165875751Y-99902439D01*
X165883214Y-99899904D01*
X166001869Y-99822604D01*
X166005269Y-99819658D01*
X166051978Y-99779185D01*
X166051982Y-99779181D01*
X166055525Y-99776111D01*
X166155907Y-99658800D01*
X166213935Y-99529621D01*
X166215150Y-99525484D01*
X166232668Y-99465823D01*
X166232669Y-99465819D01*
X166233937Y-99461500D01*
X166235544Y-99450323D01*
X166254361Y-99319448D01*
X166254362Y-99319441D01*
X166255000Y-99315000D01*
X166255000Y-98170000D01*
X166254640Y-98166650D01*
X166243479Y-98062833D01*
X166243478Y-98062827D01*
X166243117Y-98059469D01*
X166231731Y-98007127D01*
X166230583Y-98003747D01*
X166196441Y-97903252D01*
X166196439Y-97903249D01*
X166193904Y-97895786D01*
X166116604Y-97777131D01*
X166106597Y-97765582D01*
X166073185Y-97727022D01*
X166073181Y-97727018D01*
X166070111Y-97723475D01*
X165952800Y-97623093D01*
X165823621Y-97565065D01*
X165819488Y-97563851D01*
X165819484Y-97563850D01*
X165759823Y-97546332D01*
X165759819Y-97546331D01*
X165755500Y-97545063D01*
X165751052Y-97544423D01*
X165751045Y-97544422D01*
X165613448Y-97524639D01*
X165613441Y-97524638D01*
X165609000Y-97524000D01*
X164984000Y-97524000D01*
X164915879Y-97503998D01*
X164869386Y-97450342D01*
X164858000Y-97398000D01*
X164858000Y-96773000D01*
X164850621Y-96704360D01*
X164846479Y-96665833D01*
X164846478Y-96665827D01*
X164846117Y-96662469D01*
X164834731Y-96610127D01*
X164833583Y-96606747D01*
X164799441Y-96506252D01*
X164799439Y-96506249D01*
X164796904Y-96498786D01*
X164719604Y-96380131D01*
X164703430Y-96361465D01*
X164676185Y-96330022D01*
X164676181Y-96330018D01*
X164673111Y-96326475D01*
X164555800Y-96226093D01*
X164426621Y-96168065D01*
X164422488Y-96166851D01*
X164422484Y-96166850D01*
X164362823Y-96149332D01*
X164362819Y-96149331D01*
X164358500Y-96148063D01*
X164354052Y-96147423D01*
X164354045Y-96147422D01*
X164216448Y-96127639D01*
X164216441Y-96127638D01*
X164212000Y-96127000D01*
X163067000Y-96127000D01*
X163063653Y-96127360D01*
X163063650Y-96127360D01*
X162959833Y-96138521D01*
X162959827Y-96138522D01*
X162956469Y-96138883D01*
X162904127Y-96150269D01*
X162900752Y-96151416D01*
X162900747Y-96151417D01*
X162800252Y-96185559D01*
X162800249Y-96185561D01*
X162792786Y-96188096D01*
X162674131Y-96265396D01*
X162658767Y-96278709D01*
X162625189Y-96307804D01*
X162560608Y-96337297D01*
X162490334Y-96327192D01*
X162476530Y-96319820D01*
X162392861Y-96268212D01*
X162341920Y-96236791D01*
X162279745Y-96216189D01*
X162182907Y-96184100D01*
X162182903Y-96184099D01*
X162176381Y-96181938D01*
X162169547Y-96181240D01*
X162169543Y-96181239D01*
X162077397Y-96171825D01*
X162077391Y-96171825D01*
X162074213Y-96171500D01*
X161845162Y-96171500D01*
X161777041Y-96151498D01*
X161756073Y-96134602D01*
X161748931Y-96127461D01*
X161714901Y-96065151D01*
X161712020Y-96038359D01*
X161712020Y-94556179D01*
X161712250Y-94548571D01*
X161715462Y-94495476D01*
X161715462Y-94495474D01*
X161715922Y-94487868D01*
X161714548Y-94480369D01*
X161704959Y-94428041D01*
X161703814Y-94420518D01*
X161697404Y-94367728D01*
X161697404Y-94367727D01*
X161696485Y-94360160D01*
X161692868Y-94350624D01*
X161686748Y-94328667D01*
X161684909Y-94318632D01*
X161659952Y-94263181D01*
X161657039Y-94256147D01*
X161638179Y-94206416D01*
X161638175Y-94206409D01*
X161635474Y-94199286D01*
X161629680Y-94190892D01*
X161618481Y-94171035D01*
X161617426Y-94168690D01*
X161617422Y-94168684D01*
X161614295Y-94161735D01*
X161576788Y-94113861D01*
X161572278Y-94107731D01*
X161542067Y-94063964D01*
X161537735Y-94057688D01*
X161532033Y-94052637D01*
X161532030Y-94052633D01*
X161492203Y-94017350D01*
X161486662Y-94012133D01*
X161019405Y-93544876D01*
X160985379Y-93482564D01*
X160982500Y-93455781D01*
X160982500Y-92293660D01*
X161002502Y-92225539D01*
X161019405Y-92204565D01*
X162596142Y-90627828D01*
X162601683Y-90622611D01*
X162641510Y-90587328D01*
X162641513Y-90587324D01*
X162647215Y-90582273D01*
X162667194Y-90553329D01*
X162681758Y-90532230D01*
X162686268Y-90526100D01*
X162719074Y-90484226D01*
X162723775Y-90478226D01*
X162726902Y-90471277D01*
X162726906Y-90471271D01*
X162727961Y-90468926D01*
X162739160Y-90449069D01*
X162744954Y-90440675D01*
X162747655Y-90433552D01*
X162747659Y-90433545D01*
X162766519Y-90383814D01*
X162769432Y-90376780D01*
X162791261Y-90328280D01*
X162791262Y-90328277D01*
X162794389Y-90321329D01*
X162796228Y-90311294D01*
X162802348Y-90289337D01*
X162805965Y-90279801D01*
X162808131Y-90261961D01*
X162813294Y-90219441D01*
X162814439Y-90211918D01*
X162824028Y-90159591D01*
X162824028Y-90159589D01*
X162825402Y-90152092D01*
X162821730Y-90091384D01*
X162821500Y-90083777D01*
X162821500Y-88631206D01*
X162839045Y-88567069D01*
X162872145Y-88511101D01*
X162882365Y-88475925D01*
X162905261Y-88397113D01*
X162918562Y-88351331D01*
X162920344Y-88328700D01*
X162921307Y-88316458D01*
X162921307Y-88316450D01*
X162921500Y-88314002D01*
X162921500Y-87005998D01*
X162921307Y-87003542D01*
X162919067Y-86975079D01*
X162919066Y-86975074D01*
X162918562Y-86968669D01*
X162879666Y-86834787D01*
X162874357Y-86816512D01*
X162874356Y-86816510D01*
X162872145Y-86808899D01*
X162839045Y-86752930D01*
X162821500Y-86688794D01*
X162821500Y-85176223D01*
X162821730Y-85168616D01*
X162824942Y-85115515D01*
X162824942Y-85115514D01*
X162825402Y-85107908D01*
X162824028Y-85100409D01*
X162814439Y-85048082D01*
X162813294Y-85040559D01*
X162806884Y-84987766D01*
X162806884Y-84987764D01*
X162805965Y-84980199D01*
X162802348Y-84970663D01*
X162796228Y-84948706D01*
X162794389Y-84938671D01*
X162769415Y-84883182D01*
X162766525Y-84876205D01*
X162744954Y-84819325D01*
X162740618Y-84813043D01*
X162739158Y-84810927D01*
X162727960Y-84791074D01*
X162726902Y-84788722D01*
X162726900Y-84788719D01*
X162723775Y-84781775D01*
X162686271Y-84733905D01*
X162681760Y-84727774D01*
X162651546Y-84684001D01*
X162651544Y-84683999D01*
X162647215Y-84677727D01*
X162641513Y-84672676D01*
X162641510Y-84672672D01*
X162601683Y-84637389D01*
X162596142Y-84632172D01*
X162190308Y-84226338D01*
X162185091Y-84220797D01*
X162149808Y-84180970D01*
X162149804Y-84180967D01*
X162144753Y-84175265D01*
X162129941Y-84165041D01*
X162094710Y-84140722D01*
X162088580Y-84136212D01*
X162046706Y-84103406D01*
X162040706Y-84098705D01*
X162033757Y-84095578D01*
X162033751Y-84095574D01*
X162031406Y-84094519D01*
X162011549Y-84083320D01*
X162003155Y-84077526D01*
X161996032Y-84074825D01*
X161996025Y-84074821D01*
X161946294Y-84055961D01*
X161939260Y-84053048D01*
X161890760Y-84031219D01*
X161890757Y-84031218D01*
X161883809Y-84028091D01*
X161873774Y-84026252D01*
X161851817Y-84020132D01*
X161842281Y-84016515D01*
X161834714Y-84015596D01*
X161834713Y-84015596D01*
X161781923Y-84009186D01*
X161774400Y-84008041D01*
X161722072Y-83998452D01*
X161722070Y-83998452D01*
X161714573Y-83997078D01*
X161706967Y-83997538D01*
X161706965Y-83997538D01*
X161653870Y-84000750D01*
X161646262Y-84000980D01*
X159154386Y-84000980D01*
X159088239Y-83982221D01*
X159084807Y-83980104D01*
X159014738Y-83936885D01*
X158925304Y-83907250D01*
X158852952Y-83883275D01*
X158852948Y-83883274D01*
X158846426Y-83881113D01*
X158839592Y-83880415D01*
X158839588Y-83880414D01*
X158745729Y-83870825D01*
X158745723Y-83870825D01*
X158742545Y-83870500D01*
X158242079Y-83870500D01*
X157741456Y-83870501D01*
X157738279Y-83870826D01*
X157738270Y-83870826D01*
X157689533Y-83875805D01*
X157637574Y-83881113D01*
X157469262Y-83936885D01*
X157395761Y-83982221D01*
X157334303Y-84020129D01*
X157318348Y-84029970D01*
X157192970Y-84155348D01*
X157099885Y-84306262D01*
X157044113Y-84474574D01*
X157043415Y-84481408D01*
X157043414Y-84481412D01*
X157034900Y-84564751D01*
X157008077Y-84630486D01*
X156998647Y-84641040D01*
X155537888Y-86101799D01*
X155475576Y-86135825D01*
X155455506Y-86138501D01*
X155452788Y-86138501D01*
X155350619Y-86148938D01*
X155185080Y-86203791D01*
X155138904Y-86232273D01*
X155054843Y-86284123D01*
X155036654Y-86295342D01*
X155029095Y-86302901D01*
X155027072Y-86304006D01*
X155025712Y-86305081D01*
X155025528Y-86304849D01*
X154966783Y-86336927D01*
X154895968Y-86331862D01*
X154854291Y-86305077D01*
X154854288Y-86305081D01*
X154854249Y-86305050D01*
X154850905Y-86302901D01*
X154843346Y-86295342D01*
X154825158Y-86284123D01*
X154741096Y-86232273D01*
X154694920Y-86203791D01*
X154601152Y-86172720D01*
X154535907Y-86151100D01*
X154535903Y-86151099D01*
X154529381Y-86148938D01*
X154522547Y-86148240D01*
X154522543Y-86148239D01*
X154430397Y-86138825D01*
X154430391Y-86138825D01*
X154427213Y-86138500D01*
X154077555Y-86138500D01*
X153727788Y-86138501D01*
X153724611Y-86138826D01*
X153724602Y-86138826D01*
X153676735Y-86143716D01*
X153625619Y-86148938D01*
X153460080Y-86203791D01*
X153413904Y-86232273D01*
X153329843Y-86284123D01*
X153311654Y-86295342D01*
X153188342Y-86418654D01*
X153096791Y-86567080D01*
X153084296Y-86604788D01*
X153044122Y-86726029D01*
X153041938Y-86732619D01*
X153041240Y-86739453D01*
X153041239Y-86739457D01*
X153037700Y-86774097D01*
X153033304Y-86817135D01*
X153031923Y-86830650D01*
X153005101Y-86896385D01*
X152995670Y-86906939D01*
X151831719Y-88070889D01*
X151702889Y-88199719D01*
X151682341Y-88232422D01*
X151674177Y-88243928D01*
X151650091Y-88274130D01*
X151647022Y-88280503D01*
X151647020Y-88280506D01*
X151633337Y-88308920D01*
X151626502Y-88321287D01*
X151605957Y-88353985D01*
X151603621Y-88360662D01*
X151593203Y-88390434D01*
X151587797Y-88403485D01*
X151571041Y-88438280D01*
X151569468Y-88445173D01*
X151569466Y-88445178D01*
X151562449Y-88475925D01*
X151558538Y-88489503D01*
X151545783Y-88525953D01*
X151544992Y-88532976D01*
X151544991Y-88532979D01*
X151541459Y-88564329D01*
X151539092Y-88578257D01*
X151530500Y-88615903D01*
X151530500Y-91240918D01*
X151510498Y-91309039D01*
X151493595Y-91330013D01*
X151001889Y-91821719D01*
X150981341Y-91854422D01*
X150973177Y-91865928D01*
X150949091Y-91896130D01*
X150946022Y-91902503D01*
X150946020Y-91902506D01*
X150932337Y-91930920D01*
X150925502Y-91943287D01*
X150904957Y-91975985D01*
X150902621Y-91982662D01*
X150892203Y-92012434D01*
X150886797Y-92025486D01*
X150873110Y-92053908D01*
X150870041Y-92060280D01*
X150868468Y-92067173D01*
X150868466Y-92067178D01*
X150861449Y-92097925D01*
X150857538Y-92111503D01*
X150844783Y-92147953D01*
X150840462Y-92186306D01*
X150840459Y-92186329D01*
X150838092Y-92200257D01*
X150829500Y-92237903D01*
X150829500Y-96774597D01*
X150831075Y-96781498D01*
X150838092Y-96812242D01*
X150840459Y-96826169D01*
X150844783Y-96864547D01*
X150847119Y-96871222D01*
X150857537Y-96900995D01*
X150861449Y-96914575D01*
X150868466Y-96945322D01*
X150868468Y-96945327D01*
X150870041Y-96952220D01*
X150873109Y-96958590D01*
X150873109Y-96958591D01*
X150886797Y-96987014D01*
X150892203Y-97000066D01*
X150904957Y-97036515D01*
X150908722Y-97042507D01*
X150925502Y-97069213D01*
X150932334Y-97081574D01*
X150949091Y-97116370D01*
X150973177Y-97146572D01*
X150981341Y-97158078D01*
X151001889Y-97190781D01*
X151487595Y-97676487D01*
X151521621Y-97738799D01*
X151524500Y-97765582D01*
X151524500Y-97827873D01*
X151504498Y-97895994D01*
X151487233Y-97917329D01*
X151486034Y-97918518D01*
X151482624Y-97921449D01*
X151479667Y-97924834D01*
X151479662Y-97924839D01*
X151465817Y-97940688D01*
X151462934Y-97943877D01*
X151383354Y-98028937D01*
X151380795Y-98031594D01*
X151361722Y-98050820D01*
X151359044Y-98054428D01*
X151357132Y-98056652D01*
X151355244Y-98058984D01*
X151352166Y-98062273D01*
X151349587Y-98065968D01*
X151349583Y-98065973D01*
X151336688Y-98084449D01*
X151334547Y-98087424D01*
X151305697Y-98126285D01*
X151262309Y-98184729D01*
X151260347Y-98187302D01*
X151242978Y-98209484D01*
X151240740Y-98213379D01*
X151239610Y-98215056D01*
X151238487Y-98216818D01*
X151235803Y-98220434D01*
X151233661Y-98224395D01*
X151233658Y-98224399D01*
X151222381Y-98245248D01*
X151220804Y-98248076D01*
X151158092Y-98357221D01*
X151156559Y-98359817D01*
X151143969Y-98380564D01*
X151141633Y-98384414D01*
X151139872Y-98388549D01*
X151139403Y-98389463D01*
X151139123Y-98389978D01*
X151138883Y-98390507D01*
X151138436Y-98391433D01*
X151136195Y-98395332D01*
X151134533Y-98399509D01*
X151125563Y-98422051D01*
X151124424Y-98424818D01*
X151073128Y-98545250D01*
X151071914Y-98548006D01*
X151060051Y-98574076D01*
X151058789Y-98578397D01*
X151058308Y-98579690D01*
X151058179Y-98580015D01*
X151058078Y-98580331D01*
X151057628Y-98581641D01*
X151055866Y-98585777D01*
X151054711Y-98590123D01*
X151048516Y-98613424D01*
X151047690Y-98616384D01*
X151018529Y-98716198D01*
X151009544Y-98746951D01*
X151008542Y-98750214D01*
X151000040Y-98776631D01*
X150999284Y-98781073D01*
X150998708Y-98783428D01*
X150998203Y-98785765D01*
X150996939Y-98790091D01*
X150994424Y-98807749D01*
X150993028Y-98817553D01*
X150992501Y-98820928D01*
X150968735Y-98960570D01*
X150967998Y-98964518D01*
X150963669Y-98985826D01*
X150962773Y-98990237D01*
X150962514Y-98994722D01*
X150962049Y-98998305D01*
X150961694Y-99001943D01*
X150960939Y-99006382D01*
X150960823Y-99010886D01*
X150960263Y-99032603D01*
X150960097Y-99036584D01*
X150955672Y-99113221D01*
X150951559Y-99184446D01*
X150951190Y-99189250D01*
X150948871Y-99213352D01*
X150949082Y-99217841D01*
X150948992Y-99221482D01*
X150948975Y-99224712D01*
X150949025Y-99228347D01*
X150948765Y-99232841D01*
X150949147Y-99237318D01*
X150949147Y-99237320D01*
X150950824Y-99256969D01*
X150951142Y-99261781D01*
X150958433Y-99417279D01*
X150958571Y-99423024D01*
X150958592Y-99440374D01*
X150958593Y-99440381D01*
X150958598Y-99444882D01*
X150959390Y-99450341D01*
X150960556Y-99462529D01*
X150960814Y-99468033D01*
X150961663Y-99472454D01*
X150961664Y-99472464D01*
X150964934Y-99489496D01*
X150965890Y-99495171D01*
X150970285Y-99525484D01*
X150989361Y-99657041D01*
X150989537Y-99658258D01*
X150990326Y-99664953D01*
X150992077Y-99684254D01*
X150993116Y-99688628D01*
X150993118Y-99688638D01*
X150993930Y-99692057D01*
X150996037Y-99703091D01*
X150997187Y-99711020D01*
X150998460Y-99715336D01*
X151002666Y-99729598D01*
X151004398Y-99736108D01*
X151024952Y-99822604D01*
X151032813Y-99855688D01*
X151034944Y-99866886D01*
X151035770Y-99872632D01*
X151035770Y-99881647D01*
X151038309Y-99890295D01*
X151038310Y-99890300D01*
X151051236Y-99934322D01*
X151053067Y-99941286D01*
X151057186Y-99959007D01*
X151057641Y-99960177D01*
X151057931Y-99961396D01*
X151059435Y-99965204D01*
X151059438Y-99965215D01*
X151060732Y-99968491D01*
X151064433Y-99979266D01*
X151076925Y-100021809D01*
X151081798Y-100029391D01*
X151082023Y-100029742D01*
X151093439Y-100052151D01*
X151102330Y-100074992D01*
X151104534Y-100081118D01*
X151110807Y-100100076D01*
X151114114Y-100106712D01*
X151118762Y-100117209D01*
X151121454Y-100124127D01*
X151123666Y-100128045D01*
X151123669Y-100128051D01*
X151131274Y-100141521D01*
X151134326Y-100147269D01*
X151165771Y-100210368D01*
X151168924Y-100217196D01*
X151175739Y-100233202D01*
X151180937Y-100241770D01*
X151185976Y-100250910D01*
X151190443Y-100259874D01*
X151193001Y-100263572D01*
X151200324Y-100274159D01*
X151204420Y-100280477D01*
X151239293Y-100337956D01*
X151243478Y-100345414D01*
X151248213Y-100354567D01*
X151248217Y-100354573D01*
X151250281Y-100358563D01*
X151257587Y-100368791D01*
X151262777Y-100376664D01*
X151269302Y-100387419D01*
X151272155Y-100390888D01*
X151272155Y-100390889D01*
X151278709Y-100398860D01*
X151283911Y-100405643D01*
X151302895Y-100432220D01*
X151321328Y-100458026D01*
X151326560Y-100465969D01*
X151330642Y-100472706D01*
X151332977Y-100476559D01*
X151335834Y-100480038D01*
X151342497Y-100488152D01*
X151347651Y-100494877D01*
X151356370Y-100507083D01*
X151359478Y-100510334D01*
X151359482Y-100510338D01*
X151364924Y-100516028D01*
X151371235Y-100523147D01*
X151410577Y-100571055D01*
X151416832Y-100579347D01*
X151422606Y-100587697D01*
X151425664Y-100590995D01*
X151425675Y-100591008D01*
X151434324Y-100600333D01*
X151439307Y-100606041D01*
X151450257Y-100619375D01*
X151453581Y-100622413D01*
X151453587Y-100622419D01*
X151457741Y-100626215D01*
X151465130Y-100633549D01*
X151490887Y-100661323D01*
X151522542Y-100724873D01*
X151524500Y-100747001D01*
X151524500Y-101441544D01*
X151524825Y-101444722D01*
X151524825Y-101444728D01*
X151532858Y-101523350D01*
X151535113Y-101545425D01*
X151537274Y-101551947D01*
X151537275Y-101551951D01*
X151561030Y-101623639D01*
X151590885Y-101713738D01*
X151683970Y-101864651D01*
X151731724Y-101912405D01*
X151765750Y-101974717D01*
X151760685Y-102045532D01*
X151718138Y-102102368D01*
X151651618Y-102127179D01*
X151642629Y-102127500D01*
X150847362Y-102127500D01*
X150844015Y-102127860D01*
X150844012Y-102127860D01*
X150823705Y-102130043D01*
X150786799Y-102134011D01*
X150649796Y-102185111D01*
X150642584Y-102190510D01*
X150642582Y-102190511D01*
X150591213Y-102228966D01*
X150532739Y-102272739D01*
X150527341Y-102279950D01*
X150466742Y-102360901D01*
X150445111Y-102389796D01*
X150394011Y-102526799D01*
X150387500Y-102587362D01*
X150387500Y-104137935D01*
X150367498Y-104206056D01*
X150313842Y-104252549D01*
X150243568Y-104262653D01*
X150178988Y-104233159D01*
X150143537Y-104182215D01*
X150113190Y-104101369D01*
X150025819Y-103868609D01*
X150025461Y-103867639D01*
X149775870Y-103182009D01*
X149775249Y-103180121D01*
X149774817Y-103178156D01*
X149763151Y-103147051D01*
X149762729Y-103145908D01*
X149752880Y-103118853D01*
X149752876Y-103118845D01*
X149751338Y-103114619D01*
X149750388Y-103112847D01*
X149749622Y-103110981D01*
X149743078Y-103093533D01*
X149678287Y-102920785D01*
X149677467Y-102918533D01*
X149654866Y-102854569D01*
X149609056Y-102724925D01*
X149607971Y-102721718D01*
X149596431Y-102686020D01*
X149579946Y-102635030D01*
X149579088Y-102632265D01*
X149578975Y-102631884D01*
X149552564Y-102543269D01*
X149551705Y-102540249D01*
X149526566Y-102447518D01*
X149525777Y-102444459D01*
X149501382Y-102344622D01*
X149500715Y-102341745D01*
X149498458Y-102331453D01*
X149476550Y-102231593D01*
X149476003Y-102228966D01*
X149451676Y-102105578D01*
X149451249Y-102103301D01*
X149432693Y-101999130D01*
X149426417Y-101963892D01*
X149426101Y-101962039D01*
X149425848Y-101960476D01*
X149400503Y-101804336D01*
X149400262Y-101802791D01*
X149400159Y-101802098D01*
X149373572Y-101624221D01*
X149373392Y-101622971D01*
X149345507Y-101422700D01*
X149345322Y-101421316D01*
X149285952Y-100957330D01*
X149285173Y-100949117D01*
X149265200Y-100626215D01*
X149260717Y-100553734D01*
X149260647Y-100552490D01*
X149260111Y-100542020D01*
X149243460Y-100217205D01*
X149240415Y-100157812D01*
X149240348Y-100156336D01*
X149225495Y-99780441D01*
X149225441Y-99778792D01*
X149216017Y-99421917D01*
X149215982Y-99420066D01*
X149214542Y-99297009D01*
X149212035Y-99082800D01*
X149212028Y-99080728D01*
X149212095Y-99067199D01*
X149213587Y-98763529D01*
X149213621Y-98761154D01*
X149213960Y-98746951D01*
X149217613Y-98593625D01*
X149220689Y-98464550D01*
X149220783Y-98461820D01*
X149232702Y-98200086D01*
X149233390Y-98191486D01*
X149235850Y-98170000D01*
X149492796Y-95925757D01*
X149496309Y-95907341D01*
X149509265Y-95859217D01*
X149615540Y-95464446D01*
X149650103Y-95336058D01*
X149651684Y-95330722D01*
X149653269Y-95326807D01*
X149660361Y-95298060D01*
X149661023Y-95295493D01*
X149667569Y-95271176D01*
X149668741Y-95266823D01*
X149669249Y-95262617D01*
X149670447Y-95257179D01*
X149701435Y-95131575D01*
X149813134Y-94678814D01*
X149814699Y-94673058D01*
X149815012Y-94672005D01*
X149816601Y-94667792D01*
X149822808Y-94639752D01*
X149823498Y-94636802D01*
X149829297Y-94613296D01*
X149830376Y-94608924D01*
X149830821Y-94604441D01*
X149831003Y-94603387D01*
X149832155Y-94597528D01*
X150101305Y-93381660D01*
X150102487Y-93376914D01*
X150103786Y-93373258D01*
X150109750Y-93343621D01*
X150110249Y-93341254D01*
X150115811Y-93316129D01*
X150116782Y-93311744D01*
X150117073Y-93307873D01*
X150117913Y-93303056D01*
X150348826Y-92155521D01*
X150622066Y-90797645D01*
X150622449Y-90795815D01*
X150628456Y-90768136D01*
X150879876Y-89609496D01*
X150894104Y-89543927D01*
X150895046Y-89539904D01*
X151145413Y-88544799D01*
X151208843Y-88292690D01*
X151209975Y-88288497D01*
X151226250Y-88232114D01*
X151387934Y-87671970D01*
X151388952Y-87668621D01*
X151436608Y-87519296D01*
X151495465Y-87334871D01*
X151586589Y-87049340D01*
X151587841Y-87045617D01*
X151714697Y-86687114D01*
X151807152Y-86425829D01*
X151808648Y-86421822D01*
X151813175Y-86410295D01*
X152041071Y-85829916D01*
X152048319Y-85814582D01*
X152243727Y-85464321D01*
X152245687Y-85460931D01*
X152455236Y-85111319D01*
X152457463Y-85107741D01*
X152544427Y-84973078D01*
X152665560Y-84785504D01*
X152668042Y-84781807D01*
X152668065Y-84781775D01*
X152875572Y-84484177D01*
X152878303Y-84480410D01*
X153086275Y-84204500D01*
X153089219Y-84200745D01*
X153120291Y-84162617D01*
X153298720Y-83943665D01*
X153301802Y-83940025D01*
X153330644Y-83907250D01*
X153514144Y-83698729D01*
X153517246Y-83695333D01*
X153733718Y-83466952D01*
X153736811Y-83463802D01*
X153958736Y-83245543D01*
X153961681Y-83242738D01*
X154190534Y-83031754D01*
X154193224Y-83029345D01*
X154211601Y-83013353D01*
X154383398Y-82863847D01*
X154430270Y-82823057D01*
X154432616Y-82821065D01*
X154677322Y-82618399D01*
X154680007Y-82616236D01*
X155049186Y-82327136D01*
X155208979Y-82202004D01*
X155211017Y-82200442D01*
X155273950Y-82153202D01*
X155772008Y-81779339D01*
X155778224Y-81774960D01*
X155779391Y-81774190D01*
X155823200Y-81745267D01*
X155829015Y-81738387D01*
X155829018Y-81738384D01*
X155853481Y-81709439D01*
X155860502Y-81701794D01*
X155893621Y-81668589D01*
X155897927Y-81660678D01*
X155897931Y-81660673D01*
X155919388Y-81621254D01*
X155923225Y-81614685D01*
X156222511Y-81136131D01*
X156223912Y-81133942D01*
X156537362Y-80655460D01*
X156538985Y-80653045D01*
X156860141Y-80186779D01*
X156861992Y-80184163D01*
X157191538Y-79730847D01*
X157193631Y-79728051D01*
X157532095Y-79288612D01*
X157534451Y-79285647D01*
X157882465Y-78860852D01*
X157885104Y-78857734D01*
X158180350Y-78520283D01*
X158214589Y-78481150D01*
X158274499Y-78443053D01*
X158345494Y-78443393D01*
X158405036Y-78482063D01*
X158433028Y-78539696D01*
X158440043Y-78575202D01*
X158441685Y-78585923D01*
X158442666Y-78594888D01*
X158443787Y-78599245D01*
X158447239Y-78612665D01*
X158448815Y-78619601D01*
X158452378Y-78637636D01*
X158453869Y-78641879D01*
X158455371Y-78646155D01*
X158458521Y-78656529D01*
X158469139Y-78697809D01*
X158471470Y-78708925D01*
X158472710Y-78716537D01*
X158478616Y-78735343D01*
X158480414Y-78741643D01*
X158485322Y-78760723D01*
X158487055Y-78764885D01*
X158488481Y-78769143D01*
X158488404Y-78769169D01*
X158491216Y-78777269D01*
X158491720Y-78779066D01*
X158492624Y-78783473D01*
X158494145Y-78787705D01*
X158500545Y-78805512D01*
X158502178Y-78810366D01*
X158509201Y-78832725D01*
X158511149Y-78836787D01*
X158513590Y-78843533D01*
X158514794Y-78847181D01*
X158515895Y-78851540D01*
X158517606Y-78855699D01*
X158517606Y-78855700D01*
X158524269Y-78871901D01*
X158526313Y-78877210D01*
X158532228Y-78893668D01*
X158532232Y-78893678D01*
X158533757Y-78897920D01*
X158535871Y-78901905D01*
X158537449Y-78905471D01*
X158539916Y-78912087D01*
X158540058Y-78912032D01*
X158541678Y-78916226D01*
X158542998Y-78920535D01*
X158544917Y-78924611D01*
X158544918Y-78924613D01*
X158551744Y-78939110D01*
X158554276Y-78944855D01*
X158560371Y-78959674D01*
X158560374Y-78959680D01*
X158562087Y-78963845D01*
X158564377Y-78967728D01*
X158566377Y-78971747D01*
X158566136Y-78971867D01*
X158570864Y-78981848D01*
X158571005Y-78981784D01*
X158572854Y-78985890D01*
X158574404Y-78990112D01*
X158576539Y-78994071D01*
X158583446Y-79006879D01*
X158586541Y-79013011D01*
X158594659Y-79030254D01*
X158597132Y-79034005D01*
X158597612Y-79034733D01*
X158607922Y-79053747D01*
X158608789Y-79055737D01*
X158608794Y-79055746D01*
X158610591Y-79059871D01*
X158612957Y-79063698D01*
X158619840Y-79074832D01*
X158623521Y-79081195D01*
X158623893Y-79081884D01*
X158629192Y-79093760D01*
X158630687Y-79096583D01*
X158633726Y-79105062D01*
X158639033Y-79112344D01*
X158639034Y-79112346D01*
X158662531Y-79144588D01*
X158667882Y-79152549D01*
X158674289Y-79162915D01*
X158677171Y-79166361D01*
X158684027Y-79174559D01*
X158689199Y-79181180D01*
X158719761Y-79223117D01*
X158726905Y-79228609D01*
X158732596Y-79234448D01*
X158738672Y-79239903D01*
X158744453Y-79246815D01*
X158779151Y-79269983D01*
X158787602Y-79275626D01*
X158794431Y-79280523D01*
X158802898Y-79287033D01*
X158802902Y-79287036D01*
X158806469Y-79289778D01*
X158810391Y-79291985D01*
X158810398Y-79291990D01*
X158815965Y-79295123D01*
X158829836Y-79304179D01*
X158847632Y-79317546D01*
X158847634Y-79317547D01*
X158854834Y-79322955D01*
X158863154Y-79326074D01*
X158865939Y-79327933D01*
X158875748Y-79331001D01*
X158882348Y-79333269D01*
X158919942Y-79347360D01*
X158921245Y-79347856D01*
X158942128Y-79355952D01*
X158978407Y-79370016D01*
X158978408Y-79370016D01*
X158986007Y-79372962D01*
X158988899Y-79373206D01*
X158991620Y-79374226D01*
X158999752Y-79374821D01*
X158999753Y-79374821D01*
X159060956Y-79379298D01*
X159062362Y-79379409D01*
X159106799Y-79383160D01*
X159131568Y-79385251D01*
X159134413Y-79384670D01*
X159137310Y-79384882D01*
X159198801Y-79371609D01*
X159202615Y-79370848D01*
X159206587Y-79370118D01*
X159215589Y-79369768D01*
X159224126Y-79366896D01*
X159226703Y-79366423D01*
X159235822Y-79363968D01*
X159265870Y-79357834D01*
X159265872Y-79357833D01*
X159274695Y-79356032D01*
X159297458Y-79343978D01*
X159316246Y-79335908D01*
X159345503Y-79326066D01*
X159354044Y-79323193D01*
X159384801Y-79301691D01*
X159396785Y-79294276D01*
X159421828Y-79280654D01*
X159421830Y-79280652D01*
X159429749Y-79276345D01*
X159474576Y-79231662D01*
X159477309Y-79229021D01*
X159531889Y-79177879D01*
X159557729Y-79153850D01*
X159558339Y-79153094D01*
X159559052Y-79152426D01*
X159581261Y-79124685D01*
X159606213Y-79093760D01*
X159646685Y-79043600D01*
X159655022Y-79034259D01*
X159655227Y-79034051D01*
X159655235Y-79034042D01*
X159658392Y-79030840D01*
X159671808Y-79012651D01*
X159675132Y-79008345D01*
X159686486Y-78994273D01*
X159686491Y-78994265D01*
X159689314Y-78990767D01*
X159691607Y-78986907D01*
X159691615Y-78986896D01*
X159691757Y-78986656D01*
X159698682Y-78976218D01*
X159765256Y-78885964D01*
X159766166Y-78884810D01*
X159767246Y-78883698D01*
X159787179Y-78856249D01*
X159787683Y-78855561D01*
X159805520Y-78831379D01*
X159805532Y-78831361D01*
X159807928Y-78828113D01*
X159808660Y-78826750D01*
X159809493Y-78825521D01*
X160045700Y-78500247D01*
X160047432Y-78497920D01*
X160185045Y-78317482D01*
X160187734Y-78314080D01*
X160326734Y-78144314D01*
X160331074Y-78139290D01*
X160436312Y-78023753D01*
X160496971Y-77986861D01*
X160567945Y-77988621D01*
G37*
%TD.AperFunction*%
%TD*%
M02*
