%TF.GenerationSoftware,KiCad,Pcbnew,(6.99.0-907-g90f6edad61)*%
%TF.CreationDate,2022-02-13T13:40:20+01:00*%
%TF.ProjectId,tuxpin,74757870-696e-42e6-9b69-6361645f7063,rev?*%
%TF.SameCoordinates,Original*%
%TF.FileFunction,Copper,L2,Bot*%
%TF.FilePolarity,Positive*%
%FSLAX46Y46*%
G04 Gerber Fmt 4.6, Leading zero omitted, Abs format (unit mm)*
G04 Created by KiCad (PCBNEW (6.99.0-907-g90f6edad61)) date 2022-02-13 13:40:20*
%MOMM*%
%LPD*%
G01*
G04 APERTURE LIST*
G04 Aperture macros list*
%AMRoundRect*
0 Rectangle with rounded corners*
0 $1 Rounding radius*
0 $2 $3 $4 $5 $6 $7 $8 $9 X,Y pos of 4 corners*
0 Add a 4 corners polygon primitive as box body*
4,1,4,$2,$3,$4,$5,$6,$7,$8,$9,$2,$3,0*
0 Add four circle primitives for the rounded corners*
1,1,$1+$1,$2,$3*
1,1,$1+$1,$4,$5*
1,1,$1+$1,$6,$7*
1,1,$1+$1,$8,$9*
0 Add four rect primitives between the rounded corners*
20,1,$1+$1,$2,$3,$4,$5,0*
20,1,$1+$1,$4,$5,$6,$7,0*
20,1,$1+$1,$6,$7,$8,$9,0*
20,1,$1+$1,$8,$9,$2,$3,0*%
G04 Aperture macros list end*
%TA.AperFunction,SMDPad,CuDef*%
%ADD10RoundRect,1.000000X-0.961262X-0.275637X0.961262X0.275637X0.961262X0.275637X-0.961262X-0.275637X0*%
%TD*%
%TA.AperFunction,ViaPad*%
%ADD11C,1.000000*%
%TD*%
%TA.AperFunction,ViaPad*%
%ADD12C,0.800000*%
%TD*%
G04 APERTURE END LIST*
D10*
%TO.P,CB1,1*%
%TO.N,VCC*%
X170850925Y-114936946D03*
X168815498Y-105117601D03*
X170434000Y-109855000D03*
%TO.P,CB1,2*%
%TO.N,Net-(Q2-B)*%
X170578757Y-117615738D03*
X167405458Y-102921175D03*
X170882778Y-112327064D03*
X169744907Y-107451846D03*
%TD*%
D11*
%TO.N,GND*%
X155829000Y-121285000D03*
D12*
%TO.N,VCC*%
X164973000Y-98679000D03*
%TO.N,Net-(Q2-B)*%
X164846000Y-102870000D03*
%TD*%
%TA.AperFunction,Conductor*%
%TO.N,GND*%
G36*
X160567945Y-77988621D02*
G01*
X160626702Y-78028473D01*
X160653605Y-78087049D01*
X161196513Y-81214481D01*
X161202511Y-81249035D01*
X161203735Y-81259175D01*
X161203141Y-81267136D01*
X161215847Y-81326414D01*
X161216781Y-81331236D01*
X161220867Y-81354777D01*
X161222261Y-81359059D01*
X161222909Y-81361672D01*
X161224370Y-81367100D01*
X161225119Y-81369681D01*
X161226062Y-81374078D01*
X161227622Y-81378299D01*
X161227622Y-81378300D01*
X161234338Y-81396475D01*
X161235960Y-81401143D01*
X161254719Y-81458777D01*
X161255924Y-81460538D01*
X161256661Y-81464782D01*
X161258346Y-81464075D01*
X161265417Y-81480928D01*
X161267418Y-81486002D01*
X161275253Y-81507209D01*
X161277401Y-81511171D01*
X161277403Y-81511176D01*
X161277526Y-81511403D01*
X161282925Y-81522663D01*
X161284258Y-81525838D01*
X161288420Y-81537271D01*
X161290121Y-81542753D01*
X161292047Y-81546808D01*
X161292048Y-81546809D01*
X161299410Y-81562303D01*
X161301787Y-81567620D01*
X161310168Y-81587595D01*
X161312476Y-81591445D01*
X161312477Y-81591447D01*
X161313110Y-81592502D01*
X161318861Y-81603240D01*
X161319715Y-81605038D01*
X161324263Y-81615897D01*
X161326524Y-81622094D01*
X161328648Y-81626051D01*
X161328651Y-81626058D01*
X161336342Y-81640387D01*
X161339127Y-81645895D01*
X161348058Y-81664690D01*
X161351711Y-81670189D01*
X161357852Y-81680460D01*
X161358172Y-81681058D01*
X161363071Y-81691297D01*
X161365935Y-81698048D01*
X161368268Y-81701906D01*
X161368269Y-81701907D01*
X161376322Y-81715222D01*
X161379526Y-81720840D01*
X161386874Y-81734530D01*
X161389003Y-81738496D01*
X161391673Y-81742116D01*
X161391674Y-81742118D01*
X161393178Y-81744157D01*
X161405000Y-81763665D01*
X161408322Y-81770469D01*
X161419298Y-81786616D01*
X161422900Y-81792231D01*
X161433009Y-81808945D01*
X161435870Y-81812435D01*
X161435871Y-81812436D01*
X161437396Y-81814296D01*
X161450042Y-81832884D01*
X161453534Y-81839155D01*
X161456259Y-81842733D01*
X161456262Y-81842738D01*
X161465198Y-81854473D01*
X161469157Y-81859972D01*
X161470502Y-81861950D01*
X161479985Y-81875901D01*
X161483019Y-81879225D01*
X161484325Y-81880656D01*
X161497882Y-81898458D01*
X161501317Y-81903913D01*
X161513818Y-81918613D01*
X161518052Y-81923875D01*
X161526978Y-81935597D01*
X161526982Y-81935601D01*
X161529711Y-81939185D01*
X161532923Y-81942344D01*
X161533681Y-81943090D01*
X161545840Y-81957404D01*
X161545850Y-81957396D01*
X161546299Y-81957944D01*
X161548255Y-81960247D01*
X161551293Y-81964550D01*
X161554383Y-81967817D01*
X161564752Y-81978780D01*
X161569189Y-81983727D01*
X161581876Y-81998646D01*
X161585256Y-82001630D01*
X161588404Y-82004837D01*
X161588321Y-82004918D01*
X161597085Y-82014202D01*
X161597208Y-82014091D01*
X161600228Y-82017419D01*
X161603008Y-82020959D01*
X161617649Y-82034942D01*
X161622125Y-82039440D01*
X161636033Y-82054144D01*
X161639564Y-82056944D01*
X161642875Y-82059978D01*
X161642676Y-82060195D01*
X161649560Y-82066789D01*
X161649819Y-82066530D01*
X161653013Y-82069728D01*
X161655950Y-82073120D01*
X161659343Y-82076063D01*
X161671920Y-82086972D01*
X161676383Y-82091034D01*
X161688429Y-82102539D01*
X161688434Y-82102543D01*
X161691683Y-82105646D01*
X161695343Y-82108257D01*
X161698815Y-82111128D01*
X161698696Y-82111272D01*
X161704145Y-82115688D01*
X161706545Y-82117886D01*
X161709639Y-82121157D01*
X161713171Y-82123957D01*
X161727125Y-82135019D01*
X161731414Y-82138576D01*
X161744872Y-82150250D01*
X161744877Y-82150253D01*
X161748276Y-82153202D01*
X161752065Y-82155640D01*
X161754795Y-82157685D01*
X161760426Y-82162169D01*
X161763590Y-82165258D01*
X161781222Y-82178127D01*
X161782747Y-82179240D01*
X161786738Y-82182276D01*
X161805317Y-82197004D01*
X161809199Y-82199266D01*
X161809591Y-82199533D01*
X161814809Y-82203361D01*
X161817399Y-82205718D01*
X161821123Y-82208241D01*
X161821130Y-82208247D01*
X161838314Y-82219891D01*
X161841913Y-82222422D01*
X161862314Y-82237312D01*
X161865415Y-82238957D01*
X161870506Y-82242380D01*
X161872399Y-82243745D01*
X161875852Y-82246632D01*
X161895417Y-82258719D01*
X161899831Y-82261576D01*
X161918870Y-82274478D01*
X161922917Y-82276447D01*
X161923111Y-82276559D01*
X161933918Y-82282506D01*
X161950500Y-82292750D01*
X161967633Y-82303335D01*
X161977477Y-82310081D01*
X161978884Y-82311147D01*
X161978891Y-82311151D01*
X161982467Y-82313860D01*
X161986400Y-82316036D01*
X161986401Y-82316037D01*
X162000934Y-82324079D01*
X162006158Y-82327136D01*
X162020298Y-82335872D01*
X162020303Y-82335874D01*
X162024130Y-82338239D01*
X162028252Y-82340034D01*
X162028261Y-82340038D01*
X162029874Y-82340740D01*
X162040590Y-82346022D01*
X162399888Y-82544845D01*
X162403844Y-82547129D01*
X162448117Y-82573788D01*
X162497419Y-82603476D01*
X162500428Y-82605346D01*
X162544533Y-82633624D01*
X162546751Y-82635080D01*
X162593536Y-82666526D01*
X162595913Y-82668165D01*
X162643214Y-82701583D01*
X162645727Y-82703405D01*
X162693838Y-82739204D01*
X162696406Y-82741167D01*
X162745457Y-82779659D01*
X162748002Y-82781710D01*
X162783440Y-82811060D01*
X162791587Y-82818431D01*
X162970148Y-82994765D01*
X162988971Y-83013353D01*
X162990008Y-83014390D01*
X163141563Y-83167599D01*
X163171845Y-83198212D01*
X163173544Y-83199963D01*
X163324171Y-83358250D01*
X163326679Y-83360964D01*
X163447782Y-83495941D01*
X163448556Y-83496804D01*
X163451949Y-83500746D01*
X163548520Y-83617756D01*
X163552696Y-83623103D01*
X163631547Y-83729866D01*
X163634987Y-83734763D01*
X163663929Y-83778116D01*
X163666246Y-83781718D01*
X163694855Y-83827898D01*
X163697065Y-83831607D01*
X163723431Y-83877669D01*
X163725489Y-83881412D01*
X163748002Y-83924097D01*
X163750721Y-83929572D01*
X163800720Y-84036752D01*
X163803508Y-84043193D01*
X163844172Y-84144783D01*
X163851310Y-84162617D01*
X163853137Y-84167467D01*
X163903752Y-84310734D01*
X163904803Y-84313837D01*
X163960269Y-84484868D01*
X163960823Y-84486619D01*
X164085934Y-84892467D01*
X164086052Y-84892900D01*
X164086136Y-84893427D01*
X164096800Y-84927715D01*
X164107254Y-84961626D01*
X164107478Y-84962100D01*
X164107624Y-84962519D01*
X164170578Y-85164926D01*
X164171029Y-85166556D01*
X164171319Y-85168276D01*
X164181657Y-85200558D01*
X164181870Y-85201233D01*
X164191910Y-85233514D01*
X164192657Y-85235082D01*
X164193223Y-85236675D01*
X164277593Y-85500141D01*
X164279001Y-85504848D01*
X164285412Y-85527937D01*
X164287224Y-85532063D01*
X164288208Y-85534826D01*
X164290009Y-85539585D01*
X164291079Y-85542255D01*
X164292450Y-85546535D01*
X164302952Y-85568127D01*
X164305012Y-85572583D01*
X164305476Y-85573641D01*
X164307756Y-85579715D01*
X164307818Y-85579691D01*
X164309472Y-85583876D01*
X164310822Y-85588165D01*
X164312767Y-85592216D01*
X164312768Y-85592217D01*
X164321873Y-85611174D01*
X164323664Y-85615072D01*
X164333924Y-85638443D01*
X164336306Y-85642272D01*
X164336956Y-85643505D01*
X164340470Y-85650882D01*
X164341564Y-85654048D01*
X164354182Y-85678551D01*
X164355735Y-85681672D01*
X164367650Y-85706480D01*
X164370164Y-85710229D01*
X164371069Y-85711813D01*
X164376232Y-85721869D01*
X164377809Y-85726085D01*
X164379972Y-85730036D01*
X164379974Y-85730041D01*
X164391395Y-85750905D01*
X164392891Y-85753722D01*
X164405865Y-85778917D01*
X164408472Y-85782583D01*
X164409537Y-85784331D01*
X164412448Y-85789369D01*
X164414404Y-85792943D01*
X164417098Y-85798150D01*
X164417830Y-85799649D01*
X164419510Y-85803821D01*
X164421765Y-85807708D01*
X164433789Y-85828439D01*
X164435310Y-85831138D01*
X164449002Y-85856152D01*
X164451690Y-85859736D01*
X164452613Y-85861169D01*
X164455666Y-85866160D01*
X164460925Y-85875225D01*
X164463712Y-85880294D01*
X164464764Y-85882315D01*
X164466548Y-85886439D01*
X164468900Y-85890265D01*
X164468901Y-85890267D01*
X164481340Y-85910501D01*
X164482990Y-85913265D01*
X164497147Y-85937673D01*
X164499937Y-85941205D01*
X164501207Y-85943074D01*
X164504342Y-85947921D01*
X164512301Y-85960868D01*
X164515101Y-85965657D01*
X164516913Y-85968918D01*
X164518810Y-85972993D01*
X164521268Y-85976756D01*
X164521271Y-85976762D01*
X164533926Y-85996138D01*
X164535753Y-85999019D01*
X164550260Y-86022619D01*
X164553134Y-86026073D01*
X164555303Y-86029094D01*
X164558443Y-86033677D01*
X164568866Y-86049638D01*
X164571745Y-86054637D01*
X164571874Y-86054560D01*
X164574185Y-86058439D01*
X164576201Y-86062448D01*
X164591542Y-86084460D01*
X164593620Y-86087539D01*
X164608283Y-86109991D01*
X164611259Y-86113375D01*
X164613977Y-86116951D01*
X164613856Y-86117043D01*
X164617417Y-86121587D01*
X164630648Y-86140570D01*
X164634074Y-86146105D01*
X164634134Y-86146066D01*
X164636565Y-86149848D01*
X164638722Y-86153799D01*
X164654079Y-86174313D01*
X164656540Y-86177720D01*
X164671175Y-86198719D01*
X164674246Y-86202006D01*
X164677081Y-86205511D01*
X164677026Y-86205555D01*
X164681202Y-86210543D01*
X164697436Y-86232227D01*
X164697470Y-86232273D01*
X164702503Y-86239779D01*
X164704183Y-86242182D01*
X164706493Y-86246046D01*
X164711414Y-86252111D01*
X164721599Y-86264665D01*
X164724618Y-86268538D01*
X164736285Y-86284123D01*
X164736290Y-86284129D01*
X164738986Y-86287730D01*
X164742170Y-86290914D01*
X164744119Y-86293163D01*
X164750125Y-86299825D01*
X164769565Y-86323785D01*
X164776804Y-86333654D01*
X164779833Y-86338233D01*
X164782822Y-86341591D01*
X164782825Y-86341596D01*
X164794389Y-86354591D01*
X164798106Y-86358965D01*
X164811885Y-86375948D01*
X164815920Y-86379680D01*
X164824475Y-86388400D01*
X164847417Y-86414182D01*
X164854448Y-86422827D01*
X164856668Y-86425818D01*
X164856675Y-86425826D01*
X164859357Y-86429439D01*
X164868600Y-86438756D01*
X164872843Y-86443034D01*
X164877509Y-86447999D01*
X164890247Y-86462313D01*
X164893695Y-86465222D01*
X164893698Y-86465225D01*
X164896537Y-86467621D01*
X164904733Y-86475181D01*
X164931891Y-86502557D01*
X164938474Y-86509727D01*
X164943220Y-86515315D01*
X164943227Y-86515322D01*
X164946135Y-86518746D01*
X164957806Y-86529063D01*
X164963783Y-86534706D01*
X164974742Y-86545753D01*
X164984184Y-86552881D01*
X164991711Y-86559033D01*
X165019210Y-86583340D01*
X165026874Y-86590714D01*
X165033468Y-86597617D01*
X165047490Y-86608623D01*
X165053130Y-86613323D01*
X165066494Y-86625136D01*
X165070253Y-86627605D01*
X165073832Y-86630339D01*
X165073808Y-86630371D01*
X165079847Y-86634836D01*
X165080877Y-86635690D01*
X165084121Y-86638796D01*
X165087774Y-86641408D01*
X165087777Y-86641411D01*
X165102170Y-86651704D01*
X165106669Y-86655076D01*
X165124101Y-86668759D01*
X165127711Y-86670839D01*
X165131863Y-86673792D01*
X165134411Y-86675698D01*
X165137812Y-86678644D01*
X165155101Y-86689749D01*
X165160262Y-86693249D01*
X165176979Y-86705205D01*
X165180977Y-86707276D01*
X165183021Y-86708528D01*
X165187608Y-86711692D01*
X165187674Y-86711593D01*
X165191430Y-86714090D01*
X165194986Y-86716838D01*
X165211229Y-86726035D01*
X165217229Y-86729658D01*
X165232931Y-86739744D01*
X165237014Y-86741608D01*
X165240977Y-86743771D01*
X165240853Y-86743999D01*
X165248451Y-86748268D01*
X165248516Y-86748155D01*
X165252403Y-86750403D01*
X165256132Y-86752930D01*
X165260181Y-86754900D01*
X165260184Y-86754902D01*
X165271023Y-86760176D01*
X165277980Y-86763834D01*
X165288460Y-86769768D01*
X165288465Y-86769770D01*
X165292378Y-86771986D01*
X165296566Y-86773622D01*
X165296574Y-86773626D01*
X165297779Y-86774097D01*
X165315163Y-86782477D01*
X165317869Y-86784047D01*
X165317880Y-86784052D01*
X165321768Y-86786309D01*
X165334959Y-86791625D01*
X165342981Y-86795189D01*
X165351708Y-86799435D01*
X165352148Y-86799649D01*
X165352155Y-86799653D01*
X165355760Y-86801407D01*
X165355645Y-86801644D01*
X165381808Y-86816567D01*
X165389414Y-86822413D01*
X165394496Y-86826534D01*
X165430188Y-86857041D01*
X165434153Y-86860577D01*
X165478510Y-86901850D01*
X165481932Y-86905156D01*
X165499863Y-86923150D01*
X165531108Y-86954506D01*
X165534278Y-86957806D01*
X165582152Y-87009482D01*
X165585551Y-87013151D01*
X165588673Y-87016650D01*
X165639561Y-87075854D01*
X165642755Y-87079723D01*
X165691155Y-87140792D01*
X165694522Y-87145239D01*
X165738364Y-87205889D01*
X165741983Y-87211173D01*
X165782103Y-87273072D01*
X165784972Y-87277717D01*
X165798539Y-87300804D01*
X165800531Y-87304325D01*
X165808406Y-87318796D01*
X165823397Y-87388190D01*
X165812805Y-87430342D01*
X165805248Y-87447286D01*
X165804920Y-87448022D01*
X165801201Y-87455311D01*
X165799607Y-87458589D01*
X165797356Y-87462483D01*
X165788344Y-87484963D01*
X165786492Y-87489340D01*
X165776609Y-87511499D01*
X165775377Y-87515838D01*
X165774122Y-87519296D01*
X165771489Y-87527007D01*
X165702184Y-87699886D01*
X165699866Y-87705667D01*
X165697198Y-87711389D01*
X165697283Y-87711427D01*
X165695450Y-87715534D01*
X165693325Y-87719507D01*
X165684476Y-87743874D01*
X165683003Y-87747730D01*
X165673367Y-87771766D01*
X165672302Y-87776146D01*
X165670933Y-87780421D01*
X165670844Y-87780393D01*
X165669023Y-87786421D01*
X165608033Y-87954357D01*
X165605967Y-87959667D01*
X165604909Y-87962213D01*
X165602893Y-87966233D01*
X165601470Y-87970495D01*
X165601467Y-87970503D01*
X165594021Y-87992811D01*
X165592951Y-87995885D01*
X165583365Y-88022280D01*
X165582445Y-88026689D01*
X165581687Y-88029357D01*
X165580006Y-88034796D01*
X165526641Y-88194669D01*
X165524722Y-88199974D01*
X165522898Y-88203812D01*
X165521568Y-88208098D01*
X165514115Y-88232114D01*
X165513293Y-88234664D01*
X165503934Y-88262702D01*
X165503173Y-88266898D01*
X165501648Y-88272286D01*
X165251452Y-89078493D01*
X165250217Y-89082262D01*
X165188335Y-89261523D01*
X165186801Y-89265725D01*
X165120978Y-89436494D01*
X165118734Y-89441934D01*
X165047831Y-89603033D01*
X165044764Y-89609496D01*
X164966661Y-89762724D01*
X164962703Y-89769903D01*
X164874940Y-89917494D01*
X164870106Y-89925003D01*
X164769799Y-90069331D01*
X164764206Y-90076776D01*
X164647945Y-90220171D01*
X164641803Y-90227198D01*
X164502439Y-90375196D01*
X164497421Y-90380231D01*
X164487321Y-90389812D01*
X164487317Y-90389816D01*
X164484045Y-90392920D01*
X164481251Y-90396454D01*
X164478494Y-90399941D01*
X164471390Y-90408169D01*
X164465260Y-90414679D01*
X164454651Y-90429776D01*
X164450415Y-90435456D01*
X164398293Y-90501381D01*
X164389145Y-90512951D01*
X164382799Y-90520368D01*
X164315993Y-90592586D01*
X164310051Y-90598592D01*
X164231588Y-90672757D01*
X164226187Y-90677576D01*
X164141572Y-90748816D01*
X164134725Y-90754188D01*
X163918937Y-90911708D01*
X163911940Y-90916461D01*
X163673830Y-91066768D01*
X163668130Y-91070160D01*
X163018590Y-91433666D01*
X162601479Y-91667096D01*
X162592246Y-91671775D01*
X162587015Y-91674162D01*
X162582908Y-91676036D01*
X162568512Y-91685281D01*
X162561977Y-91689202D01*
X162550963Y-91695366D01*
X162550960Y-91695368D01*
X162547036Y-91697564D01*
X162543464Y-91700296D01*
X162543463Y-91700297D01*
X162538873Y-91703808D01*
X162530399Y-91709755D01*
X162329573Y-91838718D01*
X162323321Y-91842482D01*
X162311577Y-91849096D01*
X162311569Y-91849101D01*
X162307656Y-91851305D01*
X162300174Y-91857060D01*
X162291457Y-91863196D01*
X162283527Y-91868288D01*
X162280129Y-91871230D01*
X162280124Y-91871234D01*
X162269959Y-91880036D01*
X162264307Y-91884651D01*
X162085157Y-92022462D01*
X162080276Y-92026033D01*
X162066650Y-92035510D01*
X162066644Y-92035515D01*
X162062947Y-92038086D01*
X162058368Y-92042356D01*
X162058356Y-92042367D01*
X162049252Y-92050083D01*
X162044280Y-92053908D01*
X162041144Y-92057128D01*
X162041141Y-92057130D01*
X162029564Y-92069015D01*
X162025236Y-92073249D01*
X161962086Y-92132133D01*
X161956492Y-92137049D01*
X161946410Y-92145392D01*
X161946404Y-92145398D01*
X161942943Y-92148262D01*
X161939916Y-92151599D01*
X161939912Y-92151603D01*
X161936358Y-92155521D01*
X161928959Y-92163023D01*
X161925093Y-92166628D01*
X161925088Y-92166633D01*
X161921794Y-92169705D01*
X161910780Y-92183394D01*
X161905941Y-92189058D01*
X161850441Y-92250249D01*
X161846994Y-92253900D01*
X161830422Y-92270758D01*
X161827759Y-92274380D01*
X161826531Y-92275822D01*
X161821706Y-92281724D01*
X161820510Y-92283248D01*
X161817486Y-92286582D01*
X161814968Y-92290311D01*
X161814961Y-92290320D01*
X161804278Y-92306142D01*
X161801368Y-92310272D01*
X161748285Y-92382468D01*
X161746878Y-92384343D01*
X161728475Y-92408394D01*
X161726405Y-92412091D01*
X161725702Y-92413183D01*
X161723190Y-92416599D01*
X161721073Y-92420556D01*
X161721072Y-92420558D01*
X161708899Y-92443315D01*
X161707739Y-92445434D01*
X161695662Y-92467006D01*
X161695505Y-92467245D01*
X161695260Y-92467486D01*
X161659916Y-92530857D01*
X161642331Y-92562268D01*
X161642184Y-92562651D01*
X161641986Y-92563005D01*
X161630006Y-92594266D01*
X161629315Y-92596069D01*
X161629242Y-92596258D01*
X161618193Y-92624951D01*
X161616790Y-92628018D01*
X161614536Y-92631091D01*
X161611469Y-92639561D01*
X161591659Y-92694271D01*
X161590841Y-92696465D01*
X161581566Y-92720666D01*
X161581564Y-92720673D01*
X161579957Y-92724866D01*
X161579009Y-92729043D01*
X161578759Y-92729895D01*
X161577299Y-92733928D01*
X161576385Y-92738331D01*
X161576385Y-92738332D01*
X161571117Y-92763718D01*
X161570621Y-92766000D01*
X161561650Y-92805529D01*
X161559219Y-92804977D01*
X161558982Y-92808991D01*
X161559846Y-92809146D01*
X161556155Y-92829743D01*
X161554318Y-92829414D01*
X161553528Y-92831475D01*
X161555773Y-92831877D01*
X161548487Y-92872542D01*
X161547833Y-92875923D01*
X161542215Y-92902994D01*
X161541938Y-92907480D01*
X161541613Y-92909901D01*
X161541351Y-92912369D01*
X161540556Y-92916803D01*
X161540401Y-92921305D01*
X161539601Y-92944466D01*
X161539435Y-92947901D01*
X161536603Y-92993655D01*
X161534723Y-92993539D01*
X161534797Y-92994232D01*
X161535287Y-92994192D01*
X161535356Y-92995043D01*
X161536174Y-92995050D01*
X161536145Y-92998239D01*
X161535984Y-93002789D01*
X161536014Y-93003165D01*
X161535961Y-93003419D01*
X161535917Y-93004658D01*
X161535920Y-93004690D01*
X161535460Y-93012127D01*
X161535458Y-93012164D01*
X161534858Y-93012127D01*
X161534727Y-93012980D01*
X161533999Y-93012868D01*
X161533663Y-93014485D01*
X161535993Y-93014507D01*
X161535993Y-93014508D01*
X161535686Y-93047601D01*
X161535569Y-93060141D01*
X161535500Y-93063278D01*
X161534522Y-93091616D01*
X161535007Y-93096079D01*
X161535078Y-93097993D01*
X161535199Y-93099938D01*
X161535157Y-93104435D01*
X161535756Y-93108895D01*
X161538927Y-93132512D01*
X161539310Y-93135662D01*
X161546343Y-93200347D01*
X161545017Y-93200491D01*
X161544875Y-93204613D01*
X161547929Y-93204162D01*
X161554667Y-93249782D01*
X161554898Y-93251421D01*
X161559178Y-93283290D01*
X161560092Y-93286514D01*
X161560582Y-93289830D01*
X161561864Y-93294136D01*
X161561867Y-93294148D01*
X161569766Y-93320670D01*
X161570229Y-93322263D01*
X161585265Y-93375290D01*
X161589014Y-93388513D01*
X161590493Y-93390861D01*
X161591399Y-93393312D01*
X161603806Y-93434974D01*
X161603940Y-93435430D01*
X161613712Y-93468870D01*
X161614257Y-93470068D01*
X161614631Y-93471323D01*
X161616342Y-93475031D01*
X161629149Y-93502793D01*
X161629418Y-93503381D01*
X161678775Y-93611830D01*
X161680061Y-93614753D01*
X161689378Y-93636683D01*
X161689382Y-93636691D01*
X161691139Y-93640826D01*
X161693473Y-93644679D01*
X161694356Y-93646404D01*
X161695302Y-93648143D01*
X161697167Y-93652240D01*
X161699594Y-93656028D01*
X161699596Y-93656031D01*
X161712426Y-93676052D01*
X161714114Y-93678761D01*
X161777143Y-93782831D01*
X161779939Y-93787688D01*
X161790590Y-93807181D01*
X161793278Y-93810770D01*
X161793283Y-93810778D01*
X161793675Y-93811301D01*
X161800594Y-93821552D01*
X161803267Y-93825965D01*
X161806116Y-93829435D01*
X161806117Y-93829437D01*
X161817382Y-93843159D01*
X161820844Y-93847573D01*
X161868133Y-93910710D01*
X161875149Y-93922534D01*
X161875264Y-93922460D01*
X161880133Y-93930039D01*
X161883877Y-93938239D01*
X161889779Y-93945052D01*
X161916950Y-93976417D01*
X161922564Y-93983383D01*
X161928145Y-93990834D01*
X161930850Y-93994445D01*
X161934037Y-93997630D01*
X161940449Y-94004039D01*
X161946611Y-94010657D01*
X161955489Y-94020905D01*
X161958879Y-94023843D01*
X161965930Y-94029954D01*
X161972475Y-94036047D01*
X162008208Y-94071761D01*
X162016115Y-94076076D01*
X162023334Y-94081477D01*
X162023253Y-94081585D01*
X162034547Y-94089426D01*
X162157865Y-94196309D01*
X162163703Y-94201702D01*
X162172105Y-94209970D01*
X162172110Y-94209975D01*
X162175312Y-94213125D01*
X162178932Y-94215790D01*
X162178937Y-94215794D01*
X162184258Y-94219711D01*
X162192084Y-94225967D01*
X162200466Y-94233232D01*
X162214184Y-94242050D01*
X162220711Y-94246543D01*
X162438380Y-94406774D01*
X162453523Y-94417921D01*
X162462752Y-94425412D01*
X162467521Y-94429670D01*
X162471272Y-94432160D01*
X162471279Y-94432166D01*
X162485006Y-94441280D01*
X162490004Y-94444775D01*
X162506900Y-94457213D01*
X162512529Y-94460228D01*
X162522734Y-94466330D01*
X162783916Y-94639752D01*
X163224161Y-94932070D01*
X163226442Y-94933683D01*
X163228415Y-94935400D01*
X163232191Y-94937839D01*
X163232193Y-94937840D01*
X163255518Y-94952903D01*
X163256861Y-94953782D01*
X163283798Y-94971668D01*
X163286158Y-94972788D01*
X163288556Y-94974239D01*
X164290517Y-95621307D01*
X165246987Y-96238996D01*
X165327183Y-96290787D01*
X165329482Y-96292308D01*
X165897358Y-96676912D01*
X165899147Y-96678147D01*
X166471148Y-97080617D01*
X166473411Y-97082247D01*
X166948287Y-97432767D01*
X166952159Y-97435625D01*
X166995087Y-97492173D01*
X167000629Y-97562953D01*
X166967025Y-97625493D01*
X166904943Y-97659937D01*
X166877331Y-97663000D01*
X159384000Y-97663000D01*
X159276020Y-97674609D01*
X159272736Y-97675323D01*
X159272732Y-97675324D01*
X159253614Y-97679483D01*
X159223678Y-97685995D01*
X159120628Y-97720293D01*
X158998990Y-97798465D01*
X158945334Y-97844958D01*
X158850645Y-97954234D01*
X158790579Y-98085760D01*
X158770577Y-98153881D01*
X158769937Y-98158329D01*
X158769936Y-98158336D01*
X158750639Y-98292552D01*
X158750638Y-98292559D01*
X158750000Y-98297000D01*
X158750000Y-106427000D01*
X158761609Y-106534980D01*
X158772995Y-106587322D01*
X158807293Y-106690372D01*
X158885465Y-106812010D01*
X158931958Y-106865666D01*
X159041234Y-106960355D01*
X159172760Y-107020421D01*
X159181346Y-107022942D01*
X159236558Y-107039154D01*
X159236562Y-107039155D01*
X159240881Y-107040423D01*
X159245329Y-107041063D01*
X159245336Y-107041064D01*
X159379552Y-107060361D01*
X159379559Y-107060362D01*
X159384000Y-107061000D01*
X161799000Y-107061000D01*
X161906980Y-107049391D01*
X161906995Y-107049534D01*
X161976299Y-107058245D01*
X162030772Y-107103778D01*
X162052000Y-107173770D01*
X162052000Y-107500978D01*
X162063099Y-107606586D01*
X162073990Y-107657830D01*
X162106801Y-107758825D01*
X162110961Y-107765436D01*
X162174618Y-107866601D01*
X162183807Y-107881205D01*
X162229785Y-107935303D01*
X162239733Y-107944091D01*
X162334777Y-108028052D01*
X162334782Y-108028055D01*
X162338151Y-108031032D01*
X162876353Y-108384227D01*
X166059131Y-110472925D01*
X166105109Y-110527023D01*
X166116000Y-110578267D01*
X166116000Y-119129896D01*
X166116322Y-119133061D01*
X166116322Y-119133068D01*
X166121434Y-119183361D01*
X166126387Y-119232098D01*
X166129353Y-119246540D01*
X166135036Y-119274207D01*
X166136587Y-119281761D01*
X166137544Y-119284812D01*
X166165020Y-119372440D01*
X166165022Y-119372444D01*
X166167324Y-119379786D01*
X166171334Y-119386356D01*
X166171334Y-119386357D01*
X166174716Y-119391898D01*
X166242646Y-119503210D01*
X166287879Y-119557933D01*
X166394930Y-119655140D01*
X166430313Y-119672304D01*
X166508406Y-119710186D01*
X166525023Y-119718247D01*
X166592661Y-119739827D01*
X166597102Y-119740571D01*
X166597105Y-119740572D01*
X166633236Y-119746627D01*
X166735260Y-119763725D01*
X166739752Y-119763829D01*
X166739758Y-119763830D01*
X168037510Y-119794010D01*
X171944262Y-119884865D01*
X171951815Y-119884186D01*
X172054746Y-119874932D01*
X172054751Y-119874931D01*
X172058280Y-119874614D01*
X172079946Y-119870164D01*
X172110060Y-119863979D01*
X172110066Y-119863977D01*
X172113549Y-119863262D01*
X172116925Y-119862160D01*
X172116933Y-119862158D01*
X172214703Y-119830246D01*
X172214702Y-119830246D01*
X172222372Y-119827743D01*
X172344010Y-119749571D01*
X172354396Y-119740572D01*
X172394273Y-119706018D01*
X172397666Y-119703078D01*
X172401740Y-119698377D01*
X172468183Y-119621698D01*
X172492355Y-119593802D01*
X172552421Y-119462276D01*
X172569884Y-119402802D01*
X172571154Y-119398478D01*
X172571155Y-119398474D01*
X172572423Y-119394155D01*
X172573530Y-119386458D01*
X172592361Y-119255484D01*
X172592362Y-119255477D01*
X172593000Y-119251036D01*
X172593000Y-118472536D01*
X172613002Y-118404415D01*
X172626619Y-118386852D01*
X172725386Y-118280366D01*
X172725387Y-118280365D01*
X172728838Y-118276644D01*
X172759256Y-118230887D01*
X172860864Y-118078044D01*
X172860866Y-118078041D01*
X172863675Y-118073815D01*
X172873358Y-118052455D01*
X172911023Y-117969363D01*
X172964230Y-117851984D01*
X173018267Y-117652461D01*
X173026571Y-117621800D01*
X173026571Y-117621798D01*
X173027899Y-117616896D01*
X173028479Y-117611311D01*
X173052508Y-117379692D01*
X173052508Y-117379690D01*
X173053032Y-117374640D01*
X173047013Y-117270499D01*
X173039254Y-117136243D01*
X173039254Y-117136241D01*
X173038979Y-117131488D01*
X173009243Y-116991124D01*
X173001789Y-116965127D01*
X172971527Y-116859598D01*
X172970920Y-116857481D01*
X172969392Y-116853290D01*
X172923387Y-116727155D01*
X172923387Y-116727154D01*
X172921757Y-116722686D01*
X172851526Y-116594366D01*
X172807264Y-116513493D01*
X172807263Y-116513492D01*
X172804824Y-116509035D01*
X172801704Y-116505030D01*
X172801699Y-116505023D01*
X172690928Y-116362851D01*
X172655133Y-116316909D01*
X172651416Y-116313462D01*
X172651412Y-116313457D01*
X172633000Y-116296380D01*
X172596658Y-116235390D01*
X172599058Y-116164434D01*
X172639440Y-116106040D01*
X172704981Y-116078747D01*
X172718685Y-116078000D01*
X174404703Y-116078000D01*
X174472824Y-116098002D01*
X174519317Y-116151658D01*
X174530117Y-116216136D01*
X174492857Y-116601168D01*
X174492540Y-116603662D01*
X174492001Y-116605992D01*
X174491621Y-116610460D01*
X174491620Y-116610466D01*
X174489231Y-116638559D01*
X174489098Y-116640016D01*
X174485957Y-116672478D01*
X174486068Y-116674871D01*
X174485930Y-116677370D01*
X174448718Y-117114928D01*
X174447180Y-117126564D01*
X174447133Y-117126827D01*
X174445981Y-117133227D01*
X174445823Y-117137716D01*
X174445822Y-117137722D01*
X174445254Y-117153835D01*
X174444880Y-117160060D01*
X174444573Y-117163664D01*
X174443554Y-117175654D01*
X174443133Y-117180600D01*
X174443393Y-117185085D01*
X174443393Y-117185101D01*
X174443524Y-117187350D01*
X174443658Y-117199088D01*
X174430721Y-117565926D01*
X174430674Y-117567245D01*
X174430566Y-117569639D01*
X174428918Y-117599840D01*
X174429291Y-117604061D01*
X174429327Y-117605422D01*
X174429178Y-117609655D01*
X174431982Y-117635624D01*
X174432426Y-117639741D01*
X174432661Y-117642135D01*
X174452177Y-117862655D01*
X174451895Y-117874901D01*
X174452361Y-117874897D01*
X174452440Y-117883912D01*
X174451235Y-117892840D01*
X174455414Y-117920217D01*
X174459233Y-117945236D01*
X174460185Y-117953139D01*
X174461621Y-117969363D01*
X174462652Y-117973745D01*
X174462652Y-117973746D01*
X174464160Y-117980156D01*
X174466063Y-117989986D01*
X174467058Y-117996502D01*
X174467060Y-117996509D01*
X174467739Y-118000959D01*
X174469045Y-118005269D01*
X174469046Y-118005272D01*
X174472466Y-118016555D01*
X174474527Y-118024219D01*
X174486669Y-118075828D01*
X174491122Y-118083664D01*
X174491972Y-118085832D01*
X174499736Y-118116496D01*
X174500141Y-118119797D01*
X174500143Y-118119804D01*
X174501240Y-118128744D01*
X174515931Y-118162758D01*
X174517861Y-118168040D01*
X174518022Y-118167978D01*
X174519634Y-118172188D01*
X174520937Y-118176488D01*
X174522837Y-118180554D01*
X174522842Y-118180568D01*
X174532369Y-118200959D01*
X174533884Y-118204329D01*
X174542822Y-118225023D01*
X174542828Y-118225035D01*
X174544606Y-118229151D01*
X174546955Y-118232978D01*
X174549032Y-118236976D01*
X174548883Y-118237054D01*
X174551551Y-118242013D01*
X174553439Y-118246053D01*
X174567233Y-118275577D01*
X174573192Y-118282335D01*
X174579353Y-118289322D01*
X174592231Y-118306742D01*
X174604911Y-118327400D01*
X174607021Y-118330968D01*
X174637975Y-118385352D01*
X174644459Y-118391611D01*
X174665476Y-118411900D01*
X174674871Y-118422021D01*
X174699299Y-118451419D01*
X174748857Y-118484738D01*
X174757615Y-118491604D01*
X174760984Y-118495686D01*
X174768445Y-118500738D01*
X174768447Y-118500740D01*
X174813642Y-118531343D01*
X174816710Y-118533487D01*
X174838548Y-118549241D01*
X174842538Y-118551329D01*
X174846364Y-118553693D01*
X174846279Y-118553830D01*
X174851178Y-118556759D01*
X174872400Y-118571129D01*
X174881941Y-118577590D01*
X174899286Y-118583139D01*
X174919312Y-118591509D01*
X174919991Y-118591864D01*
X174927469Y-118595778D01*
X174927471Y-118595779D01*
X174935451Y-118599955D01*
X174944286Y-118601714D01*
X174944288Y-118601715D01*
X174961249Y-118605092D01*
X174971900Y-118607213D01*
X174977413Y-118608641D01*
X174977452Y-118608481D01*
X174981821Y-118609542D01*
X174986112Y-118610915D01*
X174990550Y-118611662D01*
X174990553Y-118611663D01*
X175012624Y-118615379D01*
X175016310Y-118616056D01*
X175078717Y-118628483D01*
X175081992Y-118628191D01*
X175096066Y-118630254D01*
X175138417Y-118640503D01*
X175188505Y-118638089D01*
X175197587Y-118637979D01*
X175212326Y-118638333D01*
X175238731Y-118638968D01*
X175238734Y-118638968D01*
X175247736Y-118639184D01*
X175296661Y-118626086D01*
X175305329Y-118624091D01*
X175319553Y-118621341D01*
X175342488Y-118619291D01*
X175344323Y-118619051D01*
X175353336Y-118619165D01*
X175370723Y-118614298D01*
X175398635Y-118606485D01*
X175408676Y-118604113D01*
X175418822Y-118602151D01*
X175423073Y-118600677D01*
X175423081Y-118600675D01*
X175434943Y-118596562D01*
X175442238Y-118594279D01*
X175458658Y-118589682D01*
X175468112Y-118585508D01*
X175477699Y-118581737D01*
X175522158Y-118566322D01*
X175529497Y-118561090D01*
X175537507Y-118556955D01*
X175537693Y-118557316D01*
X175559951Y-118546074D01*
X175566770Y-118544880D01*
X175620009Y-118518576D01*
X175624900Y-118516290D01*
X175641527Y-118508950D01*
X175645643Y-118507133D01*
X175649636Y-118504638D01*
X175660613Y-118498516D01*
X175664827Y-118496434D01*
X175683494Y-118483617D01*
X175688037Y-118480640D01*
X175730752Y-118453946D01*
X175738393Y-118449171D01*
X175744187Y-118442653D01*
X175753504Y-118435547D01*
X175997730Y-118267861D01*
X176000194Y-118266212D01*
X176020626Y-118252880D01*
X176020632Y-118252875D01*
X176024395Y-118250420D01*
X176027774Y-118247451D01*
X176028350Y-118247013D01*
X176028948Y-118246581D01*
X176029013Y-118246530D01*
X176029583Y-118246053D01*
X176030149Y-118245601D01*
X176033863Y-118243052D01*
X176055095Y-118223490D01*
X176057302Y-118221504D01*
X176455749Y-117871386D01*
X176458141Y-117869337D01*
X176797951Y-117585479D01*
X177155001Y-117287220D01*
X177165043Y-117279650D01*
X177165172Y-117279562D01*
X177165174Y-117279560D01*
X177168901Y-117277032D01*
X177185703Y-117261724D01*
X177189766Y-117258180D01*
X177203740Y-117246507D01*
X177203743Y-117246504D01*
X177207198Y-117243618D01*
X177210319Y-117240145D01*
X177219173Y-117231231D01*
X177506004Y-116969911D01*
X177510504Y-116966253D01*
X177510407Y-116966137D01*
X177513855Y-116963246D01*
X177517504Y-116960606D01*
X177536770Y-116941958D01*
X177539509Y-116939386D01*
X177555949Y-116924408D01*
X177559275Y-116921378D01*
X177562135Y-116917906D01*
X177565236Y-116914648D01*
X177565345Y-116914752D01*
X177569272Y-116910497D01*
X177618462Y-116862883D01*
X177837331Y-116651025D01*
X177841886Y-116647084D01*
X177841803Y-116646991D01*
X177845157Y-116643995D01*
X177848721Y-116641241D01*
X177867085Y-116622310D01*
X177869870Y-116619529D01*
X177885574Y-116604327D01*
X177888810Y-116601195D01*
X177891565Y-116597637D01*
X177894568Y-116594284D01*
X177894659Y-116594366D01*
X177898618Y-116589803D01*
X178082853Y-116399876D01*
X178151539Y-116329068D01*
X178156145Y-116324816D01*
X178156078Y-116324746D01*
X178159340Y-116321634D01*
X178162799Y-116318776D01*
X178165811Y-116315461D01*
X178165819Y-116315453D01*
X178180271Y-116299545D01*
X178183088Y-116296545D01*
X178198021Y-116281150D01*
X178201159Y-116277915D01*
X178203803Y-116274269D01*
X178206696Y-116270826D01*
X178206770Y-116270888D01*
X178210722Y-116266027D01*
X178448888Y-116003868D01*
X178453502Y-115999314D01*
X178453450Y-115999263D01*
X178456597Y-115996050D01*
X178459973Y-115993063D01*
X178476554Y-115973522D01*
X178479345Y-115970344D01*
X178493538Y-115954721D01*
X178496565Y-115951389D01*
X178499086Y-115947661D01*
X178501867Y-115944123D01*
X178501924Y-115944168D01*
X178505849Y-115938996D01*
X178562571Y-115872147D01*
X178729609Y-115675285D01*
X178734210Y-115670421D01*
X178734173Y-115670387D01*
X178737209Y-115667063D01*
X178740472Y-115663966D01*
X178743264Y-115660433D01*
X178756131Y-115644149D01*
X178758917Y-115640747D01*
X178772351Y-115624914D01*
X178772356Y-115624907D01*
X178775264Y-115621480D01*
X178777657Y-115617670D01*
X178780314Y-115614043D01*
X178780355Y-115614073D01*
X178784209Y-115608613D01*
X178993933Y-115343185D01*
X178998481Y-115338021D01*
X178998458Y-115338001D01*
X179001368Y-115334575D01*
X179004521Y-115331360D01*
X179019303Y-115311204D01*
X179022002Y-115307660D01*
X179037488Y-115288061D01*
X179039748Y-115284168D01*
X179042279Y-115280446D01*
X179042304Y-115280463D01*
X179046071Y-115274706D01*
X179242073Y-115007459D01*
X179246535Y-115002006D01*
X179246524Y-115001998D01*
X179249305Y-114998469D01*
X179252338Y-114995140D01*
X179266197Y-114974710D01*
X179268865Y-114970928D01*
X179280802Y-114954652D01*
X179280804Y-114954649D01*
X179283461Y-114951026D01*
X179285576Y-114947060D01*
X179287975Y-114943246D01*
X179287986Y-114943253D01*
X179291624Y-114937226D01*
X179474249Y-114668007D01*
X179478597Y-114662271D01*
X179481234Y-114658654D01*
X179484142Y-114655212D01*
X179486527Y-114651396D01*
X179486532Y-114651389D01*
X179497107Y-114634469D01*
X179499682Y-114630515D01*
X179510882Y-114614005D01*
X179510886Y-114613998D01*
X179513411Y-114610276D01*
X179515383Y-114606228D01*
X179517635Y-114602336D01*
X179521115Y-114596054D01*
X179690676Y-114324752D01*
X179695219Y-114318265D01*
X179697384Y-114315046D01*
X179700150Y-114311506D01*
X179712246Y-114290408D01*
X179714678Y-114286347D01*
X179727560Y-114265736D01*
X179729378Y-114261618D01*
X179731202Y-114258175D01*
X179734763Y-114251134D01*
X179891590Y-113977602D01*
X179896117Y-113970583D01*
X179897958Y-113967605D01*
X179900589Y-113963958D01*
X179911806Y-113942528D01*
X179914120Y-113938307D01*
X179926140Y-113917342D01*
X179927796Y-113913171D01*
X179929322Y-113910005D01*
X179932801Y-113902418D01*
X180077197Y-113626546D01*
X180081527Y-113619228D01*
X180083195Y-113616282D01*
X180085688Y-113612530D01*
X180096040Y-113590749D01*
X180098207Y-113586408D01*
X180107300Y-113569035D01*
X180107302Y-113569032D01*
X180109386Y-113565049D01*
X180110885Y-113560804D01*
X180112219Y-113557740D01*
X180115478Y-113549846D01*
X180247753Y-113271513D01*
X180251816Y-113264000D01*
X180253349Y-113261029D01*
X180255696Y-113257184D01*
X180265206Y-113235005D01*
X180267190Y-113230616D01*
X180268498Y-113227865D01*
X180277546Y-113208825D01*
X180278876Y-113204537D01*
X180280080Y-113201454D01*
X180283053Y-113193385D01*
X180375408Y-112978003D01*
X180403504Y-112912483D01*
X180407167Y-112905039D01*
X180408673Y-112901824D01*
X180410865Y-112897901D01*
X180419530Y-112875342D01*
X180421347Y-112870870D01*
X180429103Y-112852783D01*
X180429105Y-112852777D01*
X180430879Y-112848640D01*
X180432048Y-112844287D01*
X180433217Y-112840913D01*
X180435777Y-112833044D01*
X180544704Y-112549456D01*
X180547894Y-112542297D01*
X180549429Y-112538668D01*
X180551470Y-112534665D01*
X180559326Y-112511639D01*
X180560934Y-112507202D01*
X180569658Y-112484488D01*
X180570658Y-112480099D01*
X180571800Y-112476344D01*
X180573940Y-112468800D01*
X180671650Y-112182384D01*
X180674314Y-112175741D01*
X180674313Y-112175741D01*
X180675907Y-112171541D01*
X180677801Y-112167456D01*
X180679096Y-112163139D01*
X180684833Y-112144012D01*
X180686269Y-112139530D01*
X180692721Y-112120616D01*
X180694176Y-112116351D01*
X180695008Y-112111929D01*
X180696155Y-112107573D01*
X180697850Y-112100607D01*
X180718226Y-112032670D01*
X180786253Y-111805849D01*
X180789911Y-111795358D01*
X180791334Y-111791790D01*
X180791335Y-111791788D01*
X180793004Y-111787604D01*
X180797475Y-111769086D01*
X180799263Y-111762475D01*
X180803443Y-111748534D01*
X180803445Y-111748527D01*
X180804738Y-111744214D01*
X180805974Y-111735957D01*
X180808099Y-111725069D01*
X180810677Y-111714393D01*
X180969892Y-111054813D01*
X180972394Y-111045899D01*
X180974993Y-111037795D01*
X180976370Y-111033502D01*
X180978765Y-111019344D01*
X180980517Y-111010797D01*
X180982830Y-111001215D01*
X180982830Y-111001214D01*
X180983887Y-110996836D01*
X180985110Y-110983869D01*
X180986318Y-110974688D01*
X181103149Y-110283997D01*
X181105174Y-110274340D01*
X181106871Y-110267580D01*
X181106873Y-110267571D01*
X181107967Y-110263211D01*
X181109604Y-110247398D01*
X181110699Y-110239360D01*
X181112602Y-110228109D01*
X181112603Y-110228104D01*
X181113354Y-110223661D01*
X181113639Y-110212178D01*
X181114270Y-110202332D01*
X181187369Y-109496193D01*
X181188896Y-109485738D01*
X181189870Y-109480594D01*
X181189871Y-109480585D01*
X181190706Y-109476174D01*
X181191489Y-109458507D01*
X181192034Y-109451131D01*
X181193852Y-109433565D01*
X181193467Y-109423862D01*
X181193491Y-109413291D01*
X181225498Y-108690668D01*
X181226505Y-108679409D01*
X181226952Y-108676092D01*
X181227554Y-108671627D01*
X181227382Y-108652094D01*
X181227501Y-108645418D01*
X181228152Y-108630731D01*
X181228365Y-108625931D01*
X181227592Y-108618110D01*
X181226985Y-108606814D01*
X181226954Y-108603214D01*
X181221101Y-107935954D01*
X181220493Y-107866601D01*
X181220962Y-107854576D01*
X181221482Y-107848613D01*
X181220288Y-107827265D01*
X181220096Y-107821335D01*
X181219948Y-107804428D01*
X181219948Y-107804422D01*
X181219908Y-107799921D01*
X181219003Y-107793995D01*
X181217757Y-107782015D01*
X181175295Y-107022942D01*
X181175236Y-107011452D01*
X181175212Y-107010524D01*
X181175417Y-107006033D01*
X181173161Y-106982899D01*
X181172766Y-106977733D01*
X181171719Y-106959016D01*
X181171719Y-106959013D01*
X181171467Y-106954515D01*
X181170577Y-106950096D01*
X181170462Y-106949195D01*
X181168766Y-106937814D01*
X181092353Y-106154045D01*
X181091759Y-106142369D01*
X181091749Y-106139998D01*
X181091748Y-106139991D01*
X181091729Y-106135496D01*
X181091070Y-106131049D01*
X181091069Y-106131035D01*
X181088726Y-106115224D01*
X181087960Y-106108985D01*
X181086405Y-106093032D01*
X181086402Y-106093015D01*
X181085967Y-106088551D01*
X181084334Y-106081876D01*
X181082083Y-106070391D01*
X181025351Y-105687476D01*
X181024728Y-105682630D01*
X180983794Y-105306178D01*
X180983338Y-105300990D01*
X180959773Y-104949660D01*
X180959523Y-104944063D01*
X180952206Y-104618949D01*
X180952216Y-104612857D01*
X180955765Y-104475600D01*
X180959919Y-104314987D01*
X180960270Y-104308306D01*
X180961354Y-104294638D01*
X180981609Y-104039049D01*
X180982421Y-104031618D01*
X181015767Y-103792405D01*
X181017221Y-103784044D01*
X181060562Y-103576506D01*
X181062933Y-103567010D01*
X181113645Y-103392998D01*
X181117361Y-103382122D01*
X181171874Y-103243560D01*
X181177587Y-103231079D01*
X181185444Y-103216127D01*
X181230944Y-103129539D01*
X181239633Y-103115365D01*
X181285114Y-103051109D01*
X181298108Y-103035568D01*
X181300310Y-103033329D01*
X181310257Y-103023211D01*
X181317005Y-103016347D01*
X181379026Y-102981794D01*
X181449882Y-102986256D01*
X181468038Y-102994534D01*
X181519665Y-103023211D01*
X181535509Y-103033645D01*
X181613028Y-103093533D01*
X181616320Y-103096076D01*
X181627963Y-103106272D01*
X181729388Y-103206747D01*
X181737947Y-103216127D01*
X181853950Y-103356884D01*
X181860317Y-103365305D01*
X181986196Y-103547157D01*
X181991004Y-103554656D01*
X182123172Y-103777790D01*
X182126864Y-103784477D01*
X182262573Y-104048929D01*
X182265449Y-104054916D01*
X182392856Y-104339140D01*
X182402561Y-104360791D01*
X182404825Y-104366174D01*
X182503105Y-104615898D01*
X182541548Y-104713580D01*
X182543357Y-104718472D01*
X182622918Y-104948120D01*
X182678187Y-105107654D01*
X182679643Y-105112127D01*
X182811206Y-105543286D01*
X182812385Y-105547398D01*
X182939498Y-106021002D01*
X182940455Y-106024804D01*
X183061951Y-106541150D01*
X183062730Y-106544684D01*
X183171200Y-107073330D01*
X183173409Y-107089113D01*
X183212731Y-107606818D01*
X183212888Y-107609176D01*
X183240396Y-108091803D01*
X183242844Y-108134759D01*
X183242994Y-108138259D01*
X183271371Y-109119903D01*
X183271601Y-109127856D01*
X183271649Y-109132564D01*
X183268515Y-109496193D01*
X183263964Y-110024248D01*
X183263836Y-110028949D01*
X183227249Y-110824736D01*
X183226947Y-110829404D01*
X183168770Y-111528087D01*
X183168298Y-111532726D01*
X183095833Y-112133276D01*
X183095187Y-112137902D01*
X183039598Y-112488681D01*
X183015783Y-112638954D01*
X183014954Y-112643619D01*
X182936353Y-113042051D01*
X182935153Y-113047495D01*
X182815429Y-113538814D01*
X182814043Y-113544014D01*
X182673062Y-114031105D01*
X182671489Y-114036143D01*
X182509772Y-114518278D01*
X182508029Y-114523141D01*
X182326495Y-114998612D01*
X182326101Y-114999644D01*
X182324196Y-115004348D01*
X182151147Y-115407946D01*
X182122534Y-115474679D01*
X182120476Y-115479228D01*
X181899613Y-115942719D01*
X181897415Y-115947110D01*
X181657866Y-116403155D01*
X181655535Y-116407392D01*
X181599370Y-116505023D01*
X181415271Y-116825042D01*
X181400798Y-116850200D01*
X181397078Y-116856263D01*
X180839254Y-117710289D01*
X180826035Y-117730527D01*
X180820654Y-117738136D01*
X180186793Y-118567495D01*
X180180973Y-118574561D01*
X179485408Y-119359108D01*
X179479168Y-119365655D01*
X179141626Y-119695134D01*
X178726439Y-120100404D01*
X178719721Y-120106505D01*
X177914424Y-120786547D01*
X177907236Y-120792183D01*
X177787002Y-120879620D01*
X177054003Y-121412674D01*
X177046341Y-121417827D01*
X176144685Y-121977205D01*
X176138617Y-121980737D01*
X175680704Y-122230465D01*
X175676518Y-122232647D01*
X175370652Y-122384703D01*
X175204352Y-122467376D01*
X175199976Y-122469447D01*
X175084709Y-122521327D01*
X174728363Y-122681713D01*
X174719391Y-122685751D01*
X174714882Y-122687676D01*
X174646073Y-122715475D01*
X174226318Y-122885052D01*
X174221659Y-122886827D01*
X173725762Y-123064684D01*
X173720960Y-123066298D01*
X173496535Y-123136746D01*
X173218274Y-123224093D01*
X173213361Y-123225526D01*
X172993030Y-123284919D01*
X172704433Y-123362714D01*
X172699354Y-123363971D01*
X172184715Y-123480011D01*
X172179502Y-123481071D01*
X171659734Y-123575412D01*
X171654397Y-123576263D01*
X171398296Y-123611479D01*
X171144176Y-123646422D01*
X171133055Y-123647452D01*
X170908107Y-123658242D01*
X170022063Y-123700743D01*
X170017835Y-123700875D01*
X169312479Y-123711000D01*
X168937446Y-123716384D01*
X168933665Y-123716381D01*
X167893907Y-123699967D01*
X167890693Y-123699875D01*
X166886891Y-123658241D01*
X166883521Y-123658055D01*
X164942334Y-123524838D01*
X164940721Y-123524717D01*
X164082865Y-123454262D01*
X163101690Y-123373679D01*
X163097462Y-123373217D01*
X163094004Y-123372489D01*
X163063255Y-123370503D01*
X163061062Y-123370342D01*
X163060725Y-123370314D01*
X163030377Y-123367822D01*
X163026847Y-123368037D01*
X163022607Y-123367878D01*
X162218093Y-123315922D01*
X161241330Y-123252842D01*
X161235117Y-123252095D01*
X161235107Y-123252193D01*
X161230634Y-123251730D01*
X161226196Y-123250947D01*
X161200239Y-123250121D01*
X161196161Y-123249925D01*
X161170207Y-123248249D01*
X161165719Y-123248601D01*
X161161225Y-123248632D01*
X161161224Y-123248535D01*
X161154956Y-123248680D01*
X160785640Y-123236932D01*
X160294594Y-123221310D01*
X160288589Y-123220782D01*
X160288580Y-123220907D01*
X160284082Y-123220584D01*
X160279632Y-123219942D01*
X160275137Y-123219940D01*
X160275131Y-123219940D01*
X160262505Y-123219936D01*
X160253219Y-123219933D01*
X160249293Y-123219869D01*
X160236636Y-123219467D01*
X160227451Y-123219174D01*
X160227448Y-123219174D01*
X160222950Y-123219031D01*
X160218480Y-123219529D01*
X160213979Y-123219707D01*
X160213974Y-123219584D01*
X160207963Y-123219915D01*
X159334661Y-123219598D01*
X159327244Y-123219206D01*
X159322971Y-123219060D01*
X159318486Y-123218585D01*
X159313981Y-123218753D01*
X159313980Y-123218753D01*
X159294116Y-123219494D01*
X159289373Y-123219582D01*
X159283965Y-123219580D01*
X159264961Y-123219573D01*
X159260496Y-123220213D01*
X159256218Y-123220518D01*
X159248829Y-123221183D01*
X158950015Y-123232327D01*
X158354469Y-123254537D01*
X158341868Y-123254376D01*
X158337303Y-123254089D01*
X158314552Y-123255912D01*
X158309208Y-123256225D01*
X158290926Y-123256907D01*
X158290925Y-123256907D01*
X158286422Y-123257075D01*
X158281994Y-123257881D01*
X158281984Y-123257882D01*
X158281902Y-123257897D01*
X158269418Y-123259528D01*
X157683807Y-123306457D01*
X157348638Y-123333316D01*
X157336501Y-123333702D01*
X157335659Y-123333688D01*
X157335240Y-123333681D01*
X157335239Y-123333681D01*
X157330745Y-123333607D01*
X157326287Y-123334173D01*
X157326274Y-123334174D01*
X157309264Y-123336335D01*
X157303454Y-123336936D01*
X157281922Y-123338662D01*
X157277544Y-123339653D01*
X157277534Y-123339655D01*
X157276317Y-123339931D01*
X157264369Y-123342038D01*
X156311832Y-123463039D01*
X156300009Y-123463978D01*
X156298043Y-123464041D01*
X156298039Y-123464041D01*
X156293547Y-123464186D01*
X156289118Y-123464969D01*
X156289119Y-123464969D01*
X156272972Y-123467824D01*
X156266917Y-123468743D01*
X156250623Y-123470813D01*
X156250610Y-123470816D01*
X156246159Y-123471381D01*
X156241830Y-123472575D01*
X156241825Y-123472576D01*
X156239923Y-123473101D01*
X156228360Y-123475712D01*
X155237355Y-123650941D01*
X155226300Y-123652395D01*
X155004267Y-123671610D01*
X155000123Y-123671900D01*
X154770542Y-123684155D01*
X154765920Y-123684317D01*
X154546010Y-123687972D01*
X154540964Y-123687954D01*
X154329137Y-123682989D01*
X154323744Y-123682747D01*
X154118123Y-123669098D01*
X154112493Y-123668598D01*
X154018014Y-123658054D01*
X153911033Y-123646115D01*
X153905316Y-123645343D01*
X153706159Y-123613794D01*
X153700477Y-123612760D01*
X153587922Y-123589574D01*
X153501443Y-123571760D01*
X153495901Y-123570487D01*
X153318949Y-123525626D01*
X153295066Y-123519571D01*
X153289831Y-123518123D01*
X153085233Y-123456710D01*
X153080361Y-123455138D01*
X152870349Y-123382660D01*
X152865910Y-123381035D01*
X152648796Y-123296865D01*
X152644831Y-123295250D01*
X152419201Y-123198840D01*
X152415721Y-123197290D01*
X152180192Y-123088115D01*
X152177183Y-123086671D01*
X151930583Y-122964328D01*
X151928019Y-122963020D01*
X151858651Y-122926607D01*
X151713434Y-122850380D01*
X151697665Y-122840555D01*
X151689970Y-122834933D01*
X151687421Y-122833021D01*
X151668571Y-122818504D01*
X151665004Y-122815757D01*
X151661520Y-122813792D01*
X151659287Y-122812253D01*
X151640488Y-122798777D01*
X151639714Y-122798216D01*
X151612594Y-122778402D01*
X151610947Y-122777527D01*
X151609432Y-122776511D01*
X151568154Y-122746918D01*
X151565447Y-122744922D01*
X151557411Y-122738824D01*
X151515240Y-122681713D01*
X151512560Y-122673524D01*
X151508836Y-122660673D01*
X151507825Y-122656973D01*
X151503503Y-122640137D01*
X151502682Y-122636734D01*
X151497983Y-122616008D01*
X151497313Y-122612861D01*
X151492384Y-122588194D01*
X151491839Y-122585291D01*
X151486801Y-122556593D01*
X151486368Y-122553965D01*
X151481347Y-122521327D01*
X151479882Y-122501978D01*
X151479973Y-122442094D01*
X151480054Y-122437776D01*
X151482878Y-122358914D01*
X151483154Y-122353951D01*
X151488045Y-122289071D01*
X151488604Y-122283379D01*
X151489234Y-122278187D01*
X151494813Y-122232163D01*
X151495768Y-122225692D01*
X151502425Y-122187498D01*
X151503917Y-122180218D01*
X151510036Y-122154265D01*
X151512214Y-122146224D01*
X151516830Y-122131178D01*
X151519965Y-122122189D01*
X151520021Y-122122046D01*
X151548676Y-122078472D01*
X151551730Y-122075447D01*
X151566915Y-122063704D01*
X151566834Y-122063603D01*
X151573851Y-122057943D01*
X151581598Y-122053342D01*
X151587735Y-122046744D01*
X151590370Y-122044619D01*
X151599880Y-122037656D01*
X152170527Y-121659551D01*
X153266586Y-120933314D01*
X153277403Y-120926900D01*
X153281500Y-120924740D01*
X153285146Y-120922093D01*
X153285150Y-120922090D01*
X153299890Y-120911386D01*
X153304334Y-120908302D01*
X153319539Y-120898228D01*
X153319542Y-120898226D01*
X153323292Y-120895741D01*
X153326651Y-120892748D01*
X153330215Y-120890001D01*
X153330410Y-120890255D01*
X153334936Y-120886778D01*
X153335796Y-120886294D01*
X153339360Y-120883557D01*
X153339370Y-120883550D01*
X153357855Y-120869352D01*
X153360550Y-120867339D01*
X153383054Y-120850997D01*
X153384502Y-120849590D01*
X153387498Y-120847281D01*
X153389892Y-120845838D01*
X153410580Y-120828926D01*
X153413572Y-120826555D01*
X153431192Y-120813022D01*
X153431201Y-120813014D01*
X153434771Y-120810272D01*
X153436699Y-120808295D01*
X153440613Y-120805085D01*
X153443623Y-120803128D01*
X153462876Y-120786269D01*
X153466128Y-120783518D01*
X153482475Y-120770156D01*
X153482479Y-120770152D01*
X153485956Y-120767310D01*
X153488294Y-120764764D01*
X153493252Y-120760406D01*
X153496808Y-120757899D01*
X153514555Y-120741140D01*
X153518041Y-120737970D01*
X153533034Y-120724842D01*
X153533040Y-120724836D01*
X153536424Y-120721873D01*
X153539100Y-120718753D01*
X153544285Y-120713837D01*
X153545679Y-120712597D01*
X153549242Y-120709857D01*
X153565394Y-120693281D01*
X153569126Y-120689607D01*
X153582694Y-120676794D01*
X153585962Y-120673708D01*
X153588756Y-120670190D01*
X153589253Y-120669649D01*
X153594129Y-120664625D01*
X153597186Y-120661646D01*
X153600627Y-120658740D01*
X153615165Y-120642390D01*
X153619072Y-120638194D01*
X153624953Y-120632158D01*
X153634335Y-120622529D01*
X153636985Y-120618891D01*
X153639635Y-120615752D01*
X153644421Y-120610720D01*
X153644308Y-120610615D01*
X153647368Y-120607319D01*
X153650661Y-120604245D01*
X153663522Y-120588242D01*
X153667576Y-120583447D01*
X153678224Y-120571472D01*
X153681218Y-120568105D01*
X153683704Y-120564344D01*
X153686441Y-120560783D01*
X153686684Y-120560970D01*
X153693060Y-120553003D01*
X153692900Y-120552870D01*
X153695777Y-120549416D01*
X153698901Y-120546167D01*
X153710122Y-120530550D01*
X153714218Y-120525161D01*
X153726279Y-120510153D01*
X153728574Y-120506273D01*
X153731132Y-120502579D01*
X153731190Y-120502619D01*
X153741266Y-120488533D01*
X153741996Y-120487680D01*
X153741997Y-120487679D01*
X153744921Y-120484261D01*
X153747327Y-120480466D01*
X153747336Y-120480453D01*
X153754509Y-120469136D01*
X153758600Y-120463077D01*
X153766432Y-120452176D01*
X153766436Y-120452169D01*
X153769058Y-120448520D01*
X153772233Y-120442425D01*
X153783353Y-120424808D01*
X153785422Y-120422063D01*
X153785425Y-120422058D01*
X153788131Y-120418468D01*
X153796187Y-120403828D01*
X153800155Y-120397117D01*
X153806690Y-120386807D01*
X153806692Y-120386804D01*
X153809104Y-120382998D01*
X153811451Y-120377771D01*
X153812823Y-120374717D01*
X153822411Y-120357220D01*
X153825491Y-120352524D01*
X153825492Y-120352523D01*
X153827957Y-120348764D01*
X153829860Y-120344698D01*
X153829865Y-120344689D01*
X153834576Y-120334622D01*
X153838305Y-120327288D01*
X153843667Y-120317544D01*
X153843671Y-120317536D01*
X153845837Y-120313599D01*
X153848692Y-120306020D01*
X153855755Y-120291211D01*
X153855668Y-120291168D01*
X153857659Y-120287133D01*
X153859932Y-120283250D01*
X153867572Y-120264496D01*
X153870124Y-120258663D01*
X153875971Y-120246169D01*
X153876313Y-120245535D01*
X153876400Y-120245434D01*
X153876599Y-120244915D01*
X153876566Y-120244899D01*
X153876785Y-120244432D01*
X153876787Y-120244426D01*
X153878691Y-120240357D01*
X153879999Y-120236051D01*
X153880146Y-120235668D01*
X153882100Y-120229837D01*
X153885124Y-120221610D01*
X153886722Y-120217492D01*
X153887038Y-120216717D01*
X153888652Y-120213139D01*
X153889626Y-120210757D01*
X153891616Y-120206739D01*
X153893015Y-120202475D01*
X153893771Y-120200627D01*
X153893883Y-120200323D01*
X153894552Y-120198272D01*
X153896245Y-120194116D01*
X153897330Y-120189759D01*
X153898204Y-120187080D01*
X153899203Y-120183609D01*
X153899451Y-120182852D01*
X153900947Y-120178550D01*
X153901416Y-120177276D01*
X153902831Y-120173815D01*
X153903739Y-120171349D01*
X153905593Y-120167243D01*
X153906843Y-120162920D01*
X153907494Y-120161151D01*
X153908049Y-120159224D01*
X153909597Y-120155012D01*
X153910530Y-120150619D01*
X153911310Y-120147914D01*
X153912156Y-120144531D01*
X153912554Y-120143154D01*
X153913881Y-120138858D01*
X153914486Y-120137016D01*
X153915686Y-120133755D01*
X153916534Y-120131168D01*
X153918238Y-120127003D01*
X153919331Y-120122638D01*
X153919848Y-120121062D01*
X153920270Y-120119378D01*
X153921673Y-120115101D01*
X153922453Y-120110665D01*
X153923134Y-120107948D01*
X153923829Y-120104682D01*
X153924288Y-120102848D01*
X153925475Y-120098444D01*
X153926155Y-120096092D01*
X153927173Y-120092988D01*
X153927948Y-120090301D01*
X153929499Y-120086080D01*
X153930434Y-120081680D01*
X153930840Y-120080271D01*
X153931157Y-120078781D01*
X153932408Y-120074455D01*
X153933030Y-120069997D01*
X153933630Y-120067179D01*
X153934175Y-120064076D01*
X153934679Y-120061705D01*
X153935705Y-120057270D01*
X153936394Y-120054521D01*
X153937219Y-120051659D01*
X153937924Y-120048837D01*
X153939325Y-120044552D01*
X153940102Y-120040114D01*
X153940424Y-120038823D01*
X153940655Y-120037508D01*
X153941750Y-120033138D01*
X153942211Y-120028660D01*
X153942724Y-120025742D01*
X153943133Y-120022794D01*
X153943621Y-120020010D01*
X153944483Y-120015563D01*
X153945158Y-120012388D01*
X153945817Y-120009749D01*
X153946446Y-120006775D01*
X153947689Y-120002454D01*
X153948305Y-119997995D01*
X153948556Y-119996808D01*
X153948721Y-119995620D01*
X153949656Y-119991219D01*
X153949955Y-119986736D01*
X153950376Y-119983702D01*
X153950653Y-119980988D01*
X153951095Y-119977788D01*
X153951797Y-119973303D01*
X153956090Y-119948778D01*
X153956227Y-119944288D01*
X153956686Y-119939798D01*
X153956921Y-119939822D01*
X153957574Y-119932824D01*
X153958792Y-119925102D01*
X153969953Y-119854310D01*
X153985193Y-119757645D01*
X153987002Y-119748423D01*
X153988865Y-119740500D01*
X153989897Y-119736114D01*
X153991194Y-119721450D01*
X153992241Y-119712931D01*
X153993331Y-119706018D01*
X153994536Y-119698377D01*
X153994707Y-119685728D01*
X153995185Y-119676332D01*
X153995404Y-119673863D01*
X154013006Y-119474892D01*
X154014681Y-119462739D01*
X154014850Y-119461838D01*
X154015682Y-119457409D01*
X154016623Y-119435479D01*
X154016994Y-119429810D01*
X154018931Y-119407915D01*
X154018635Y-119402495D01*
X154018563Y-119390227D01*
X154019473Y-119369005D01*
X154028050Y-119168997D01*
X154028657Y-119162835D01*
X154028551Y-119162826D01*
X154028920Y-119158335D01*
X154029607Y-119153892D01*
X154029664Y-119148538D01*
X154029884Y-119127765D01*
X154029993Y-119123704D01*
X154030917Y-119102152D01*
X154030917Y-119102149D01*
X154031110Y-119097646D01*
X154030660Y-119093163D01*
X154030532Y-119088667D01*
X154030639Y-119088664D01*
X154030363Y-119082490D01*
X154032920Y-118840993D01*
X154033339Y-118834574D01*
X154033260Y-118834570D01*
X154033478Y-118830071D01*
X154034016Y-118825607D01*
X154033426Y-118799867D01*
X154033400Y-118795665D01*
X154033487Y-118787437D01*
X154033617Y-118775166D01*
X157688363Y-118775166D01*
X157688980Y-118801165D01*
X157689010Y-118805252D01*
X157688779Y-118831261D01*
X157689381Y-118835726D01*
X157689662Y-118840216D01*
X157689562Y-118840222D01*
X157690055Y-118846452D01*
X157692513Y-118950070D01*
X157692305Y-118957213D01*
X157692308Y-118957213D01*
X157692261Y-118961719D01*
X157691894Y-118966198D01*
X157692168Y-118970685D01*
X157692168Y-118970693D01*
X157693388Y-118990665D01*
X157693587Y-118995347D01*
X157694169Y-119019864D01*
X157694917Y-119024311D01*
X157695343Y-119028777D01*
X157695339Y-119028777D01*
X157696150Y-119035874D01*
X157702567Y-119140944D01*
X157702712Y-119153347D01*
X157702692Y-119153879D01*
X157702692Y-119153890D01*
X157702523Y-119158397D01*
X157703643Y-119168999D01*
X157704865Y-119180574D01*
X157705328Y-119186120D01*
X157706690Y-119208429D01*
X157707599Y-119212824D01*
X157707709Y-119213356D01*
X157709623Y-119225639D01*
X157712305Y-119251036D01*
X157720719Y-119330737D01*
X157721398Y-119341879D01*
X157721459Y-119345588D01*
X157721460Y-119345596D01*
X157721534Y-119350093D01*
X157724037Y-119365663D01*
X157724574Y-119369005D01*
X157725473Y-119375768D01*
X157727013Y-119390356D01*
X157727016Y-119390371D01*
X157727487Y-119394836D01*
X157728590Y-119399191D01*
X157728592Y-119399204D01*
X157729503Y-119402802D01*
X157731762Y-119413736D01*
X157748554Y-119518222D01*
X157749693Y-119527492D01*
X157750784Y-119540266D01*
X157751799Y-119544639D01*
X157751801Y-119544653D01*
X157754076Y-119554457D01*
X157755740Y-119562941D01*
X157757334Y-119572860D01*
X157757337Y-119572872D01*
X157758050Y-119577310D01*
X157759390Y-119581608D01*
X157759391Y-119581614D01*
X157761865Y-119589553D01*
X157764311Y-119598562D01*
X157786720Y-119695134D01*
X157788566Y-119704787D01*
X157789624Y-119711790D01*
X157789628Y-119711807D01*
X157790298Y-119716242D01*
X157791593Y-119720540D01*
X157791596Y-119720551D01*
X157794861Y-119731383D01*
X157796958Y-119739253D01*
X157800530Y-119754646D01*
X157802157Y-119758832D01*
X157802158Y-119758834D01*
X157804729Y-119765447D01*
X157807929Y-119774737D01*
X157812478Y-119789828D01*
X157815276Y-119800906D01*
X157816794Y-119808316D01*
X157818315Y-119812549D01*
X157823493Y-119826964D01*
X157825547Y-119833186D01*
X157831268Y-119852168D01*
X157833169Y-119856252D01*
X157834771Y-119860456D01*
X157834527Y-119860549D01*
X157841950Y-119882807D01*
X157847574Y-119909428D01*
X157851845Y-119917363D01*
X157853884Y-119922931D01*
X157857655Y-119932113D01*
X157860122Y-119937516D01*
X157862662Y-119946165D01*
X157887830Y-119985328D01*
X157893135Y-119994395D01*
X157910722Y-120027554D01*
X157910724Y-120027557D01*
X157914946Y-120035517D01*
X157921239Y-120041965D01*
X157926552Y-120049245D01*
X157925895Y-120049724D01*
X157928190Y-120052832D01*
X157928858Y-120052333D01*
X157934249Y-120059550D01*
X157938560Y-120067465D01*
X157944924Y-120073842D01*
X157944926Y-120073845D01*
X157989000Y-120118010D01*
X157989440Y-120118454D01*
X158033375Y-120162920D01*
X158033381Y-120162925D01*
X158039713Y-120169333D01*
X158059738Y-120180424D01*
X158069331Y-120186313D01*
X158084377Y-120196502D01*
X158089340Y-120200041D01*
X158106144Y-120212648D01*
X158110085Y-120214806D01*
X158110089Y-120214808D01*
X158111740Y-120215712D01*
X158121881Y-120221903D01*
X158123427Y-120222950D01*
X158123440Y-120222957D01*
X158127156Y-120225474D01*
X158146055Y-120234662D01*
X158151443Y-120237444D01*
X158202083Y-120265164D01*
X158210507Y-120267006D01*
X158222296Y-120272173D01*
X158228425Y-120275273D01*
X158232245Y-120276562D01*
X158235867Y-120278323D01*
X158263167Y-120287059D01*
X158265664Y-120287858D01*
X158267550Y-120288478D01*
X158310295Y-120302903D01*
X158312766Y-120303766D01*
X158336535Y-120312341D01*
X158336543Y-120312343D01*
X158340772Y-120313869D01*
X158344843Y-120314709D01*
X158344882Y-120314721D01*
X158346971Y-120315287D01*
X158347030Y-120315301D01*
X158350975Y-120316632D01*
X158355401Y-120317450D01*
X158355406Y-120317451D01*
X158380241Y-120322039D01*
X158382768Y-120322532D01*
X158483366Y-120343284D01*
X158497754Y-120346252D01*
X158503198Y-120347502D01*
X158520426Y-120351860D01*
X158520429Y-120351861D01*
X158524787Y-120352963D01*
X158529857Y-120353497D01*
X158542108Y-120355401D01*
X158547103Y-120356432D01*
X158551592Y-120356705D01*
X158551595Y-120356705D01*
X158569347Y-120357783D01*
X158574911Y-120358245D01*
X158642613Y-120365378D01*
X158702162Y-120371653D01*
X158712237Y-120373128D01*
X158718310Y-120374270D01*
X158718320Y-120374271D01*
X158722745Y-120375103D01*
X158727251Y-120375297D01*
X158739419Y-120375821D01*
X158747202Y-120376398D01*
X158759330Y-120377676D01*
X158759332Y-120377676D01*
X158763810Y-120378148D01*
X158768306Y-120377978D01*
X158768312Y-120377978D01*
X158774497Y-120377744D01*
X158784681Y-120377771D01*
X158919319Y-120383570D01*
X158931802Y-120384732D01*
X158932039Y-120384766D01*
X158932042Y-120384766D01*
X158936497Y-120385406D01*
X158959149Y-120385402D01*
X158964549Y-120385518D01*
X158987182Y-120386493D01*
X158991655Y-120386045D01*
X158991662Y-120386045D01*
X158991898Y-120386021D01*
X159004427Y-120385394D01*
X159046339Y-120385387D01*
X159148327Y-120385369D01*
X159154595Y-120385714D01*
X159154599Y-120385617D01*
X159159084Y-120385790D01*
X159163564Y-120386284D01*
X159168061Y-120386136D01*
X159168066Y-120386136D01*
X159189488Y-120385430D01*
X159193613Y-120385362D01*
X159215066Y-120385358D01*
X159215069Y-120385358D01*
X159219565Y-120385357D01*
X159224018Y-120384716D01*
X159228506Y-120384394D01*
X159228513Y-120384489D01*
X159234774Y-120383937D01*
X159386305Y-120378942D01*
X159391928Y-120378883D01*
X159395153Y-120378921D01*
X159399626Y-120379293D01*
X159412579Y-120378519D01*
X159427448Y-120377631D01*
X159430809Y-120377475D01*
X159441411Y-120377125D01*
X159458646Y-120376557D01*
X159463087Y-120375768D01*
X159466229Y-120375439D01*
X159471837Y-120374978D01*
X159531355Y-120371422D01*
X159628374Y-120365625D01*
X159634406Y-120365410D01*
X159635053Y-120365402D01*
X159639536Y-120365670D01*
X159644015Y-120365297D01*
X159644018Y-120365297D01*
X159668335Y-120363272D01*
X159671274Y-120363061D01*
X159680027Y-120362538D01*
X159700154Y-120361335D01*
X159704569Y-120360429D01*
X159705175Y-120360349D01*
X159711173Y-120359704D01*
X159867450Y-120346689D01*
X159873398Y-120346341D01*
X159877820Y-120346507D01*
X159906961Y-120343430D01*
X159909726Y-120343169D01*
X159938967Y-120340733D01*
X159943283Y-120339741D01*
X159949221Y-120338966D01*
X160027797Y-120330667D01*
X160098164Y-120323235D01*
X160104263Y-120322741D01*
X160104448Y-120322731D01*
X160108948Y-120322797D01*
X160113406Y-120322223D01*
X160113408Y-120322223D01*
X160137823Y-120319080D01*
X160140675Y-120318746D01*
X160146705Y-120318109D01*
X160169607Y-120315690D01*
X160173978Y-120314583D01*
X160174140Y-120314554D01*
X160180197Y-120313624D01*
X160314889Y-120296284D01*
X160320569Y-120295684D01*
X160323189Y-120295467D01*
X160327679Y-120295416D01*
X160355490Y-120291098D01*
X160358602Y-120290656D01*
X160386538Y-120287059D01*
X160390873Y-120285856D01*
X160393459Y-120285333D01*
X160399074Y-120284330D01*
X160434072Y-120278896D01*
X160514318Y-120266435D01*
X160520716Y-120265796D01*
X160520707Y-120265718D01*
X160525184Y-120265195D01*
X160529679Y-120264994D01*
X160554930Y-120260201D01*
X160559066Y-120259488D01*
X160580025Y-120256233D01*
X160580037Y-120256230D01*
X160584482Y-120255540D01*
X160588787Y-120254223D01*
X160593168Y-120253218D01*
X160593186Y-120253295D01*
X160599435Y-120251752D01*
X160694676Y-120233672D01*
X160706135Y-120232038D01*
X160708789Y-120231783D01*
X160708796Y-120231782D01*
X160713286Y-120231351D01*
X160732945Y-120226571D01*
X160739179Y-120225223D01*
X160741311Y-120224818D01*
X160759035Y-120221454D01*
X160763289Y-120219995D01*
X160763301Y-120219992D01*
X160765827Y-120219126D01*
X160776932Y-120215879D01*
X160777619Y-120215712D01*
X160859173Y-120195886D01*
X160864690Y-120194675D01*
X160881969Y-120191288D01*
X160881971Y-120191287D01*
X160886386Y-120190422D01*
X160890675Y-120188922D01*
X160891374Y-120188678D01*
X160903194Y-120185184D01*
X160908313Y-120183940D01*
X160928839Y-120175711D01*
X160934083Y-120173744D01*
X160938192Y-120172307D01*
X160946190Y-120169991D01*
X160953127Y-120169402D01*
X160961532Y-120166139D01*
X161011217Y-120146850D01*
X161015197Y-120145382D01*
X161039334Y-120136942D01*
X161043326Y-120134868D01*
X161047158Y-120133213D01*
X161050900Y-120131444D01*
X161055084Y-120129819D01*
X161058994Y-120127616D01*
X161059000Y-120127613D01*
X161077355Y-120117270D01*
X161081156Y-120115213D01*
X161082724Y-120114399D01*
X161092591Y-120109806D01*
X161124223Y-120096715D01*
X161151341Y-120074876D01*
X161175675Y-120055279D01*
X161177859Y-120053559D01*
X161180714Y-120051362D01*
X161230187Y-120013289D01*
X161235491Y-120006003D01*
X161239100Y-120002297D01*
X161241742Y-119999110D01*
X161241811Y-119999037D01*
X161248860Y-119993419D01*
X161253654Y-119986593D01*
X161253696Y-119986553D01*
X161256660Y-119983272D01*
X161256703Y-119983217D01*
X161263009Y-119977753D01*
X161267881Y-119970172D01*
X161267887Y-119970165D01*
X161295452Y-119927272D01*
X161298340Y-119922975D01*
X161303703Y-119915339D01*
X161304673Y-119914123D01*
X161306498Y-119911407D01*
X161306638Y-119911203D01*
X161306641Y-119911196D01*
X161307246Y-119910295D01*
X161308130Y-119909037D01*
X161314015Y-119902518D01*
X161317046Y-119896223D01*
X161317836Y-119895566D01*
X161317481Y-119895320D01*
X161326005Y-119883051D01*
X161334004Y-119871538D01*
X161336736Y-119863337D01*
X161337310Y-119862137D01*
X161341985Y-119854864D01*
X161346092Y-119840878D01*
X161354623Y-119819368D01*
X161355429Y-119817780D01*
X161357463Y-119813771D01*
X161358801Y-119809822D01*
X161358818Y-119809785D01*
X161359638Y-119807780D01*
X161359657Y-119807728D01*
X161361464Y-119803975D01*
X161370439Y-119775561D01*
X161371232Y-119773140D01*
X161382986Y-119738456D01*
X161392566Y-119710186D01*
X161392787Y-119704811D01*
X161393197Y-119703514D01*
X161394577Y-119695134D01*
X161397828Y-119675382D01*
X161398366Y-119672348D01*
X161400570Y-119660762D01*
X161402060Y-119653963D01*
X161403273Y-119649080D01*
X161406581Y-119635761D01*
X161407448Y-119627176D01*
X161409029Y-119616296D01*
X161410643Y-119607810D01*
X161410969Y-119600613D01*
X161411490Y-119589079D01*
X161411999Y-119582107D01*
X161412883Y-119573356D01*
X161413645Y-119567292D01*
X161416086Y-119551049D01*
X161416756Y-119546593D01*
X161416797Y-119540162D01*
X161417432Y-119528301D01*
X161417628Y-119526363D01*
X161417628Y-119526362D01*
X161418080Y-119521888D01*
X161417438Y-119506671D01*
X161417198Y-119500962D01*
X161417089Y-119494848D01*
X161417493Y-119431757D01*
X161417741Y-119424620D01*
X161418615Y-119410789D01*
X161418615Y-119410786D01*
X161418899Y-119406290D01*
X161418181Y-119397303D01*
X161417784Y-119386458D01*
X161417813Y-119381952D01*
X161417842Y-119377452D01*
X161416683Y-119369005D01*
X161415344Y-119359246D01*
X161414574Y-119352150D01*
X161409172Y-119284534D01*
X161408772Y-119274207D01*
X161408786Y-119268382D01*
X161408786Y-119268376D01*
X161408796Y-119263892D01*
X161406406Y-119246989D01*
X161405565Y-119239383D01*
X161404564Y-119226856D01*
X161404206Y-119222372D01*
X161401930Y-119212311D01*
X161400066Y-119202154D01*
X161390559Y-119134929D01*
X161389442Y-119122878D01*
X161389382Y-119121516D01*
X161389381Y-119121509D01*
X161389182Y-119117026D01*
X161385691Y-119098593D01*
X161385176Y-119095874D01*
X161384217Y-119090071D01*
X161381835Y-119073232D01*
X161381833Y-119073225D01*
X161381203Y-119068767D01*
X161379566Y-119063142D01*
X161376747Y-119051380D01*
X161373810Y-119035874D01*
X161363644Y-118982212D01*
X161362467Y-118973549D01*
X161361977Y-118970407D01*
X161361603Y-118965915D01*
X161356215Y-118942479D01*
X161355212Y-118937696D01*
X161355185Y-118937554D01*
X161350739Y-118914080D01*
X161349279Y-118909817D01*
X161348478Y-118906789D01*
X161346069Y-118898346D01*
X161329752Y-118827370D01*
X161328619Y-118820846D01*
X161328562Y-118820857D01*
X161327716Y-118816439D01*
X161327188Y-118811970D01*
X161326030Y-118807626D01*
X161326028Y-118807616D01*
X161320648Y-118787437D01*
X161319598Y-118783206D01*
X161314926Y-118762882D01*
X161314924Y-118762877D01*
X161313915Y-118758486D01*
X161312289Y-118754280D01*
X161310974Y-118749988D01*
X161311031Y-118749971D01*
X161308981Y-118743673D01*
X161289922Y-118672177D01*
X161288627Y-118665974D01*
X161288540Y-118665994D01*
X161287547Y-118661597D01*
X161286872Y-118657154D01*
X161281835Y-118640489D01*
X161279383Y-118632379D01*
X161278247Y-118628382D01*
X161272748Y-118607755D01*
X161272744Y-118607745D01*
X161271587Y-118603403D01*
X161269823Y-118599269D01*
X161268354Y-118595008D01*
X161268440Y-118594978D01*
X161266279Y-118589031D01*
X161265215Y-118585509D01*
X161245012Y-118518674D01*
X161243475Y-118512370D01*
X161243405Y-118512388D01*
X161242264Y-118508028D01*
X161241439Y-118503611D01*
X161239995Y-118499360D01*
X161239993Y-118499352D01*
X161233211Y-118479385D01*
X161231907Y-118475323D01*
X161225798Y-118455113D01*
X161224499Y-118450815D01*
X161222600Y-118446743D01*
X161220991Y-118442531D01*
X161221057Y-118442506D01*
X161218636Y-118436476D01*
X161218500Y-118436075D01*
X161195712Y-118368983D01*
X161193770Y-118362094D01*
X161193769Y-118362094D01*
X161192468Y-118357788D01*
X161191477Y-118353397D01*
X161187084Y-118341893D01*
X161182735Y-118330508D01*
X161181135Y-118326070D01*
X161174716Y-118307170D01*
X161173270Y-118302912D01*
X161171232Y-118298902D01*
X161169484Y-118294754D01*
X161169485Y-118294754D01*
X161166581Y-118288207D01*
X161142398Y-118224884D01*
X161138559Y-118213133D01*
X161138382Y-118212485D01*
X161137198Y-118208148D01*
X161128357Y-118187771D01*
X161126239Y-118182575D01*
X161120688Y-118168040D01*
X161118314Y-118161823D01*
X161115802Y-118157307D01*
X161110327Y-118146213D01*
X161106336Y-118137013D01*
X161084810Y-118087396D01*
X161080976Y-118077418D01*
X161077996Y-118068552D01*
X161069876Y-118052448D01*
X161066797Y-118045878D01*
X161059611Y-118029315D01*
X161054704Y-118021351D01*
X161049478Y-118011997D01*
X161021185Y-117955889D01*
X161017964Y-117948992D01*
X161014403Y-117940722D01*
X161011170Y-117933214D01*
X161005839Y-117924507D01*
X161000791Y-117915446D01*
X160998220Y-117910348D01*
X160996196Y-117906334D01*
X160992991Y-117901746D01*
X160986355Y-117892249D01*
X160982185Y-117885878D01*
X160975462Y-117874897D01*
X160952146Y-117836819D01*
X160948937Y-117831267D01*
X160941435Y-117817487D01*
X160939284Y-117813535D01*
X160934990Y-117807783D01*
X160928500Y-117798202D01*
X160927091Y-117795902D01*
X160924739Y-117792060D01*
X160911844Y-117776507D01*
X160907885Y-117771477D01*
X160905055Y-117767687D01*
X160904378Y-117766780D01*
X160900360Y-117761074D01*
X160897550Y-117756839D01*
X160897158Y-117755966D01*
X160896322Y-117754988D01*
X160889990Y-117745445D01*
X160886996Y-117742090D01*
X160886993Y-117742086D01*
X160884235Y-117738996D01*
X160877278Y-117730480D01*
X160874801Y-117727162D01*
X160872109Y-117723556D01*
X160868936Y-117720374D01*
X160868931Y-117720369D01*
X160858877Y-117710289D01*
X160854084Y-117705209D01*
X160847104Y-117697388D01*
X160845348Y-117695378D01*
X160829000Y-117676260D01*
X160828998Y-117676258D01*
X160826077Y-117672842D01*
X160824661Y-117671599D01*
X160819807Y-117664473D01*
X160812837Y-117658753D01*
X160771498Y-117624828D01*
X160768299Y-117622113D01*
X160765469Y-117619628D01*
X160764240Y-117618549D01*
X160761000Y-117614699D01*
X160756319Y-117611595D01*
X160748952Y-117605126D01*
X160745181Y-117602668D01*
X160741974Y-117600234D01*
X160738731Y-117597940D01*
X160735260Y-117595091D01*
X160728546Y-117591027D01*
X160711291Y-117578467D01*
X160703630Y-117571828D01*
X160703627Y-117571826D01*
X160696818Y-117565926D01*
X160678692Y-117557648D01*
X160668031Y-117551782D01*
X160664881Y-117550318D01*
X160657331Y-117545396D01*
X160648701Y-117542800D01*
X160646557Y-117541804D01*
X160639391Y-117539214D01*
X160629945Y-117535203D01*
X160625208Y-117533074D01*
X160570291Y-117507030D01*
X160560179Y-117501659D01*
X160557597Y-117500133D01*
X160557595Y-117500132D01*
X160553725Y-117497845D01*
X160535332Y-117490264D01*
X160529359Y-117487619D01*
X160515459Y-117481026D01*
X160515449Y-117481022D01*
X160511394Y-117479099D01*
X160507106Y-117477772D01*
X160507100Y-117477770D01*
X160504242Y-117476886D01*
X160493463Y-117473006D01*
X160444984Y-117453024D01*
X160433730Y-117447709D01*
X160433588Y-117447646D01*
X160429634Y-117445529D01*
X160408073Y-117437690D01*
X160403115Y-117435767D01*
X160381900Y-117427023D01*
X160377539Y-117425918D01*
X160377373Y-117425863D01*
X160365497Y-117422210D01*
X160312345Y-117402885D01*
X160305990Y-117400183D01*
X160305979Y-117400209D01*
X160301814Y-117398525D01*
X160297767Y-117396543D01*
X160274039Y-117388872D01*
X160269772Y-117387407D01*
X160246357Y-117378894D01*
X160241952Y-117377974D01*
X160237626Y-117376742D01*
X160237634Y-117376715D01*
X160230960Y-117374944D01*
X160172823Y-117356149D01*
X160167093Y-117353940D01*
X160167054Y-117354045D01*
X160162839Y-117352496D01*
X160158732Y-117350645D01*
X160152333Y-117348800D01*
X160133550Y-117343385D01*
X160129694Y-117342206D01*
X160126357Y-117341127D01*
X160104791Y-117334155D01*
X160100361Y-117333395D01*
X160095980Y-117332317D01*
X160096007Y-117332208D01*
X160090036Y-117330839D01*
X160027176Y-117312717D01*
X160021835Y-117310842D01*
X160021782Y-117311001D01*
X160017507Y-117309572D01*
X160013356Y-117307847D01*
X159987255Y-117301150D01*
X159983664Y-117300173D01*
X159962042Y-117293939D01*
X159962041Y-117293939D01*
X159957727Y-117292695D01*
X159953276Y-117292077D01*
X159948874Y-117291142D01*
X159948909Y-117290978D01*
X159943363Y-117289888D01*
X159876302Y-117272682D01*
X159871068Y-117271218D01*
X159866823Y-117269931D01*
X159862626Y-117268324D01*
X159858238Y-117267329D01*
X159858234Y-117267328D01*
X159835922Y-117262270D01*
X159832484Y-117261440D01*
X159805931Y-117254627D01*
X159801450Y-117254139D01*
X159797102Y-117253349D01*
X159791775Y-117252261D01*
X159726637Y-117237495D01*
X159721142Y-117236249D01*
X159715816Y-117234919D01*
X159711847Y-117233835D01*
X159707600Y-117232343D01*
X159703190Y-117231472D01*
X159703188Y-117231471D01*
X159680576Y-117227003D01*
X159677193Y-117226285D01*
X159650361Y-117220203D01*
X159645877Y-117219843D01*
X159641823Y-117219224D01*
X159636419Y-117218278D01*
X159593257Y-117209750D01*
X159563332Y-117203836D01*
X159558101Y-117202350D01*
X159558024Y-117202667D01*
X159553655Y-117201607D01*
X159549367Y-117200235D01*
X159522371Y-117195691D01*
X159518864Y-117195049D01*
X159496476Y-117190626D01*
X159496477Y-117190626D01*
X159492053Y-117189752D01*
X159487553Y-117189517D01*
X159483090Y-117188962D01*
X159483131Y-117188629D01*
X159477718Y-117188176D01*
X159432705Y-117180600D01*
X159403320Y-117175654D01*
X159397773Y-117174397D01*
X159397740Y-117174555D01*
X159393336Y-117173623D01*
X159389011Y-117172380D01*
X159362336Y-117168700D01*
X159358654Y-117168136D01*
X159336521Y-117164411D01*
X159336520Y-117164411D01*
X159332082Y-117163664D01*
X159327584Y-117163556D01*
X159323104Y-117163128D01*
X159323120Y-117162964D01*
X159317452Y-117162509D01*
X159271188Y-117156126D01*
X159242370Y-117152150D01*
X159236364Y-117150980D01*
X159236344Y-117151091D01*
X159231920Y-117150302D01*
X159227559Y-117149198D01*
X159206646Y-117146990D01*
X159201480Y-117146445D01*
X159197493Y-117145959D01*
X159180788Y-117143655D01*
X159171528Y-117142378D01*
X159167032Y-117142404D01*
X159162534Y-117142108D01*
X159162541Y-117141994D01*
X159156434Y-117141691D01*
X159081491Y-117133781D01*
X159074825Y-117132712D01*
X159074819Y-117132756D01*
X159070369Y-117132123D01*
X159065962Y-117131171D01*
X159040804Y-117129410D01*
X159036476Y-117129030D01*
X159011421Y-117126385D01*
X159006928Y-117126554D01*
X159002427Y-117126402D01*
X159002428Y-117126358D01*
X158995673Y-117126249D01*
X158921532Y-117121057D01*
X158911467Y-117119831D01*
X158909455Y-117119626D01*
X158905024Y-117118853D01*
X158900531Y-117118718D01*
X158900528Y-117118718D01*
X158893021Y-117118493D01*
X158881346Y-117118143D01*
X158876363Y-117117895D01*
X158852722Y-117116239D01*
X158848239Y-117116566D01*
X158846179Y-117116569D01*
X158836091Y-117116786D01*
X158792929Y-117115492D01*
X158763155Y-117114599D01*
X158751056Y-117113652D01*
X158749803Y-117113493D01*
X158749798Y-117113493D01*
X158745331Y-117112925D01*
X158740830Y-117112999D01*
X158740828Y-117112999D01*
X158728543Y-117113201D01*
X158723704Y-117113281D01*
X158717855Y-117113241D01*
X158707323Y-117112925D01*
X158700759Y-117112728D01*
X158700758Y-117112728D01*
X158696258Y-117112593D01*
X158690531Y-117113242D01*
X158678429Y-117114025D01*
X158657376Y-117114371D01*
X158606728Y-117115203D01*
X158595725Y-117114903D01*
X158591627Y-117114612D01*
X158591623Y-117114612D01*
X158587138Y-117114293D01*
X158582660Y-117114615D01*
X158582651Y-117114615D01*
X158568380Y-117115641D01*
X158561422Y-117115948D01*
X158547148Y-117116183D01*
X158547146Y-117116183D01*
X158542654Y-117116257D01*
X158538215Y-117116970D01*
X158538214Y-117116970D01*
X158534170Y-117117619D01*
X158523233Y-117118887D01*
X158452214Y-117123994D01*
X158442775Y-117124318D01*
X158430255Y-117124277D01*
X158415555Y-117126341D01*
X158407086Y-117127239D01*
X158396746Y-117127983D01*
X158396738Y-117127984D01*
X158392248Y-117128307D01*
X158380542Y-117130858D01*
X158379996Y-117130977D01*
X158370691Y-117132642D01*
X158369878Y-117132756D01*
X158316566Y-117140243D01*
X158315980Y-117140305D01*
X158315286Y-117140305D01*
X158282723Y-117144987D01*
X158281523Y-117145153D01*
X158212555Y-117154282D01*
X158209906Y-117155456D01*
X158207028Y-117155870D01*
X158179670Y-117168364D01*
X158172617Y-117171288D01*
X158167620Y-117172738D01*
X158159469Y-117173327D01*
X158159944Y-117174964D01*
X158148601Y-117178254D01*
X158148599Y-117178255D01*
X158139949Y-117180764D01*
X158126453Y-117189375D01*
X158115721Y-117196222D01*
X158100296Y-117204612D01*
X158074150Y-117216553D01*
X158067337Y-117222456D01*
X158066287Y-117223131D01*
X158045613Y-117237495D01*
X158033296Y-117244232D01*
X158026928Y-117250608D01*
X158026926Y-117250610D01*
X158020689Y-117256856D01*
X158019791Y-117255959D01*
X158019721Y-117256012D01*
X158019423Y-117255615D01*
X158016853Y-117259304D01*
X158016801Y-117259337D01*
X158009851Y-117267305D01*
X158004065Y-117273503D01*
X158000345Y-117277228D01*
X157992632Y-117284334D01*
X157964875Y-117307847D01*
X157957060Y-117314467D01*
X157952105Y-117321990D01*
X157952101Y-117321995D01*
X157951255Y-117323280D01*
X157942926Y-117334514D01*
X157942447Y-117335091D01*
X157935762Y-117341127D01*
X157912666Y-117378738D01*
X157906234Y-117388214D01*
X157901798Y-117394148D01*
X157899642Y-117398104D01*
X157899640Y-117398106D01*
X157892235Y-117411688D01*
X157888983Y-117417304D01*
X157885237Y-117423405D01*
X157883091Y-117426779D01*
X157876713Y-117436464D01*
X157874549Y-117443541D01*
X157873614Y-117445703D01*
X157872575Y-117447753D01*
X157849448Y-117490176D01*
X157847539Y-117498981D01*
X157847178Y-117500647D01*
X157839195Y-117525088D01*
X157831495Y-117542428D01*
X157829671Y-117546536D01*
X157828977Y-117548994D01*
X157827966Y-117551334D01*
X157826788Y-117555673D01*
X157819292Y-117583283D01*
X157818956Y-117584498D01*
X157804525Y-117635624D01*
X157801687Y-117644427D01*
X157797232Y-117656688D01*
X157796314Y-117661087D01*
X157796313Y-117661090D01*
X157794303Y-117670722D01*
X157792224Y-117679202D01*
X157788329Y-117693003D01*
X157786607Y-117705943D01*
X157785053Y-117715049D01*
X157775315Y-117761707D01*
X157772245Y-117773522D01*
X157770593Y-117778810D01*
X157767107Y-117800407D01*
X157766075Y-117805988D01*
X157761605Y-117827408D01*
X157761322Y-117831904D01*
X157761257Y-117832931D01*
X157759898Y-117845083D01*
X157755086Y-117874897D01*
X157750966Y-117900422D01*
X157749540Y-117906992D01*
X157749586Y-117907001D01*
X157748711Y-117911403D01*
X157747518Y-117915752D01*
X157744375Y-117940786D01*
X157743755Y-117945104D01*
X157742015Y-117955889D01*
X157739735Y-117970015D01*
X157739658Y-117974515D01*
X157739260Y-117978993D01*
X157739214Y-117978989D01*
X157738736Y-117985707D01*
X157730351Y-118052496D01*
X157729307Y-118058187D01*
X157729458Y-118058212D01*
X157728713Y-118062655D01*
X157727655Y-118067023D01*
X157727230Y-118071491D01*
X157727229Y-118071499D01*
X157726581Y-118078323D01*
X157725306Y-118091746D01*
X157725120Y-118093699D01*
X157724708Y-118097435D01*
X157721371Y-118124022D01*
X157721452Y-118128519D01*
X157721211Y-118133018D01*
X157721060Y-118133010D01*
X157720836Y-118138782D01*
X157713427Y-118216753D01*
X157712794Y-118222168D01*
X157712194Y-118226485D01*
X157711259Y-118230887D01*
X157710221Y-118246453D01*
X157709434Y-118258247D01*
X157709148Y-118261778D01*
X157707736Y-118276644D01*
X157706556Y-118289060D01*
X157706773Y-118293565D01*
X157706672Y-118297892D01*
X157706428Y-118303327D01*
X157703088Y-118353397D01*
X157700581Y-118390986D01*
X157700100Y-118396416D01*
X157699625Y-118400723D01*
X157698815Y-118405143D01*
X157698642Y-118409629D01*
X157698642Y-118409631D01*
X157697760Y-118432540D01*
X157697574Y-118436075D01*
X157695749Y-118463442D01*
X157696092Y-118467938D01*
X157696113Y-118472249D01*
X157696021Y-118477705D01*
X157695751Y-118484731D01*
X157692425Y-118571129D01*
X157692361Y-118572780D01*
X157691820Y-118578425D01*
X157691986Y-118578438D01*
X157691624Y-118582933D01*
X157690946Y-118587372D01*
X157690759Y-118608481D01*
X157690707Y-118614298D01*
X157690620Y-118618001D01*
X157689581Y-118644981D01*
X157690049Y-118649453D01*
X157690197Y-118653951D01*
X157690031Y-118653956D01*
X157690304Y-118659624D01*
X157689499Y-118750268D01*
X157689413Y-118759962D01*
X157689012Y-118766202D01*
X157689112Y-118766207D01*
X157688898Y-118770699D01*
X157688363Y-118775166D01*
X154033617Y-118775166D01*
X154033672Y-118769980D01*
X154033079Y-118765522D01*
X154032806Y-118761030D01*
X154032886Y-118761025D01*
X154032388Y-118754625D01*
X154030079Y-118653951D01*
X154018733Y-118159346D01*
X154018926Y-118153598D01*
X154018770Y-118153595D01*
X154018853Y-118149100D01*
X154019257Y-118144611D01*
X154017838Y-118117841D01*
X154017694Y-118114060D01*
X154017366Y-118099760D01*
X154017079Y-118087241D01*
X154016335Y-118082793D01*
X154015912Y-118078323D01*
X154016069Y-118078308D01*
X154015439Y-118072585D01*
X154015382Y-118071499D01*
X153983432Y-117468676D01*
X153983288Y-117463436D01*
X153983571Y-117459379D01*
X153982719Y-117447753D01*
X153981381Y-117429504D01*
X153981221Y-117426960D01*
X153980563Y-117414540D01*
X153979639Y-117397110D01*
X153978849Y-117393124D01*
X153978334Y-117387923D01*
X153937597Y-116832200D01*
X153937449Y-116828884D01*
X153937612Y-116825924D01*
X153934834Y-116794316D01*
X153934687Y-116792497D01*
X153932695Y-116765327D01*
X153932695Y-116765326D01*
X153932366Y-116760840D01*
X153931731Y-116757943D01*
X153931346Y-116754647D01*
X153928930Y-116727155D01*
X153891884Y-116305731D01*
X153891717Y-116302881D01*
X153891829Y-116300233D01*
X153888588Y-116268133D01*
X153888440Y-116266559D01*
X153886010Y-116238916D01*
X153885616Y-116234429D01*
X153885009Y-116231840D01*
X153884638Y-116229001D01*
X153871413Y-116098002D01*
X153843748Y-115823969D01*
X153843219Y-115806105D01*
X153844377Y-115778188D01*
X153826710Y-115707272D01*
X153823476Y-115694251D01*
X153811380Y-115645538D01*
X153811379Y-115645534D01*
X153809208Y-115636794D01*
X153795105Y-115612668D01*
X153787206Y-115596644D01*
X153738442Y-115476976D01*
X153679103Y-115331360D01*
X153591830Y-115117192D01*
X153589753Y-115111737D01*
X153434072Y-114672506D01*
X153411657Y-114609263D01*
X153409982Y-114604200D01*
X153257093Y-114106805D01*
X153255772Y-114102195D01*
X153125032Y-113611015D01*
X153124019Y-113606940D01*
X153120282Y-113590749D01*
X153012313Y-113122917D01*
X153011572Y-113119484D01*
X152996538Y-113044779D01*
X152916371Y-112646442D01*
X152915661Y-112642612D01*
X152758538Y-111714393D01*
X152758235Y-111712514D01*
X152534687Y-110258732D01*
X152505115Y-110066419D01*
X152504314Y-110058449D01*
X152503862Y-110054677D01*
X152503647Y-110050191D01*
X152499043Y-110026337D01*
X152498227Y-110021624D01*
X152495226Y-110002110D01*
X152494542Y-109997660D01*
X152493233Y-109993357D01*
X152492378Y-109989604D01*
X152490465Y-109981889D01*
X152431533Y-109676531D01*
X152430466Y-109668857D01*
X152429840Y-109664906D01*
X152429454Y-109660414D01*
X152423949Y-109636752D01*
X152422954Y-109632076D01*
X152419199Y-109612617D01*
X152419198Y-109612614D01*
X152418346Y-109608198D01*
X152416873Y-109603946D01*
X152415845Y-109600112D01*
X152413682Y-109592618D01*
X152346781Y-109305057D01*
X152344719Y-109293960D01*
X152344251Y-109290613D01*
X152344249Y-109290605D01*
X152343626Y-109286147D01*
X152338210Y-109267432D01*
X152336522Y-109260960D01*
X152333125Y-109246359D01*
X152333122Y-109246350D01*
X152332103Y-109241969D01*
X152330469Y-109237774D01*
X152330466Y-109237764D01*
X152329238Y-109234611D01*
X152325614Y-109223911D01*
X152246288Y-108949814D01*
X152244092Y-108941063D01*
X152242190Y-108932144D01*
X152242187Y-108932135D01*
X152241250Y-108927739D01*
X152236494Y-108914824D01*
X152233699Y-108906314D01*
X152231121Y-108897405D01*
X152231117Y-108897394D01*
X152229869Y-108893082D01*
X152224258Y-108880667D01*
X152220841Y-108872322D01*
X152128685Y-108622098D01*
X152125353Y-108611676D01*
X152124229Y-108607551D01*
X152124227Y-108607544D01*
X152123047Y-108603214D01*
X152121264Y-108599098D01*
X152121260Y-108599086D01*
X152115646Y-108586124D01*
X152113032Y-108579596D01*
X152108150Y-108566343D01*
X152106596Y-108562123D01*
X152102424Y-108554406D01*
X152097646Y-108544571D01*
X152023659Y-108373756D01*
X152021527Y-108368512D01*
X152020540Y-108365917D01*
X152019244Y-108361609D01*
X152017347Y-108357525D01*
X152007430Y-108336180D01*
X152006079Y-108333171D01*
X151999958Y-108319039D01*
X151994941Y-108307456D01*
X151992583Y-108303622D01*
X151991304Y-108301167D01*
X151988790Y-108296061D01*
X151922290Y-108152931D01*
X151919867Y-108147369D01*
X151919676Y-108146899D01*
X151918280Y-108142622D01*
X151916291Y-108138588D01*
X151916287Y-108138579D01*
X151905460Y-108116624D01*
X151904198Y-108113990D01*
X151901362Y-108107885D01*
X151891993Y-108087722D01*
X151889534Y-108083951D01*
X151889296Y-108083521D01*
X151886491Y-108078162D01*
X151821803Y-107946990D01*
X151820082Y-107943247D01*
X151818945Y-107939956D01*
X151804833Y-107912536D01*
X151803861Y-107910608D01*
X151792159Y-107886880D01*
X151790171Y-107882849D01*
X151788202Y-107879976D01*
X151786193Y-107876320D01*
X151769617Y-107844112D01*
X151721314Y-107750261D01*
X151720537Y-107748628D01*
X151719921Y-107746896D01*
X151704278Y-107717152D01*
X151703829Y-107716290D01*
X151690522Y-107690435D01*
X151688459Y-107686426D01*
X151687390Y-107684923D01*
X151686507Y-107683364D01*
X151498197Y-107325320D01*
X151497751Y-107324464D01*
X151388160Y-107112161D01*
X151387414Y-107110692D01*
X151368743Y-107073330D01*
X151300047Y-106935871D01*
X151269981Y-106875708D01*
X151269088Y-106873885D01*
X151141174Y-106607272D01*
X151140256Y-106605316D01*
X151027695Y-106360006D01*
X150999477Y-106298508D01*
X150998614Y-106296585D01*
X150933536Y-106148212D01*
X150842675Y-105941054D01*
X150841905Y-105939260D01*
X150668855Y-105527166D01*
X150668168Y-105525496D01*
X150476073Y-105049028D01*
X150475479Y-105047527D01*
X150390738Y-104829318D01*
X150262324Y-104498649D01*
X150261830Y-104497355D01*
X150224470Y-104397825D01*
X150025819Y-103868609D01*
X150025461Y-103867639D01*
X149775870Y-103182009D01*
X149775249Y-103180121D01*
X149774817Y-103178156D01*
X149763151Y-103147051D01*
X149762729Y-103145908D01*
X149752880Y-103118853D01*
X149752876Y-103118845D01*
X149751338Y-103114619D01*
X149750388Y-103112847D01*
X149749622Y-103110981D01*
X149743078Y-103093533D01*
X149678287Y-102920785D01*
X149677467Y-102918533D01*
X149654866Y-102854569D01*
X149609056Y-102724925D01*
X149607971Y-102721718D01*
X149579948Y-102635036D01*
X149579088Y-102632265D01*
X149552564Y-102543269D01*
X149551705Y-102540249D01*
X149526566Y-102447518D01*
X149525777Y-102444459D01*
X149501382Y-102344622D01*
X149500715Y-102341745D01*
X149498458Y-102331453D01*
X149476550Y-102231593D01*
X149476003Y-102228966D01*
X149451676Y-102105578D01*
X149451249Y-102103301D01*
X149431560Y-101992767D01*
X149426421Y-101963914D01*
X149426101Y-101962038D01*
X149425848Y-101960476D01*
X149400503Y-101804336D01*
X149400262Y-101802791D01*
X149400159Y-101802098D01*
X149373572Y-101624221D01*
X149373392Y-101622971D01*
X149345507Y-101422700D01*
X149345322Y-101421316D01*
X149285952Y-100957330D01*
X149285173Y-100949117D01*
X149271099Y-100721580D01*
X149260717Y-100553734D01*
X149260647Y-100552490D01*
X149259322Y-100526631D01*
X149243350Y-100215062D01*
X149240415Y-100157812D01*
X149240348Y-100156336D01*
X149225495Y-99780441D01*
X149225441Y-99778792D01*
X149216017Y-99421917D01*
X149215982Y-99420066D01*
X149214542Y-99297009D01*
X149213791Y-99232841D01*
X150948765Y-99232841D01*
X150949147Y-99237318D01*
X150949147Y-99237320D01*
X150950824Y-99256969D01*
X150951142Y-99261781D01*
X150958433Y-99417279D01*
X150958571Y-99423024D01*
X150958592Y-99440374D01*
X150958593Y-99440381D01*
X150958598Y-99444882D01*
X150959390Y-99450341D01*
X150960556Y-99462529D01*
X150960814Y-99468033D01*
X150961663Y-99472454D01*
X150961664Y-99472464D01*
X150964934Y-99489496D01*
X150965890Y-99495171D01*
X150972456Y-99540453D01*
X150989361Y-99657041D01*
X150989537Y-99658258D01*
X150990326Y-99664953D01*
X150992077Y-99684254D01*
X150993116Y-99688628D01*
X150993118Y-99688638D01*
X150993930Y-99692057D01*
X150996037Y-99703091D01*
X150997187Y-99711020D01*
X150998460Y-99715336D01*
X151002666Y-99729598D01*
X151004398Y-99736108D01*
X151024252Y-99819658D01*
X151032813Y-99855688D01*
X151034944Y-99866886D01*
X151035770Y-99872632D01*
X151035770Y-99881647D01*
X151038309Y-99890295D01*
X151038310Y-99890300D01*
X151051236Y-99934322D01*
X151053067Y-99941286D01*
X151057186Y-99959007D01*
X151057641Y-99960177D01*
X151057931Y-99961396D01*
X151059435Y-99965204D01*
X151059438Y-99965215D01*
X151060732Y-99968491D01*
X151064433Y-99979266D01*
X151076925Y-100021809D01*
X151081798Y-100029391D01*
X151082023Y-100029742D01*
X151093439Y-100052151D01*
X151102330Y-100074992D01*
X151104534Y-100081118D01*
X151105774Y-100084864D01*
X151110807Y-100100076D01*
X151114114Y-100106712D01*
X151118762Y-100117209D01*
X151121454Y-100124127D01*
X151123666Y-100128045D01*
X151123669Y-100128051D01*
X151131274Y-100141521D01*
X151134326Y-100147269D01*
X151165771Y-100210368D01*
X151168924Y-100217196D01*
X151175739Y-100233202D01*
X151179910Y-100240077D01*
X151180937Y-100241770D01*
X151185976Y-100250910D01*
X151190443Y-100259874D01*
X151193001Y-100263572D01*
X151200324Y-100274159D01*
X151204420Y-100280477D01*
X151239293Y-100337956D01*
X151243478Y-100345414D01*
X151248213Y-100354567D01*
X151248217Y-100354573D01*
X151250281Y-100358563D01*
X151257587Y-100368791D01*
X151262777Y-100376664D01*
X151269302Y-100387419D01*
X151272155Y-100390888D01*
X151272155Y-100390889D01*
X151278709Y-100398860D01*
X151283911Y-100405643D01*
X151302895Y-100432220D01*
X151321328Y-100458026D01*
X151326560Y-100465969D01*
X151328869Y-100469779D01*
X151332977Y-100476559D01*
X151335834Y-100480038D01*
X151342497Y-100488152D01*
X151347651Y-100494877D01*
X151356370Y-100507083D01*
X151359478Y-100510334D01*
X151359482Y-100510338D01*
X151364924Y-100516028D01*
X151371235Y-100523147D01*
X151410577Y-100571055D01*
X151416832Y-100579347D01*
X151422606Y-100587697D01*
X151425664Y-100590995D01*
X151425675Y-100591008D01*
X151434324Y-100600333D01*
X151439307Y-100606041D01*
X151450257Y-100619375D01*
X151453581Y-100622413D01*
X151453587Y-100622419D01*
X151457741Y-100626215D01*
X151465130Y-100633550D01*
X151505950Y-100677567D01*
X151513186Y-100686100D01*
X151518163Y-100692527D01*
X151521392Y-100695652D01*
X151521394Y-100695655D01*
X151531973Y-100705895D01*
X151536718Y-100710742D01*
X151549826Y-100724876D01*
X151553321Y-100727703D01*
X151553328Y-100727710D01*
X151556154Y-100729996D01*
X151564545Y-100737425D01*
X151606505Y-100778044D01*
X151614651Y-100786711D01*
X151618777Y-100791539D01*
X151634571Y-100805416D01*
X151639020Y-100809519D01*
X151654161Y-100824176D01*
X151657809Y-100826815D01*
X151659300Y-100827894D01*
X151668614Y-100835328D01*
X151711447Y-100872964D01*
X151720436Y-100881691D01*
X151723689Y-100885180D01*
X151727196Y-100888002D01*
X151727199Y-100888005D01*
X151741312Y-100899363D01*
X151745479Y-100902867D01*
X151752377Y-100908927D01*
X151762464Y-100917790D01*
X151766455Y-100920394D01*
X151776584Y-100927745D01*
X151820059Y-100962730D01*
X151826764Y-100968725D01*
X151829023Y-100970667D01*
X151832213Y-100973832D01*
X151835822Y-100976512D01*
X151835826Y-100976515D01*
X151851468Y-100988129D01*
X151855348Y-100991128D01*
X151874044Y-101006173D01*
X151877916Y-101008466D01*
X151880396Y-101010186D01*
X151887841Y-101015135D01*
X151935744Y-101050703D01*
X151944688Y-101058003D01*
X151950080Y-101062832D01*
X151953815Y-101065320D01*
X151953823Y-101065326D01*
X151966849Y-101074002D01*
X151972113Y-101077706D01*
X151984655Y-101087019D01*
X151984662Y-101087024D01*
X151988275Y-101089706D01*
X151992238Y-101091849D01*
X151992237Y-101091849D01*
X151994640Y-101093149D01*
X152004541Y-101099107D01*
X152162619Y-101204400D01*
X152171251Y-101210694D01*
X152178628Y-101216568D01*
X152182521Y-101218847D01*
X152194133Y-101225645D01*
X152200326Y-101229516D01*
X152211516Y-101236970D01*
X152211521Y-101236973D01*
X152215258Y-101239462D01*
X152223757Y-101243513D01*
X152233200Y-101248516D01*
X152396751Y-101344263D01*
X152406715Y-101350746D01*
X152408251Y-101351852D01*
X152408259Y-101351857D01*
X152411912Y-101354487D01*
X152430524Y-101364204D01*
X152435798Y-101367122D01*
X152453939Y-101377743D01*
X152459875Y-101380161D01*
X152470640Y-101385149D01*
X152630736Y-101468738D01*
X152640580Y-101474532D01*
X152641417Y-101475001D01*
X152645177Y-101477480D01*
X152649247Y-101479396D01*
X152649251Y-101479398D01*
X152666211Y-101487381D01*
X152670865Y-101489690D01*
X152691493Y-101500460D01*
X152695738Y-101501954D01*
X152696588Y-101502323D01*
X152707209Y-101506679D01*
X152859717Y-101578465D01*
X152865759Y-101581714D01*
X152865774Y-101581685D01*
X152869777Y-101583746D01*
X152873621Y-101586087D01*
X152882291Y-101589795D01*
X152896586Y-101595909D01*
X152900700Y-101597756D01*
X152923319Y-101608403D01*
X152927632Y-101609724D01*
X152931818Y-101611340D01*
X152931806Y-101611372D01*
X152938245Y-101613727D01*
X153078931Y-101673898D01*
X153084403Y-101676607D01*
X153084453Y-101676503D01*
X153088526Y-101678439D01*
X153092437Y-101680653D01*
X153096625Y-101682288D01*
X153096626Y-101682289D01*
X153116907Y-101690209D01*
X153120571Y-101691707D01*
X153144718Y-101702035D01*
X153149066Y-101703198D01*
X153153326Y-101704670D01*
X153153288Y-101704780D01*
X153159083Y-101706680D01*
X153283578Y-101755299D01*
X153288688Y-101757641D01*
X153288758Y-101757481D01*
X153292878Y-101759293D01*
X153296852Y-101761391D01*
X153301086Y-101762903D01*
X153322304Y-101770481D01*
X153325760Y-101771773D01*
X153346764Y-101779975D01*
X153346772Y-101779977D01*
X153350965Y-101781615D01*
X153355350Y-101782640D01*
X153359640Y-101783971D01*
X153359589Y-101784135D01*
X153364982Y-101785721D01*
X153466188Y-101821863D01*
X153473029Y-101824306D01*
X153484369Y-101829012D01*
X153484635Y-101829116D01*
X153488710Y-101831053D01*
X153510694Y-101837875D01*
X153515717Y-101839551D01*
X153537343Y-101847274D01*
X153541750Y-101848168D01*
X153542033Y-101848247D01*
X153553919Y-101851289D01*
X153695088Y-101895096D01*
X153764098Y-101916512D01*
X153774150Y-101920105D01*
X153782865Y-101923646D01*
X153800339Y-101927978D01*
X153807326Y-101929926D01*
X153824528Y-101935265D01*
X153833810Y-101936745D01*
X153844279Y-101938873D01*
X153885641Y-101949129D01*
X153892004Y-101950886D01*
X153906546Y-101955314D01*
X153906562Y-101955318D01*
X153910859Y-101956626D01*
X153916989Y-101957570D01*
X153919225Y-101957914D01*
X153921119Y-101958336D01*
X153923037Y-101959212D01*
X153928724Y-101960030D01*
X153930346Y-101960391D01*
X153930820Y-101960473D01*
X153930853Y-101960339D01*
X153931977Y-101960618D01*
X153932545Y-101960772D01*
X153932720Y-101960802D01*
X153937083Y-101961884D01*
X153941557Y-101962334D01*
X153949519Y-101963135D01*
X153954847Y-101963786D01*
X153961945Y-101964807D01*
X153975067Y-101967412D01*
X154004428Y-101974881D01*
X154004434Y-101974882D01*
X154013166Y-101977103D01*
X154071429Y-101974977D01*
X154077274Y-101974899D01*
X154135601Y-101975480D01*
X154165311Y-101967077D01*
X154181662Y-101963606D01*
X154193637Y-101961884D01*
X154203299Y-101960495D01*
X154203301Y-101960495D01*
X154212221Y-101959212D01*
X154218998Y-101956117D01*
X154227953Y-101953997D01*
X154236335Y-101952478D01*
X154255981Y-101945922D01*
X154261911Y-101944105D01*
X154303254Y-101932542D01*
X154313364Y-101930159D01*
X154318928Y-101929087D01*
X154318929Y-101929087D01*
X154323352Y-101928235D01*
X154339617Y-101922609D01*
X154346862Y-101920345D01*
X154359109Y-101916919D01*
X154363453Y-101915704D01*
X154372752Y-101911601D01*
X154382414Y-101907806D01*
X154588085Y-101836664D01*
X154599996Y-101833191D01*
X154600291Y-101833120D01*
X154604930Y-101832012D01*
X154625686Y-101823787D01*
X154630850Y-101821872D01*
X154651956Y-101814571D01*
X154656472Y-101812244D01*
X154667764Y-101807112D01*
X154773454Y-101765229D01*
X154779094Y-101763350D01*
X154779050Y-101763225D01*
X154783305Y-101761735D01*
X154787643Y-101760555D01*
X154811989Y-101750023D01*
X154815577Y-101748536D01*
X154840220Y-101738770D01*
X154844125Y-101736533D01*
X154848182Y-101734580D01*
X154848241Y-101734702D01*
X154853534Y-101732049D01*
X154975097Y-101679459D01*
X154981147Y-101677225D01*
X154981120Y-101677155D01*
X154985319Y-101675523D01*
X154989616Y-101674198D01*
X155012790Y-101663231D01*
X155016659Y-101661479D01*
X155017289Y-101661207D01*
X155040204Y-101651293D01*
X155044038Y-101648937D01*
X155048030Y-101646860D01*
X155048065Y-101646927D01*
X155053749Y-101643848D01*
X155191091Y-101578851D01*
X155198285Y-101575897D01*
X155201949Y-101574311D01*
X155206191Y-101572824D01*
X155210174Y-101570751D01*
X155210185Y-101570746D01*
X155227766Y-101561594D01*
X155232047Y-101559468D01*
X155249953Y-101550995D01*
X155249963Y-101550990D01*
X155254021Y-101549069D01*
X155257774Y-101546584D01*
X155261259Y-101544619D01*
X155267942Y-101540683D01*
X155416797Y-101463203D01*
X155428150Y-101457992D01*
X155428475Y-101457862D01*
X155428479Y-101457860D01*
X155432667Y-101456184D01*
X155452159Y-101444932D01*
X155456977Y-101442289D01*
X155472958Y-101433971D01*
X155476943Y-101431897D01*
X155480589Y-101429279D01*
X155480594Y-101429276D01*
X155480899Y-101429057D01*
X155491395Y-101422283D01*
X155647521Y-101332159D01*
X155657774Y-101326851D01*
X155660289Y-101325692D01*
X155660292Y-101325690D01*
X155664370Y-101323811D01*
X155668135Y-101321373D01*
X155668144Y-101321368D01*
X155681272Y-101312866D01*
X155686770Y-101309502D01*
X155700283Y-101301702D01*
X155700285Y-101301701D01*
X155704184Y-101299450D01*
X155709887Y-101294966D01*
X155719268Y-101288262D01*
X155878651Y-101185053D01*
X155887527Y-101179808D01*
X155896658Y-101174906D01*
X155900273Y-101172239D01*
X155900283Y-101172233D01*
X155910362Y-101164797D01*
X155916654Y-101160445D01*
X155930955Y-101151184D01*
X155938767Y-101144368D01*
X155946797Y-101137921D01*
X156100401Y-101024615D01*
X156109742Y-101018349D01*
X156116562Y-101014203D01*
X156131527Y-101001878D01*
X156136831Y-100997742D01*
X156148831Y-100988890D01*
X156152451Y-100986220D01*
X156155655Y-100983060D01*
X156155665Y-100983052D01*
X156158146Y-100980606D01*
X156166505Y-100973070D01*
X156213455Y-100934402D01*
X156222088Y-100928003D01*
X156223302Y-100927064D01*
X156227044Y-100924577D01*
X156244583Y-100908897D01*
X156248408Y-100905615D01*
X156266557Y-100890667D01*
X156269594Y-100887334D01*
X156270739Y-100886245D01*
X156278330Y-100878726D01*
X156284776Y-100872964D01*
X156320810Y-100840750D01*
X156330388Y-100832995D01*
X156331019Y-100832533D01*
X156334650Y-100829877D01*
X156344608Y-100820137D01*
X156350461Y-100814412D01*
X156354586Y-100810554D01*
X156367713Y-100798818D01*
X156371072Y-100795815D01*
X156374448Y-100791794D01*
X156382830Y-100782750D01*
X156424674Y-100741821D01*
X156433415Y-100734033D01*
X156438706Y-100729744D01*
X156452671Y-100714655D01*
X156457037Y-100710167D01*
X156468527Y-100698928D01*
X156468528Y-100698926D01*
X156471743Y-100695782D01*
X156475894Y-100690364D01*
X156483441Y-100681407D01*
X156524281Y-100637278D01*
X156532119Y-100629520D01*
X156535120Y-100626799D01*
X156535128Y-100626791D01*
X156538463Y-100623767D01*
X156550475Y-100609257D01*
X156555052Y-100604028D01*
X156564781Y-100593516D01*
X156567837Y-100590214D01*
X156572699Y-100583167D01*
X156579340Y-100574391D01*
X156618877Y-100526631D01*
X156625736Y-100519001D01*
X156633054Y-100511500D01*
X156643029Y-100497827D01*
X156647759Y-100491743D01*
X156649369Y-100489798D01*
X156658544Y-100478715D01*
X156660888Y-100474881D01*
X156664007Y-100469779D01*
X156669716Y-100461244D01*
X156682152Y-100444196D01*
X156707507Y-100409441D01*
X156713346Y-100402036D01*
X156718580Y-100395887D01*
X156718584Y-100395881D01*
X156721499Y-100392457D01*
X156729413Y-100379902D01*
X156734196Y-100372855D01*
X156742932Y-100360880D01*
X156745034Y-100356914D01*
X156745039Y-100356907D01*
X156748816Y-100349782D01*
X156753543Y-100341619D01*
X156763053Y-100326531D01*
X156789087Y-100285226D01*
X156793890Y-100278152D01*
X156799952Y-100269844D01*
X156799952Y-100269843D01*
X156802605Y-100266208D01*
X156804709Y-100262240D01*
X156804716Y-100262229D01*
X156808512Y-100255070D01*
X156813232Y-100246921D01*
X156817545Y-100240077D01*
X156819948Y-100236265D01*
X156825973Y-100222759D01*
X156829725Y-100215062D01*
X156862291Y-100153647D01*
X156866079Y-100146999D01*
X156872631Y-100136272D01*
X156872633Y-100136268D01*
X156874976Y-100132432D01*
X156876749Y-100128301D01*
X156876755Y-100128290D01*
X156879050Y-100122944D01*
X156883512Y-100113624D01*
X156888336Y-100104527D01*
X156889859Y-100100286D01*
X156889862Y-100100279D01*
X156894105Y-100088465D01*
X156896907Y-100081348D01*
X156925613Y-100014481D01*
X156928445Y-100008344D01*
X156935009Y-99995068D01*
X156935011Y-99995063D01*
X156937005Y-99991030D01*
X156939518Y-99983353D01*
X156943477Y-99972868D01*
X156944888Y-99969581D01*
X156946661Y-99965451D01*
X156948394Y-99959007D01*
X156951680Y-99946790D01*
X156953608Y-99940316D01*
X156955570Y-99934322D01*
X156959964Y-99920900D01*
X156962625Y-99914089D01*
X156966056Y-99908751D01*
X156973858Y-99882182D01*
X156980139Y-99865339D01*
X156987904Y-99848336D01*
X156991646Y-99840142D01*
X156995588Y-99812721D01*
X156999410Y-99795155D01*
X157003731Y-99780441D01*
X157007211Y-99768589D01*
X157007211Y-99754146D01*
X157009346Y-99731051D01*
X157031503Y-99612216D01*
X157032864Y-99605838D01*
X157036467Y-99590862D01*
X157036468Y-99590855D01*
X157037522Y-99586475D01*
X157038217Y-99579045D01*
X157039803Y-99567702D01*
X157041172Y-99560357D01*
X157041999Y-99540450D01*
X157042438Y-99533943D01*
X157044978Y-99506808D01*
X157056561Y-99383032D01*
X157057215Y-99377408D01*
X157059641Y-99359970D01*
X157060260Y-99355523D01*
X157060236Y-99350229D01*
X157060783Y-99337919D01*
X157060856Y-99337144D01*
X157060856Y-99337137D01*
X157061275Y-99332661D01*
X157060183Y-99310599D01*
X157060030Y-99304950D01*
X157060006Y-99299565D01*
X157059374Y-99161096D01*
X157059447Y-99156210D01*
X157060116Y-99136703D01*
X157060116Y-99136700D01*
X157060270Y-99132204D01*
X157059782Y-99127727D01*
X157059666Y-99124605D01*
X157059408Y-99120050D01*
X157059173Y-99116967D01*
X157059153Y-99112469D01*
X157058493Y-99108021D01*
X157058492Y-99108011D01*
X157055621Y-99088670D01*
X157055004Y-99083881D01*
X157040130Y-98947392D01*
X157039744Y-98943182D01*
X157038168Y-98922119D01*
X157037832Y-98917624D01*
X157036858Y-98913217D01*
X157036259Y-98909146D01*
X157035520Y-98905084D01*
X157035032Y-98900602D01*
X157028664Y-98875800D01*
X157027681Y-98871683D01*
X156999289Y-98743196D01*
X156998516Y-98739426D01*
X156994401Y-98717672D01*
X156993566Y-98713255D01*
X156992108Y-98708995D01*
X156991274Y-98705838D01*
X156990339Y-98702691D01*
X156989364Y-98698280D01*
X156979963Y-98673324D01*
X156978662Y-98669705D01*
X156963769Y-98626187D01*
X156937738Y-98550124D01*
X156936612Y-98546671D01*
X156929910Y-98525055D01*
X156929908Y-98525050D01*
X156928576Y-98520754D01*
X156926645Y-98516688D01*
X156925589Y-98513983D01*
X156924451Y-98511301D01*
X156922993Y-98507040D01*
X156910630Y-98482855D01*
X156909031Y-98479610D01*
X156904617Y-98470318D01*
X156856859Y-98369778D01*
X156855342Y-98366459D01*
X156844476Y-98341728D01*
X156842100Y-98337911D01*
X156840689Y-98335235D01*
X156839196Y-98332597D01*
X156837265Y-98328531D01*
X156822330Y-98306044D01*
X156820324Y-98302923D01*
X156758548Y-98203673D01*
X156756493Y-98200252D01*
X156745562Y-98181383D01*
X156745561Y-98181382D01*
X156743305Y-98177487D01*
X156740516Y-98173951D01*
X156738520Y-98171011D01*
X156736407Y-98168102D01*
X156734025Y-98164275D01*
X156717102Y-98144165D01*
X156714594Y-98141086D01*
X156644931Y-98052766D01*
X156642242Y-98049231D01*
X156630016Y-98032554D01*
X156627358Y-98028928D01*
X156624213Y-98025719D01*
X156621312Y-98022303D01*
X156621311Y-98022304D01*
X156618291Y-98018991D01*
X156615498Y-98015450D01*
X156597255Y-97998105D01*
X156594093Y-97994990D01*
X156518321Y-97917687D01*
X156514919Y-97914076D01*
X156498954Y-97896443D01*
X156495482Y-97893565D01*
X156493782Y-97891937D01*
X156489001Y-97887537D01*
X156487252Y-97885991D01*
X156484103Y-97882778D01*
X156465211Y-97868338D01*
X156461308Y-97865231D01*
X156381008Y-97798656D01*
X156376825Y-97795028D01*
X156360299Y-97780041D01*
X156356565Y-97777520D01*
X156356561Y-97777517D01*
X156356043Y-97777167D01*
X156346142Y-97769749D01*
X156345671Y-97769359D01*
X156342207Y-97766487D01*
X156338378Y-97764143D01*
X156338372Y-97764138D01*
X156323225Y-97754863D01*
X156318526Y-97751840D01*
X156235028Y-97695472D01*
X156229987Y-97691886D01*
X156224102Y-97687478D01*
X156213372Y-97679440D01*
X156209416Y-97677278D01*
X156207565Y-97676266D01*
X156197508Y-97670142D01*
X156195750Y-97668956D01*
X156192016Y-97666435D01*
X156173311Y-97657376D01*
X156167823Y-97654549D01*
X156082205Y-97607764D01*
X156076407Y-97604392D01*
X156059877Y-97594178D01*
X156052560Y-97590992D01*
X156042459Y-97586045D01*
X156035468Y-97582225D01*
X156017271Y-97575431D01*
X156011065Y-97572923D01*
X155924085Y-97535049D01*
X155917587Y-97531997D01*
X155910424Y-97528380D01*
X155901285Y-97523764D01*
X155897030Y-97522331D01*
X155897014Y-97522324D01*
X155892634Y-97520849D01*
X155882565Y-97516970D01*
X155878327Y-97515125D01*
X155874200Y-97513328D01*
X155869862Y-97512137D01*
X155869858Y-97512136D01*
X155856584Y-97508493D01*
X155849720Y-97506397D01*
X155762023Y-97476860D01*
X155754959Y-97474243D01*
X155745878Y-97470567D01*
X155738853Y-97467723D01*
X155734493Y-97466647D01*
X155734486Y-97466645D01*
X155729474Y-97465409D01*
X155729134Y-97465325D01*
X155719119Y-97462409D01*
X155709620Y-97459210D01*
X155705191Y-97458395D01*
X155705189Y-97458394D01*
X155692534Y-97456064D01*
X155685172Y-97454480D01*
X155597153Y-97432767D01*
X155589678Y-97430676D01*
X155587503Y-97429995D01*
X155573663Y-97425661D01*
X155563213Y-97423967D01*
X155553204Y-97421925D01*
X155547294Y-97420467D01*
X155547289Y-97420466D01*
X155542923Y-97419389D01*
X155538455Y-97418945D01*
X155538437Y-97418942D01*
X155526197Y-97417726D01*
X155518498Y-97416721D01*
X155430533Y-97402464D01*
X155422828Y-97400967D01*
X155411076Y-97398302D01*
X155411073Y-97398302D01*
X155406679Y-97397305D01*
X155395864Y-97396435D01*
X155385831Y-97395220D01*
X155384498Y-97395004D01*
X155375142Y-97393488D01*
X155370645Y-97393408D01*
X155370638Y-97393407D01*
X155358599Y-97393192D01*
X155350753Y-97392807D01*
X155263036Y-97385753D01*
X155255269Y-97384885D01*
X155243237Y-97383161D01*
X155243231Y-97383161D01*
X155238780Y-97382523D01*
X155234278Y-97382525D01*
X155234274Y-97382525D01*
X155228059Y-97382528D01*
X155217906Y-97382123D01*
X155211700Y-97381624D01*
X155211689Y-97381624D01*
X155207213Y-97381264D01*
X155195095Y-97382023D01*
X155190576Y-97382306D01*
X155182765Y-97382552D01*
X155095513Y-97382597D01*
X155087900Y-97382371D01*
X155087530Y-97382349D01*
X155070770Y-97381343D01*
X155060575Y-97382190D01*
X155050227Y-97382621D01*
X155040002Y-97382626D01*
X155035549Y-97383268D01*
X155035542Y-97383269D01*
X155023014Y-97385077D01*
X155015457Y-97385936D01*
X154928743Y-97393136D01*
X154921517Y-97393526D01*
X154903457Y-97393982D01*
X154894265Y-97395541D01*
X154883629Y-97396882D01*
X154874333Y-97397654D01*
X154856719Y-97401697D01*
X154849622Y-97403112D01*
X154763600Y-97417702D01*
X154756927Y-97418651D01*
X154737679Y-97420865D01*
X154729922Y-97422906D01*
X154718954Y-97425274D01*
X154711054Y-97426614D01*
X154706773Y-97427989D01*
X154692610Y-97432538D01*
X154686145Y-97434425D01*
X154600899Y-97456858D01*
X154595057Y-97458247D01*
X154574355Y-97462647D01*
X154570136Y-97464198D01*
X154570121Y-97464202D01*
X154568499Y-97464798D01*
X154557108Y-97468382D01*
X154555426Y-97468825D01*
X154551071Y-97469971D01*
X154546925Y-97471724D01*
X154546926Y-97471724D01*
X154531601Y-97478205D01*
X154525987Y-97480422D01*
X154441721Y-97511391D01*
X154436837Y-97513073D01*
X154414643Y-97520210D01*
X154410595Y-97522185D01*
X154409534Y-97522612D01*
X154400659Y-97526397D01*
X154399635Y-97526859D01*
X154395408Y-97528412D01*
X154374863Y-97539503D01*
X154370309Y-97541842D01*
X154287407Y-97582291D01*
X154283672Y-97584037D01*
X154264152Y-97592775D01*
X154264147Y-97592778D01*
X154260045Y-97594614D01*
X154256245Y-97597016D01*
X154252803Y-97598862D01*
X154249401Y-97600834D01*
X154245358Y-97602807D01*
X154230908Y-97612623D01*
X154223951Y-97617349D01*
X154220488Y-97619619D01*
X154139751Y-97670656D01*
X154137189Y-97672233D01*
X154112571Y-97686974D01*
X154111731Y-97687657D01*
X154045279Y-97710073D01*
X153976417Y-97692793D01*
X153968136Y-97687478D01*
X153966068Y-97686034D01*
X153962579Y-97683207D01*
X153958728Y-97680908D01*
X153956607Y-97679427D01*
X153954420Y-97677989D01*
X153950851Y-97675258D01*
X153946931Y-97673064D01*
X153946924Y-97673059D01*
X153926813Y-97661801D01*
X153923780Y-97660047D01*
X153838792Y-97609316D01*
X153834826Y-97606848D01*
X153828594Y-97602807D01*
X153814209Y-97593480D01*
X153810124Y-97591595D01*
X153806174Y-97589417D01*
X153806177Y-97589411D01*
X153805386Y-97588993D01*
X153805382Y-97589001D01*
X153801373Y-97586981D01*
X153797499Y-97584668D01*
X153774793Y-97575192D01*
X153770580Y-97573342D01*
X153683279Y-97533046D01*
X153678192Y-97530557D01*
X153658630Y-97520433D01*
X153653573Y-97518673D01*
X153642163Y-97514068D01*
X153641393Y-97513712D01*
X153641387Y-97513710D01*
X153637301Y-97511824D01*
X153616190Y-97505533D01*
X153610810Y-97503797D01*
X153521907Y-97472867D01*
X153515808Y-97470567D01*
X153501515Y-97464749D01*
X153501513Y-97464748D01*
X153497348Y-97463053D01*
X153490117Y-97461255D01*
X153479115Y-97457980D01*
X153476336Y-97457013D01*
X153476335Y-97457013D01*
X153472088Y-97455535D01*
X153452491Y-97451726D01*
X153446162Y-97450324D01*
X153355964Y-97427892D01*
X153349076Y-97425970D01*
X153335869Y-97421876D01*
X153335866Y-97421875D01*
X153331571Y-97420544D01*
X153322607Y-97419118D01*
X153312004Y-97416960D01*
X153303206Y-97414772D01*
X153285002Y-97412928D01*
X153277917Y-97412007D01*
X153186542Y-97397468D01*
X153179071Y-97396046D01*
X153166689Y-97393301D01*
X153162296Y-97392327D01*
X153157817Y-97391989D01*
X153157813Y-97391988D01*
X153152118Y-97391558D01*
X153141817Y-97390351D01*
X153136183Y-97389455D01*
X153136182Y-97389455D01*
X153131739Y-97388748D01*
X153114565Y-97388491D01*
X153106958Y-97388147D01*
X153014609Y-97381170D01*
X153006768Y-97380330D01*
X152994904Y-97378682D01*
X152994897Y-97378682D01*
X152990451Y-97378064D01*
X152985967Y-97378085D01*
X152985961Y-97378085D01*
X152980179Y-97378113D01*
X152979548Y-97378116D01*
X152969459Y-97377759D01*
X152963077Y-97377277D01*
X152958588Y-97376938D01*
X152942138Y-97378048D01*
X152934266Y-97378333D01*
X152841067Y-97378780D01*
X152833083Y-97378564D01*
X152826597Y-97378183D01*
X152821405Y-97377878D01*
X152821403Y-97377878D01*
X152816908Y-97377614D01*
X152805783Y-97378553D01*
X152795803Y-97378997D01*
X152784624Y-97379050D01*
X152780172Y-97379712D01*
X152780171Y-97379712D01*
X152768578Y-97381435D01*
X152760639Y-97382359D01*
X152720394Y-97385753D01*
X152666822Y-97390271D01*
X152658908Y-97390687D01*
X152647770Y-97390922D01*
X152647069Y-97390937D01*
X152642563Y-97391032D01*
X152631827Y-97392807D01*
X152631670Y-97392833D01*
X152621707Y-97394075D01*
X152615172Y-97394626D01*
X152615168Y-97394627D01*
X152610694Y-97395004D01*
X152606318Y-97396014D01*
X152606308Y-97396016D01*
X152594765Y-97398681D01*
X152586975Y-97400223D01*
X152492770Y-97415800D01*
X152485100Y-97416827D01*
X152472815Y-97418090D01*
X152472806Y-97418092D01*
X152468336Y-97418551D01*
X152463981Y-97419641D01*
X152463980Y-97419641D01*
X152458106Y-97421111D01*
X152448083Y-97423190D01*
X152437686Y-97424909D01*
X152433403Y-97426265D01*
X152433396Y-97426267D01*
X152421624Y-97429995D01*
X152414172Y-97432105D01*
X152404901Y-97434425D01*
X152319885Y-97455698D01*
X152312661Y-97457282D01*
X152299685Y-97459729D01*
X152299678Y-97459731D01*
X152295261Y-97460564D01*
X152291005Y-97462018D01*
X152290998Y-97462020D01*
X152286100Y-97463694D01*
X152275955Y-97466692D01*
X152266549Y-97469045D01*
X152250160Y-97475744D01*
X152243266Y-97478328D01*
X152149264Y-97510444D01*
X152142656Y-97512500D01*
X152124473Y-97517613D01*
X152117168Y-97520849D01*
X152116698Y-97521057D01*
X152106413Y-97525084D01*
X152098356Y-97527836D01*
X152081537Y-97536422D01*
X152075292Y-97539396D01*
X152072307Y-97540718D01*
X151982169Y-97580641D01*
X151976293Y-97583068D01*
X151957319Y-97590350D01*
X151951160Y-97593789D01*
X151940770Y-97598977D01*
X151934314Y-97601837D01*
X151930495Y-97604230D01*
X151930489Y-97604233D01*
X151917099Y-97612623D01*
X151911636Y-97615858D01*
X151889393Y-97628278D01*
X151820097Y-97666971D01*
X151815061Y-97669635D01*
X151799418Y-97677464D01*
X151799412Y-97677468D01*
X151795385Y-97679483D01*
X151790970Y-97682548D01*
X151780537Y-97689061D01*
X151775844Y-97691681D01*
X151762809Y-97701633D01*
X151758359Y-97705030D01*
X151753754Y-97708383D01*
X151664798Y-97770137D01*
X151660641Y-97772903D01*
X151640583Y-97785680D01*
X151637179Y-97788606D01*
X151635283Y-97790013D01*
X151630125Y-97794004D01*
X151628309Y-97795467D01*
X151624619Y-97798029D01*
X151621333Y-97801088D01*
X151621328Y-97801092D01*
X151607221Y-97814225D01*
X151603509Y-97817546D01*
X151518355Y-97890738D01*
X151515107Y-97893434D01*
X151495171Y-97909420D01*
X151492100Y-97912702D01*
X151489029Y-97915548D01*
X151486037Y-97918516D01*
X151482624Y-97921449D01*
X151479667Y-97924834D01*
X151479655Y-97924846D01*
X151465817Y-97940688D01*
X151462934Y-97943877D01*
X151383354Y-98028937D01*
X151380795Y-98031594D01*
X151361722Y-98050820D01*
X151359044Y-98054428D01*
X151357132Y-98056652D01*
X151355244Y-98058984D01*
X151352166Y-98062273D01*
X151349587Y-98065968D01*
X151349583Y-98065973D01*
X151336688Y-98084449D01*
X151334547Y-98087424D01*
X151305697Y-98126285D01*
X151262309Y-98184729D01*
X151260347Y-98187302D01*
X151242978Y-98209484D01*
X151240740Y-98213379D01*
X151239610Y-98215056D01*
X151238487Y-98216818D01*
X151235803Y-98220434D01*
X151233661Y-98224395D01*
X151233658Y-98224399D01*
X151222381Y-98245248D01*
X151220804Y-98248076D01*
X151158092Y-98357221D01*
X151156559Y-98359817D01*
X151150505Y-98369794D01*
X151141633Y-98384414D01*
X151139872Y-98388549D01*
X151139403Y-98389463D01*
X151139123Y-98389978D01*
X151138883Y-98390507D01*
X151138436Y-98391433D01*
X151136195Y-98395332D01*
X151132200Y-98405371D01*
X151125563Y-98422051D01*
X151124424Y-98424818D01*
X151074443Y-98542163D01*
X151073128Y-98545250D01*
X151071914Y-98548006D01*
X151060051Y-98574076D01*
X151058789Y-98578397D01*
X151058308Y-98579690D01*
X151058179Y-98580015D01*
X151058078Y-98580331D01*
X151057628Y-98581641D01*
X151055866Y-98585777D01*
X151054711Y-98590123D01*
X151048516Y-98613424D01*
X151047690Y-98616384D01*
X151011297Y-98740952D01*
X151009544Y-98746951D01*
X151008542Y-98750214D01*
X151000040Y-98776631D01*
X150999284Y-98781073D01*
X150998708Y-98783428D01*
X150998203Y-98785765D01*
X150996939Y-98790091D01*
X150994100Y-98810026D01*
X150993028Y-98817553D01*
X150992501Y-98820928D01*
X150968735Y-98960570D01*
X150967998Y-98964518D01*
X150963877Y-98984804D01*
X150962773Y-98990237D01*
X150962514Y-98994722D01*
X150962049Y-98998305D01*
X150961694Y-99001943D01*
X150960939Y-99006382D01*
X150960797Y-99011908D01*
X150960263Y-99032603D01*
X150960097Y-99036584D01*
X150955115Y-99122856D01*
X150951559Y-99184446D01*
X150951190Y-99189250D01*
X150948871Y-99213352D01*
X150949082Y-99217841D01*
X150948992Y-99221482D01*
X150948975Y-99224712D01*
X150949025Y-99228347D01*
X150948765Y-99232841D01*
X149213791Y-99232841D01*
X149212035Y-99082800D01*
X149212028Y-99080728D01*
X149212060Y-99074325D01*
X149213587Y-98763529D01*
X149213621Y-98761154D01*
X149213960Y-98746951D01*
X149217675Y-98591043D01*
X149220689Y-98464550D01*
X149220783Y-98461820D01*
X149232616Y-98201979D01*
X149232702Y-98200083D01*
X149233390Y-98191486D01*
X149235734Y-98171011D01*
X149492796Y-95925757D01*
X149496309Y-95907341D01*
X149509265Y-95859217D01*
X149615540Y-95464446D01*
X149650103Y-95336058D01*
X149651684Y-95330722D01*
X149653269Y-95326807D01*
X149660361Y-95298060D01*
X149661023Y-95295493D01*
X149667569Y-95271176D01*
X149668741Y-95266823D01*
X149669249Y-95262617D01*
X149670447Y-95257179D01*
X149813134Y-94678814D01*
X149814699Y-94673058D01*
X149815012Y-94672005D01*
X149816601Y-94667792D01*
X149822808Y-94639752D01*
X149823498Y-94636802D01*
X149829297Y-94613296D01*
X149830376Y-94608924D01*
X149830821Y-94604441D01*
X149831003Y-94603387D01*
X149832155Y-94597528D01*
X150101305Y-93381660D01*
X150102487Y-93376914D01*
X150103786Y-93373258D01*
X150109750Y-93343621D01*
X150110249Y-93341254D01*
X150115811Y-93316129D01*
X150116782Y-93311744D01*
X150117073Y-93307873D01*
X150117913Y-93303056D01*
X150350865Y-92145392D01*
X150622066Y-90797645D01*
X150622449Y-90795815D01*
X150632038Y-90751628D01*
X150879876Y-89609496D01*
X150894104Y-89543927D01*
X150895046Y-89539904D01*
X151208841Y-88292697D01*
X151209975Y-88288497D01*
X151293553Y-87998945D01*
X151387934Y-87671970D01*
X151388952Y-87668621D01*
X151436608Y-87519296D01*
X151495465Y-87334871D01*
X151586589Y-87049340D01*
X151587841Y-87045617D01*
X151713941Y-86689251D01*
X151807152Y-86425829D01*
X151808648Y-86421822D01*
X151813175Y-86410295D01*
X152041071Y-85829916D01*
X152048319Y-85814582D01*
X152243727Y-85464321D01*
X152245687Y-85460931D01*
X152455236Y-85111319D01*
X152457463Y-85107741D01*
X152552740Y-84960205D01*
X152665560Y-84785504D01*
X152668042Y-84781807D01*
X152775948Y-84627054D01*
X152875572Y-84484177D01*
X152878303Y-84480410D01*
X153086275Y-84204500D01*
X153089219Y-84200745D01*
X153120291Y-84162617D01*
X153298720Y-83943665D01*
X153301802Y-83940025D01*
X153330644Y-83907250D01*
X153514144Y-83698729D01*
X153517246Y-83695333D01*
X153733718Y-83466952D01*
X153736811Y-83463802D01*
X153958736Y-83245543D01*
X153961681Y-83242738D01*
X154190534Y-83031754D01*
X154193224Y-83029345D01*
X154211601Y-83013353D01*
X154383398Y-82863847D01*
X154430270Y-82823057D01*
X154432616Y-82821065D01*
X154677322Y-82618399D01*
X154680007Y-82616236D01*
X155049186Y-82327136D01*
X155208979Y-82202004D01*
X155211017Y-82200442D01*
X155273950Y-82153202D01*
X155772008Y-81779339D01*
X155778224Y-81774960D01*
X155779391Y-81774190D01*
X155823200Y-81745267D01*
X155829015Y-81738387D01*
X155829018Y-81738384D01*
X155853481Y-81709439D01*
X155860502Y-81701794D01*
X155893621Y-81668589D01*
X155897927Y-81660678D01*
X155897931Y-81660673D01*
X155919388Y-81621254D01*
X155923225Y-81614685D01*
X156222511Y-81136131D01*
X156223912Y-81133942D01*
X156537362Y-80655460D01*
X156538985Y-80653045D01*
X156860141Y-80186779D01*
X156861992Y-80184163D01*
X157191538Y-79730847D01*
X157193631Y-79728051D01*
X157532095Y-79288612D01*
X157534451Y-79285647D01*
X157882465Y-78860852D01*
X157885104Y-78857734D01*
X158180350Y-78520283D01*
X158214589Y-78481150D01*
X158274499Y-78443053D01*
X158345494Y-78443393D01*
X158405036Y-78482063D01*
X158433028Y-78539696D01*
X158440043Y-78575202D01*
X158441685Y-78585923D01*
X158442666Y-78594888D01*
X158443787Y-78599245D01*
X158447239Y-78612665D01*
X158448815Y-78619601D01*
X158452378Y-78637636D01*
X158453869Y-78641879D01*
X158455371Y-78646155D01*
X158458521Y-78656529D01*
X158469139Y-78697809D01*
X158471470Y-78708925D01*
X158472710Y-78716537D01*
X158478616Y-78735343D01*
X158480414Y-78741643D01*
X158485322Y-78760723D01*
X158487055Y-78764885D01*
X158488481Y-78769143D01*
X158488404Y-78769169D01*
X158491216Y-78777269D01*
X158491720Y-78779066D01*
X158492624Y-78783473D01*
X158494145Y-78787705D01*
X158500545Y-78805512D01*
X158502178Y-78810366D01*
X158509201Y-78832725D01*
X158511149Y-78836787D01*
X158513590Y-78843533D01*
X158514794Y-78847181D01*
X158515895Y-78851540D01*
X158517606Y-78855699D01*
X158517606Y-78855700D01*
X158524269Y-78871901D01*
X158526313Y-78877210D01*
X158532228Y-78893668D01*
X158532232Y-78893678D01*
X158533757Y-78897920D01*
X158535871Y-78901905D01*
X158537449Y-78905471D01*
X158539916Y-78912087D01*
X158540058Y-78912032D01*
X158541678Y-78916226D01*
X158542998Y-78920535D01*
X158544917Y-78924611D01*
X158544918Y-78924613D01*
X158551744Y-78939110D01*
X158554276Y-78944855D01*
X158560371Y-78959674D01*
X158560374Y-78959680D01*
X158562087Y-78963845D01*
X158564377Y-78967728D01*
X158566377Y-78971747D01*
X158566136Y-78971867D01*
X158570864Y-78981848D01*
X158571005Y-78981784D01*
X158572854Y-78985890D01*
X158574404Y-78990112D01*
X158576539Y-78994071D01*
X158583446Y-79006879D01*
X158586541Y-79013011D01*
X158594659Y-79030254D01*
X158597132Y-79034005D01*
X158597612Y-79034733D01*
X158607922Y-79053747D01*
X158608789Y-79055737D01*
X158608794Y-79055746D01*
X158610591Y-79059871D01*
X158612957Y-79063698D01*
X158619840Y-79074832D01*
X158623521Y-79081195D01*
X158623893Y-79081884D01*
X158629192Y-79093760D01*
X158630687Y-79096583D01*
X158633726Y-79105062D01*
X158639033Y-79112344D01*
X158639034Y-79112346D01*
X158662531Y-79144588D01*
X158667882Y-79152549D01*
X158674289Y-79162915D01*
X158677171Y-79166361D01*
X158684027Y-79174559D01*
X158689199Y-79181180D01*
X158719761Y-79223117D01*
X158726905Y-79228609D01*
X158732596Y-79234448D01*
X158738672Y-79239903D01*
X158744453Y-79246815D01*
X158779151Y-79269983D01*
X158787602Y-79275626D01*
X158794431Y-79280523D01*
X158802898Y-79287033D01*
X158802902Y-79287036D01*
X158806469Y-79289778D01*
X158810391Y-79291985D01*
X158810398Y-79291990D01*
X158815965Y-79295123D01*
X158829836Y-79304179D01*
X158847632Y-79317546D01*
X158847634Y-79317547D01*
X158854834Y-79322955D01*
X158863154Y-79326074D01*
X158865939Y-79327933D01*
X158875748Y-79331001D01*
X158882348Y-79333269D01*
X158919942Y-79347360D01*
X158921245Y-79347856D01*
X158942128Y-79355952D01*
X158978407Y-79370016D01*
X158978408Y-79370016D01*
X158986007Y-79372962D01*
X158988899Y-79373206D01*
X158991620Y-79374226D01*
X158999752Y-79374821D01*
X158999753Y-79374821D01*
X159060956Y-79379298D01*
X159062362Y-79379409D01*
X159106799Y-79383160D01*
X159131568Y-79385251D01*
X159134413Y-79384670D01*
X159137310Y-79384882D01*
X159198801Y-79371609D01*
X159202615Y-79370848D01*
X159206587Y-79370118D01*
X159215589Y-79369768D01*
X159224126Y-79366896D01*
X159226703Y-79366423D01*
X159235822Y-79363968D01*
X159265870Y-79357834D01*
X159265872Y-79357833D01*
X159274695Y-79356032D01*
X159297458Y-79343978D01*
X159316246Y-79335908D01*
X159345503Y-79326066D01*
X159354044Y-79323193D01*
X159384801Y-79301691D01*
X159396785Y-79294276D01*
X159421828Y-79280654D01*
X159421830Y-79280652D01*
X159429749Y-79276345D01*
X159474576Y-79231662D01*
X159477309Y-79229021D01*
X159531889Y-79177879D01*
X159557729Y-79153850D01*
X159558339Y-79153094D01*
X159559052Y-79152426D01*
X159581261Y-79124685D01*
X159606213Y-79093760D01*
X159646685Y-79043600D01*
X159655022Y-79034259D01*
X159655227Y-79034051D01*
X159655235Y-79034042D01*
X159658392Y-79030840D01*
X159671808Y-79012651D01*
X159675132Y-79008345D01*
X159686486Y-78994273D01*
X159686491Y-78994265D01*
X159689314Y-78990767D01*
X159691607Y-78986907D01*
X159691615Y-78986896D01*
X159691757Y-78986656D01*
X159698682Y-78976218D01*
X159765256Y-78885964D01*
X159766166Y-78884810D01*
X159767246Y-78883698D01*
X159787179Y-78856249D01*
X159787683Y-78855561D01*
X159805520Y-78831379D01*
X159805532Y-78831361D01*
X159807928Y-78828113D01*
X159808660Y-78826750D01*
X159809493Y-78825521D01*
X160045700Y-78500247D01*
X160047432Y-78497920D01*
X160185045Y-78317482D01*
X160187734Y-78314080D01*
X160326734Y-78144314D01*
X160331074Y-78139290D01*
X160436312Y-78023753D01*
X160496971Y-77986861D01*
X160567945Y-77988621D01*
G37*
%TD.AperFunction*%
%TD*%
%TA.AperFunction,Conductor*%
%TO.N,Net-(Q2-B)*%
G36*
X168399749Y-101643094D02*
G01*
X168540185Y-101657664D01*
X168560115Y-101661372D01*
X168611550Y-101675301D01*
X168696404Y-101698282D01*
X168715487Y-101705141D01*
X168844085Y-101763434D01*
X168861820Y-101773265D01*
X168979404Y-101851433D01*
X168995331Y-101863979D01*
X169098806Y-101959953D01*
X169098853Y-101959997D01*
X169112559Y-101974934D01*
X169198658Y-102085442D01*
X169199337Y-102086313D01*
X169210473Y-102103260D01*
X169279804Y-102229936D01*
X169287647Y-102247254D01*
X169312717Y-102315988D01*
X169315463Y-102324430D01*
X169339543Y-102408399D01*
X169341460Y-102415084D01*
X169343603Y-102423692D01*
X169358768Y-102495276D01*
X169361294Y-102514122D01*
X169362169Y-102529267D01*
X169369626Y-102658298D01*
X169369163Y-102678570D01*
X169354743Y-102817569D01*
X169354599Y-102818960D01*
X169350883Y-102838945D01*
X169350741Y-102839471D01*
X169350734Y-102839495D01*
X169350734Y-102839496D01*
X169348231Y-102848737D01*
X169314710Y-102972512D01*
X169313976Y-102975221D01*
X169307116Y-102994305D01*
X169292123Y-103027379D01*
X169292111Y-103027406D01*
X169292101Y-103027429D01*
X169292099Y-103027434D01*
X169253570Y-103112434D01*
X169252124Y-103115623D01*
X169248824Y-103122903D01*
X169238993Y-103140637D01*
X169165346Y-103251421D01*
X169165345Y-103251423D01*
X169160825Y-103258222D01*
X169148280Y-103274147D01*
X169066862Y-103361929D01*
X169064981Y-103364411D01*
X169064978Y-103364415D01*
X169007868Y-103439787D01*
X169005980Y-103442279D01*
X169004350Y-103444943D01*
X169004340Y-103444958D01*
X168993435Y-103462783D01*
X168940823Y-103510454D01*
X168920684Y-103518147D01*
X167373749Y-103961725D01*
X167373739Y-103961728D01*
X167371616Y-103962337D01*
X167236822Y-104011500D01*
X167023171Y-104128433D01*
X166831044Y-104278124D01*
X166827597Y-104281841D01*
X166827592Y-104281845D01*
X166668869Y-104452973D01*
X166665417Y-104456695D01*
X166662607Y-104460922D01*
X166536592Y-104650481D01*
X166530580Y-104659524D01*
X166430025Y-104881355D01*
X166366356Y-105116443D01*
X166365832Y-105121498D01*
X166365831Y-105121501D01*
X166353689Y-105238541D01*
X166341223Y-105358699D01*
X166355276Y-105601851D01*
X166385012Y-105742215D01*
X166385615Y-105744317D01*
X166385618Y-105744330D01*
X166402224Y-105802238D01*
X166423335Y-105875858D01*
X166424087Y-105877920D01*
X166424090Y-105877929D01*
X166436884Y-105913007D01*
X166472498Y-106010653D01*
X166474782Y-106014826D01*
X166570320Y-106189385D01*
X166589431Y-106224304D01*
X166592551Y-106228309D01*
X166592556Y-106228316D01*
X166736001Y-106412425D01*
X166736005Y-106412429D01*
X166739122Y-106416430D01*
X166742839Y-106419877D01*
X166742843Y-106419882D01*
X166826618Y-106497584D01*
X166917693Y-106582057D01*
X167120522Y-106716895D01*
X167342353Y-106817450D01*
X167347254Y-106818777D01*
X167347256Y-106818778D01*
X167572547Y-106879793D01*
X167572552Y-106879794D01*
X167577441Y-106881118D01*
X167582483Y-106881641D01*
X167582488Y-106881642D01*
X167814645Y-106905728D01*
X167814647Y-106905728D01*
X167819697Y-106906252D01*
X167863371Y-106903728D01*
X168058094Y-106892474D01*
X168058096Y-106892474D01*
X168062849Y-106892199D01*
X168203213Y-106862463D01*
X170259380Y-106272865D01*
X170261474Y-106272101D01*
X170261481Y-106272099D01*
X170375255Y-106230603D01*
X170383699Y-106227856D01*
X170475739Y-106201464D01*
X170484355Y-106199319D01*
X170555908Y-106184160D01*
X170574752Y-106181634D01*
X170718924Y-106173302D01*
X170739197Y-106173765D01*
X170771982Y-106177166D01*
X170879634Y-106188335D01*
X170899566Y-106192043D01*
X171035853Y-106228953D01*
X171054936Y-106235812D01*
X171183534Y-106294105D01*
X171201269Y-106303936D01*
X171318853Y-106382104D01*
X171334780Y-106394650D01*
X171361984Y-106419882D01*
X171438302Y-106490668D01*
X171452008Y-106505605D01*
X171530456Y-106606293D01*
X171538786Y-106616984D01*
X171549922Y-106633931D01*
X171619255Y-106760611D01*
X171627098Y-106777930D01*
X171652160Y-106846643D01*
X171654905Y-106855082D01*
X171662869Y-106882852D01*
X171662872Y-106882859D01*
X171680909Y-106945765D01*
X171683054Y-106954379D01*
X171698217Y-107025949D01*
X171700743Y-107044794D01*
X171709075Y-107188962D01*
X171708613Y-107209233D01*
X171702390Y-107269224D01*
X171702389Y-107269224D01*
X171702389Y-107269226D01*
X171694043Y-107349671D01*
X171690335Y-107369607D01*
X171653424Y-107505894D01*
X171646565Y-107524976D01*
X171588271Y-107653576D01*
X171578441Y-107671310D01*
X171500272Y-107788896D01*
X171487729Y-107804818D01*
X171391707Y-107908344D01*
X171376781Y-107922041D01*
X171265383Y-108008834D01*
X171248445Y-108019963D01*
X171123552Y-108088318D01*
X171089175Y-108101052D01*
X171046285Y-108110138D01*
X170090426Y-108384227D01*
X168992251Y-108699124D01*
X168992241Y-108699127D01*
X168990118Y-108699736D01*
X168855324Y-108748899D01*
X168641673Y-108865832D01*
X168449546Y-109015523D01*
X168446099Y-109019240D01*
X168446094Y-109019244D01*
X168386370Y-109083636D01*
X168283919Y-109194094D01*
X168149082Y-109396923D01*
X168146985Y-109401550D01*
X168146984Y-109401551D01*
X168132472Y-109433565D01*
X168048527Y-109618754D01*
X167984858Y-109853842D01*
X167984334Y-109858897D01*
X167984333Y-109858900D01*
X167964488Y-110050191D01*
X167959725Y-110096098D01*
X167960018Y-110101167D01*
X167967098Y-110223661D01*
X167973778Y-110339250D01*
X168003514Y-110479614D01*
X168041837Y-110613257D01*
X168091000Y-110748052D01*
X168207933Y-110961703D01*
X168211053Y-110965708D01*
X168211058Y-110965715D01*
X168354503Y-111149824D01*
X168354507Y-111149828D01*
X168357624Y-111153829D01*
X168361341Y-111157276D01*
X168361345Y-111157281D01*
X168390325Y-111184160D01*
X168536195Y-111319456D01*
X168739024Y-111454294D01*
X168960855Y-111554849D01*
X168965756Y-111556176D01*
X168965758Y-111556177D01*
X169191049Y-111617192D01*
X169191054Y-111617193D01*
X169195943Y-111618517D01*
X169200985Y-111619040D01*
X169200990Y-111619041D01*
X169433147Y-111643127D01*
X169433149Y-111643127D01*
X169438199Y-111643651D01*
X169481873Y-111641127D01*
X169676596Y-111629873D01*
X169676598Y-111629873D01*
X169681351Y-111629598D01*
X169821715Y-111599862D01*
X169823860Y-111599247D01*
X171702645Y-111060513D01*
X171730105Y-111055842D01*
X171856794Y-111048520D01*
X171877067Y-111048983D01*
X171972003Y-111058833D01*
X172037696Y-111085758D01*
X172078403Y-111143925D01*
X172085000Y-111184160D01*
X172085000Y-112928203D01*
X172064998Y-112996324D01*
X172011342Y-113042817D01*
X171993730Y-113049322D01*
X171601037Y-113161925D01*
X171601032Y-113161927D01*
X171598241Y-113162727D01*
X171598188Y-113162748D01*
X171586196Y-113166029D01*
X171465386Y-113191623D01*
X171463210Y-113192084D01*
X170556893Y-113451967D01*
X169409176Y-113781070D01*
X169409166Y-113781073D01*
X169407043Y-113781682D01*
X169272249Y-113830845D01*
X169058598Y-113947778D01*
X168866471Y-114097469D01*
X168863024Y-114101186D01*
X168863019Y-114101190D01*
X168710401Y-114265736D01*
X168700844Y-114276040D01*
X168698034Y-114280267D01*
X168637728Y-114370983D01*
X168566007Y-114478869D01*
X168465452Y-114700700D01*
X168464124Y-114705604D01*
X168414682Y-114888162D01*
X168401783Y-114935788D01*
X168401259Y-114940843D01*
X168401258Y-114940846D01*
X168383243Y-115114494D01*
X168376650Y-115178044D01*
X168390703Y-115421196D01*
X168420439Y-115561560D01*
X168458762Y-115695203D01*
X168459514Y-115697265D01*
X168459517Y-115697274D01*
X168502475Y-115815056D01*
X168507925Y-115829998D01*
X168624858Y-116043649D01*
X168627978Y-116047654D01*
X168627983Y-116047661D01*
X168771428Y-116231770D01*
X168771432Y-116231774D01*
X168774549Y-116235775D01*
X168778266Y-116239222D01*
X168778270Y-116239227D01*
X168911556Y-116362851D01*
X168953120Y-116401402D01*
X169155949Y-116536240D01*
X169377780Y-116636795D01*
X169382681Y-116638122D01*
X169382683Y-116638123D01*
X169607974Y-116699138D01*
X169607979Y-116699139D01*
X169612868Y-116700463D01*
X169617910Y-116700986D01*
X169617915Y-116700987D01*
X169850072Y-116725073D01*
X169850074Y-116725073D01*
X169855124Y-116725597D01*
X169898798Y-116723073D01*
X170093521Y-116711819D01*
X170093523Y-116711819D01*
X170098276Y-116711544D01*
X170238640Y-116681808D01*
X170260838Y-116675443D01*
X171350972Y-116362851D01*
X171924270Y-116198460D01*
X171995265Y-116198911D01*
X172054746Y-116237672D01*
X172083829Y-116302439D01*
X172085000Y-116319579D01*
X172085000Y-119251036D01*
X172064998Y-119319157D01*
X172011342Y-119365650D01*
X171956073Y-119377002D01*
X168049321Y-119286147D01*
X166747071Y-119255862D01*
X166679433Y-119234282D01*
X166634200Y-119179559D01*
X166624000Y-119129896D01*
X166624000Y-110236000D01*
X166418541Y-110101167D01*
X162616869Y-107606320D01*
X162570891Y-107552222D01*
X162560000Y-107500978D01*
X162560000Y-102234000D01*
X162580002Y-102165879D01*
X162633658Y-102119386D01*
X162686000Y-102108000D01*
X166522467Y-102108000D01*
X166524654Y-102107847D01*
X166524656Y-102107847D01*
X166557817Y-102105528D01*
X166593167Y-102103056D01*
X166627897Y-102098175D01*
X166630038Y-102097720D01*
X166630049Y-102097718D01*
X166664157Y-102090468D01*
X166697221Y-102083440D01*
X166947509Y-102011671D01*
X167091968Y-101970248D01*
X168136284Y-101670795D01*
X168144899Y-101668650D01*
X168216460Y-101653489D01*
X168235305Y-101650963D01*
X168379475Y-101642631D01*
X168399749Y-101643094D01*
G37*
%TD.AperFunction*%
%TD*%
%TA.AperFunction,Conductor*%
%TO.N,VCC*%
G36*
X167897173Y-98191002D02*
G01*
X167910162Y-98200578D01*
X168105830Y-98365173D01*
X168109959Y-98368803D01*
X168587799Y-98807749D01*
X168592729Y-98812532D01*
X168890253Y-99117358D01*
X169025347Y-99255768D01*
X169029581Y-99260327D01*
X169218955Y-99474701D01*
X169222080Y-99478380D01*
X169402361Y-99699101D01*
X169404227Y-99701443D01*
X169741921Y-100136268D01*
X169953150Y-100408253D01*
X169954924Y-100410592D01*
X170451127Y-101081577D01*
X170453083Y-101084299D01*
X170900238Y-101724332D01*
X170902367Y-101727479D01*
X171271829Y-102291815D01*
X171305256Y-102342874D01*
X171307470Y-102346382D01*
X171362576Y-102436925D01*
X171670842Y-102943435D01*
X171673068Y-102947239D01*
X172001866Y-103532657D01*
X172004016Y-103536653D01*
X172303057Y-104117100D01*
X172305052Y-104121148D01*
X172579144Y-104703494D01*
X172580917Y-104707436D01*
X172834801Y-105298668D01*
X172836312Y-105302347D01*
X173064193Y-105882912D01*
X173074533Y-105909256D01*
X173075763Y-105912520D01*
X173230314Y-106340948D01*
X173302836Y-106541984D01*
X173303803Y-106544769D01*
X173478498Y-107067021D01*
X173523305Y-107200974D01*
X173524294Y-107204061D01*
X173617652Y-107509129D01*
X173962569Y-108636230D01*
X173963252Y-108638544D01*
X174415043Y-110222657D01*
X174418186Y-110236654D01*
X174572956Y-111172436D01*
X174574020Y-111180461D01*
X174666137Y-112101797D01*
X174666643Y-112108865D01*
X174705115Y-112994665D01*
X174705233Y-113000716D01*
X174701329Y-113843093D01*
X174701207Y-113848068D01*
X174678545Y-114361244D01*
X174667704Y-114606751D01*
X174666281Y-114638967D01*
X174666057Y-114642755D01*
X174641469Y-114972789D01*
X174611576Y-115374035D01*
X174611338Y-115376810D01*
X174603662Y-115456136D01*
X174577192Y-115522013D01*
X174519308Y-115563122D01*
X174478248Y-115570000D01*
X172148486Y-115570000D01*
X172080365Y-115549998D01*
X172033872Y-115496342D01*
X172025549Y-115471612D01*
X171650058Y-113799779D01*
X171654646Y-113728930D01*
X171696809Y-113671809D01*
X171738265Y-113651048D01*
X172324527Y-113482940D01*
X172324537Y-113482937D01*
X172326660Y-113482328D01*
X172461454Y-113433165D01*
X172675105Y-113316232D01*
X172867232Y-113166541D01*
X172870679Y-113162824D01*
X172870684Y-113162820D01*
X173029407Y-112991692D01*
X173029408Y-112991691D01*
X173032859Y-112987970D01*
X173092735Y-112897901D01*
X173164885Y-112789370D01*
X173164887Y-112789367D01*
X173167696Y-112785141D01*
X173268251Y-112563310D01*
X173331920Y-112328222D01*
X173333617Y-112311870D01*
X173356529Y-112091018D01*
X173356529Y-112091016D01*
X173357053Y-112085966D01*
X173343000Y-111842814D01*
X173313264Y-111702450D01*
X173274941Y-111568807D01*
X173260946Y-111530434D01*
X173227408Y-111438481D01*
X173227408Y-111438480D01*
X173225778Y-111434012D01*
X173108845Y-111220361D01*
X173105725Y-111216356D01*
X173105720Y-111216349D01*
X172962275Y-111032240D01*
X172962271Y-111032236D01*
X172959154Y-111028235D01*
X172955437Y-111024788D01*
X172955433Y-111024783D01*
X172784307Y-110866062D01*
X172780583Y-110862608D01*
X172577754Y-110727770D01*
X172355923Y-110627215D01*
X172351022Y-110625888D01*
X172351020Y-110625887D01*
X172125729Y-110564872D01*
X172125724Y-110564871D01*
X172120835Y-110563547D01*
X172115793Y-110563024D01*
X172115788Y-110563023D01*
X171883631Y-110538937D01*
X171883629Y-110538937D01*
X171878579Y-110538413D01*
X171834905Y-110540937D01*
X171640182Y-110552191D01*
X171640180Y-110552191D01*
X171635427Y-110552466D01*
X171495063Y-110582202D01*
X171492920Y-110582817D01*
X171492918Y-110582817D01*
X171090136Y-110698313D01*
X171019141Y-110697862D01*
X170959660Y-110659100D01*
X170932470Y-110604809D01*
X170552493Y-108913003D01*
X170557081Y-108842154D01*
X170599244Y-108785033D01*
X170640698Y-108764273D01*
X171043511Y-108648768D01*
X171186656Y-108607722D01*
X171186666Y-108607719D01*
X171188789Y-108607110D01*
X171323583Y-108557947D01*
X171537234Y-108441014D01*
X171729361Y-108291323D01*
X171732808Y-108287606D01*
X171732813Y-108287602D01*
X171891536Y-108116474D01*
X171891537Y-108116473D01*
X171894988Y-108112752D01*
X172029825Y-107909923D01*
X172130380Y-107688092D01*
X172194049Y-107453004D01*
X172207677Y-107321650D01*
X172218658Y-107215800D01*
X172218658Y-107215798D01*
X172219182Y-107210748D01*
X172216658Y-107167074D01*
X172205404Y-106972351D01*
X172205404Y-106972349D01*
X172205129Y-106967596D01*
X172175393Y-106827232D01*
X172151187Y-106742817D01*
X172137677Y-106695706D01*
X172137070Y-106693589D01*
X172133693Y-106684328D01*
X172089537Y-106563263D01*
X172089537Y-106563262D01*
X172087907Y-106558794D01*
X171970974Y-106345143D01*
X171967854Y-106341138D01*
X171967849Y-106341131D01*
X171824404Y-106157022D01*
X171824400Y-106157018D01*
X171821283Y-106153017D01*
X171817566Y-106149570D01*
X171817562Y-106149565D01*
X171646436Y-105990844D01*
X171642712Y-105987390D01*
X171439883Y-105852552D01*
X171218052Y-105751997D01*
X171213151Y-105750670D01*
X171213149Y-105750669D01*
X170987858Y-105689654D01*
X170987853Y-105689653D01*
X170982964Y-105688329D01*
X170977922Y-105687806D01*
X170977917Y-105687805D01*
X170745760Y-105663719D01*
X170745758Y-105663719D01*
X170740708Y-105663195D01*
X170697034Y-105665719D01*
X170502311Y-105676973D01*
X170502309Y-105676973D01*
X170497556Y-105677248D01*
X170357192Y-105706984D01*
X170355049Y-105707599D01*
X170355047Y-105707599D01*
X169992572Y-105811537D01*
X169921577Y-105811086D01*
X169862096Y-105772324D01*
X169834905Y-105718030D01*
X169408763Y-103820681D01*
X169413351Y-103749832D01*
X169439319Y-103707385D01*
X169552087Y-103585803D01*
X169552088Y-103585802D01*
X169555539Y-103582081D01*
X169588395Y-103532657D01*
X169687565Y-103383481D01*
X169687567Y-103383478D01*
X169690376Y-103379252D01*
X169714806Y-103325359D01*
X169754784Y-103237163D01*
X169790931Y-103157421D01*
X169841076Y-102972269D01*
X169853272Y-102927237D01*
X169853272Y-102927235D01*
X169854600Y-102922333D01*
X169860030Y-102870000D01*
X169879209Y-102685129D01*
X169879209Y-102685127D01*
X169879733Y-102680077D01*
X169869323Y-102499956D01*
X169865955Y-102441680D01*
X169865955Y-102441678D01*
X169865680Y-102436925D01*
X169835944Y-102296561D01*
X169834584Y-102291815D01*
X169798228Y-102165035D01*
X169797621Y-102162918D01*
X169793759Y-102152327D01*
X169750088Y-102032592D01*
X169750088Y-102032591D01*
X169748458Y-102028123D01*
X169631525Y-101814472D01*
X169628405Y-101810467D01*
X169628400Y-101810460D01*
X169484955Y-101626351D01*
X169484951Y-101626347D01*
X169481834Y-101622346D01*
X169478117Y-101618899D01*
X169478113Y-101618894D01*
X169306987Y-101460173D01*
X169303263Y-101456719D01*
X169100434Y-101321881D01*
X168878603Y-101221326D01*
X168873702Y-101219999D01*
X168873700Y-101219998D01*
X168648409Y-101158983D01*
X168648404Y-101158982D01*
X168643515Y-101157658D01*
X168638473Y-101157135D01*
X168638468Y-101157134D01*
X168406311Y-101133048D01*
X168406309Y-101133048D01*
X168401259Y-101132524D01*
X168357585Y-101135048D01*
X168162862Y-101146302D01*
X168162860Y-101146302D01*
X168158107Y-101146577D01*
X168017743Y-101176313D01*
X166807485Y-101523350D01*
X166557197Y-101595119D01*
X166522467Y-101600000D01*
X161925000Y-101600000D01*
X161925000Y-106427000D01*
X161904998Y-106495121D01*
X161851342Y-106541614D01*
X161799000Y-106553000D01*
X159384000Y-106553000D01*
X159315879Y-106532998D01*
X159269386Y-106479342D01*
X159258000Y-106427000D01*
X159258000Y-98297000D01*
X159278002Y-98228879D01*
X159331658Y-98182386D01*
X159384000Y-98171000D01*
X167829052Y-98171000D01*
X167897173Y-98191002D01*
G37*
%TD.AperFunction*%
%TD*%
M02*
