%TF.GenerationSoftware,KiCad,Pcbnew,(6.99.0-575-gbe99240c8c)*%
%TF.CreationDate,2022-02-12T13:56:44+01:00*%
%TF.ProjectId,tuxpin,74757870-696e-42e6-9b69-6361645f7063,rev?*%
%TF.SameCoordinates,Original*%
%TF.FileFunction,Profile,NP*%
%FSLAX46Y46*%
G04 Gerber Fmt 4.6, Leading zero omitted, Abs format (unit mm)*
G04 Created by KiCad (PCBNEW (6.99.0-575-gbe99240c8c)) date 2022-02-12 13:56:44*
%MOMM*%
%LPD*%
G01*
G04 APERTURE LIST*
%TA.AperFunction,Profile*%
%ADD10C,0.102730*%
%TD*%
%TA.AperFunction,Profile*%
%ADD11C,0.100427*%
%TD*%
%TA.AperFunction,Profile*%
%ADD12C,0.200000*%
%TD*%
G04 APERTURE END LIST*
D10*
X152173258Y-98051603D02*
X152296974Y-97996808D01*
X155003875Y-101105435D02*
X154805154Y-101199479D01*
X156170324Y-100271832D02*
X156090551Y-100358029D01*
X154067629Y-101466777D02*
X154067629Y-101466777D01*
X155418750Y-100877655D02*
X155210168Y-100998059D01*
X154604749Y-97992697D02*
X154715488Y-97951999D01*
D11*
X158266315Y-117895617D02*
X158247035Y-118015082D01*
D10*
X154123171Y-98445869D02*
X154175828Y-98345708D01*
D11*
X160608043Y-118264838D02*
X160558962Y-118167505D01*
D10*
X152164219Y-100587625D02*
X152070478Y-100512190D01*
D11*
X158464923Y-117632393D02*
X158351620Y-117648305D01*
D10*
X155456529Y-97921306D02*
X155581906Y-97952235D01*
X151981380Y-100433904D02*
X151897594Y-100352798D01*
D11*
X159405595Y-119870030D02*
X159633584Y-119856407D01*
X158201164Y-118971491D02*
X158211530Y-119141190D01*
D10*
X155704704Y-97993594D02*
X155823755Y-98045433D01*
X152556406Y-97920176D02*
X152689589Y-97898154D01*
D11*
X159714875Y-117755719D02*
X159573480Y-117723664D01*
D10*
X156146751Y-98264325D02*
X156239139Y-98358580D01*
X156552100Y-99321503D02*
X156535118Y-99502965D01*
X152689589Y-97898154D02*
X152823392Y-97886870D01*
X152070478Y-100512190D02*
X151981380Y-100433904D01*
X152466635Y-100796525D02*
X152261937Y-100660179D01*
D11*
X158197082Y-118799441D02*
X158201164Y-118971491D01*
D10*
X151494743Y-98897679D02*
X151537476Y-98751416D01*
X152261937Y-100660179D02*
X152164219Y-100587625D01*
D11*
X159429222Y-117695159D02*
X159283597Y-117670649D01*
X158349737Y-119760329D02*
X158381937Y-119784486D01*
D10*
X151543770Y-99808608D02*
X151494716Y-99602165D01*
X151467834Y-99055793D02*
X151494743Y-98897679D01*
X156244066Y-100182756D02*
X156170324Y-100271832D01*
X155937891Y-98107802D02*
X156045946Y-98180749D01*
D11*
X159633584Y-119856407D02*
X159860597Y-119837501D01*
D10*
X156090551Y-100358029D02*
X156005407Y-100441311D01*
X151684774Y-100092856D02*
X151628904Y-100000767D01*
X153973938Y-98445003D02*
X154016386Y-98555356D01*
D11*
X158341142Y-117654878D02*
X158330436Y-117669200D01*
X160106924Y-117868733D02*
X159983093Y-117828699D01*
D10*
X153846566Y-98253268D02*
X153916909Y-98344276D01*
D11*
X158478990Y-119823685D02*
X158614151Y-119851567D01*
X158205041Y-118460993D02*
X158198603Y-118628217D01*
D10*
X156465525Y-99798441D02*
X156422507Y-99898646D01*
X156311118Y-100090842D02*
X156244066Y-100182756D01*
D11*
X160285635Y-119787857D02*
X160470631Y-119759131D01*
X160221907Y-117910538D02*
X160106924Y-117868733D01*
X160419348Y-117997678D02*
X160326547Y-117953668D01*
X159573480Y-117723664D02*
X159429222Y-117695159D01*
D10*
X154500772Y-98043429D02*
X154604749Y-97992697D01*
X151944158Y-98194613D02*
X152055230Y-98117507D01*
X155210168Y-100998059D02*
X155003875Y-101105435D01*
D11*
X158853481Y-117625536D02*
X158717350Y-117621454D01*
D10*
X151897594Y-100352798D02*
X151819787Y-100268901D01*
X154024074Y-101460071D02*
X153940388Y-101439321D01*
D11*
X160486776Y-118056576D02*
X160463603Y-118030609D01*
X160703945Y-118500694D02*
X160656708Y-118377006D01*
D10*
X154191627Y-101436267D02*
X154109996Y-101459099D01*
X156499211Y-99695548D02*
X156465525Y-99798441D01*
D11*
X160875140Y-119641663D02*
X160875140Y-119641663D01*
X160837363Y-119669404D02*
X160862481Y-119655251D01*
D10*
X152296974Y-97996808D02*
X152425113Y-97953030D01*
D11*
X160826971Y-118907716D02*
X160790089Y-118769365D01*
D10*
X152894400Y-101033327D02*
X152679235Y-100920987D01*
D11*
X160628594Y-119729144D02*
X160753010Y-119698899D01*
D10*
X152823392Y-97886870D02*
X152956551Y-97886232D01*
X151747950Y-98382802D02*
X151841309Y-98283014D01*
X155202708Y-97890542D02*
X155329740Y-97900758D01*
X154619287Y-101279888D02*
X154451555Y-101346358D01*
X155915554Y-100521640D02*
X155821652Y-100598978D01*
D11*
X158780906Y-119869137D02*
X158972742Y-119877400D01*
X158329507Y-119732964D02*
X158329507Y-119732964D01*
X158307168Y-119670775D02*
X158329507Y-119732964D01*
X159983093Y-117828699D02*
X159851912Y-117790879D01*
X159183142Y-119877363D02*
X159405595Y-119870030D01*
D10*
X151628904Y-100000767D02*
X151581680Y-99906008D01*
X151537476Y-98751416D02*
X151594766Y-98616910D01*
D11*
X160862481Y-119655251D02*
X160875140Y-119641663D01*
X160470631Y-119759131D02*
X160628594Y-119729144D01*
D10*
X153764177Y-98172073D02*
X153846566Y-98253268D01*
X153311078Y-101220674D02*
X153106794Y-101133302D01*
D11*
X158229940Y-118151250D02*
X158215715Y-118300946D01*
D10*
X153457395Y-97988288D02*
X153568324Y-98039490D01*
D11*
X160510478Y-118088324D02*
X160486776Y-118056576D01*
X158614151Y-119851567D02*
X158780906Y-119869137D01*
D10*
X156499211Y-99695550D02*
X156499211Y-99695550D01*
D11*
X158308699Y-117719500D02*
X158287097Y-117796032D01*
X158247035Y-118015082D02*
X158229940Y-118151250D01*
D10*
X152055230Y-98117507D02*
X152173258Y-98051603D01*
X151458015Y-99225850D02*
X151467834Y-99055793D01*
X151543770Y-99808608D02*
X151543770Y-99808608D01*
X153940388Y-101439321D02*
X153673973Y-101356646D01*
X154109996Y-101459099D02*
X154067629Y-101466777D01*
X154317771Y-98174797D02*
X154404723Y-98104145D01*
D11*
X160909619Y-119410526D02*
X160900713Y-119299045D01*
D10*
X154805154Y-101199479D02*
X154619287Y-101279888D01*
X156239139Y-98358580D02*
X156321943Y-98463561D01*
D11*
X158253849Y-119460832D02*
X158287169Y-119604425D01*
X158972742Y-119877400D02*
X159183142Y-119877363D01*
D10*
X153673973Y-101356646D02*
X153501917Y-101295202D01*
X156045946Y-98180749D02*
X156146751Y-98264325D01*
X151594766Y-98616910D02*
X151665347Y-98494069D01*
X156454125Y-98705905D02*
X156501169Y-98843367D01*
D12*
X160802581Y-77291937D02*
X160869314Y-77326056D01*
X160869314Y-77326056D02*
X160932450Y-77379335D01*
X160932450Y-77379335D02*
X160991591Y-77453075D01*
X160991591Y-77453075D02*
X161046343Y-77548575D01*
X161046343Y-77548575D02*
X161096308Y-77667134D01*
X161096308Y-77667134D02*
X161715167Y-81232091D01*
X161715167Y-81232091D02*
X161739172Y-81297058D01*
X161739172Y-81297058D02*
X161764554Y-81357557D01*
X161764554Y-81357557D02*
X161791305Y-81413858D01*
X161791305Y-81413858D02*
X161819417Y-81466232D01*
X161819417Y-81466232D02*
X161848883Y-81514950D01*
X161848883Y-81514950D02*
X161879696Y-81560283D01*
X161879696Y-81560283D02*
X161911847Y-81602501D01*
X161911847Y-81602501D02*
X161945330Y-81641875D01*
X161945330Y-81641875D02*
X161980136Y-81678675D01*
X161980136Y-81678675D02*
X162016259Y-81713173D01*
X162016259Y-81713173D02*
X162053690Y-81745640D01*
X162053690Y-81745640D02*
X162092423Y-81776345D01*
X162092423Y-81776345D02*
X162132450Y-81805559D01*
X162132450Y-81805559D02*
X162173763Y-81833554D01*
X162173763Y-81833554D02*
X162260219Y-81886967D01*
X162260219Y-81886967D02*
X162655995Y-82105974D01*
X162655995Y-82105974D02*
X162767127Y-82172893D01*
X162767127Y-82172893D02*
X162824481Y-82209667D01*
X162824481Y-82209667D02*
X162883016Y-82249010D01*
X162883016Y-82249010D02*
X162942725Y-82291195D01*
X162942725Y-82291195D02*
X163003600Y-82336491D01*
X163003600Y-82336491D02*
X163065634Y-82385170D01*
X163065634Y-82385170D02*
X163128819Y-82437502D01*
X163128819Y-82437502D02*
X163348518Y-82654462D01*
X163348518Y-82654462D02*
X163537343Y-82845347D01*
X163537343Y-82845347D02*
X163698556Y-83014759D01*
X163698556Y-83014759D02*
X163835417Y-83167299D01*
X163835417Y-83167299D02*
X163951186Y-83307570D01*
X163951186Y-83307570D02*
X164049124Y-83440175D01*
X164049124Y-83440175D02*
X164092426Y-83505040D01*
X164092426Y-83505040D02*
X164132492Y-83569714D01*
X164132492Y-83569714D02*
X164169732Y-83634772D01*
X164169732Y-83634772D02*
X164204551Y-83700790D01*
X164204551Y-83700790D02*
X164268562Y-83838006D01*
X164268562Y-83838006D02*
X164327784Y-83985964D01*
X164327784Y-83985964D02*
X164385479Y-84149265D01*
X164385479Y-84149265D02*
X164444907Y-84332513D01*
X164444907Y-84332513D02*
X164582007Y-84777253D01*
X164582007Y-84777253D02*
X164666199Y-85047951D01*
X164666199Y-85047951D02*
X164765168Y-85357004D01*
X164765168Y-85357004D02*
X164784470Y-85400972D01*
X164784470Y-85400972D02*
X164809836Y-85453783D01*
X164809836Y-85453783D02*
X164840868Y-85514046D01*
X164840868Y-85514046D02*
X164877171Y-85580370D01*
X164877171Y-85580370D02*
X164918348Y-85651362D01*
X164918348Y-85651362D02*
X164964004Y-85725634D01*
X164964004Y-85725634D02*
X165013742Y-85801791D01*
X165013742Y-85801791D02*
X165067166Y-85878445D01*
X165067166Y-85878445D02*
X165123880Y-85954203D01*
X165123880Y-85954203D02*
X165183488Y-86027674D01*
X165183488Y-86027674D02*
X165245594Y-86097467D01*
X165245594Y-86097467D02*
X165309801Y-86162191D01*
X165309801Y-86162191D02*
X165375714Y-86220454D01*
X165375714Y-86220454D02*
X165409186Y-86246728D01*
X165409186Y-86246728D02*
X165442936Y-86270865D01*
X165442936Y-86270865D02*
X165476914Y-86292691D01*
X165476914Y-86292691D02*
X165511072Y-86312033D01*
X165511072Y-86312033D02*
X165545358Y-86328716D01*
X165545358Y-86328716D02*
X165579724Y-86342566D01*
X165579724Y-86342566D02*
X165596148Y-86349756D01*
X165596148Y-86349756D02*
X165615087Y-86360059D01*
X165615087Y-86360059D02*
X165659719Y-86389457D01*
X165659719Y-86389457D02*
X165712029Y-86429660D01*
X165712029Y-86429660D02*
X165770424Y-86479571D01*
X165770424Y-86479571D02*
X165833315Y-86538090D01*
X165833315Y-86538090D02*
X165899109Y-86604117D01*
X165899109Y-86604117D02*
X165966216Y-86676555D01*
X165966216Y-86676555D02*
X166033044Y-86754303D01*
X166033044Y-86754303D02*
X166098002Y-86836264D01*
X166098002Y-86836264D02*
X166159499Y-86921337D01*
X166159499Y-86921337D02*
X166215944Y-87008425D01*
X166215944Y-87008425D02*
X166241774Y-87052380D01*
X166241774Y-87052380D02*
X166265745Y-87096427D01*
X166265745Y-87096427D02*
X166287657Y-87140428D01*
X166287657Y-87140428D02*
X166307312Y-87184245D01*
X166307312Y-87184245D02*
X166324510Y-87227742D01*
X166324510Y-87227742D02*
X166339053Y-87270780D01*
X166339053Y-87270780D02*
X166350741Y-87313223D01*
X166350741Y-87313223D02*
X166359377Y-87354933D01*
X166359377Y-87354933D02*
X166364760Y-87395773D01*
X166364760Y-87395773D02*
X166366692Y-87435605D01*
X166366692Y-87435605D02*
X166255357Y-87685236D01*
X166255357Y-87685236D02*
X166158408Y-87927070D01*
X166158408Y-87927070D02*
X166073254Y-88161540D01*
X166073254Y-88161540D02*
X165997303Y-88389080D01*
X165997303Y-88389080D02*
X165733670Y-89238586D01*
X165733670Y-89238586D02*
X165664843Y-89437963D01*
X165664843Y-89437963D02*
X165589664Y-89633006D01*
X165589664Y-89633006D02*
X165505539Y-89824148D01*
X165505539Y-89824148D02*
X165409877Y-90011822D01*
X165409877Y-90011822D02*
X165300085Y-90196459D01*
X165300085Y-90196459D02*
X165173571Y-90378494D01*
X165173571Y-90378494D02*
X165027741Y-90558359D01*
X165027741Y-90558359D02*
X164860005Y-90736487D01*
X164860005Y-90736487D02*
X164772396Y-90847295D01*
X164772396Y-90847295D02*
X164674464Y-90953163D01*
X164674464Y-90953163D02*
X164567293Y-91054461D01*
X164567293Y-91054461D02*
X164451968Y-91151557D01*
X164451968Y-91151557D02*
X164201194Y-91334616D01*
X164201194Y-91334616D02*
X163930818Y-91505291D01*
X163930818Y-91505291D02*
X162826830Y-92123122D01*
X162826830Y-92123122D02*
X162588595Y-92276108D01*
X162588595Y-92276108D02*
X162382817Y-92434403D01*
X162382817Y-92434403D02*
X162294812Y-92516464D01*
X162294812Y-92516464D02*
X162218175Y-92600958D01*
X162218175Y-92600958D02*
X162153990Y-92688253D01*
X162153990Y-92688253D02*
X162103344Y-92778719D01*
X162103344Y-92778719D02*
X162067319Y-92872724D01*
X162067319Y-92872724D02*
X162047000Y-92970638D01*
X162047000Y-92970638D02*
X162043473Y-93072827D01*
X162043473Y-93072827D02*
X162057821Y-93179661D01*
X162057821Y-93179661D02*
X162091130Y-93291510D01*
X162091130Y-93291510D02*
X162144483Y-93408740D01*
X162144483Y-93408740D02*
X162218966Y-93531722D01*
X162218966Y-93531722D02*
X162315663Y-93660823D01*
X162315663Y-93660823D02*
X162505726Y-93825555D01*
X162505726Y-93825555D02*
X162778792Y-94026564D01*
X162778792Y-94026564D02*
X163534531Y-94528365D01*
X163534531Y-94528365D02*
X165608615Y-95867812D01*
X165608615Y-95867812D02*
X166186884Y-96259455D01*
X166186884Y-96259455D02*
X166769352Y-96669290D01*
X166769352Y-96669290D02*
X167346167Y-97095055D01*
X167346167Y-97095055D02*
X167907479Y-97534491D01*
X167907479Y-97534491D02*
X168443438Y-97985336D01*
X168443438Y-97985336D02*
X168944192Y-98445331D01*
X168944192Y-98445331D02*
X169399892Y-98912215D01*
X169399892Y-98912215D02*
X169607768Y-99147534D01*
X169607768Y-99147534D02*
X169800687Y-99383727D01*
X169800687Y-99383727D02*
X170358944Y-100102554D01*
X170358944Y-100102554D02*
X170864614Y-100786340D01*
X170864614Y-100786340D02*
X171322145Y-101441224D01*
X171322145Y-101441224D02*
X171735984Y-102073346D01*
X171735984Y-102073346D02*
X172110582Y-102688844D01*
X172110582Y-102688844D02*
X172450386Y-103293859D01*
X172450386Y-103293859D02*
X172759845Y-103894530D01*
X172759845Y-103894530D02*
X173043408Y-104496996D01*
X173043408Y-104496996D02*
X173305523Y-105107398D01*
X173305523Y-105107398D02*
X173550639Y-105731873D01*
X173550639Y-105731873D02*
X173783205Y-106376562D01*
X173783205Y-106376562D02*
X174007669Y-107047605D01*
X174007669Y-107047605D02*
X174450086Y-108493307D01*
X174450086Y-108493307D02*
X174913479Y-110118096D01*
X174913479Y-110118096D02*
X175077474Y-111109655D01*
X175077474Y-111109655D02*
X175173390Y-112068997D01*
X175173390Y-112068997D02*
X175213298Y-112987849D01*
X175213298Y-112987849D02*
X175209266Y-113857940D01*
X175209266Y-113857940D02*
X175173361Y-114670997D01*
X175173361Y-114670997D02*
X175117652Y-115418748D01*
X175117652Y-115418748D02*
X174995095Y-116685243D01*
X174995095Y-116685243D02*
X174952385Y-117187444D01*
X174952385Y-117187444D02*
X174938143Y-117591249D01*
X174938143Y-117591249D02*
X174964440Y-117888388D01*
X174964440Y-117888388D02*
X174996561Y-117994372D01*
X174996561Y-117994372D02*
X175043342Y-118070587D01*
X175043342Y-118070587D02*
X175106292Y-118116000D01*
X175106292Y-118116000D02*
X175186918Y-118129576D01*
X175186918Y-118129576D02*
X175286731Y-118110281D01*
X175286731Y-118110281D02*
X175407238Y-118057080D01*
X175407238Y-118057080D02*
X175716368Y-117844830D01*
X175716368Y-117844830D02*
X176126378Y-117484551D01*
X176126378Y-117484551D02*
X176853638Y-116877040D01*
X176853638Y-116877040D02*
X177190295Y-116570326D01*
X177190295Y-116570326D02*
X177509387Y-116261456D01*
X177509387Y-116261456D02*
X177811228Y-115950290D01*
X177811228Y-115950290D02*
X178096130Y-115636689D01*
X178096130Y-115636689D02*
X178364406Y-115320515D01*
X178364406Y-115320515D02*
X178616370Y-115001628D01*
X178616370Y-115001628D02*
X178852334Y-114679892D01*
X178852334Y-114679892D02*
X179072613Y-114355165D01*
X179072613Y-114355165D02*
X179277518Y-114027311D01*
X179277518Y-114027311D02*
X179467364Y-113696189D01*
X179467364Y-113696189D02*
X179642462Y-113361662D01*
X179642462Y-113361662D02*
X179803128Y-113023590D01*
X179803128Y-113023590D02*
X179949672Y-112681834D01*
X179949672Y-112681834D02*
X180082409Y-112336257D01*
X180082409Y-112336257D02*
X180201652Y-111986719D01*
X180201652Y-111986719D02*
X180307713Y-111633082D01*
X180307713Y-111633082D02*
X180481545Y-110912953D01*
X180481545Y-110912953D02*
X180606409Y-110174762D01*
X180606409Y-110174762D02*
X180684811Y-109417397D01*
X180684811Y-109417397D02*
X180719255Y-108639750D01*
X180719255Y-108639750D02*
X180712246Y-107840709D01*
X180712246Y-107840709D02*
X180666289Y-107019165D01*
X180666289Y-107019165D02*
X180583890Y-106174008D01*
X180583890Y-106174008D02*
X180521030Y-105749741D01*
X180521030Y-105749741D02*
X180477353Y-105348060D01*
X180477353Y-105348060D02*
X180451969Y-104969613D01*
X180451969Y-104969613D02*
X180443989Y-104615046D01*
X180443989Y-104615046D02*
X180452524Y-104285008D01*
X180452524Y-104285008D02*
X180476684Y-103980145D01*
X180476684Y-103980145D02*
X180515582Y-103701105D01*
X180515582Y-103701105D02*
X180568327Y-103448534D01*
X180568327Y-103448534D02*
X180634031Y-103223080D01*
X180634031Y-103223080D02*
X180711805Y-103025391D01*
X180711805Y-103025391D02*
X180800758Y-102856113D01*
X180800758Y-102856113D02*
X180900004Y-102715894D01*
X180900004Y-102715894D02*
X181008651Y-102605380D01*
X181008651Y-102605380D02*
X181125812Y-102525220D01*
X181125812Y-102525220D02*
X181250597Y-102476060D01*
X181250597Y-102476060D02*
X181382116Y-102458548D01*
X181382116Y-102458548D02*
X181519482Y-102473331D01*
X181519482Y-102473331D02*
X181661805Y-102521056D01*
X181661805Y-102521056D02*
X181808195Y-102602370D01*
X181808195Y-102602370D02*
X181957765Y-102717921D01*
X181957765Y-102717921D02*
X182109623Y-102868356D01*
X182109623Y-102868356D02*
X182262883Y-103054321D01*
X182262883Y-103054321D02*
X182416653Y-103276465D01*
X182416653Y-103276465D02*
X182570047Y-103535434D01*
X182570047Y-103535434D02*
X182722173Y-103831876D01*
X182722173Y-103831876D02*
X182872144Y-104166439D01*
X182872144Y-104166439D02*
X183019069Y-104539768D01*
X183019069Y-104539768D02*
X183162061Y-104952511D01*
X183162061Y-104952511D02*
X183300230Y-105405317D01*
X183300230Y-105405317D02*
X183432687Y-105898831D01*
X183432687Y-105898831D02*
X183558542Y-106433701D01*
X183558542Y-106433701D02*
X183676907Y-107010575D01*
X183676907Y-107010575D02*
X183719725Y-107574310D01*
X183719725Y-107574310D02*
X183750526Y-108114731D01*
X183750526Y-108114731D02*
X183779732Y-109125068D01*
X183779732Y-109125068D02*
X183771843Y-110040466D01*
X183771843Y-110040466D02*
X183734174Y-110859803D01*
X183734174Y-110859803D02*
X183674043Y-111581958D01*
X183674043Y-111581958D02*
X183598765Y-112205812D01*
X183598765Y-112205812D02*
X183515656Y-112730243D01*
X183515656Y-112730243D02*
X183432034Y-113154130D01*
X183432034Y-113154130D02*
X183305785Y-113672226D01*
X183305785Y-113672226D02*
X183157339Y-114185106D01*
X183157339Y-114185106D02*
X182987261Y-114692167D01*
X182987261Y-114692167D02*
X182796118Y-115192806D01*
X182796118Y-115192806D02*
X182584474Y-115686418D01*
X182584474Y-115686418D02*
X182352893Y-116172402D01*
X182352893Y-116172402D02*
X182101942Y-116650153D01*
X182101942Y-116650153D02*
X181832185Y-117119068D01*
X181832185Y-117119068D02*
X181238513Y-118027977D01*
X181238513Y-118027977D02*
X180576400Y-118894302D01*
X180576400Y-118894302D02*
X179850365Y-119713216D01*
X179850365Y-119713216D02*
X179064929Y-120479892D01*
X179064929Y-120479892D02*
X178224614Y-121189504D01*
X178224614Y-121189504D02*
X177333939Y-121837225D01*
X177333939Y-121837225D02*
X176397426Y-122418226D01*
X176397426Y-122418226D02*
X175913393Y-122682200D01*
X175913393Y-122682200D02*
X175419595Y-122927683D01*
X175419595Y-122927683D02*
X174916598Y-123154074D01*
X174916598Y-123154074D02*
X174404967Y-123360768D01*
X174404967Y-123360768D02*
X173885267Y-123547162D01*
X173885267Y-123547162D02*
X173358063Y-123712653D01*
X173358063Y-123712653D02*
X172823920Y-123856638D01*
X172823920Y-123856638D02*
X172283404Y-123978513D01*
X172283404Y-123978513D02*
X171737078Y-124077674D01*
X171737078Y-124077674D02*
X171185509Y-124153519D01*
X171185509Y-124153519D02*
X170035776Y-124208670D01*
X170035776Y-124208670D02*
X168935201Y-124224468D01*
X168935201Y-124224468D02*
X167877730Y-124207774D01*
X167877730Y-124207774D02*
X166857307Y-124165451D01*
X166857307Y-124165451D02*
X164903388Y-124031361D01*
X164903388Y-124031361D02*
X163025007Y-123877091D01*
X163025007Y-123877091D02*
X161173727Y-123757535D01*
X161173727Y-123757535D02*
X160243113Y-123727929D01*
X160243113Y-123727929D02*
X159301110Y-123727586D01*
X159301110Y-123727586D02*
X158341663Y-123763368D01*
X158341663Y-123763368D02*
X157358718Y-123842136D01*
X157358718Y-123842136D02*
X156346220Y-123970753D01*
X156346220Y-123970753D02*
X155298113Y-124156079D01*
X155298113Y-124156079D02*
X155037649Y-124178620D01*
X155037649Y-124178620D02*
X154785988Y-124192054D01*
X154785988Y-124192054D02*
X154541774Y-124196113D01*
X154541774Y-124196113D02*
X154303650Y-124190531D01*
X154303650Y-124190531D02*
X154070261Y-124175039D01*
X154070261Y-124175039D02*
X153840249Y-124149369D01*
X153840249Y-124149369D02*
X153612257Y-124113254D01*
X153612257Y-124113254D02*
X153384930Y-124066426D01*
X153384930Y-124066426D02*
X153156911Y-124008617D01*
X153156911Y-124008617D02*
X152926843Y-123939559D01*
X152926843Y-123939559D02*
X152693369Y-123858984D01*
X152693369Y-123858984D02*
X152455134Y-123766626D01*
X152455134Y-123766626D02*
X152210780Y-123662215D01*
X152210780Y-123662215D02*
X151958951Y-123545484D01*
X151958951Y-123545484D02*
X151698290Y-123416165D01*
X151698290Y-123416165D02*
X151427441Y-123273991D01*
X151427441Y-123273991D02*
X151383826Y-123240401D01*
X151383826Y-123240401D02*
X151342248Y-123210024D01*
X151342248Y-123210024D02*
X151265188Y-123154778D01*
X151265188Y-123154778D02*
X151229697Y-123127845D01*
X151229697Y-123127845D02*
X151196227Y-123099996D01*
X151196227Y-123099996D02*
X151180249Y-123085406D01*
X151180249Y-123085406D02*
X151164775Y-123070199D01*
X151164775Y-123070199D02*
X151149804Y-123054248D01*
X151149804Y-123054248D02*
X151135336Y-123037422D01*
X151135336Y-123037422D02*
X151121370Y-123019594D01*
X151121370Y-123019594D02*
X151107906Y-123000633D01*
X151107906Y-123000633D02*
X151094943Y-122980411D01*
X151094943Y-122980411D02*
X151082481Y-122958800D01*
X151082481Y-122958800D02*
X151070519Y-122935669D01*
X151070519Y-122935669D02*
X151059057Y-122910890D01*
X151059057Y-122910890D02*
X151048095Y-122884333D01*
X151048095Y-122884333D02*
X151037631Y-122855871D01*
X151037631Y-122855871D02*
X151027665Y-122825373D01*
X151027665Y-122825373D02*
X151018198Y-122792712D01*
X151018198Y-122792712D02*
X151009227Y-122757757D01*
X151009227Y-122757757D02*
X151000754Y-122720379D01*
X151000754Y-122720379D02*
X150992776Y-122680451D01*
X150992776Y-122680451D02*
X150985295Y-122637842D01*
X150985295Y-122637842D02*
X150978309Y-122592424D01*
X150978309Y-122592424D02*
X150971818Y-122544068D01*
X150971818Y-122544068D02*
X150971990Y-122430456D01*
X150971990Y-122430456D02*
X150975652Y-122328207D01*
X150975652Y-122328207D02*
X150982563Y-122236543D01*
X150982563Y-122236543D02*
X150992486Y-122154685D01*
X150992486Y-122154685D02*
X151005180Y-122081855D01*
X151005180Y-122081855D02*
X151020406Y-122017273D01*
X151020406Y-122017273D02*
X151037927Y-121960163D01*
X151037927Y-121960163D02*
X151057502Y-121909744D01*
X151057502Y-121909744D02*
X151078892Y-121865238D01*
X151078892Y-121865238D02*
X151101859Y-121825867D01*
X151101859Y-121825867D02*
X151126163Y-121790852D01*
X151126163Y-121790852D02*
X151151566Y-121759414D01*
X151151566Y-121759414D02*
X151177828Y-121730775D01*
X151177828Y-121730775D02*
X151204710Y-121704157D01*
X151204710Y-121704157D02*
X151259379Y-121653867D01*
X151259379Y-121653867D02*
X151259385Y-121653870D01*
X151259385Y-121653870D02*
X153012412Y-120492333D01*
X153012412Y-120492333D02*
X153055165Y-120461288D01*
X153055165Y-120461288D02*
X153096510Y-120429531D01*
X153096510Y-120429531D02*
X153136313Y-120396994D01*
X153136313Y-120396994D02*
X153174442Y-120363609D01*
X153174442Y-120363609D02*
X153210763Y-120329310D01*
X153210763Y-120329310D02*
X153245142Y-120294028D01*
X153245142Y-120294028D02*
X153277447Y-120257697D01*
X153277447Y-120257697D02*
X153307543Y-120220248D01*
X153307543Y-120220248D02*
X153335299Y-120181616D01*
X153335299Y-120181616D02*
X153360579Y-120141731D01*
X153360579Y-120141731D02*
X153383252Y-120100527D01*
X153383252Y-120100527D02*
X153403184Y-120057937D01*
X153403184Y-120057937D02*
X153412080Y-120036101D01*
X153412080Y-120036101D02*
X153420241Y-120013893D01*
X153420241Y-120013893D02*
X153427650Y-119991304D01*
X153427650Y-119991304D02*
X153434290Y-119968327D01*
X153434290Y-119968327D02*
X153440145Y-119944952D01*
X153440145Y-119944952D02*
X153445198Y-119921172D01*
X153445198Y-119921172D02*
X153449433Y-119896978D01*
X153449433Y-119896978D02*
X153452832Y-119872361D01*
X153452832Y-119872361D02*
X153487075Y-119655157D01*
X153487075Y-119655157D02*
X153509705Y-119399343D01*
X153509705Y-119399343D02*
X153522020Y-119112181D01*
X153522020Y-119112181D02*
X153525316Y-118800932D01*
X153525316Y-118800932D02*
X153510046Y-118135215D01*
X153510046Y-118135215D02*
X153474274Y-117460280D01*
X153474274Y-117460280D02*
X153428382Y-116834215D01*
X153428382Y-116834215D02*
X153382749Y-116315108D01*
X153382749Y-116315108D02*
X153333787Y-115830117D01*
X153333787Y-115830117D02*
X153115848Y-115295297D01*
X153115848Y-115295297D02*
X152928349Y-114766294D01*
X152928349Y-114766294D02*
X152767972Y-114244538D01*
X152767972Y-114244538D02*
X152631403Y-113731459D01*
X152631403Y-113731459D02*
X152515324Y-113228486D01*
X152515324Y-113228486D02*
X152416420Y-112737051D01*
X152416420Y-112737051D02*
X152256872Y-111794509D01*
X152256872Y-111794509D02*
X151997966Y-110110779D01*
X151997966Y-110110779D02*
X151926435Y-109740137D01*
X151926435Y-109740137D02*
X151845550Y-109392470D01*
X151845550Y-109392470D02*
X151751995Y-109069209D01*
X151751995Y-109069209D02*
X151642455Y-108771783D01*
X151642455Y-108771783D02*
X151543232Y-108542706D01*
X151543232Y-108542706D02*
X151446600Y-108334722D01*
X151446600Y-108334722D02*
X151350632Y-108140123D01*
X151350632Y-108140123D02*
X151253400Y-107951205D01*
X151253400Y-107951205D02*
X151047435Y-107559591D01*
X151047435Y-107559591D02*
X150934847Y-107341483D01*
X150934847Y-107341483D02*
X150813284Y-107098235D01*
X150813284Y-107098235D02*
X150680820Y-106822140D01*
X150680820Y-106822140D02*
X150535527Y-106505494D01*
X150535527Y-106505494D02*
X150375477Y-106140591D01*
X150375477Y-106140591D02*
X150198743Y-105719726D01*
X150198743Y-105719726D02*
X150003397Y-105235193D01*
X150003397Y-105235193D02*
X149787512Y-104679287D01*
X149787512Y-104679287D02*
X149549159Y-104044302D01*
X149549159Y-104044302D02*
X149286412Y-103322533D01*
X149286412Y-103322533D02*
X149200515Y-103093513D01*
X149200515Y-103093513D02*
X149127226Y-102886099D01*
X149127226Y-102886099D02*
X149094344Y-102784388D01*
X149094344Y-102784388D02*
X149063458Y-102680752D01*
X149063458Y-102680752D02*
X149034179Y-102572748D01*
X149034179Y-102572748D02*
X149006124Y-102457935D01*
X149006124Y-102457935D02*
X148978906Y-102333869D01*
X148978906Y-102333869D02*
X148952140Y-102198109D01*
X148952140Y-102198109D02*
X148925440Y-102048212D01*
X148925440Y-102048212D02*
X148898419Y-101881736D01*
X148898419Y-101881736D02*
X148870693Y-101696239D01*
X148870693Y-101696239D02*
X148841876Y-101489279D01*
X148841876Y-101489279D02*
X148779423Y-101001199D01*
X148779423Y-101001199D02*
X148753487Y-100581883D01*
X148753487Y-100581883D02*
X148732894Y-100180183D01*
X148732894Y-100180183D02*
X148717728Y-99796372D01*
X148717728Y-99796372D02*
X148708072Y-99430726D01*
X148708072Y-99430726D02*
X148704009Y-99083520D01*
X148704009Y-99083520D02*
X148705623Y-98755028D01*
X148705623Y-98755028D02*
X148712998Y-98445527D01*
X148712998Y-98445527D02*
X148726216Y-98155289D01*
X148726216Y-98155289D02*
X148993474Y-95820973D01*
X148993474Y-95820973D02*
X149168760Y-95169852D01*
X149168760Y-95169852D02*
X149328461Y-94522522D01*
X149328461Y-94522522D02*
X149612936Y-93237424D01*
X149612936Y-93237424D02*
X150124980Y-90692802D01*
X150124980Y-90692802D02*
X150399864Y-89426033D01*
X150399864Y-89426033D02*
X150718866Y-88158129D01*
X150718866Y-88158129D02*
X150902304Y-87522620D01*
X150902304Y-87522620D02*
X151105644Y-86885468D01*
X151105644Y-86885468D02*
X151331841Y-86246222D01*
X151331841Y-86246222D02*
X151583853Y-85604428D01*
X151583853Y-85604428D02*
X151804902Y-85208206D01*
X151804902Y-85208206D02*
X152024966Y-84841052D01*
X152024966Y-84841052D02*
X152244902Y-84500482D01*
X152244902Y-84500482D02*
X152465569Y-84184012D01*
X152465569Y-84184012D02*
X152687822Y-83889155D01*
X152687822Y-83889155D02*
X152912518Y-83613427D01*
X152912518Y-83613427D02*
X153140514Y-83354344D01*
X153140514Y-83354344D02*
X153372667Y-83109420D01*
X153372667Y-83109420D02*
X153609833Y-82876170D01*
X153609833Y-82876170D02*
X153852871Y-82652109D01*
X153852871Y-82652109D02*
X154102636Y-82434753D01*
X154102636Y-82434753D02*
X154359985Y-82221616D01*
X154359985Y-82221616D02*
X154900863Y-81798061D01*
X154900863Y-81798061D02*
X155482360Y-81361565D01*
X155482360Y-81361565D02*
X155795347Y-80861106D01*
X155795347Y-80861106D02*
X156116450Y-80370940D01*
X156116450Y-80370940D02*
X156446368Y-79891955D01*
X156446368Y-79891955D02*
X156785801Y-79425038D01*
X156785801Y-79425038D02*
X157135450Y-78971078D01*
X157135450Y-78971078D02*
X157496015Y-78530963D01*
X157496015Y-78530963D02*
X157868196Y-78105581D01*
X157868196Y-78105581D02*
X158252694Y-77695820D01*
X158252694Y-77695820D02*
X158269184Y-77678471D01*
X158269184Y-77678471D02*
X158286271Y-77662977D01*
X158286271Y-77662977D02*
X158303880Y-77649252D01*
X158303880Y-77649252D02*
X158321939Y-77637211D01*
X158321939Y-77637211D02*
X158340375Y-77626768D01*
X158340375Y-77626768D02*
X158359113Y-77617838D01*
X158359113Y-77617838D02*
X158378080Y-77610335D01*
X158378080Y-77610335D02*
X158397203Y-77604174D01*
X158397203Y-77604174D02*
X158416408Y-77599269D01*
X158416408Y-77599269D02*
X158435622Y-77595535D01*
X158435622Y-77595535D02*
X158454772Y-77592886D01*
X158454772Y-77592886D02*
X158473783Y-77591237D01*
X158473783Y-77591237D02*
X158511099Y-77590595D01*
X158511099Y-77590595D02*
X158546981Y-77592926D01*
X158546981Y-77592926D02*
X158580842Y-77597545D01*
X158580842Y-77597545D02*
X158612094Y-77603767D01*
X158612094Y-77603767D02*
X158640151Y-77610910D01*
X158640151Y-77610910D02*
X158664424Y-77618288D01*
X158664424Y-77618288D02*
X158699269Y-77631014D01*
X158699269Y-77631014D02*
X158711928Y-77636472D01*
X158711928Y-77636472D02*
X158734442Y-77646657D01*
X158734442Y-77646657D02*
X158754676Y-77660297D01*
X158754676Y-77660297D02*
X158772790Y-77677230D01*
X158772790Y-77677230D02*
X158788941Y-77697291D01*
X158788941Y-77697291D02*
X158803289Y-77720317D01*
X158803289Y-77720317D02*
X158815990Y-77746144D01*
X158815990Y-77746144D02*
X158827204Y-77774608D01*
X158827204Y-77774608D02*
X158837090Y-77805547D01*
X158837090Y-77805547D02*
X158853506Y-77874192D01*
X158853506Y-77874192D02*
X158866506Y-77950770D01*
X158866506Y-77950770D02*
X158887325Y-78122488D01*
X158887325Y-78122488D02*
X158909679Y-78310231D01*
X158909679Y-78310231D02*
X158924599Y-78406839D01*
X158924599Y-78406839D02*
X158943702Y-78503527D01*
X158943702Y-78503527D02*
X158968256Y-78598985D01*
X158968256Y-78598985D02*
X158982973Y-78645844D01*
X158982973Y-78645844D02*
X158999528Y-78691905D01*
X158999528Y-78691905D02*
X159018078Y-78737005D01*
X159018078Y-78737005D02*
X159038783Y-78780979D01*
X159038783Y-78780979D02*
X159061800Y-78823663D01*
X159061800Y-78823663D02*
X159087289Y-78864896D01*
X159087289Y-78864896D02*
X159101523Y-78872907D01*
X159101523Y-78872907D02*
X159122849Y-78864992D01*
X159122849Y-78864992D02*
X159185190Y-78806577D01*
X159185190Y-78806577D02*
X159271144Y-78700048D01*
X159271144Y-78700048D02*
X159377544Y-78555801D01*
X159377544Y-78555801D02*
X159639014Y-78195738D01*
X159639014Y-78195738D02*
X159787750Y-78000716D01*
X159787750Y-78000716D02*
X159944263Y-77809561D01*
X159944263Y-77809561D02*
X160105387Y-77632670D01*
X160105387Y-77632670D02*
X160267955Y-77480441D01*
X160267955Y-77480441D02*
X160348790Y-77416822D01*
X160348790Y-77416822D02*
X160428798Y-77363268D01*
X160428798Y-77363268D02*
X160507584Y-77321076D01*
X160507584Y-77321076D02*
X160584751Y-77291548D01*
X160584751Y-77291548D02*
X160659903Y-77275982D01*
X160659903Y-77275982D02*
X160732645Y-77275679D01*
X160732645Y-77275679D02*
X160802581Y-77291937D01*
D10*
X156005407Y-100441311D02*
X155915554Y-100521640D01*
X153671007Y-98100783D02*
X153764177Y-98172073D01*
X156370818Y-99996126D02*
X156311118Y-100090842D01*
X156533958Y-98991754D02*
X156551324Y-99151116D01*
X154175828Y-98345708D02*
X154241083Y-98255335D01*
D11*
X160897844Y-119585151D02*
X160904802Y-119548573D01*
D10*
X154060327Y-98675351D02*
X154084282Y-98555766D01*
X151581680Y-99906008D02*
X151543770Y-99808608D01*
X151841309Y-98283014D02*
X151944158Y-98194613D01*
X153106794Y-101133302D02*
X152894400Y-101033327D01*
D11*
X158351620Y-117648305D02*
X158351626Y-117648305D01*
X160883295Y-119175872D02*
X160858377Y-119044324D01*
D10*
X154067629Y-101466777D02*
X154024074Y-101460071D01*
D11*
X160909000Y-119507000D02*
X160909619Y-119410526D01*
D10*
X153916909Y-98344276D02*
X153973938Y-98445003D01*
X151748624Y-100182244D02*
X151684774Y-100092856D01*
D11*
X158287169Y-119604425D02*
X158307168Y-119670775D01*
X160441085Y-118010838D02*
X160419348Y-117997678D01*
X160326547Y-117953668D02*
X160221907Y-117910538D01*
D10*
X151494716Y-99602165D02*
X151466554Y-99407943D01*
D11*
X160887999Y-119616319D02*
X160897844Y-119585151D01*
D10*
X154052474Y-98804574D02*
X154052474Y-98804574D01*
D11*
X158228864Y-119305362D02*
X158253849Y-119460832D01*
D10*
X152679235Y-100920987D02*
X152466635Y-100796525D01*
D11*
X160904802Y-119548573D02*
X160909000Y-119507000D01*
D10*
X156551324Y-99151116D02*
X156552100Y-99321503D01*
X153501917Y-101295202D02*
X153311078Y-101220674D01*
D11*
X159283597Y-117670649D02*
X159138101Y-117650578D01*
D10*
X154084282Y-98555766D02*
X154123171Y-98445869D01*
X154042987Y-98675244D02*
X154052474Y-98804574D01*
X154831821Y-97921386D02*
X154952580Y-97900905D01*
D11*
X160753010Y-119698899D02*
X160837363Y-119669404D01*
D10*
X152956551Y-97886232D02*
X153087797Y-97896147D01*
X155821652Y-100598978D02*
X155624338Y-100744527D01*
X156499211Y-99695550D02*
X156499211Y-99695548D01*
X152425113Y-97953030D02*
X152556406Y-97920176D01*
X151819787Y-100268901D02*
X151748624Y-100182244D01*
X156393994Y-98579320D02*
X156454125Y-98705905D01*
D11*
X160858377Y-119044324D02*
X160826971Y-118907716D01*
D10*
X155076598Y-97890607D02*
X155202708Y-97890542D01*
D11*
X158717350Y-117621454D02*
X158587332Y-117623591D01*
X159851912Y-117790879D02*
X159714875Y-117755719D01*
D10*
X154016386Y-98555356D02*
X154042987Y-98675244D01*
X155823755Y-98045433D02*
X155937891Y-98107802D01*
D11*
X160656708Y-118377006D02*
X160608043Y-118264838D01*
D10*
X154404723Y-98104145D02*
X154500772Y-98043429D01*
X151466554Y-99407943D02*
X151458015Y-99225850D01*
X151665347Y-98494069D02*
X151747950Y-98382802D01*
X155329740Y-97900758D02*
X155456529Y-97921306D01*
D11*
X160463603Y-118030609D02*
X160441085Y-118010838D01*
X158587332Y-117623591D02*
X158464923Y-117632393D01*
D10*
X153215864Y-97916524D02*
X153339486Y-97947268D01*
D11*
X160748743Y-118632586D02*
X160703945Y-118500694D01*
X160080118Y-119814316D02*
X160285635Y-119787857D01*
X158215715Y-118300946D02*
X158205041Y-118460993D01*
D10*
X156535118Y-99502965D02*
X156499211Y-99695550D01*
D11*
X159860597Y-119837501D02*
X160080118Y-119814316D01*
X158287097Y-117796032D02*
X158266315Y-117895617D01*
D10*
X153339486Y-97947268D02*
X153457395Y-97988288D01*
D11*
X158198603Y-118628217D02*
X158197082Y-118799441D01*
X158425293Y-119805563D02*
X158478990Y-119823685D01*
D10*
X154715488Y-97951999D02*
X154831821Y-97921386D01*
X153568324Y-98039490D02*
X153671007Y-98100783D01*
X154052474Y-98804574D02*
X154060327Y-98675351D01*
D11*
X160900713Y-119299045D02*
X160883295Y-119175872D01*
D10*
X154952580Y-97900905D02*
X155076598Y-97890607D01*
D11*
X159138101Y-117650578D02*
X158994230Y-117635392D01*
X158381937Y-119784486D02*
X158425293Y-119805563D01*
D10*
X156422507Y-99898646D02*
X156370818Y-99996126D01*
X154451555Y-101346358D02*
X154191627Y-101436267D01*
D11*
X158351626Y-117648305D02*
X158341142Y-117654878D01*
X160790089Y-118769365D02*
X160748743Y-118632586D01*
X158351620Y-117648305D02*
X158351620Y-117648305D01*
X160875140Y-119641663D02*
X160887999Y-119616319D01*
X158329507Y-119732964D02*
X158349737Y-119760329D01*
D10*
X156501169Y-98843367D02*
X156533958Y-98991754D01*
D11*
X158330436Y-117669200D02*
X158308699Y-117719500D01*
D10*
X154241083Y-98255335D02*
X154317771Y-98174797D01*
D11*
X158994230Y-117635392D02*
X158853481Y-117625536D01*
D10*
X155581906Y-97952235D02*
X155704704Y-97993594D01*
X153087797Y-97896147D02*
X153215864Y-97916524D01*
D11*
X160558962Y-118167505D02*
X160510478Y-118088324D01*
X160419348Y-117997678D02*
X160419348Y-117997678D01*
X158211530Y-119141190D02*
X158228864Y-119305362D01*
D10*
X156321943Y-98463561D02*
X156393994Y-98579320D01*
X155624338Y-100744527D02*
X155418750Y-100877655D01*
M02*
