%TF.GenerationSoftware,KiCad,Pcbnew,(6.99.0-575-gbe99240c8c)*%
%TF.CreationDate,2022-02-12T13:56:44+01:00*%
%TF.ProjectId,tuxpin,74757870-696e-42e6-9b69-6361645f7063,rev?*%
%TF.SameCoordinates,Original*%
%TF.FileFunction,Legend,Top*%
%TF.FilePolarity,Positive*%
%FSLAX46Y46*%
G04 Gerber Fmt 4.6, Leading zero omitted, Abs format (unit mm)*
G04 Created by KiCad (PCBNEW (6.99.0-575-gbe99240c8c)) date 2022-02-12 13:56:44*
%MOMM*%
%LPD*%
G01*
G04 APERTURE LIST*
%ADD10C,0.125000*%
%ADD11C,0.120000*%
G04 APERTURE END LIST*
D10*
%TO.C,R13*%
X160142286Y-82694428D02*
X159942286Y-82408714D01*
X159799429Y-82694428D02*
X159799429Y-82094428D01*
X159799429Y-82094428D02*
X160028000Y-82094428D01*
X160028000Y-82094428D02*
X160085143Y-82123000D01*
X160085143Y-82123000D02*
X160113714Y-82151571D01*
X160113714Y-82151571D02*
X160142286Y-82208714D01*
X160142286Y-82208714D02*
X160142286Y-82294428D01*
X160142286Y-82294428D02*
X160113714Y-82351571D01*
X160113714Y-82351571D02*
X160085143Y-82380142D01*
X160085143Y-82380142D02*
X160028000Y-82408714D01*
X160028000Y-82408714D02*
X159799429Y-82408714D01*
X160713714Y-82694428D02*
X160370857Y-82694428D01*
X160542286Y-82694428D02*
X160542286Y-82094428D01*
X160542286Y-82094428D02*
X160485143Y-82180142D01*
X160485143Y-82180142D02*
X160428000Y-82237285D01*
X160428000Y-82237285D02*
X160370857Y-82265857D01*
X160913714Y-82094428D02*
X161285142Y-82094428D01*
X161285142Y-82094428D02*
X161085142Y-82323000D01*
X161085142Y-82323000D02*
X161170857Y-82323000D01*
X161170857Y-82323000D02*
X161228000Y-82351571D01*
X161228000Y-82351571D02*
X161256571Y-82380142D01*
X161256571Y-82380142D02*
X161285142Y-82437285D01*
X161285142Y-82437285D02*
X161285142Y-82580142D01*
X161285142Y-82580142D02*
X161256571Y-82637285D01*
X161256571Y-82637285D02*
X161228000Y-82665857D01*
X161228000Y-82665857D02*
X161170857Y-82694428D01*
X161170857Y-82694428D02*
X160999428Y-82694428D01*
X160999428Y-82694428D02*
X160942285Y-82665857D01*
X160942285Y-82665857D02*
X160913714Y-82637285D01*
%TO.C,C4*%
X156364000Y-90638285D02*
X156335428Y-90666857D01*
X156335428Y-90666857D02*
X156249714Y-90695428D01*
X156249714Y-90695428D02*
X156192571Y-90695428D01*
X156192571Y-90695428D02*
X156106857Y-90666857D01*
X156106857Y-90666857D02*
X156049714Y-90609714D01*
X156049714Y-90609714D02*
X156021143Y-90552571D01*
X156021143Y-90552571D02*
X155992571Y-90438285D01*
X155992571Y-90438285D02*
X155992571Y-90352571D01*
X155992571Y-90352571D02*
X156021143Y-90238285D01*
X156021143Y-90238285D02*
X156049714Y-90181142D01*
X156049714Y-90181142D02*
X156106857Y-90124000D01*
X156106857Y-90124000D02*
X156192571Y-90095428D01*
X156192571Y-90095428D02*
X156249714Y-90095428D01*
X156249714Y-90095428D02*
X156335428Y-90124000D01*
X156335428Y-90124000D02*
X156364000Y-90152571D01*
X156878286Y-90295428D02*
X156878286Y-90695428D01*
X156735428Y-90066857D02*
X156592571Y-90495428D01*
X156592571Y-90495428D02*
X156964000Y-90495428D01*
%TO.C,R14*%
X157475286Y-83710428D02*
X157275286Y-83424714D01*
X157132429Y-83710428D02*
X157132429Y-83110428D01*
X157132429Y-83110428D02*
X157361000Y-83110428D01*
X157361000Y-83110428D02*
X157418143Y-83139000D01*
X157418143Y-83139000D02*
X157446714Y-83167571D01*
X157446714Y-83167571D02*
X157475286Y-83224714D01*
X157475286Y-83224714D02*
X157475286Y-83310428D01*
X157475286Y-83310428D02*
X157446714Y-83367571D01*
X157446714Y-83367571D02*
X157418143Y-83396142D01*
X157418143Y-83396142D02*
X157361000Y-83424714D01*
X157361000Y-83424714D02*
X157132429Y-83424714D01*
X158046714Y-83710428D02*
X157703857Y-83710428D01*
X157875286Y-83710428D02*
X157875286Y-83110428D01*
X157875286Y-83110428D02*
X157818143Y-83196142D01*
X157818143Y-83196142D02*
X157761000Y-83253285D01*
X157761000Y-83253285D02*
X157703857Y-83281857D01*
X158561000Y-83310428D02*
X158561000Y-83710428D01*
X158418142Y-83081857D02*
X158275285Y-83510428D01*
X158275285Y-83510428D02*
X158646714Y-83510428D01*
%TO.C,Q2*%
X167836858Y-99261571D02*
X167779715Y-99233000D01*
X167779715Y-99233000D02*
X167722572Y-99175857D01*
X167722572Y-99175857D02*
X167636858Y-99090142D01*
X167636858Y-99090142D02*
X167579715Y-99061571D01*
X167579715Y-99061571D02*
X167522572Y-99061571D01*
X167551143Y-99204428D02*
X167494001Y-99175857D01*
X167494001Y-99175857D02*
X167436858Y-99118714D01*
X167436858Y-99118714D02*
X167408286Y-99004428D01*
X167408286Y-99004428D02*
X167408286Y-98804428D01*
X167408286Y-98804428D02*
X167436858Y-98690142D01*
X167436858Y-98690142D02*
X167494001Y-98633000D01*
X167494001Y-98633000D02*
X167551143Y-98604428D01*
X167551143Y-98604428D02*
X167665429Y-98604428D01*
X167665429Y-98604428D02*
X167722572Y-98633000D01*
X167722572Y-98633000D02*
X167779715Y-98690142D01*
X167779715Y-98690142D02*
X167808286Y-98804428D01*
X167808286Y-98804428D02*
X167808286Y-99004428D01*
X167808286Y-99004428D02*
X167779715Y-99118714D01*
X167779715Y-99118714D02*
X167722572Y-99175857D01*
X167722572Y-99175857D02*
X167665429Y-99204428D01*
X167665429Y-99204428D02*
X167551143Y-99204428D01*
X168036857Y-98661571D02*
X168065429Y-98633000D01*
X168065429Y-98633000D02*
X168122572Y-98604428D01*
X168122572Y-98604428D02*
X168265429Y-98604428D01*
X168265429Y-98604428D02*
X168322572Y-98633000D01*
X168322572Y-98633000D02*
X168351143Y-98661571D01*
X168351143Y-98661571D02*
X168379714Y-98718714D01*
X168379714Y-98718714D02*
X168379714Y-98775857D01*
X168379714Y-98775857D02*
X168351143Y-98861571D01*
X168351143Y-98861571D02*
X168008286Y-99204428D01*
X168008286Y-99204428D02*
X168379714Y-99204428D01*
%TO.C,U1*%
X158165858Y-122480428D02*
X158165858Y-122966142D01*
X158165858Y-122966142D02*
X158194429Y-123023285D01*
X158194429Y-123023285D02*
X158223001Y-123051857D01*
X158223001Y-123051857D02*
X158280143Y-123080428D01*
X158280143Y-123080428D02*
X158394429Y-123080428D01*
X158394429Y-123080428D02*
X158451572Y-123051857D01*
X158451572Y-123051857D02*
X158480143Y-123023285D01*
X158480143Y-123023285D02*
X158508715Y-122966142D01*
X158508715Y-122966142D02*
X158508715Y-122480428D01*
X159108714Y-123080428D02*
X158765857Y-123080428D01*
X158937286Y-123080428D02*
X158937286Y-122480428D01*
X158937286Y-122480428D02*
X158880143Y-122566142D01*
X158880143Y-122566142D02*
X158823000Y-122623285D01*
X158823000Y-122623285D02*
X158765857Y-122651857D01*
%TO.C,Q3*%
X152088858Y-92657571D02*
X152031715Y-92629000D01*
X152031715Y-92629000D02*
X151974572Y-92571857D01*
X151974572Y-92571857D02*
X151888858Y-92486142D01*
X151888858Y-92486142D02*
X151831715Y-92457571D01*
X151831715Y-92457571D02*
X151774572Y-92457571D01*
X151803143Y-92600428D02*
X151746001Y-92571857D01*
X151746001Y-92571857D02*
X151688858Y-92514714D01*
X151688858Y-92514714D02*
X151660286Y-92400428D01*
X151660286Y-92400428D02*
X151660286Y-92200428D01*
X151660286Y-92200428D02*
X151688858Y-92086142D01*
X151688858Y-92086142D02*
X151746001Y-92029000D01*
X151746001Y-92029000D02*
X151803143Y-92000428D01*
X151803143Y-92000428D02*
X151917429Y-92000428D01*
X151917429Y-92000428D02*
X151974572Y-92029000D01*
X151974572Y-92029000D02*
X152031715Y-92086142D01*
X152031715Y-92086142D02*
X152060286Y-92200428D01*
X152060286Y-92200428D02*
X152060286Y-92400428D01*
X152060286Y-92400428D02*
X152031715Y-92514714D01*
X152031715Y-92514714D02*
X151974572Y-92571857D01*
X151974572Y-92571857D02*
X151917429Y-92600428D01*
X151917429Y-92600428D02*
X151803143Y-92600428D01*
X152260286Y-92000428D02*
X152631714Y-92000428D01*
X152631714Y-92000428D02*
X152431714Y-92229000D01*
X152431714Y-92229000D02*
X152517429Y-92229000D01*
X152517429Y-92229000D02*
X152574572Y-92257571D01*
X152574572Y-92257571D02*
X152603143Y-92286142D01*
X152603143Y-92286142D02*
X152631714Y-92343285D01*
X152631714Y-92343285D02*
X152631714Y-92486142D01*
X152631714Y-92486142D02*
X152603143Y-92543285D01*
X152603143Y-92543285D02*
X152574572Y-92571857D01*
X152574572Y-92571857D02*
X152517429Y-92600428D01*
X152517429Y-92600428D02*
X152346000Y-92600428D01*
X152346000Y-92600428D02*
X152288857Y-92571857D01*
X152288857Y-92571857D02*
X152260286Y-92543285D01*
%TO.C,R3*%
X158640428Y-113129999D02*
X158354714Y-113329999D01*
X158640428Y-113472856D02*
X158040428Y-113472856D01*
X158040428Y-113472856D02*
X158040428Y-113244285D01*
X158040428Y-113244285D02*
X158069000Y-113187142D01*
X158069000Y-113187142D02*
X158097571Y-113158571D01*
X158097571Y-113158571D02*
X158154714Y-113129999D01*
X158154714Y-113129999D02*
X158240428Y-113129999D01*
X158240428Y-113129999D02*
X158297571Y-113158571D01*
X158297571Y-113158571D02*
X158326142Y-113187142D01*
X158326142Y-113187142D02*
X158354714Y-113244285D01*
X158354714Y-113244285D02*
X158354714Y-113472856D01*
X158040428Y-112929999D02*
X158040428Y-112558571D01*
X158040428Y-112558571D02*
X158269000Y-112758571D01*
X158269000Y-112758571D02*
X158269000Y-112672856D01*
X158269000Y-112672856D02*
X158297571Y-112615714D01*
X158297571Y-112615714D02*
X158326142Y-112587142D01*
X158326142Y-112587142D02*
X158383285Y-112558571D01*
X158383285Y-112558571D02*
X158526142Y-112558571D01*
X158526142Y-112558571D02*
X158583285Y-112587142D01*
X158583285Y-112587142D02*
X158611857Y-112615714D01*
X158611857Y-112615714D02*
X158640428Y-112672856D01*
X158640428Y-112672856D02*
X158640428Y-112844285D01*
X158640428Y-112844285D02*
X158611857Y-112901428D01*
X158611857Y-112901428D02*
X158583285Y-112929999D01*
%TO.C,R10*%
X164333286Y-102252428D02*
X164133286Y-101966714D01*
X163990429Y-102252428D02*
X163990429Y-101652428D01*
X163990429Y-101652428D02*
X164219000Y-101652428D01*
X164219000Y-101652428D02*
X164276143Y-101681000D01*
X164276143Y-101681000D02*
X164304714Y-101709571D01*
X164304714Y-101709571D02*
X164333286Y-101766714D01*
X164333286Y-101766714D02*
X164333286Y-101852428D01*
X164333286Y-101852428D02*
X164304714Y-101909571D01*
X164304714Y-101909571D02*
X164276143Y-101938142D01*
X164276143Y-101938142D02*
X164219000Y-101966714D01*
X164219000Y-101966714D02*
X163990429Y-101966714D01*
X164904714Y-102252428D02*
X164561857Y-102252428D01*
X164733286Y-102252428D02*
X164733286Y-101652428D01*
X164733286Y-101652428D02*
X164676143Y-101738142D01*
X164676143Y-101738142D02*
X164619000Y-101795285D01*
X164619000Y-101795285D02*
X164561857Y-101823857D01*
X165276142Y-101652428D02*
X165333285Y-101652428D01*
X165333285Y-101652428D02*
X165390428Y-101681000D01*
X165390428Y-101681000D02*
X165419000Y-101709571D01*
X165419000Y-101709571D02*
X165447571Y-101766714D01*
X165447571Y-101766714D02*
X165476142Y-101881000D01*
X165476142Y-101881000D02*
X165476142Y-102023857D01*
X165476142Y-102023857D02*
X165447571Y-102138142D01*
X165447571Y-102138142D02*
X165419000Y-102195285D01*
X165419000Y-102195285D02*
X165390428Y-102223857D01*
X165390428Y-102223857D02*
X165333285Y-102252428D01*
X165333285Y-102252428D02*
X165276142Y-102252428D01*
X165276142Y-102252428D02*
X165219000Y-102223857D01*
X165219000Y-102223857D02*
X165190428Y-102195285D01*
X165190428Y-102195285D02*
X165161857Y-102138142D01*
X165161857Y-102138142D02*
X165133285Y-102023857D01*
X165133285Y-102023857D02*
X165133285Y-101881000D01*
X165133285Y-101881000D02*
X165161857Y-101766714D01*
X165161857Y-101766714D02*
X165190428Y-101709571D01*
X165190428Y-101709571D02*
X165219000Y-101681000D01*
X165219000Y-101681000D02*
X165276142Y-101652428D01*
%TO.C,Q6*%
X152596858Y-107389571D02*
X152539715Y-107361000D01*
X152539715Y-107361000D02*
X152482572Y-107303857D01*
X152482572Y-107303857D02*
X152396858Y-107218142D01*
X152396858Y-107218142D02*
X152339715Y-107189571D01*
X152339715Y-107189571D02*
X152282572Y-107189571D01*
X152311143Y-107332428D02*
X152254001Y-107303857D01*
X152254001Y-107303857D02*
X152196858Y-107246714D01*
X152196858Y-107246714D02*
X152168286Y-107132428D01*
X152168286Y-107132428D02*
X152168286Y-106932428D01*
X152168286Y-106932428D02*
X152196858Y-106818142D01*
X152196858Y-106818142D02*
X152254001Y-106761000D01*
X152254001Y-106761000D02*
X152311143Y-106732428D01*
X152311143Y-106732428D02*
X152425429Y-106732428D01*
X152425429Y-106732428D02*
X152482572Y-106761000D01*
X152482572Y-106761000D02*
X152539715Y-106818142D01*
X152539715Y-106818142D02*
X152568286Y-106932428D01*
X152568286Y-106932428D02*
X152568286Y-107132428D01*
X152568286Y-107132428D02*
X152539715Y-107246714D01*
X152539715Y-107246714D02*
X152482572Y-107303857D01*
X152482572Y-107303857D02*
X152425429Y-107332428D01*
X152425429Y-107332428D02*
X152311143Y-107332428D01*
X153082572Y-106732428D02*
X152968286Y-106732428D01*
X152968286Y-106732428D02*
X152911143Y-106761000D01*
X152911143Y-106761000D02*
X152882572Y-106789571D01*
X152882572Y-106789571D02*
X152825429Y-106875285D01*
X152825429Y-106875285D02*
X152796857Y-106989571D01*
X152796857Y-106989571D02*
X152796857Y-107218142D01*
X152796857Y-107218142D02*
X152825429Y-107275285D01*
X152825429Y-107275285D02*
X152854000Y-107303857D01*
X152854000Y-107303857D02*
X152911143Y-107332428D01*
X152911143Y-107332428D02*
X153025429Y-107332428D01*
X153025429Y-107332428D02*
X153082572Y-107303857D01*
X153082572Y-107303857D02*
X153111143Y-107275285D01*
X153111143Y-107275285D02*
X153139714Y-107218142D01*
X153139714Y-107218142D02*
X153139714Y-107075285D01*
X153139714Y-107075285D02*
X153111143Y-107018142D01*
X153111143Y-107018142D02*
X153082572Y-106989571D01*
X153082572Y-106989571D02*
X153025429Y-106961000D01*
X153025429Y-106961000D02*
X152911143Y-106961000D01*
X152911143Y-106961000D02*
X152854000Y-106989571D01*
X152854000Y-106989571D02*
X152825429Y-107018142D01*
X152825429Y-107018142D02*
X152796857Y-107075285D01*
%TO.C,D2*%
X152592143Y-96791428D02*
X152592143Y-96191428D01*
X152592143Y-96191428D02*
X152735000Y-96191428D01*
X152735000Y-96191428D02*
X152820714Y-96220000D01*
X152820714Y-96220000D02*
X152877857Y-96277142D01*
X152877857Y-96277142D02*
X152906428Y-96334285D01*
X152906428Y-96334285D02*
X152935000Y-96448571D01*
X152935000Y-96448571D02*
X152935000Y-96534285D01*
X152935000Y-96534285D02*
X152906428Y-96648571D01*
X152906428Y-96648571D02*
X152877857Y-96705714D01*
X152877857Y-96705714D02*
X152820714Y-96762857D01*
X152820714Y-96762857D02*
X152735000Y-96791428D01*
X152735000Y-96791428D02*
X152592143Y-96791428D01*
X153163571Y-96248571D02*
X153192143Y-96220000D01*
X153192143Y-96220000D02*
X153249286Y-96191428D01*
X153249286Y-96191428D02*
X153392143Y-96191428D01*
X153392143Y-96191428D02*
X153449286Y-96220000D01*
X153449286Y-96220000D02*
X153477857Y-96248571D01*
X153477857Y-96248571D02*
X153506428Y-96305714D01*
X153506428Y-96305714D02*
X153506428Y-96362857D01*
X153506428Y-96362857D02*
X153477857Y-96448571D01*
X153477857Y-96448571D02*
X153135000Y-96791428D01*
X153135000Y-96791428D02*
X153506428Y-96791428D01*
%TO.C,R11*%
X159910428Y-91952713D02*
X159624714Y-92152713D01*
X159910428Y-92295570D02*
X159310428Y-92295570D01*
X159310428Y-92295570D02*
X159310428Y-92066999D01*
X159310428Y-92066999D02*
X159339000Y-92009856D01*
X159339000Y-92009856D02*
X159367571Y-91981285D01*
X159367571Y-91981285D02*
X159424714Y-91952713D01*
X159424714Y-91952713D02*
X159510428Y-91952713D01*
X159510428Y-91952713D02*
X159567571Y-91981285D01*
X159567571Y-91981285D02*
X159596142Y-92009856D01*
X159596142Y-92009856D02*
X159624714Y-92066999D01*
X159624714Y-92066999D02*
X159624714Y-92295570D01*
X159910428Y-91381285D02*
X159910428Y-91724142D01*
X159910428Y-91552713D02*
X159310428Y-91552713D01*
X159310428Y-91552713D02*
X159396142Y-91609856D01*
X159396142Y-91609856D02*
X159453285Y-91666999D01*
X159453285Y-91666999D02*
X159481857Y-91724142D01*
X159910428Y-90809857D02*
X159910428Y-91152714D01*
X159910428Y-90981285D02*
X159310428Y-90981285D01*
X159310428Y-90981285D02*
X159396142Y-91038428D01*
X159396142Y-91038428D02*
X159453285Y-91095571D01*
X159453285Y-91095571D02*
X159481857Y-91152714D01*
%TO.C,TP1*%
X151388857Y-105589428D02*
X151731715Y-105589428D01*
X151560286Y-106189428D02*
X151560286Y-105589428D01*
X151931714Y-106189428D02*
X151931714Y-105589428D01*
X151931714Y-105589428D02*
X152160285Y-105589428D01*
X152160285Y-105589428D02*
X152217428Y-105618000D01*
X152217428Y-105618000D02*
X152245999Y-105646571D01*
X152245999Y-105646571D02*
X152274571Y-105703714D01*
X152274571Y-105703714D02*
X152274571Y-105789428D01*
X152274571Y-105789428D02*
X152245999Y-105846571D01*
X152245999Y-105846571D02*
X152217428Y-105875142D01*
X152217428Y-105875142D02*
X152160285Y-105903714D01*
X152160285Y-105903714D02*
X151931714Y-105903714D01*
X152845999Y-106189428D02*
X152503142Y-106189428D01*
X152674571Y-106189428D02*
X152674571Y-105589428D01*
X152674571Y-105589428D02*
X152617428Y-105675142D01*
X152617428Y-105675142D02*
X152560285Y-105732285D01*
X152560285Y-105732285D02*
X152503142Y-105760857D01*
%TO.C,R9*%
X164746000Y-99966428D02*
X164546000Y-99680714D01*
X164403143Y-99966428D02*
X164403143Y-99366428D01*
X164403143Y-99366428D02*
X164631714Y-99366428D01*
X164631714Y-99366428D02*
X164688857Y-99395000D01*
X164688857Y-99395000D02*
X164717428Y-99423571D01*
X164717428Y-99423571D02*
X164746000Y-99480714D01*
X164746000Y-99480714D02*
X164746000Y-99566428D01*
X164746000Y-99566428D02*
X164717428Y-99623571D01*
X164717428Y-99623571D02*
X164688857Y-99652142D01*
X164688857Y-99652142D02*
X164631714Y-99680714D01*
X164631714Y-99680714D02*
X164403143Y-99680714D01*
X165031714Y-99966428D02*
X165146000Y-99966428D01*
X165146000Y-99966428D02*
X165203143Y-99937857D01*
X165203143Y-99937857D02*
X165231714Y-99909285D01*
X165231714Y-99909285D02*
X165288857Y-99823571D01*
X165288857Y-99823571D02*
X165317428Y-99709285D01*
X165317428Y-99709285D02*
X165317428Y-99480714D01*
X165317428Y-99480714D02*
X165288857Y-99423571D01*
X165288857Y-99423571D02*
X165260286Y-99395000D01*
X165260286Y-99395000D02*
X165203143Y-99366428D01*
X165203143Y-99366428D02*
X165088857Y-99366428D01*
X165088857Y-99366428D02*
X165031714Y-99395000D01*
X165031714Y-99395000D02*
X165003143Y-99423571D01*
X165003143Y-99423571D02*
X164974571Y-99480714D01*
X164974571Y-99480714D02*
X164974571Y-99623571D01*
X164974571Y-99623571D02*
X165003143Y-99680714D01*
X165003143Y-99680714D02*
X165031714Y-99709285D01*
X165031714Y-99709285D02*
X165088857Y-99737857D01*
X165088857Y-99737857D02*
X165203143Y-99737857D01*
X165203143Y-99737857D02*
X165260286Y-99709285D01*
X165260286Y-99709285D02*
X165288857Y-99680714D01*
X165288857Y-99680714D02*
X165317428Y-99623571D01*
%TO.C,R5*%
X154449428Y-113002999D02*
X154163714Y-113202999D01*
X154449428Y-113345856D02*
X153849428Y-113345856D01*
X153849428Y-113345856D02*
X153849428Y-113117285D01*
X153849428Y-113117285D02*
X153878000Y-113060142D01*
X153878000Y-113060142D02*
X153906571Y-113031571D01*
X153906571Y-113031571D02*
X153963714Y-113002999D01*
X153963714Y-113002999D02*
X154049428Y-113002999D01*
X154049428Y-113002999D02*
X154106571Y-113031571D01*
X154106571Y-113031571D02*
X154135142Y-113060142D01*
X154135142Y-113060142D02*
X154163714Y-113117285D01*
X154163714Y-113117285D02*
X154163714Y-113345856D01*
X153849428Y-112460142D02*
X153849428Y-112745856D01*
X153849428Y-112745856D02*
X154135142Y-112774428D01*
X154135142Y-112774428D02*
X154106571Y-112745856D01*
X154106571Y-112745856D02*
X154078000Y-112688714D01*
X154078000Y-112688714D02*
X154078000Y-112545856D01*
X154078000Y-112545856D02*
X154106571Y-112488714D01*
X154106571Y-112488714D02*
X154135142Y-112460142D01*
X154135142Y-112460142D02*
X154192285Y-112431571D01*
X154192285Y-112431571D02*
X154335142Y-112431571D01*
X154335142Y-112431571D02*
X154392285Y-112460142D01*
X154392285Y-112460142D02*
X154420857Y-112488714D01*
X154420857Y-112488714D02*
X154449428Y-112545856D01*
X154449428Y-112545856D02*
X154449428Y-112688714D01*
X154449428Y-112688714D02*
X154420857Y-112745856D01*
X154420857Y-112745856D02*
X154392285Y-112774428D01*
%TO.C,U2*%
X157913428Y-115519141D02*
X158399142Y-115519141D01*
X158399142Y-115519141D02*
X158456285Y-115490570D01*
X158456285Y-115490570D02*
X158484857Y-115461999D01*
X158484857Y-115461999D02*
X158513428Y-115404856D01*
X158513428Y-115404856D02*
X158513428Y-115290570D01*
X158513428Y-115290570D02*
X158484857Y-115233427D01*
X158484857Y-115233427D02*
X158456285Y-115204856D01*
X158456285Y-115204856D02*
X158399142Y-115176284D01*
X158399142Y-115176284D02*
X157913428Y-115176284D01*
X157970571Y-114919142D02*
X157942000Y-114890570D01*
X157942000Y-114890570D02*
X157913428Y-114833428D01*
X157913428Y-114833428D02*
X157913428Y-114690570D01*
X157913428Y-114690570D02*
X157942000Y-114633428D01*
X157942000Y-114633428D02*
X157970571Y-114604856D01*
X157970571Y-114604856D02*
X158027714Y-114576285D01*
X158027714Y-114576285D02*
X158084857Y-114576285D01*
X158084857Y-114576285D02*
X158170571Y-114604856D01*
X158170571Y-114604856D02*
X158513428Y-114947713D01*
X158513428Y-114947713D02*
X158513428Y-114576285D01*
%TO.C,Q5*%
X160089858Y-102436571D02*
X160032715Y-102408000D01*
X160032715Y-102408000D02*
X159975572Y-102350857D01*
X159975572Y-102350857D02*
X159889858Y-102265142D01*
X159889858Y-102265142D02*
X159832715Y-102236571D01*
X159832715Y-102236571D02*
X159775572Y-102236571D01*
X159804143Y-102379428D02*
X159747001Y-102350857D01*
X159747001Y-102350857D02*
X159689858Y-102293714D01*
X159689858Y-102293714D02*
X159661286Y-102179428D01*
X159661286Y-102179428D02*
X159661286Y-101979428D01*
X159661286Y-101979428D02*
X159689858Y-101865142D01*
X159689858Y-101865142D02*
X159747001Y-101808000D01*
X159747001Y-101808000D02*
X159804143Y-101779428D01*
X159804143Y-101779428D02*
X159918429Y-101779428D01*
X159918429Y-101779428D02*
X159975572Y-101808000D01*
X159975572Y-101808000D02*
X160032715Y-101865142D01*
X160032715Y-101865142D02*
X160061286Y-101979428D01*
X160061286Y-101979428D02*
X160061286Y-102179428D01*
X160061286Y-102179428D02*
X160032715Y-102293714D01*
X160032715Y-102293714D02*
X159975572Y-102350857D01*
X159975572Y-102350857D02*
X159918429Y-102379428D01*
X159918429Y-102379428D02*
X159804143Y-102379428D01*
X160604143Y-101779428D02*
X160318429Y-101779428D01*
X160318429Y-101779428D02*
X160289857Y-102065142D01*
X160289857Y-102065142D02*
X160318429Y-102036571D01*
X160318429Y-102036571D02*
X160375572Y-102008000D01*
X160375572Y-102008000D02*
X160518429Y-102008000D01*
X160518429Y-102008000D02*
X160575572Y-102036571D01*
X160575572Y-102036571D02*
X160604143Y-102065142D01*
X160604143Y-102065142D02*
X160632714Y-102122285D01*
X160632714Y-102122285D02*
X160632714Y-102265142D01*
X160632714Y-102265142D02*
X160604143Y-102322285D01*
X160604143Y-102322285D02*
X160575572Y-102350857D01*
X160575572Y-102350857D02*
X160518429Y-102379428D01*
X160518429Y-102379428D02*
X160375572Y-102379428D01*
X160375572Y-102379428D02*
X160318429Y-102350857D01*
X160318429Y-102350857D02*
X160289857Y-102322285D01*
%TO.C,R4*%
X156100428Y-105763999D02*
X155814714Y-105963999D01*
X156100428Y-106106856D02*
X155500428Y-106106856D01*
X155500428Y-106106856D02*
X155500428Y-105878285D01*
X155500428Y-105878285D02*
X155529000Y-105821142D01*
X155529000Y-105821142D02*
X155557571Y-105792571D01*
X155557571Y-105792571D02*
X155614714Y-105763999D01*
X155614714Y-105763999D02*
X155700428Y-105763999D01*
X155700428Y-105763999D02*
X155757571Y-105792571D01*
X155757571Y-105792571D02*
X155786142Y-105821142D01*
X155786142Y-105821142D02*
X155814714Y-105878285D01*
X155814714Y-105878285D02*
X155814714Y-106106856D01*
X155700428Y-105249714D02*
X156100428Y-105249714D01*
X155471857Y-105392571D02*
X155900428Y-105535428D01*
X155900428Y-105535428D02*
X155900428Y-105163999D01*
%TO.C,R12*%
X159634286Y-94124428D02*
X159434286Y-93838714D01*
X159291429Y-94124428D02*
X159291429Y-93524428D01*
X159291429Y-93524428D02*
X159520000Y-93524428D01*
X159520000Y-93524428D02*
X159577143Y-93553000D01*
X159577143Y-93553000D02*
X159605714Y-93581571D01*
X159605714Y-93581571D02*
X159634286Y-93638714D01*
X159634286Y-93638714D02*
X159634286Y-93724428D01*
X159634286Y-93724428D02*
X159605714Y-93781571D01*
X159605714Y-93781571D02*
X159577143Y-93810142D01*
X159577143Y-93810142D02*
X159520000Y-93838714D01*
X159520000Y-93838714D02*
X159291429Y-93838714D01*
X160205714Y-94124428D02*
X159862857Y-94124428D01*
X160034286Y-94124428D02*
X160034286Y-93524428D01*
X160034286Y-93524428D02*
X159977143Y-93610142D01*
X159977143Y-93610142D02*
X159920000Y-93667285D01*
X159920000Y-93667285D02*
X159862857Y-93695857D01*
X160434285Y-93581571D02*
X160462857Y-93553000D01*
X160462857Y-93553000D02*
X160520000Y-93524428D01*
X160520000Y-93524428D02*
X160662857Y-93524428D01*
X160662857Y-93524428D02*
X160720000Y-93553000D01*
X160720000Y-93553000D02*
X160748571Y-93581571D01*
X160748571Y-93581571D02*
X160777142Y-93638714D01*
X160777142Y-93638714D02*
X160777142Y-93695857D01*
X160777142Y-93695857D02*
X160748571Y-93781571D01*
X160748571Y-93781571D02*
X160405714Y-94124428D01*
X160405714Y-94124428D02*
X160777142Y-94124428D01*
%TO.C,R7*%
X155983000Y-92473428D02*
X155783000Y-92187714D01*
X155640143Y-92473428D02*
X155640143Y-91873428D01*
X155640143Y-91873428D02*
X155868714Y-91873428D01*
X155868714Y-91873428D02*
X155925857Y-91902000D01*
X155925857Y-91902000D02*
X155954428Y-91930571D01*
X155954428Y-91930571D02*
X155983000Y-91987714D01*
X155983000Y-91987714D02*
X155983000Y-92073428D01*
X155983000Y-92073428D02*
X155954428Y-92130571D01*
X155954428Y-92130571D02*
X155925857Y-92159142D01*
X155925857Y-92159142D02*
X155868714Y-92187714D01*
X155868714Y-92187714D02*
X155640143Y-92187714D01*
X156183000Y-91873428D02*
X156583000Y-91873428D01*
X156583000Y-91873428D02*
X156325857Y-92473428D01*
%TO.C,TP2*%
X162945857Y-105589428D02*
X163288715Y-105589428D01*
X163117286Y-106189428D02*
X163117286Y-105589428D01*
X163488714Y-106189428D02*
X163488714Y-105589428D01*
X163488714Y-105589428D02*
X163717285Y-105589428D01*
X163717285Y-105589428D02*
X163774428Y-105618000D01*
X163774428Y-105618000D02*
X163802999Y-105646571D01*
X163802999Y-105646571D02*
X163831571Y-105703714D01*
X163831571Y-105703714D02*
X163831571Y-105789428D01*
X163831571Y-105789428D02*
X163802999Y-105846571D01*
X163802999Y-105846571D02*
X163774428Y-105875142D01*
X163774428Y-105875142D02*
X163717285Y-105903714D01*
X163717285Y-105903714D02*
X163488714Y-105903714D01*
X164060142Y-105646571D02*
X164088714Y-105618000D01*
X164088714Y-105618000D02*
X164145857Y-105589428D01*
X164145857Y-105589428D02*
X164288714Y-105589428D01*
X164288714Y-105589428D02*
X164345857Y-105618000D01*
X164345857Y-105618000D02*
X164374428Y-105646571D01*
X164374428Y-105646571D02*
X164402999Y-105703714D01*
X164402999Y-105703714D02*
X164402999Y-105760857D01*
X164402999Y-105760857D02*
X164374428Y-105846571D01*
X164374428Y-105846571D02*
X164031571Y-106189428D01*
X164031571Y-106189428D02*
X164402999Y-106189428D01*
%TO.C,C1*%
X154840000Y-85906285D02*
X154811428Y-85934857D01*
X154811428Y-85934857D02*
X154725714Y-85963428D01*
X154725714Y-85963428D02*
X154668571Y-85963428D01*
X154668571Y-85963428D02*
X154582857Y-85934857D01*
X154582857Y-85934857D02*
X154525714Y-85877714D01*
X154525714Y-85877714D02*
X154497143Y-85820571D01*
X154497143Y-85820571D02*
X154468571Y-85706285D01*
X154468571Y-85706285D02*
X154468571Y-85620571D01*
X154468571Y-85620571D02*
X154497143Y-85506285D01*
X154497143Y-85506285D02*
X154525714Y-85449142D01*
X154525714Y-85449142D02*
X154582857Y-85392000D01*
X154582857Y-85392000D02*
X154668571Y-85363428D01*
X154668571Y-85363428D02*
X154725714Y-85363428D01*
X154725714Y-85363428D02*
X154811428Y-85392000D01*
X154811428Y-85392000D02*
X154840000Y-85420571D01*
X155411428Y-85963428D02*
X155068571Y-85963428D01*
X155240000Y-85963428D02*
X155240000Y-85363428D01*
X155240000Y-85363428D02*
X155182857Y-85449142D01*
X155182857Y-85449142D02*
X155125714Y-85506285D01*
X155125714Y-85506285D02*
X155068571Y-85534857D01*
%TO.C,R2*%
X160799428Y-105763999D02*
X160513714Y-105963999D01*
X160799428Y-106106856D02*
X160199428Y-106106856D01*
X160199428Y-106106856D02*
X160199428Y-105878285D01*
X160199428Y-105878285D02*
X160228000Y-105821142D01*
X160228000Y-105821142D02*
X160256571Y-105792571D01*
X160256571Y-105792571D02*
X160313714Y-105763999D01*
X160313714Y-105763999D02*
X160399428Y-105763999D01*
X160399428Y-105763999D02*
X160456571Y-105792571D01*
X160456571Y-105792571D02*
X160485142Y-105821142D01*
X160485142Y-105821142D02*
X160513714Y-105878285D01*
X160513714Y-105878285D02*
X160513714Y-106106856D01*
X160256571Y-105535428D02*
X160228000Y-105506856D01*
X160228000Y-105506856D02*
X160199428Y-105449714D01*
X160199428Y-105449714D02*
X160199428Y-105306856D01*
X160199428Y-105306856D02*
X160228000Y-105249714D01*
X160228000Y-105249714D02*
X160256571Y-105221142D01*
X160256571Y-105221142D02*
X160313714Y-105192571D01*
X160313714Y-105192571D02*
X160370857Y-105192571D01*
X160370857Y-105192571D02*
X160456571Y-105221142D01*
X160456571Y-105221142D02*
X160799428Y-105563999D01*
X160799428Y-105563999D02*
X160799428Y-105192571D01*
%TO.C,Q4*%
X150437858Y-96467571D02*
X150380715Y-96439000D01*
X150380715Y-96439000D02*
X150323572Y-96381857D01*
X150323572Y-96381857D02*
X150237858Y-96296142D01*
X150237858Y-96296142D02*
X150180715Y-96267571D01*
X150180715Y-96267571D02*
X150123572Y-96267571D01*
X150152143Y-96410428D02*
X150095001Y-96381857D01*
X150095001Y-96381857D02*
X150037858Y-96324714D01*
X150037858Y-96324714D02*
X150009286Y-96210428D01*
X150009286Y-96210428D02*
X150009286Y-96010428D01*
X150009286Y-96010428D02*
X150037858Y-95896142D01*
X150037858Y-95896142D02*
X150095001Y-95839000D01*
X150095001Y-95839000D02*
X150152143Y-95810428D01*
X150152143Y-95810428D02*
X150266429Y-95810428D01*
X150266429Y-95810428D02*
X150323572Y-95839000D01*
X150323572Y-95839000D02*
X150380715Y-95896142D01*
X150380715Y-95896142D02*
X150409286Y-96010428D01*
X150409286Y-96010428D02*
X150409286Y-96210428D01*
X150409286Y-96210428D02*
X150380715Y-96324714D01*
X150380715Y-96324714D02*
X150323572Y-96381857D01*
X150323572Y-96381857D02*
X150266429Y-96410428D01*
X150266429Y-96410428D02*
X150152143Y-96410428D01*
X150923572Y-96010428D02*
X150923572Y-96410428D01*
X150780714Y-95781857D02*
X150637857Y-96210428D01*
X150637857Y-96210428D02*
X151009286Y-96210428D01*
%TO.C,R6*%
X158640428Y-109319999D02*
X158354714Y-109519999D01*
X158640428Y-109662856D02*
X158040428Y-109662856D01*
X158040428Y-109662856D02*
X158040428Y-109434285D01*
X158040428Y-109434285D02*
X158069000Y-109377142D01*
X158069000Y-109377142D02*
X158097571Y-109348571D01*
X158097571Y-109348571D02*
X158154714Y-109319999D01*
X158154714Y-109319999D02*
X158240428Y-109319999D01*
X158240428Y-109319999D02*
X158297571Y-109348571D01*
X158297571Y-109348571D02*
X158326142Y-109377142D01*
X158326142Y-109377142D02*
X158354714Y-109434285D01*
X158354714Y-109434285D02*
X158354714Y-109662856D01*
X158040428Y-108805714D02*
X158040428Y-108919999D01*
X158040428Y-108919999D02*
X158069000Y-108977142D01*
X158069000Y-108977142D02*
X158097571Y-109005714D01*
X158097571Y-109005714D02*
X158183285Y-109062856D01*
X158183285Y-109062856D02*
X158297571Y-109091428D01*
X158297571Y-109091428D02*
X158526142Y-109091428D01*
X158526142Y-109091428D02*
X158583285Y-109062856D01*
X158583285Y-109062856D02*
X158611857Y-109034285D01*
X158611857Y-109034285D02*
X158640428Y-108977142D01*
X158640428Y-108977142D02*
X158640428Y-108862856D01*
X158640428Y-108862856D02*
X158611857Y-108805714D01*
X158611857Y-108805714D02*
X158583285Y-108777142D01*
X158583285Y-108777142D02*
X158526142Y-108748571D01*
X158526142Y-108748571D02*
X158383285Y-108748571D01*
X158383285Y-108748571D02*
X158326142Y-108777142D01*
X158326142Y-108777142D02*
X158297571Y-108805714D01*
X158297571Y-108805714D02*
X158269000Y-108862856D01*
X158269000Y-108862856D02*
X158269000Y-108977142D01*
X158269000Y-108977142D02*
X158297571Y-109034285D01*
X158297571Y-109034285D02*
X158326142Y-109062856D01*
X158326142Y-109062856D02*
X158383285Y-109091428D01*
%TO.C,R8*%
X162587000Y-96283428D02*
X162387000Y-95997714D01*
X162244143Y-96283428D02*
X162244143Y-95683428D01*
X162244143Y-95683428D02*
X162472714Y-95683428D01*
X162472714Y-95683428D02*
X162529857Y-95712000D01*
X162529857Y-95712000D02*
X162558428Y-95740571D01*
X162558428Y-95740571D02*
X162587000Y-95797714D01*
X162587000Y-95797714D02*
X162587000Y-95883428D01*
X162587000Y-95883428D02*
X162558428Y-95940571D01*
X162558428Y-95940571D02*
X162529857Y-95969142D01*
X162529857Y-95969142D02*
X162472714Y-95997714D01*
X162472714Y-95997714D02*
X162244143Y-95997714D01*
X162929857Y-95940571D02*
X162872714Y-95912000D01*
X162872714Y-95912000D02*
X162844143Y-95883428D01*
X162844143Y-95883428D02*
X162815571Y-95826285D01*
X162815571Y-95826285D02*
X162815571Y-95797714D01*
X162815571Y-95797714D02*
X162844143Y-95740571D01*
X162844143Y-95740571D02*
X162872714Y-95712000D01*
X162872714Y-95712000D02*
X162929857Y-95683428D01*
X162929857Y-95683428D02*
X163044143Y-95683428D01*
X163044143Y-95683428D02*
X163101286Y-95712000D01*
X163101286Y-95712000D02*
X163129857Y-95740571D01*
X163129857Y-95740571D02*
X163158428Y-95797714D01*
X163158428Y-95797714D02*
X163158428Y-95826285D01*
X163158428Y-95826285D02*
X163129857Y-95883428D01*
X163129857Y-95883428D02*
X163101286Y-95912000D01*
X163101286Y-95912000D02*
X163044143Y-95940571D01*
X163044143Y-95940571D02*
X162929857Y-95940571D01*
X162929857Y-95940571D02*
X162872714Y-95969142D01*
X162872714Y-95969142D02*
X162844143Y-95997714D01*
X162844143Y-95997714D02*
X162815571Y-96054857D01*
X162815571Y-96054857D02*
X162815571Y-96169142D01*
X162815571Y-96169142D02*
X162844143Y-96226285D01*
X162844143Y-96226285D02*
X162872714Y-96254857D01*
X162872714Y-96254857D02*
X162929857Y-96283428D01*
X162929857Y-96283428D02*
X163044143Y-96283428D01*
X163044143Y-96283428D02*
X163101286Y-96254857D01*
X163101286Y-96254857D02*
X163129857Y-96226285D01*
X163129857Y-96226285D02*
X163158428Y-96169142D01*
X163158428Y-96169142D02*
X163158428Y-96054857D01*
X163158428Y-96054857D02*
X163129857Y-95997714D01*
X163129857Y-95997714D02*
X163101286Y-95969142D01*
X163101286Y-95969142D02*
X163044143Y-95940571D01*
%TO.C,BT1*%
X170384572Y-121115142D02*
X170470286Y-121143714D01*
X170470286Y-121143714D02*
X170498857Y-121172285D01*
X170498857Y-121172285D02*
X170527429Y-121229428D01*
X170527429Y-121229428D02*
X170527429Y-121315142D01*
X170527429Y-121315142D02*
X170498857Y-121372285D01*
X170498857Y-121372285D02*
X170470286Y-121400857D01*
X170470286Y-121400857D02*
X170413143Y-121429428D01*
X170413143Y-121429428D02*
X170184572Y-121429428D01*
X170184572Y-121429428D02*
X170184572Y-120829428D01*
X170184572Y-120829428D02*
X170384572Y-120829428D01*
X170384572Y-120829428D02*
X170441715Y-120858000D01*
X170441715Y-120858000D02*
X170470286Y-120886571D01*
X170470286Y-120886571D02*
X170498857Y-120943714D01*
X170498857Y-120943714D02*
X170498857Y-121000857D01*
X170498857Y-121000857D02*
X170470286Y-121058000D01*
X170470286Y-121058000D02*
X170441715Y-121086571D01*
X170441715Y-121086571D02*
X170384572Y-121115142D01*
X170384572Y-121115142D02*
X170184572Y-121115142D01*
X170698857Y-120829428D02*
X171041715Y-120829428D01*
X170870286Y-121429428D02*
X170870286Y-120829428D01*
X171555999Y-121429428D02*
X171213142Y-121429428D01*
X171384571Y-121429428D02*
X171384571Y-120829428D01*
X171384571Y-120829428D02*
X171327428Y-120915142D01*
X171327428Y-120915142D02*
X171270285Y-120972285D01*
X171270285Y-120972285D02*
X171213142Y-121000857D01*
%TO.C,Q1*%
X160089858Y-90117571D02*
X160032715Y-90089000D01*
X160032715Y-90089000D02*
X159975572Y-90031857D01*
X159975572Y-90031857D02*
X159889858Y-89946142D01*
X159889858Y-89946142D02*
X159832715Y-89917571D01*
X159832715Y-89917571D02*
X159775572Y-89917571D01*
X159804143Y-90060428D02*
X159747001Y-90031857D01*
X159747001Y-90031857D02*
X159689858Y-89974714D01*
X159689858Y-89974714D02*
X159661286Y-89860428D01*
X159661286Y-89860428D02*
X159661286Y-89660428D01*
X159661286Y-89660428D02*
X159689858Y-89546142D01*
X159689858Y-89546142D02*
X159747001Y-89489000D01*
X159747001Y-89489000D02*
X159804143Y-89460428D01*
X159804143Y-89460428D02*
X159918429Y-89460428D01*
X159918429Y-89460428D02*
X159975572Y-89489000D01*
X159975572Y-89489000D02*
X160032715Y-89546142D01*
X160032715Y-89546142D02*
X160061286Y-89660428D01*
X160061286Y-89660428D02*
X160061286Y-89860428D01*
X160061286Y-89860428D02*
X160032715Y-89974714D01*
X160032715Y-89974714D02*
X159975572Y-90031857D01*
X159975572Y-90031857D02*
X159918429Y-90060428D01*
X159918429Y-90060428D02*
X159804143Y-90060428D01*
X160632714Y-90060428D02*
X160289857Y-90060428D01*
X160461286Y-90060428D02*
X160461286Y-89460428D01*
X160461286Y-89460428D02*
X160404143Y-89546142D01*
X160404143Y-89546142D02*
X160347000Y-89603285D01*
X160347000Y-89603285D02*
X160289857Y-89631857D01*
%TO.C,D1*%
X154751143Y-96791428D02*
X154751143Y-96191428D01*
X154751143Y-96191428D02*
X154894000Y-96191428D01*
X154894000Y-96191428D02*
X154979714Y-96220000D01*
X154979714Y-96220000D02*
X155036857Y-96277142D01*
X155036857Y-96277142D02*
X155065428Y-96334285D01*
X155065428Y-96334285D02*
X155094000Y-96448571D01*
X155094000Y-96448571D02*
X155094000Y-96534285D01*
X155094000Y-96534285D02*
X155065428Y-96648571D01*
X155065428Y-96648571D02*
X155036857Y-96705714D01*
X155036857Y-96705714D02*
X154979714Y-96762857D01*
X154979714Y-96762857D02*
X154894000Y-96791428D01*
X154894000Y-96791428D02*
X154751143Y-96791428D01*
X155665428Y-96791428D02*
X155322571Y-96791428D01*
X155494000Y-96791428D02*
X155494000Y-96191428D01*
X155494000Y-96191428D02*
X155436857Y-96277142D01*
X155436857Y-96277142D02*
X155379714Y-96334285D01*
X155379714Y-96334285D02*
X155322571Y-96362857D01*
%TO.C,C3*%
X154332000Y-92670285D02*
X154303428Y-92698857D01*
X154303428Y-92698857D02*
X154217714Y-92727428D01*
X154217714Y-92727428D02*
X154160571Y-92727428D01*
X154160571Y-92727428D02*
X154074857Y-92698857D01*
X154074857Y-92698857D02*
X154017714Y-92641714D01*
X154017714Y-92641714D02*
X153989143Y-92584571D01*
X153989143Y-92584571D02*
X153960571Y-92470285D01*
X153960571Y-92470285D02*
X153960571Y-92384571D01*
X153960571Y-92384571D02*
X153989143Y-92270285D01*
X153989143Y-92270285D02*
X154017714Y-92213142D01*
X154017714Y-92213142D02*
X154074857Y-92156000D01*
X154074857Y-92156000D02*
X154160571Y-92127428D01*
X154160571Y-92127428D02*
X154217714Y-92127428D01*
X154217714Y-92127428D02*
X154303428Y-92156000D01*
X154303428Y-92156000D02*
X154332000Y-92184571D01*
X154532000Y-92127428D02*
X154903428Y-92127428D01*
X154903428Y-92127428D02*
X154703428Y-92356000D01*
X154703428Y-92356000D02*
X154789143Y-92356000D01*
X154789143Y-92356000D02*
X154846286Y-92384571D01*
X154846286Y-92384571D02*
X154874857Y-92413142D01*
X154874857Y-92413142D02*
X154903428Y-92470285D01*
X154903428Y-92470285D02*
X154903428Y-92613142D01*
X154903428Y-92613142D02*
X154874857Y-92670285D01*
X154874857Y-92670285D02*
X154846286Y-92698857D01*
X154846286Y-92698857D02*
X154789143Y-92727428D01*
X154789143Y-92727428D02*
X154617714Y-92727428D01*
X154617714Y-92727428D02*
X154560571Y-92698857D01*
X154560571Y-92698857D02*
X154532000Y-92670285D01*
%TO.C,C2*%
X157059285Y-97254999D02*
X157087857Y-97283571D01*
X157087857Y-97283571D02*
X157116428Y-97369285D01*
X157116428Y-97369285D02*
X157116428Y-97426428D01*
X157116428Y-97426428D02*
X157087857Y-97512142D01*
X157087857Y-97512142D02*
X157030714Y-97569285D01*
X157030714Y-97569285D02*
X156973571Y-97597856D01*
X156973571Y-97597856D02*
X156859285Y-97626428D01*
X156859285Y-97626428D02*
X156773571Y-97626428D01*
X156773571Y-97626428D02*
X156659285Y-97597856D01*
X156659285Y-97597856D02*
X156602142Y-97569285D01*
X156602142Y-97569285D02*
X156545000Y-97512142D01*
X156545000Y-97512142D02*
X156516428Y-97426428D01*
X156516428Y-97426428D02*
X156516428Y-97369285D01*
X156516428Y-97369285D02*
X156545000Y-97283571D01*
X156545000Y-97283571D02*
X156573571Y-97254999D01*
X156573571Y-97026428D02*
X156545000Y-96997856D01*
X156545000Y-96997856D02*
X156516428Y-96940714D01*
X156516428Y-96940714D02*
X156516428Y-96797856D01*
X156516428Y-96797856D02*
X156545000Y-96740714D01*
X156545000Y-96740714D02*
X156573571Y-96712142D01*
X156573571Y-96712142D02*
X156630714Y-96683571D01*
X156630714Y-96683571D02*
X156687857Y-96683571D01*
X156687857Y-96683571D02*
X156773571Y-96712142D01*
X156773571Y-96712142D02*
X157116428Y-97054999D01*
X157116428Y-97054999D02*
X157116428Y-96683571D01*
%TO.C,R1*%
X158513428Y-105763999D02*
X158227714Y-105963999D01*
X158513428Y-106106856D02*
X157913428Y-106106856D01*
X157913428Y-106106856D02*
X157913428Y-105878285D01*
X157913428Y-105878285D02*
X157942000Y-105821142D01*
X157942000Y-105821142D02*
X157970571Y-105792571D01*
X157970571Y-105792571D02*
X158027714Y-105763999D01*
X158027714Y-105763999D02*
X158113428Y-105763999D01*
X158113428Y-105763999D02*
X158170571Y-105792571D01*
X158170571Y-105792571D02*
X158199142Y-105821142D01*
X158199142Y-105821142D02*
X158227714Y-105878285D01*
X158227714Y-105878285D02*
X158227714Y-106106856D01*
X158513428Y-105192571D02*
X158513428Y-105535428D01*
X158513428Y-105363999D02*
X157913428Y-105363999D01*
X157913428Y-105363999D02*
X157999142Y-105421142D01*
X157999142Y-105421142D02*
X158056285Y-105478285D01*
X158056285Y-105478285D02*
X158084857Y-105535428D01*
D11*
%TO.C,R13*%
X159793000Y-84936064D02*
X159793000Y-84481936D01*
X161263000Y-84936064D02*
X161263000Y-84481936D01*
%TO.C,C4*%
X157233252Y-88292000D02*
X156710748Y-88292000D01*
X157233252Y-89762000D02*
X156710748Y-89762000D01*
%TO.C,R14*%
X158977000Y-85751936D02*
X158977000Y-86206064D01*
X157507000Y-85751936D02*
X157507000Y-86206064D01*
%TO.C,Q2*%
X166624000Y-102652000D02*
X168299000Y-102652000D01*
X166624000Y-102652000D02*
X165974000Y-102652000D01*
X166624000Y-99532000D02*
X167274000Y-99532000D01*
X166624000Y-99532000D02*
X165974000Y-99532000D01*
%TO.C,U1*%
X157854000Y-119085000D02*
X156654000Y-119085000D01*
X153804000Y-119085000D02*
X155004000Y-119085000D01*
X153804000Y-119085000D02*
X153804000Y-120285000D01*
X157854000Y-120285000D02*
X157854000Y-119085000D01*
X157854000Y-123485000D02*
X157854000Y-122285000D01*
X157854000Y-123485000D02*
X156654000Y-123485000D01*
X153804000Y-123485000D02*
X153804000Y-122285000D01*
X153804000Y-123485000D02*
X155004000Y-123485000D01*
%TO.C,Q3*%
X154849000Y-90805000D02*
X154849000Y-89130000D01*
X154849000Y-90805000D02*
X154849000Y-91455000D01*
X151729000Y-90805000D02*
X151729000Y-90155000D01*
X151729000Y-90805000D02*
X151729000Y-91455000D01*
%TO.C,R3*%
X156703500Y-112268724D02*
X156703500Y-111759276D01*
X157748500Y-112268724D02*
X157748500Y-111759276D01*
%TO.C,R10*%
X162459936Y-99976000D02*
X162914064Y-99976000D01*
X162459936Y-101446000D02*
X162914064Y-101446000D01*
%TO.C,Q6*%
X153924000Y-109637000D02*
X155599000Y-109637000D01*
X153924000Y-109637000D02*
X153274000Y-109637000D01*
X153924000Y-106517000D02*
X154574000Y-106517000D01*
X153924000Y-106517000D02*
X153274000Y-106517000D01*
%TO.C,D2*%
X154043000Y-96981000D02*
X151773000Y-96981000D01*
X151773000Y-96981000D02*
X151773000Y-101041000D01*
X154043000Y-101041000D02*
X154043000Y-96981000D01*
%TO.C,R11*%
X157380000Y-92117936D02*
X157380000Y-92572064D01*
X158850000Y-92117936D02*
X158850000Y-92572064D01*
%TO.C,TP1*%
X150696000Y-102436000D02*
X153596000Y-102436000D01*
X150696000Y-105336000D02*
X150696000Y-102436000D01*
X153596000Y-102436000D02*
X153596000Y-105336000D01*
X153596000Y-105336000D02*
X150696000Y-105336000D01*
%TO.C,R9*%
X162941724Y-98283500D02*
X162432276Y-98283500D01*
X162941724Y-99328500D02*
X162432276Y-99328500D01*
%TO.C,R5*%
X154671500Y-112252724D02*
X154671500Y-111743276D01*
X155716500Y-112252724D02*
X155716500Y-111743276D01*
%TO.C,U2*%
X157312000Y-117359000D02*
X157312000Y-115559000D01*
X154092000Y-115559000D02*
X154092000Y-118509000D01*
%TO.C,Q5*%
X160564000Y-100711000D02*
X160564000Y-99036000D01*
X160564000Y-100711000D02*
X160564000Y-101361000D01*
X157444000Y-100711000D02*
X157444000Y-100061000D01*
X157444000Y-100711000D02*
X157444000Y-101361000D01*
%TO.C,R4*%
X154290500Y-104775724D02*
X154290500Y-104266276D01*
X155335500Y-104775724D02*
X155335500Y-104266276D01*
%TO.C,R12*%
X159231064Y-95985000D02*
X158776936Y-95985000D01*
X159231064Y-94515000D02*
X158776936Y-94515000D01*
%TO.C,R7*%
X156818000Y-94715064D02*
X156818000Y-94260936D01*
X155348000Y-94715064D02*
X155348000Y-94260936D01*
%TO.C,TP2*%
X161237000Y-102436000D02*
X164137000Y-102436000D01*
X161237000Y-105336000D02*
X161237000Y-102436000D01*
X164137000Y-102436000D02*
X164137000Y-105336000D01*
X164137000Y-105336000D02*
X161237000Y-105336000D01*
%TO.C,C1*%
X154793733Y-86612000D02*
X155086267Y-86612000D01*
X154793733Y-87632000D02*
X155086267Y-87632000D01*
%TO.C,R2*%
X158862500Y-104775724D02*
X158862500Y-104266276D01*
X159907500Y-104775724D02*
X159907500Y-104266276D01*
%TO.C,Q4*%
X153198000Y-94869000D02*
X153198000Y-93194000D01*
X153198000Y-94869000D02*
X153198000Y-95519000D01*
X150078000Y-94869000D02*
X150078000Y-94219000D01*
X150078000Y-94869000D02*
X150078000Y-95519000D01*
%TO.C,R6*%
X156703500Y-108458724D02*
X156703500Y-107949276D01*
X157748500Y-108458724D02*
X157748500Y-107949276D01*
%TO.C,R8*%
X162941724Y-97677500D02*
X162432276Y-97677500D01*
X162941724Y-96632500D02*
X162432276Y-96632500D01*
%TO.C,BT1*%
X163469000Y-119780000D02*
X160869000Y-117180000D01*
X164919000Y-119780000D02*
X163469000Y-119780000D01*
X168919000Y-119780000D02*
X171019000Y-119780000D01*
X160069000Y-117180000D02*
X160069000Y-108880000D01*
X160869000Y-117180000D02*
X160069000Y-117180000D01*
X160069000Y-108880000D02*
X160869000Y-108880000D01*
X160869000Y-108880000D02*
X163469000Y-106280000D01*
X163469000Y-106280000D02*
X164919000Y-106280000D01*
X168919000Y-106280000D02*
X171019000Y-106280000D01*
X170969000Y-119780000D02*
G75*
G03*
X172519000Y-118330000I50001J1499999D01*
G01*
X172503160Y-118444615D02*
G75*
G03*
X172119000Y-117530000I-984161J124615D01*
G01*
X172119000Y-108530000D02*
G75*
G03*
X172503160Y-107615385I-600001J790000D01*
G01*
X172519000Y-107730000D02*
G75*
G03*
X170969000Y-106280000I-1499999J-49999D01*
G01*
%TO.C,Q1*%
X159603000Y-88597500D02*
X159603000Y-89247500D01*
X159603000Y-88597500D02*
X159603000Y-87947500D01*
X162723000Y-88597500D02*
X162723000Y-89247500D01*
X162723000Y-88597500D02*
X162723000Y-86922500D01*
%TO.C,D1*%
X156329000Y-96981000D02*
X154059000Y-96981000D01*
X154059000Y-96981000D02*
X154059000Y-101041000D01*
X156329000Y-101041000D02*
X156329000Y-96981000D01*
%TO.C,C3*%
X154688000Y-94468733D02*
X154688000Y-94761267D01*
X153668000Y-94468733D02*
X153668000Y-94761267D01*
%TO.C,C2*%
X159265252Y-98271000D02*
X158742748Y-98271000D01*
X159265252Y-96801000D02*
X158742748Y-96801000D01*
%TO.C,R1*%
X156449500Y-104775724D02*
X156449500Y-104266276D01*
X157494500Y-104775724D02*
X157494500Y-104266276D01*
%TD*%
M02*
