%TF.GenerationSoftware,KiCad,Pcbnew,(6.99.0-224-g211820a689)*%
%TF.CreationDate,2022-01-08T16:43:25+01:00*%
%TF.ProjectId,tuxpin,74757870-696e-42e6-9b69-6361645f7063,rev?*%
%TF.SameCoordinates,Original*%
%TF.FileFunction,Copper,L2,Bot*%
%TF.FilePolarity,Positive*%
%FSLAX46Y46*%
G04 Gerber Fmt 4.6, Leading zero omitted, Abs format (unit mm)*
G04 Created by KiCad (PCBNEW (6.99.0-224-g211820a689)) date 2022-01-08 16:43:25*
%MOMM*%
%LPD*%
G01*
G04 APERTURE LIST*
G04 Aperture macros list*
%AMRoundRect*
0 Rectangle with rounded corners*
0 $1 Rounding radius*
0 $2 $3 $4 $5 $6 $7 $8 $9 X,Y pos of 4 corners*
0 Add a 4 corners polygon primitive as box body*
4,1,4,$2,$3,$4,$5,$6,$7,$8,$9,$2,$3,0*
0 Add four circle primitives for the rounded corners*
1,1,$1+$1,$2,$3*
1,1,$1+$1,$4,$5*
1,1,$1+$1,$6,$7*
1,1,$1+$1,$8,$9*
0 Add four rect primitives between the rounded corners*
20,1,$1+$1,$2,$3,$4,$5,0*
20,1,$1+$1,$4,$5,$6,$7,0*
20,1,$1+$1,$6,$7,$8,$9,0*
20,1,$1+$1,$8,$9,$2,$3,0*%
G04 Aperture macros list end*
%TA.AperFunction,SMDPad,CuDef*%
%ADD10RoundRect,1.000000X-0.961262X-0.275637X0.961262X0.275637X0.961262X0.275637X-0.961262X-0.275637X0*%
%TD*%
%TA.AperFunction,ViaPad*%
%ADD11C,1.000000*%
%TD*%
G04 APERTURE END LIST*
D10*
%TO.P,CB1,1*%
%TO.N,VCC*%
X170976262Y-114936946D03*
X168940835Y-105117601D03*
X170559337Y-109855000D03*
%TO.P,CB1,2*%
%TO.N,Net-(Q2-B)*%
X170704094Y-117615738D03*
X167530795Y-102921175D03*
X171008115Y-112327064D03*
X169870244Y-107451846D03*
%TD*%
D11*
%TO.N,GND*%
X155829000Y-121158000D03*
%TO.N,VCC*%
X160020000Y-105156000D03*
%TO.N,Net-(Q2-B)*%
X163576000Y-105156000D03*
%TD*%
%TA.AperFunction,Conductor*%
%TO.N,GND*%
G36*
X160523267Y-77908960D02*
G01*
X160582023Y-77948812D01*
X160608926Y-78007388D01*
X160792399Y-79064293D01*
X161116689Y-80932385D01*
X161157839Y-81169434D01*
X161158595Y-81175999D01*
X161158101Y-81181793D01*
X161159881Y-81190596D01*
X161171075Y-81245964D01*
X161171715Y-81249372D01*
X161176209Y-81275256D01*
X161177592Y-81279514D01*
X161178377Y-81282680D01*
X161179141Y-81286077D01*
X161179295Y-81286620D01*
X161180258Y-81291382D01*
X161181942Y-81295940D01*
X161181945Y-81295950D01*
X161189242Y-81315698D01*
X161190886Y-81320434D01*
X161209785Y-81378604D01*
X161211118Y-81380559D01*
X161211850Y-81384803D01*
X161213532Y-81384097D01*
X161220730Y-81401252D01*
X161222723Y-81406305D01*
X161230624Y-81427688D01*
X161232756Y-81431626D01*
X161234608Y-81435717D01*
X161234473Y-81435778D01*
X161240778Y-81451002D01*
X161240915Y-81450949D01*
X161242662Y-81455503D01*
X161244048Y-81460163D01*
X161246133Y-81464552D01*
X161246135Y-81464556D01*
X161254730Y-81482643D01*
X161257115Y-81487979D01*
X161263803Y-81503923D01*
X161263811Y-81503939D01*
X161265542Y-81508065D01*
X161267843Y-81511907D01*
X161267848Y-81511918D01*
X161267937Y-81512066D01*
X161268113Y-81512442D01*
X161269869Y-81515912D01*
X161269767Y-81515964D01*
X161276623Y-81530571D01*
X161276727Y-81530525D01*
X161278695Y-81534986D01*
X161280309Y-81539576D01*
X161291682Y-81560763D01*
X161294451Y-81566242D01*
X161303439Y-81585158D01*
X161305916Y-81588891D01*
X161305918Y-81588895D01*
X161306119Y-81589198D01*
X161306567Y-81590044D01*
X161308125Y-81592798D01*
X161308051Y-81592840D01*
X161315454Y-81606800D01*
X161315536Y-81606759D01*
X161317507Y-81610671D01*
X161317687Y-81611010D01*
X161319576Y-81615612D01*
X161322097Y-81619780D01*
X161322098Y-81619782D01*
X161331634Y-81635548D01*
X161334839Y-81641167D01*
X161344390Y-81658961D01*
X161347052Y-81662575D01*
X161347293Y-81662902D01*
X161347885Y-81663893D01*
X161349443Y-81666357D01*
X161349381Y-81666396D01*
X161357239Y-81679542D01*
X161357314Y-81679499D01*
X161359596Y-81683487D01*
X161359710Y-81683677D01*
X161361818Y-81688126D01*
X161364558Y-81692157D01*
X161374616Y-81706955D01*
X161378222Y-81712575D01*
X161388402Y-81729406D01*
X161391241Y-81732873D01*
X161391247Y-81732881D01*
X161391399Y-81733066D01*
X161391798Y-81733660D01*
X161393831Y-81736538D01*
X161393763Y-81736586D01*
X161401831Y-81748604D01*
X161401926Y-81748542D01*
X161404571Y-81752637D01*
X161406888Y-81756914D01*
X161416528Y-81769573D01*
X161420505Y-81774795D01*
X161424466Y-81780298D01*
X161432862Y-81792649D01*
X161435384Y-81796359D01*
X161438404Y-81799671D01*
X161441179Y-81803188D01*
X161441074Y-81803271D01*
X161448983Y-81813788D01*
X161449126Y-81813684D01*
X161451988Y-81817631D01*
X161454531Y-81821776D01*
X161457679Y-81825478D01*
X161457682Y-81825482D01*
X161469109Y-81838919D01*
X161473364Y-81844205D01*
X161480183Y-81853159D01*
X161485117Y-81859638D01*
X161488307Y-81862779D01*
X161491277Y-81866152D01*
X161491110Y-81866299D01*
X161498342Y-81874919D01*
X161498562Y-81874741D01*
X161501618Y-81878518D01*
X161504383Y-81882533D01*
X161507731Y-81886073D01*
X161520067Y-81899116D01*
X161524503Y-81904062D01*
X161537281Y-81919088D01*
X161540640Y-81922057D01*
X161543778Y-81925256D01*
X161543516Y-81925513D01*
X161549439Y-81931865D01*
X161549768Y-81931570D01*
X161553023Y-81935198D01*
X161555982Y-81939059D01*
X161559501Y-81942420D01*
X161559504Y-81942423D01*
X161572930Y-81955245D01*
X161577448Y-81959784D01*
X161591450Y-81974588D01*
X161594967Y-81977380D01*
X161598265Y-81980404D01*
X161598133Y-81980548D01*
X161603098Y-81985006D01*
X161605684Y-81987625D01*
X161608825Y-81991340D01*
X161612503Y-81994530D01*
X161612504Y-81994531D01*
X161627239Y-82007311D01*
X161631696Y-82011367D01*
X161647106Y-82026085D01*
X161650748Y-82028686D01*
X161653377Y-82030861D01*
X161658708Y-82035530D01*
X161659110Y-82035902D01*
X161662417Y-82039481D01*
X161666232Y-82042505D01*
X161666236Y-82042509D01*
X161682449Y-82055361D01*
X161686735Y-82058916D01*
X161703709Y-82073639D01*
X161707469Y-82076061D01*
X161708164Y-82076582D01*
X161713297Y-82080695D01*
X161716290Y-82083685D01*
X161738069Y-82099581D01*
X161742040Y-82102603D01*
X161757238Y-82114650D01*
X161757242Y-82114653D01*
X161760748Y-82117432D01*
X161764020Y-82119340D01*
X161767665Y-82122031D01*
X161770034Y-82124238D01*
X161774070Y-82126973D01*
X161793634Y-82140231D01*
X161797230Y-82142760D01*
X161817748Y-82157735D01*
X161820151Y-82159011D01*
X161824682Y-82162078D01*
X161824715Y-82162102D01*
X161828409Y-82165264D01*
X161832550Y-82167822D01*
X161832555Y-82167826D01*
X161850715Y-82179046D01*
X161855173Y-82181931D01*
X161870589Y-82192378D01*
X161870594Y-82192381D01*
X161874307Y-82194897D01*
X161878388Y-82196885D01*
X161889440Y-82202970D01*
X161919486Y-82221534D01*
X161930489Y-82229169D01*
X161934949Y-82232630D01*
X161939197Y-82234981D01*
X161939208Y-82234988D01*
X161956258Y-82244422D01*
X161961435Y-82247451D01*
X161979566Y-82258652D01*
X161983668Y-82260440D01*
X161983669Y-82260441D01*
X161985477Y-82261229D01*
X161996125Y-82266482D01*
X162303490Y-82436566D01*
X162355205Y-82465183D01*
X162359163Y-82467468D01*
X162452768Y-82523832D01*
X162455758Y-82525690D01*
X162499877Y-82553978D01*
X162502059Y-82555412D01*
X162521827Y-82568698D01*
X162548845Y-82586858D01*
X162551262Y-82588524D01*
X162598543Y-82621929D01*
X162601052Y-82623748D01*
X162649199Y-82659573D01*
X162651682Y-82661471D01*
X162675768Y-82680372D01*
X162700766Y-82699989D01*
X162703348Y-82702071D01*
X162738758Y-82731397D01*
X162746924Y-82738785D01*
X162944270Y-82933673D01*
X162945211Y-82934613D01*
X163127233Y-83118620D01*
X163128873Y-83120310D01*
X163170868Y-83164441D01*
X163279454Y-83278550D01*
X163281962Y-83281264D01*
X163332062Y-83337103D01*
X163374290Y-83384168D01*
X163403879Y-83417147D01*
X163407272Y-83421089D01*
X163503846Y-83538103D01*
X163508021Y-83543449D01*
X163586849Y-83650179D01*
X163590291Y-83655079D01*
X163619268Y-83698486D01*
X163621584Y-83702086D01*
X163650165Y-83748220D01*
X163652406Y-83751982D01*
X163678734Y-83797977D01*
X163680812Y-83801759D01*
X163703314Y-83844422D01*
X163706053Y-83849937D01*
X163756037Y-83957085D01*
X163758826Y-83963525D01*
X163806649Y-84083006D01*
X163808461Y-84087821D01*
X163859069Y-84231065D01*
X163860121Y-84234168D01*
X163915370Y-84404524D01*
X163915580Y-84405173D01*
X163916114Y-84406863D01*
X163982403Y-84621899D01*
X164040300Y-84809715D01*
X164040417Y-84810150D01*
X164040494Y-84810672D01*
X164040945Y-84812122D01*
X164051960Y-84847537D01*
X164052054Y-84847842D01*
X164060164Y-84874150D01*
X164062615Y-84882102D01*
X164062845Y-84882589D01*
X164062998Y-84883025D01*
X164124932Y-85082159D01*
X164125379Y-85083792D01*
X164125651Y-85085527D01*
X164127046Y-85089883D01*
X164136910Y-85120686D01*
X164137218Y-85121661D01*
X164147274Y-85153993D01*
X164148026Y-85155576D01*
X164148601Y-85157194D01*
X164231536Y-85416177D01*
X164233330Y-85422308D01*
X164239428Y-85445306D01*
X164241385Y-85449763D01*
X164242105Y-85451404D01*
X164245518Y-85460422D01*
X164246447Y-85462741D01*
X164247814Y-85467010D01*
X164249770Y-85471037D01*
X164249774Y-85471047D01*
X164257378Y-85486703D01*
X164261221Y-85496509D01*
X164261565Y-85496376D01*
X164263328Y-85500914D01*
X164264735Y-85505574D01*
X164266842Y-85509961D01*
X164277189Y-85531504D01*
X164278982Y-85535407D01*
X164289301Y-85558913D01*
X164291522Y-85562489D01*
X164294485Y-85568757D01*
X164295399Y-85571504D01*
X164309505Y-85598897D01*
X164311027Y-85601956D01*
X164323027Y-85626942D01*
X164325518Y-85630663D01*
X164325590Y-85630789D01*
X164330270Y-85639974D01*
X164331571Y-85643579D01*
X164346715Y-85671245D01*
X164348197Y-85674036D01*
X164361249Y-85699383D01*
X164363853Y-85703048D01*
X164365037Y-85704993D01*
X164367892Y-85709935D01*
X164368228Y-85710549D01*
X164371252Y-85716433D01*
X164371430Y-85716803D01*
X164373200Y-85721352D01*
X164389141Y-85748836D01*
X164390631Y-85751480D01*
X164404390Y-85776616D01*
X164407078Y-85780202D01*
X164408093Y-85781780D01*
X164411134Y-85786754D01*
X164414718Y-85792932D01*
X164417833Y-85798637D01*
X164418288Y-85799525D01*
X164420171Y-85804019D01*
X164425968Y-85813449D01*
X164436636Y-85830804D01*
X164438286Y-85833568D01*
X164450282Y-85854250D01*
X164450287Y-85854258D01*
X164452535Y-85858133D01*
X164455312Y-85861653D01*
X164456724Y-85863732D01*
X164459845Y-85868559D01*
X164466051Y-85878656D01*
X164469200Y-85884077D01*
X164470349Y-85886174D01*
X164472354Y-85890614D01*
X164489275Y-85916523D01*
X164491069Y-85919354D01*
X164505655Y-85943082D01*
X164508522Y-85946532D01*
X164510843Y-85949767D01*
X164513956Y-85954314D01*
X164522054Y-85966714D01*
X164525180Y-85971756D01*
X164527527Y-85975750D01*
X164529665Y-85980127D01*
X164532446Y-85984118D01*
X164532453Y-85984129D01*
X164546842Y-86004774D01*
X164548965Y-86007920D01*
X164561226Y-86026694D01*
X164561231Y-86026700D01*
X164563679Y-86030449D01*
X164566633Y-86033812D01*
X164569348Y-86037386D01*
X164569232Y-86037474D01*
X164572841Y-86042077D01*
X164576764Y-86047705D01*
X164583656Y-86057594D01*
X164587086Y-86063211D01*
X164587207Y-86063134D01*
X164589817Y-86067247D01*
X164592098Y-86071543D01*
X164595013Y-86075437D01*
X164609365Y-86094609D01*
X164611865Y-86098070D01*
X164622611Y-86113487D01*
X164626576Y-86119176D01*
X164629627Y-86122446D01*
X164632450Y-86125938D01*
X164632402Y-86125977D01*
X164636633Y-86131034D01*
X164650356Y-86149365D01*
X164654533Y-86155672D01*
X164654555Y-86155657D01*
X164657319Y-86159660D01*
X164659771Y-86163871D01*
X164666717Y-86172432D01*
X164676921Y-86185009D01*
X164679922Y-86188859D01*
X164694390Y-86208185D01*
X164697561Y-86211359D01*
X164699179Y-86213228D01*
X164705591Y-86220347D01*
X164722310Y-86240953D01*
X164730357Y-86252056D01*
X164732997Y-86256150D01*
X164736231Y-86259784D01*
X164736233Y-86259787D01*
X164749703Y-86274924D01*
X164753419Y-86279296D01*
X164767298Y-86296403D01*
X164771453Y-86300250D01*
X164779974Y-86308941D01*
X164799999Y-86331445D01*
X164807909Y-86341287D01*
X164808548Y-86342168D01*
X164812395Y-86347479D01*
X164816063Y-86351176D01*
X164828160Y-86363371D01*
X164832835Y-86368346D01*
X164837443Y-86373524D01*
X164845661Y-86382759D01*
X164849083Y-86385649D01*
X164849090Y-86385656D01*
X164852114Y-86388210D01*
X164860261Y-86395730D01*
X164884284Y-86419946D01*
X164891812Y-86428241D01*
X164895918Y-86433192D01*
X164895922Y-86433196D01*
X164899025Y-86436937D01*
X164902670Y-86440159D01*
X164913102Y-86449380D01*
X164919101Y-86455043D01*
X164930165Y-86466196D01*
X164933739Y-86468897D01*
X164939824Y-86473496D01*
X164947302Y-86479611D01*
X164971438Y-86500945D01*
X164980108Y-86509385D01*
X164986237Y-86515953D01*
X164990061Y-86518955D01*
X164990068Y-86518961D01*
X165002813Y-86528965D01*
X165008461Y-86533672D01*
X165018555Y-86542594D01*
X165018559Y-86542597D01*
X165021921Y-86545569D01*
X165025669Y-86548033D01*
X165029229Y-86550755D01*
X165029148Y-86550861D01*
X165033879Y-86554382D01*
X165036803Y-86557248D01*
X165040752Y-86560072D01*
X165040766Y-86560084D01*
X165057479Y-86572036D01*
X165061980Y-86575409D01*
X165079533Y-86589187D01*
X165082472Y-86590882D01*
X165085650Y-86593158D01*
X165086763Y-86594001D01*
X165090409Y-86597234D01*
X165104792Y-86606473D01*
X165110398Y-86610074D01*
X165115593Y-86613597D01*
X165128774Y-86623024D01*
X165128783Y-86623030D01*
X165132415Y-86625627D01*
X165135696Y-86627329D01*
X165139523Y-86629996D01*
X165139629Y-86629839D01*
X165143679Y-86632565D01*
X165147489Y-86635582D01*
X165151718Y-86637977D01*
X165151726Y-86637982D01*
X165166547Y-86646374D01*
X165172556Y-86650001D01*
X165188378Y-86660164D01*
X165192457Y-86662029D01*
X165195595Y-86663742D01*
X165200312Y-86666657D01*
X165200339Y-86666611D01*
X165204545Y-86669076D01*
X165208536Y-86671849D01*
X165212910Y-86673977D01*
X165212911Y-86673978D01*
X165226351Y-86680518D01*
X165233295Y-86684169D01*
X165247827Y-86692397D01*
X165252002Y-86694031D01*
X165256048Y-86695956D01*
X165255985Y-86696089D01*
X165269497Y-86702704D01*
X165274068Y-86705429D01*
X165278580Y-86707247D01*
X165278583Y-86707249D01*
X165285134Y-86709889D01*
X165290267Y-86711958D01*
X165298277Y-86715515D01*
X165311209Y-86721808D01*
X165311212Y-86721809D01*
X165311092Y-86722055D01*
X165337152Y-86736926D01*
X165344711Y-86742735D01*
X165349799Y-86746859D01*
X165385513Y-86777384D01*
X165389479Y-86780921D01*
X165433816Y-86822175D01*
X165437239Y-86825484D01*
X165486433Y-86874854D01*
X165489611Y-86878161D01*
X165540869Y-86933491D01*
X165543960Y-86936954D01*
X165594880Y-86996195D01*
X165598073Y-87000064D01*
X165646478Y-87061139D01*
X165649842Y-87065581D01*
X165693688Y-87126236D01*
X165697280Y-87131479D01*
X165711480Y-87153388D01*
X165737427Y-87193422D01*
X165740322Y-87198112D01*
X165753818Y-87221077D01*
X165755859Y-87224684D01*
X165763720Y-87239128D01*
X165778715Y-87308523D01*
X165768125Y-87350677D01*
X165761897Y-87364643D01*
X165758481Y-87371242D01*
X165758520Y-87371261D01*
X165756366Y-87375625D01*
X165753881Y-87379811D01*
X165752071Y-87384327D01*
X165743666Y-87405292D01*
X165741787Y-87409731D01*
X165733698Y-87427867D01*
X165733695Y-87427876D01*
X165731871Y-87431965D01*
X165730645Y-87436273D01*
X165729547Y-87439295D01*
X165726732Y-87447531D01*
X165656684Y-87622264D01*
X165653951Y-87628037D01*
X165654103Y-87628106D01*
X165652095Y-87632536D01*
X165649751Y-87636798D01*
X165648093Y-87641364D01*
X165648090Y-87641370D01*
X165639796Y-87664207D01*
X165638318Y-87668077D01*
X165628632Y-87692239D01*
X165627568Y-87696606D01*
X165626204Y-87700862D01*
X165626123Y-87700836D01*
X165624273Y-87706951D01*
X165564398Y-87871817D01*
X165562050Y-87877801D01*
X165561472Y-87879170D01*
X165559240Y-87883493D01*
X165557700Y-87888107D01*
X165557697Y-87888114D01*
X165549337Y-87913162D01*
X165548249Y-87916284D01*
X165540169Y-87938529D01*
X165540165Y-87938543D01*
X165538636Y-87942753D01*
X165537719Y-87947142D01*
X165536895Y-87950036D01*
X165535225Y-87955438D01*
X165526545Y-87981444D01*
X165482960Y-88112015D01*
X165481073Y-88117183D01*
X165479178Y-88121053D01*
X165477737Y-88125697D01*
X165477734Y-88125704D01*
X165469451Y-88152395D01*
X165468646Y-88154895D01*
X165459207Y-88183175D01*
X165458439Y-88187397D01*
X165456878Y-88192912D01*
X165451288Y-88210924D01*
X165206782Y-88998795D01*
X165205547Y-89002564D01*
X165143641Y-89181894D01*
X165142106Y-89186097D01*
X165076295Y-89356832D01*
X165074052Y-89362270D01*
X165003151Y-89523366D01*
X165000084Y-89529831D01*
X164921963Y-89683092D01*
X164918005Y-89690269D01*
X164830260Y-89837831D01*
X164825426Y-89845341D01*
X164725122Y-89989664D01*
X164719530Y-89997108D01*
X164603245Y-90140533D01*
X164597125Y-90147536D01*
X164536688Y-90211717D01*
X164460703Y-90292409D01*
X164454614Y-90298449D01*
X164441378Y-90310714D01*
X164438364Y-90314526D01*
X164433816Y-90320278D01*
X164426726Y-90328490D01*
X164420482Y-90335122D01*
X164417905Y-90338785D01*
X164417904Y-90338786D01*
X164409599Y-90350591D01*
X164405389Y-90356232D01*
X164351369Y-90424557D01*
X164344461Y-90433294D01*
X164338116Y-90440710D01*
X164271308Y-90512931D01*
X164265365Y-90518938D01*
X164186896Y-90593107D01*
X164181496Y-90597925D01*
X164096906Y-90669144D01*
X164090044Y-90674527D01*
X163874284Y-90832025D01*
X163867253Y-90836803D01*
X163629135Y-90987114D01*
X163623410Y-90990519D01*
X162560414Y-91585409D01*
X162549850Y-91590687D01*
X162540955Y-91594621D01*
X162536855Y-91597254D01*
X162523823Y-91605622D01*
X162517276Y-91609551D01*
X162502229Y-91617972D01*
X162493859Y-91624367D01*
X162485457Y-91630260D01*
X162288485Y-91756748D01*
X162280949Y-91761225D01*
X162269820Y-91767323D01*
X162265542Y-91769667D01*
X162261681Y-91772637D01*
X162261675Y-91772641D01*
X162255499Y-91777392D01*
X162246766Y-91783538D01*
X162242509Y-91786272D01*
X162242505Y-91786275D01*
X162238724Y-91788703D01*
X162235325Y-91791643D01*
X162224792Y-91800753D01*
X162219208Y-91805310D01*
X162043932Y-91940143D01*
X162037867Y-91944526D01*
X162020640Y-91956211D01*
X162013881Y-91962513D01*
X162013671Y-91962709D01*
X162004573Y-91970420D01*
X162003033Y-91971604D01*
X162003025Y-91971611D01*
X161999483Y-91974336D01*
X161996359Y-91977540D01*
X161984334Y-91989871D01*
X161980057Y-91994053D01*
X161920526Y-92049562D01*
X161913813Y-92055392D01*
X161900441Y-92066198D01*
X161897172Y-92069803D01*
X161897166Y-92069808D01*
X161891673Y-92075864D01*
X161884278Y-92083361D01*
X161880292Y-92087078D01*
X161880287Y-92087084D01*
X161877011Y-92090138D01*
X161874200Y-92093628D01*
X161874197Y-92093631D01*
X161865703Y-92104176D01*
X161860906Y-92109787D01*
X161808791Y-92167245D01*
X161804286Y-92171961D01*
X161787662Y-92188483D01*
X161783503Y-92194139D01*
X161776640Y-92202535D01*
X161775722Y-92203705D01*
X161772709Y-92207026D01*
X161770205Y-92210730D01*
X161770198Y-92210739D01*
X161759048Y-92227234D01*
X161756195Y-92231280D01*
X161706590Y-92298746D01*
X161704261Y-92301813D01*
X161685377Y-92325905D01*
X161683000Y-92330151D01*
X161682776Y-92330487D01*
X161680760Y-92333876D01*
X161678425Y-92337052D01*
X161676308Y-92341004D01*
X161676305Y-92341009D01*
X161663192Y-92365490D01*
X161662065Y-92367547D01*
X161618980Y-92444507D01*
X161618355Y-92445611D01*
X161600888Y-92476087D01*
X161600884Y-92476094D01*
X161598465Y-92480316D01*
X161596723Y-92484862D01*
X161596722Y-92484864D01*
X161591284Y-92499055D01*
X161591186Y-92499309D01*
X161573666Y-92544735D01*
X161573404Y-92545300D01*
X161572567Y-92546415D01*
X161545616Y-92618215D01*
X161545433Y-92618697D01*
X161535224Y-92645338D01*
X161534898Y-92646772D01*
X161533277Y-92651090D01*
X161532288Y-92655856D01*
X161526899Y-92681827D01*
X161526387Y-92684179D01*
X161517563Y-92722963D01*
X161515075Y-92722397D01*
X161514992Y-92723700D01*
X161516988Y-92724082D01*
X161515714Y-92730744D01*
X161514821Y-92735012D01*
X161511116Y-92751296D01*
X161511116Y-92751297D01*
X161509302Y-92750884D01*
X161508340Y-92753384D01*
X161511277Y-92753946D01*
X161503759Y-92793259D01*
X161503373Y-92795196D01*
X161497505Y-92823471D01*
X161497317Y-92826467D01*
X161496929Y-92828857D01*
X161496899Y-92829122D01*
X161495986Y-92833899D01*
X161495819Y-92838753D01*
X161495818Y-92838758D01*
X161494976Y-92863181D01*
X161494807Y-92866676D01*
X161490731Y-92931925D01*
X161491782Y-92936580D01*
X161491808Y-92937437D01*
X161491508Y-92951785D01*
X161490892Y-92981177D01*
X161490847Y-92982810D01*
X161489836Y-93012097D01*
X161490115Y-93014679D01*
X161490128Y-93016351D01*
X161490147Y-93016688D01*
X161490045Y-93021562D01*
X161490693Y-93026384D01*
X161490693Y-93026391D01*
X161494017Y-93051139D01*
X161494407Y-93054361D01*
X161501521Y-93120133D01*
X161503524Y-93124974D01*
X161504528Y-93130125D01*
X161513403Y-93195479D01*
X161514517Y-93203774D01*
X161514541Y-93203859D01*
X161514976Y-93207062D01*
X161522386Y-93231943D01*
X161524180Y-93237967D01*
X161524661Y-93239622D01*
X161544104Y-93308334D01*
X161545690Y-93310861D01*
X161546717Y-93313643D01*
X161557366Y-93349402D01*
X161557952Y-93351431D01*
X161567688Y-93386254D01*
X161569575Y-93390401D01*
X161569992Y-93391800D01*
X161571322Y-93394687D01*
X161571324Y-93394692D01*
X161588180Y-93431284D01*
X161588343Y-93431638D01*
X161632116Y-93527818D01*
X161633967Y-93532095D01*
X161642925Y-93553881D01*
X161644780Y-93558392D01*
X161647305Y-93562560D01*
X161647562Y-93563070D01*
X161649524Y-93566487D01*
X161650688Y-93568628D01*
X161652545Y-93572708D01*
X161654959Y-93576480D01*
X161654963Y-93576487D01*
X161668550Y-93597714D01*
X161670202Y-93600366D01*
X161730159Y-93699363D01*
X161733647Y-93705505D01*
X161743965Y-93724924D01*
X161746879Y-93728815D01*
X161746880Y-93728816D01*
X161749000Y-93731646D01*
X161755924Y-93741905D01*
X161758663Y-93746427D01*
X161761499Y-93749885D01*
X161761509Y-93749900D01*
X161773185Y-93764139D01*
X161776598Y-93768493D01*
X161821311Y-93828188D01*
X161827223Y-93838274D01*
X161827733Y-93837954D01*
X161832500Y-93845558D01*
X161836142Y-93853765D01*
X161841939Y-93860617D01*
X161841940Y-93860618D01*
X161871427Y-93895469D01*
X161876084Y-93901317D01*
X161883571Y-93911313D01*
X161883575Y-93911318D01*
X161886256Y-93914897D01*
X161889418Y-93918061D01*
X161889419Y-93918062D01*
X161893050Y-93921695D01*
X161900117Y-93929378D01*
X161905219Y-93935409D01*
X161905226Y-93935416D01*
X161908359Y-93939119D01*
X161912029Y-93942300D01*
X161912037Y-93942308D01*
X161920690Y-93949808D01*
X161927284Y-93955949D01*
X161963072Y-93991757D01*
X161970945Y-93996071D01*
X161978126Y-94001456D01*
X161978077Y-94001521D01*
X161989610Y-94009542D01*
X162109967Y-94113858D01*
X162116859Y-94120298D01*
X162128022Y-94131542D01*
X162131936Y-94134423D01*
X162139573Y-94140045D01*
X162147395Y-94146298D01*
X162155894Y-94153664D01*
X162169934Y-94162701D01*
X162176424Y-94167172D01*
X162405549Y-94335835D01*
X162415865Y-94344306D01*
X162420140Y-94348214D01*
X162424199Y-94350909D01*
X162440315Y-94361610D01*
X162445310Y-94365104D01*
X162458728Y-94374981D01*
X162458734Y-94374985D01*
X162462337Y-94377637D01*
X162468128Y-94380743D01*
X162478263Y-94386807D01*
X162734787Y-94557136D01*
X163176782Y-94850616D01*
X163179045Y-94852226D01*
X163181011Y-94853978D01*
X163210944Y-94873308D01*
X163212006Y-94874004D01*
X163239237Y-94892085D01*
X163241619Y-94893218D01*
X163244064Y-94894698D01*
X164558155Y-95743341D01*
X164615158Y-95780154D01*
X164661532Y-95833912D01*
X164671479Y-95904209D01*
X164641843Y-95968724D01*
X164582032Y-96006975D01*
X164546802Y-96012000D01*
X158876000Y-96012000D01*
X158768020Y-96023609D01*
X158764736Y-96024323D01*
X158764732Y-96024324D01*
X158739661Y-96029778D01*
X158715678Y-96034995D01*
X158612628Y-96069293D01*
X158490990Y-96147465D01*
X158437334Y-96193958D01*
X158342645Y-96303234D01*
X158282579Y-96434760D01*
X158262577Y-96502881D01*
X158261937Y-96507329D01*
X158261936Y-96507336D01*
X158242639Y-96641552D01*
X158242638Y-96641559D01*
X158242000Y-96646000D01*
X158242000Y-106554000D01*
X158253609Y-106661980D01*
X158254323Y-106665264D01*
X158254324Y-106665268D01*
X158259778Y-106690339D01*
X158264995Y-106714322D01*
X158299293Y-106817372D01*
X158377465Y-106939010D01*
X158423958Y-106992666D01*
X158533234Y-107087355D01*
X158664760Y-107147421D01*
X158688514Y-107154396D01*
X158728558Y-107166154D01*
X158728562Y-107166155D01*
X158732881Y-107167423D01*
X158737329Y-107168063D01*
X158737336Y-107168064D01*
X158871552Y-107187361D01*
X158871559Y-107187362D01*
X158876000Y-107188000D01*
X161799000Y-107188000D01*
X161906980Y-107176391D01*
X161906995Y-107176534D01*
X161976299Y-107185245D01*
X162030772Y-107230778D01*
X162052000Y-107300770D01*
X162052000Y-119254000D01*
X162063609Y-119361980D01*
X162074995Y-119414322D01*
X162109293Y-119517372D01*
X162187465Y-119639010D01*
X162190407Y-119642405D01*
X162190409Y-119642408D01*
X162224810Y-119682109D01*
X162233958Y-119692666D01*
X162237352Y-119695607D01*
X162256539Y-119712233D01*
X162343234Y-119787355D01*
X162351431Y-119791099D01*
X162351432Y-119791099D01*
X162363808Y-119796751D01*
X162474760Y-119847421D01*
X162480652Y-119849151D01*
X162538558Y-119866154D01*
X162538562Y-119866155D01*
X162542881Y-119867423D01*
X162547329Y-119868063D01*
X162547336Y-119868064D01*
X162681552Y-119887361D01*
X162681559Y-119887362D01*
X162686000Y-119888000D01*
X171959000Y-119888000D01*
X171963140Y-119887555D01*
X171987530Y-119884933D01*
X172066980Y-119876391D01*
X172070264Y-119875677D01*
X172070268Y-119875676D01*
X172098102Y-119869621D01*
X172119322Y-119865005D01*
X172222372Y-119830707D01*
X172344010Y-119752535D01*
X172351617Y-119745944D01*
X172394273Y-119708982D01*
X172397666Y-119706042D01*
X172409257Y-119692666D01*
X172486453Y-119603577D01*
X172492355Y-119596766D01*
X172497654Y-119585164D01*
X172517756Y-119541145D01*
X172552421Y-119465240D01*
X172563661Y-119426961D01*
X172571154Y-119401442D01*
X172571155Y-119401438D01*
X172572423Y-119397119D01*
X172573064Y-119392664D01*
X172592361Y-119258448D01*
X172592362Y-119258441D01*
X172593000Y-119254000D01*
X172593000Y-118591156D01*
X172613002Y-118523035D01*
X172641427Y-118491867D01*
X172685750Y-118457238D01*
X172685755Y-118457233D01*
X172689745Y-118454116D01*
X172737065Y-118403015D01*
X172851234Y-118279724D01*
X172851238Y-118279719D01*
X172854678Y-118276004D01*
X172989012Y-118073815D01*
X173089292Y-117852750D01*
X173131606Y-117697010D01*
X173151613Y-117623372D01*
X173151614Y-117623368D01*
X173152938Y-117618494D01*
X173166107Y-117493197D01*
X173177784Y-117382102D01*
X173177784Y-117382100D01*
X173178312Y-117377077D01*
X173171318Y-117251989D01*
X173165028Y-117139481D01*
X173165028Y-117139479D01*
X173164761Y-117134708D01*
X173134292Y-116990118D01*
X173096546Y-116858486D01*
X173093331Y-116849699D01*
X173047408Y-116724209D01*
X173047407Y-116724206D01*
X173045765Y-116719720D01*
X173024497Y-116681033D01*
X172931259Y-116511432D01*
X172931257Y-116511428D01*
X172928821Y-116506998D01*
X172779371Y-116315711D01*
X172758569Y-116296448D01*
X172722178Y-116235490D01*
X172724521Y-116164532D01*
X172764855Y-116106105D01*
X172830373Y-116078759D01*
X172844180Y-116078000D01*
X174352313Y-116078000D01*
X174420434Y-116098002D01*
X174466927Y-116151658D01*
X174477727Y-116216136D01*
X174448490Y-116518271D01*
X174448167Y-116520753D01*
X174447596Y-116523096D01*
X174447184Y-116527934D01*
X174447184Y-116527937D01*
X174444551Y-116558898D01*
X174444428Y-116560242D01*
X174441263Y-116592958D01*
X174441374Y-116595374D01*
X174441235Y-116597889D01*
X174424710Y-116792187D01*
X174404383Y-117031193D01*
X174402577Y-117044265D01*
X174402334Y-117045532D01*
X174402333Y-117045544D01*
X174401415Y-117050323D01*
X174401143Y-117058051D01*
X174400575Y-117074144D01*
X174400200Y-117080381D01*
X174398819Y-117096615D01*
X174398819Y-117096623D01*
X174398440Y-117101077D01*
X174398758Y-117106613D01*
X174398839Y-117108028D01*
X174398968Y-117119692D01*
X174386170Y-117482573D01*
X174385972Y-117486464D01*
X174385874Y-117487943D01*
X174383952Y-117516945D01*
X174384381Y-117521792D01*
X174384385Y-117522189D01*
X174384632Y-117526170D01*
X174384493Y-117530136D01*
X174384972Y-117534593D01*
X174384972Y-117534601D01*
X174387921Y-117562053D01*
X174388152Y-117564402D01*
X174407354Y-117781391D01*
X174407844Y-117792800D01*
X174407830Y-117798590D01*
X174406536Y-117807475D01*
X174412220Y-117847861D01*
X174414506Y-117864105D01*
X174415246Y-117870557D01*
X174416952Y-117889840D01*
X174417976Y-117894202D01*
X174418580Y-117896776D01*
X174420682Y-117907998D01*
X174421438Y-117913371D01*
X174421440Y-117913381D01*
X174422117Y-117918190D01*
X174427552Y-117936125D01*
X174429630Y-117943863D01*
X174441780Y-117995632D01*
X174446200Y-118003441D01*
X174446341Y-118003803D01*
X174451816Y-118025968D01*
X174451843Y-118025961D01*
X174454098Y-118034656D01*
X174455097Y-118043572D01*
X174470867Y-118081287D01*
X174474388Y-118091081D01*
X174474999Y-118092680D01*
X174476297Y-118096960D01*
X174478185Y-118101007D01*
X174478190Y-118101020D01*
X174486059Y-118117888D01*
X174488118Y-118122543D01*
X174498229Y-118146724D01*
X174500776Y-118150873D01*
X174502995Y-118155207D01*
X174502991Y-118155209D01*
X174506621Y-118161960D01*
X174522239Y-118195436D01*
X174531840Y-118206360D01*
X174534659Y-118209568D01*
X174547400Y-118226833D01*
X174557993Y-118244091D01*
X174560760Y-118248829D01*
X174589821Y-118301165D01*
X174619332Y-118330325D01*
X174627704Y-118339457D01*
X174654195Y-118371374D01*
X174661634Y-118376393D01*
X174661637Y-118376396D01*
X174704107Y-118405051D01*
X174710664Y-118410254D01*
X174712524Y-118412552D01*
X174769145Y-118451770D01*
X174771023Y-118453098D01*
X174793979Y-118469659D01*
X174797241Y-118471368D01*
X174800884Y-118473754D01*
X174808260Y-118478863D01*
X174832147Y-118495408D01*
X174846045Y-118500033D01*
X174852517Y-118502187D01*
X174871216Y-118510137D01*
X174882276Y-118515933D01*
X174882279Y-118515934D01*
X174890228Y-118520100D01*
X174923285Y-118526740D01*
X174928911Y-118528005D01*
X174933607Y-118529174D01*
X174938233Y-118530714D01*
X174961274Y-118534594D01*
X174966187Y-118535421D01*
X174970059Y-118536136D01*
X175032892Y-118548757D01*
X175035730Y-118548511D01*
X175050651Y-118550797D01*
X175079360Y-118558066D01*
X175079363Y-118558066D01*
X175088066Y-118560270D01*
X175141438Y-118558322D01*
X175149100Y-118558276D01*
X175202491Y-118559588D01*
X175252242Y-118546358D01*
X175260700Y-118544418D01*
X175265044Y-118543578D01*
X175271367Y-118542356D01*
X175285122Y-118541200D01*
X175285106Y-118541068D01*
X175294016Y-118540002D01*
X175302994Y-118540211D01*
X175352294Y-118527029D01*
X175360918Y-118525044D01*
X175374281Y-118522461D01*
X175378515Y-118520995D01*
X175378524Y-118520993D01*
X175386664Y-118518176D01*
X175395325Y-118515523D01*
X175406297Y-118512589D01*
X175411006Y-118511330D01*
X175422832Y-118506109D01*
X175432484Y-118502316D01*
X175476970Y-118486919D01*
X175484284Y-118481723D01*
X175492270Y-118477612D01*
X175492439Y-118477939D01*
X175513474Y-118467483D01*
X175516663Y-118466959D01*
X175574471Y-118439233D01*
X175578013Y-118437602D01*
X175601089Y-118427414D01*
X175604891Y-118425041D01*
X175608859Y-118422940D01*
X175608922Y-118423060D01*
X175610949Y-118421946D01*
X175613076Y-118420716D01*
X175617473Y-118418607D01*
X175637944Y-118404552D01*
X175642482Y-118401580D01*
X175693273Y-118369879D01*
X175699218Y-118363213D01*
X175708982Y-118355776D01*
X175949108Y-118190904D01*
X175952773Y-118188482D01*
X175977275Y-118172898D01*
X175980930Y-118169686D01*
X175981330Y-118169386D01*
X175984749Y-118166524D01*
X175985591Y-118165853D01*
X175989300Y-118163307D01*
X176011670Y-118142720D01*
X176013805Y-118140800D01*
X176411069Y-117791722D01*
X176413461Y-117789673D01*
X177107199Y-117210165D01*
X177116050Y-117203572D01*
X177117759Y-117202241D01*
X177121821Y-117199554D01*
X177125418Y-117196277D01*
X177125423Y-117196273D01*
X177141001Y-117182080D01*
X177145080Y-117178521D01*
X177159183Y-117166740D01*
X177162626Y-117163864D01*
X177165861Y-117160268D01*
X177174664Y-117151411D01*
X177458399Y-116892912D01*
X177462865Y-116889031D01*
X177466517Y-116886005D01*
X177470492Y-116883199D01*
X177492080Y-116862303D01*
X177494823Y-116859727D01*
X177511386Y-116844637D01*
X177514698Y-116841620D01*
X177517548Y-116838165D01*
X177520642Y-116834915D01*
X177520746Y-116835014D01*
X177524723Y-116830705D01*
X177789733Y-116574183D01*
X177794381Y-116570210D01*
X177794246Y-116570058D01*
X177797895Y-116566836D01*
X177801780Y-116563906D01*
X177805166Y-116560415D01*
X177805172Y-116560410D01*
X177822418Y-116542631D01*
X177825226Y-116539826D01*
X177841009Y-116524549D01*
X177841010Y-116524548D01*
X177844230Y-116521431D01*
X177846975Y-116517890D01*
X177849970Y-116514547D01*
X177850057Y-116514625D01*
X177854056Y-116510015D01*
X178012190Y-116346995D01*
X178104031Y-116252317D01*
X178108723Y-116248031D01*
X178108607Y-116247908D01*
X178112147Y-116244570D01*
X178115935Y-116241514D01*
X178119205Y-116237914D01*
X178119212Y-116237908D01*
X178135602Y-116219867D01*
X178138384Y-116216903D01*
X178156575Y-116198149D01*
X178159210Y-116194519D01*
X178162094Y-116191088D01*
X178162163Y-116191146D01*
X178166169Y-116186219D01*
X178401480Y-115927205D01*
X178406184Y-115922616D01*
X178406082Y-115922515D01*
X178409511Y-115919054D01*
X178413192Y-115915873D01*
X178431857Y-115893876D01*
X178434643Y-115890702D01*
X178451978Y-115871620D01*
X178454485Y-115867917D01*
X178457265Y-115864383D01*
X178457315Y-115864422D01*
X178461294Y-115859183D01*
X178592799Y-115704198D01*
X178682306Y-115598710D01*
X178686993Y-115593813D01*
X178686905Y-115593732D01*
X178690211Y-115590155D01*
X178693778Y-115586847D01*
X178696791Y-115583033D01*
X178696798Y-115583026D01*
X178711461Y-115564467D01*
X178714219Y-115561099D01*
X178730674Y-115541706D01*
X178733060Y-115537913D01*
X178735714Y-115534291D01*
X178735748Y-115534316D01*
X178739661Y-115528777D01*
X178946737Y-115266703D01*
X178951371Y-115261503D01*
X178951298Y-115261440D01*
X178954471Y-115257748D01*
X178957920Y-115254312D01*
X178974583Y-115231592D01*
X178977324Y-115227992D01*
X178990111Y-115211809D01*
X178990117Y-115211801D01*
X178992893Y-115208287D01*
X178995146Y-115204410D01*
X178997663Y-115200712D01*
X178997682Y-115200725D01*
X179001503Y-115194888D01*
X179194994Y-114931063D01*
X179199537Y-114925578D01*
X179199476Y-114925529D01*
X179202516Y-114921718D01*
X179205835Y-114918159D01*
X179221520Y-114895037D01*
X179224174Y-114891277D01*
X179236207Y-114874869D01*
X179236209Y-114874866D01*
X179238863Y-114871247D01*
X179240977Y-114867289D01*
X179243361Y-114863500D01*
X179243366Y-114863503D01*
X179247056Y-114857394D01*
X179427288Y-114591702D01*
X179431712Y-114585937D01*
X179431663Y-114585901D01*
X179434556Y-114581981D01*
X179437740Y-114578300D01*
X179452445Y-114554772D01*
X179455003Y-114550845D01*
X179466287Y-114534211D01*
X179466289Y-114534207D01*
X179468808Y-114530494D01*
X179470774Y-114526463D01*
X179472802Y-114522961D01*
X179476542Y-114516215D01*
X179643846Y-114248524D01*
X179648112Y-114242507D01*
X179648072Y-114242480D01*
X179650815Y-114238452D01*
X179653855Y-114234654D01*
X179667535Y-114210794D01*
X179669994Y-114206687D01*
X179680573Y-114189760D01*
X179680576Y-114189754D01*
X179682953Y-114185951D01*
X179684768Y-114181847D01*
X179686389Y-114178789D01*
X179690181Y-114171296D01*
X179844886Y-113901465D01*
X179848956Y-113895234D01*
X179848922Y-113895213D01*
X179851509Y-113891081D01*
X179854402Y-113887168D01*
X179867124Y-113862861D01*
X179869419Y-113858673D01*
X179881529Y-113837553D01*
X179883183Y-113833392D01*
X179884525Y-113830610D01*
X179888217Y-113822566D01*
X180030635Y-113550473D01*
X180034484Y-113544055D01*
X180034452Y-113544036D01*
X180036869Y-113539823D01*
X180039615Y-113535794D01*
X180051356Y-113511090D01*
X180053525Y-113506744D01*
X180062694Y-113489226D01*
X180062696Y-113489222D01*
X180064770Y-113485259D01*
X180066262Y-113481042D01*
X180067414Y-113478398D01*
X180070888Y-113469990D01*
X180201331Y-113195510D01*
X180204925Y-113188956D01*
X180204893Y-113188939D01*
X180207147Y-113184634D01*
X180209735Y-113180502D01*
X180220537Y-113155312D01*
X180222520Y-113150923D01*
X180231003Y-113133073D01*
X180232924Y-113129031D01*
X180234252Y-113124758D01*
X180235311Y-113122049D01*
X180238447Y-113113543D01*
X180303264Y-112962384D01*
X180357218Y-112836559D01*
X180360542Y-112829902D01*
X180360506Y-112829885D01*
X180362601Y-112825479D01*
X180365020Y-112821266D01*
X180366765Y-112816724D01*
X180374854Y-112795665D01*
X180376672Y-112791191D01*
X180384481Y-112772978D01*
X180386252Y-112768848D01*
X180387419Y-112764511D01*
X180388439Y-112761572D01*
X180391168Y-112753192D01*
X180462774Y-112566766D01*
X180498571Y-112473569D01*
X180501604Y-112466871D01*
X180501558Y-112466851D01*
X180503479Y-112462383D01*
X180505741Y-112458071D01*
X180514649Y-112431959D01*
X180516245Y-112427556D01*
X180525027Y-112404692D01*
X180526024Y-112400327D01*
X180527040Y-112396990D01*
X180529328Y-112388930D01*
X180625653Y-112106570D01*
X180628394Y-112099852D01*
X180628336Y-112099829D01*
X180630091Y-112095286D01*
X180632188Y-112090899D01*
X180633582Y-112086251D01*
X180633587Y-112086238D01*
X180640154Y-112064339D01*
X180641592Y-112059850D01*
X180648092Y-112040798D01*
X180648094Y-112040792D01*
X180649540Y-112036552D01*
X180650371Y-112032146D01*
X180651418Y-112028173D01*
X180653225Y-112020753D01*
X180661655Y-111992647D01*
X180740392Y-111730116D01*
X180744603Y-111718262D01*
X180745705Y-111715591D01*
X180747561Y-111711093D01*
X180752801Y-111689384D01*
X180754586Y-111682786D01*
X180758809Y-111668707D01*
X180760097Y-111664413D01*
X180760762Y-111659986D01*
X180760765Y-111659973D01*
X180761367Y-111655964D01*
X180763486Y-111645121D01*
X180924228Y-110979219D01*
X180927187Y-110968907D01*
X180929605Y-110961661D01*
X180929607Y-110961652D01*
X180931147Y-110957037D01*
X180934083Y-110939681D01*
X180935836Y-110931131D01*
X180938189Y-110921384D01*
X180939239Y-110917034D01*
X180939663Y-110912570D01*
X180940501Y-110903746D01*
X180941702Y-110894638D01*
X181057771Y-110208441D01*
X181060162Y-110197364D01*
X181062952Y-110186773D01*
X181064927Y-110167696D01*
X181066015Y-110159703D01*
X181068696Y-110143856D01*
X181068993Y-110132112D01*
X181069623Y-110122326D01*
X181083242Y-109990771D01*
X181142264Y-109420622D01*
X181144073Y-109408725D01*
X181144920Y-109404519D01*
X181144920Y-109404516D01*
X181145880Y-109399750D01*
X181146806Y-109378853D01*
X181147350Y-109371483D01*
X181149185Y-109353758D01*
X181149010Y-109349279D01*
X181148796Y-109343802D01*
X181148823Y-109333305D01*
X181166782Y-108927829D01*
X181180634Y-108615111D01*
X181181846Y-108602395D01*
X181182194Y-108600027D01*
X181182194Y-108600023D01*
X181182901Y-108595206D01*
X181182701Y-108572426D01*
X181182820Y-108565757D01*
X181183491Y-108550615D01*
X181183491Y-108550602D01*
X181183689Y-108546124D01*
X181183250Y-108541661D01*
X181183250Y-108541651D01*
X181182901Y-108538098D01*
X181182302Y-108526882D01*
X181178081Y-108045676D01*
X181175847Y-107791015D01*
X181176454Y-107777512D01*
X181176459Y-107777467D01*
X181176981Y-107772185D01*
X181175606Y-107747607D01*
X181175414Y-107741674D01*
X181175264Y-107724601D01*
X181175225Y-107720113D01*
X181174551Y-107715684D01*
X181174550Y-107715669D01*
X181174297Y-107714008D01*
X181173061Y-107702099D01*
X181130839Y-106947339D01*
X181130845Y-106938211D01*
X181130770Y-106934458D01*
X181131049Y-106929595D01*
X181128480Y-106903247D01*
X181128083Y-106898067D01*
X181127027Y-106879190D01*
X181127027Y-106879188D01*
X181126776Y-106874706D01*
X181125892Y-106870303D01*
X181125831Y-106869826D01*
X181124061Y-106857927D01*
X181117939Y-106795129D01*
X181062335Y-106224814D01*
X181048067Y-106078467D01*
X181047475Y-106065317D01*
X181047485Y-106063909D01*
X181047521Y-106059040D01*
X181046807Y-106054218D01*
X181044037Y-106035520D01*
X181043271Y-106029278D01*
X181041705Y-106013212D01*
X181041704Y-106013207D01*
X181041269Y-106008744D01*
X181040206Y-106004389D01*
X181040204Y-106004377D01*
X181039594Y-106001877D01*
X181037363Y-105990474D01*
X180993603Y-105695115D01*
X180980663Y-105607775D01*
X180980041Y-105602939D01*
X180939111Y-105226523D01*
X180938655Y-105221335D01*
X180915090Y-104870003D01*
X180914840Y-104864406D01*
X180907522Y-104539290D01*
X180907532Y-104533198D01*
X180913979Y-104283850D01*
X180915234Y-104235327D01*
X180915585Y-104228644D01*
X180916644Y-104215284D01*
X180936926Y-103959382D01*
X180937737Y-103951956D01*
X180949609Y-103866796D01*
X180960527Y-103788468D01*
X180971084Y-103712740D01*
X180972538Y-103704379D01*
X181015876Y-103496854D01*
X181018247Y-103487358D01*
X181068960Y-103313342D01*
X181072675Y-103302467D01*
X181088691Y-103261758D01*
X181127193Y-103163889D01*
X181132907Y-103151408D01*
X181133455Y-103150366D01*
X181186261Y-103049876D01*
X181194951Y-103035699D01*
X181197131Y-103032620D01*
X181235070Y-102979018D01*
X181240425Y-102971453D01*
X181253417Y-102955914D01*
X181272318Y-102936688D01*
X181334338Y-102902133D01*
X181405195Y-102906594D01*
X181423351Y-102914872D01*
X181474988Y-102943553D01*
X181490835Y-102953989D01*
X181571638Y-103016414D01*
X181583278Y-103026607D01*
X181599326Y-103042505D01*
X181684701Y-103127079D01*
X181693257Y-103136456D01*
X181809264Y-103277217D01*
X181815631Y-103285637D01*
X181941515Y-103467494D01*
X181946321Y-103474990D01*
X181981484Y-103534355D01*
X182078485Y-103698120D01*
X182082176Y-103704805D01*
X182210914Y-103955668D01*
X182217895Y-103969272D01*
X182220771Y-103975261D01*
X182357878Y-104281127D01*
X182360148Y-104286523D01*
X182496865Y-104633911D01*
X182498674Y-104638803D01*
X182613189Y-104969345D01*
X182633503Y-105027982D01*
X182634959Y-105032455D01*
X182766521Y-105463608D01*
X182767700Y-105467720D01*
X182894814Y-105941329D01*
X182895771Y-105945131D01*
X183017277Y-106461513D01*
X183018056Y-106465047D01*
X183126522Y-106993672D01*
X183128731Y-107009455D01*
X183165371Y-107491854D01*
X183168049Y-107527118D01*
X183168206Y-107529476D01*
X183198036Y-108052856D01*
X183198165Y-108055123D01*
X183198315Y-108058623D01*
X183225636Y-109003717D01*
X183226922Y-109048196D01*
X183226970Y-109052904D01*
X183224338Y-109358210D01*
X183219283Y-109944607D01*
X183219155Y-109949308D01*
X183182572Y-110745052D01*
X183182270Y-110749721D01*
X183124089Y-111448441D01*
X183123617Y-111453079D01*
X183051152Y-112053624D01*
X183050506Y-112058251D01*
X182984688Y-112473577D01*
X182971105Y-112559285D01*
X182970276Y-112563950D01*
X182891675Y-112962384D01*
X182890475Y-112967828D01*
X182770750Y-113459149D01*
X182769367Y-113464339D01*
X182705035Y-113686604D01*
X182628381Y-113951439D01*
X182626808Y-113956475D01*
X182465096Y-114438600D01*
X182463352Y-114443467D01*
X182430467Y-114529597D01*
X182281411Y-114919998D01*
X182279503Y-114924707D01*
X182077860Y-115394999D01*
X182075802Y-115399549D01*
X181854937Y-115863044D01*
X181852739Y-115867435D01*
X181613184Y-116323492D01*
X181610853Y-116327729D01*
X181499420Y-116521431D01*
X181368223Y-116749490D01*
X181356116Y-116770535D01*
X181352396Y-116776598D01*
X180785226Y-117644935D01*
X180781355Y-117650861D01*
X180775974Y-117658470D01*
X180142112Y-118487830D01*
X180136292Y-118494896D01*
X179440727Y-119279443D01*
X179434486Y-119285990D01*
X179116107Y-119596766D01*
X178681750Y-120020749D01*
X178675032Y-120026850D01*
X177869746Y-120706880D01*
X177862558Y-120712516D01*
X177756416Y-120789705D01*
X177032989Y-121315800D01*
X177009326Y-121333008D01*
X177001647Y-121338172D01*
X176762563Y-121486497D01*
X176100022Y-121897529D01*
X176093925Y-121901079D01*
X175636005Y-122150810D01*
X175631819Y-122152992D01*
X175159683Y-122387707D01*
X175155330Y-122389769D01*
X174910168Y-122500111D01*
X174674668Y-122606105D01*
X174670151Y-122608032D01*
X174181648Y-122805384D01*
X174176988Y-122807161D01*
X173964567Y-122883347D01*
X173681048Y-122985032D01*
X173676272Y-122986637D01*
X173173592Y-123144430D01*
X173168679Y-123145863D01*
X172659723Y-123283059D01*
X172654667Y-123284310D01*
X172502825Y-123318547D01*
X172140023Y-123400350D01*
X172134811Y-123401410D01*
X171737401Y-123473543D01*
X171615054Y-123495749D01*
X171609732Y-123496598D01*
X171099504Y-123566760D01*
X171088379Y-123567790D01*
X170892240Y-123577198D01*
X169977400Y-123621080D01*
X169973172Y-123621212D01*
X169267519Y-123631342D01*
X168892768Y-123636721D01*
X168888987Y-123636718D01*
X167849215Y-123620304D01*
X167846001Y-123620212D01*
X166842210Y-123578578D01*
X166838840Y-123578392D01*
X165906216Y-123514389D01*
X164897775Y-123445182D01*
X164896089Y-123445055D01*
X163060210Y-123294277D01*
X163056041Y-123293809D01*
X163052559Y-123293034D01*
X163018558Y-123290838D01*
X163016447Y-123290683D01*
X162985553Y-123288146D01*
X162981992Y-123288361D01*
X162977677Y-123288198D01*
X161200689Y-123173439D01*
X161194396Y-123172646D01*
X161194377Y-123172816D01*
X161189532Y-123172286D01*
X161184756Y-123171386D01*
X161179899Y-123171231D01*
X161179895Y-123171231D01*
X161155550Y-123170456D01*
X161151445Y-123170258D01*
X161129859Y-123168865D01*
X161125383Y-123168576D01*
X161120912Y-123168924D01*
X161116434Y-123168954D01*
X161116433Y-123168865D01*
X161110084Y-123169010D01*
X160382612Y-123145867D01*
X160253951Y-123141774D01*
X160247875Y-123141205D01*
X160247859Y-123141406D01*
X160242992Y-123141028D01*
X160238194Y-123140279D01*
X160233338Y-123140277D01*
X160233334Y-123140277D01*
X160221019Y-123140273D01*
X160208547Y-123140269D01*
X160204622Y-123140205D01*
X160178126Y-123139362D01*
X160173670Y-123139856D01*
X160169189Y-123140032D01*
X160169184Y-123139917D01*
X160163091Y-123140251D01*
X159652865Y-123140066D01*
X159294031Y-123139936D01*
X159286748Y-123139507D01*
X159286746Y-123139564D01*
X159281889Y-123139370D01*
X159277046Y-123138800D01*
X159260502Y-123139417D01*
X159249429Y-123139830D01*
X159244687Y-123139918D01*
X159239299Y-123139916D01*
X159220137Y-123139909D01*
X159215707Y-123140542D01*
X159211886Y-123140812D01*
X159203940Y-123141526D01*
X158313858Y-123174721D01*
X158303164Y-123174523D01*
X158300725Y-123174530D01*
X158295854Y-123174166D01*
X158269869Y-123176248D01*
X158264539Y-123176560D01*
X158259164Y-123176761D01*
X158241598Y-123177416D01*
X158237184Y-123178217D01*
X158237176Y-123178218D01*
X158236932Y-123178262D01*
X158224500Y-123179884D01*
X157308024Y-123253326D01*
X157294426Y-123253679D01*
X157294154Y-123253671D01*
X157294141Y-123253672D01*
X157289282Y-123253535D01*
X157264583Y-123256672D01*
X157258779Y-123257273D01*
X157237098Y-123259010D01*
X157231325Y-123260315D01*
X157219446Y-123262406D01*
X156777493Y-123318547D01*
X156271193Y-123382861D01*
X156257920Y-123383838D01*
X156257308Y-123383851D01*
X156252058Y-123383959D01*
X156247275Y-123384805D01*
X156247272Y-123384805D01*
X156228273Y-123388164D01*
X156222217Y-123389083D01*
X156219518Y-123389426D01*
X156201335Y-123391736D01*
X156194911Y-123393504D01*
X156183418Y-123396096D01*
X155997755Y-123428925D01*
X155192675Y-123571279D01*
X155181620Y-123572733D01*
X154971237Y-123590940D01*
X154959580Y-123591949D01*
X154955432Y-123592239D01*
X154725871Y-123604493D01*
X154721249Y-123604655D01*
X154501340Y-123608311D01*
X154496293Y-123608293D01*
X154284463Y-123603327D01*
X154279071Y-123603085D01*
X154073421Y-123589434D01*
X154067791Y-123588934D01*
X153866370Y-123566455D01*
X153860632Y-123565680D01*
X153661493Y-123534135D01*
X153655785Y-123533096D01*
X153456772Y-123492101D01*
X153451229Y-123490828D01*
X153296079Y-123451494D01*
X153250391Y-123439911D01*
X153245156Y-123438463D01*
X153040555Y-123377049D01*
X153035692Y-123375481D01*
X152825608Y-123302978D01*
X152821223Y-123301371D01*
X152604096Y-123217195D01*
X152600201Y-123215609D01*
X152374533Y-123119184D01*
X152371053Y-123117634D01*
X152150586Y-123015441D01*
X152135537Y-123008465D01*
X152132559Y-123007037D01*
X152041602Y-122961912D01*
X151885881Y-122884656D01*
X151883317Y-122883347D01*
X151668751Y-122770717D01*
X151652986Y-122760895D01*
X151645300Y-122755280D01*
X151642745Y-122753363D01*
X151623772Y-122738750D01*
X151623759Y-122738741D01*
X151620210Y-122736008D01*
X151616699Y-122734026D01*
X151614310Y-122732379D01*
X151595769Y-122719086D01*
X151594951Y-122718494D01*
X151567804Y-122698660D01*
X151566143Y-122697777D01*
X151564599Y-122696741D01*
X151523483Y-122667264D01*
X151520737Y-122665238D01*
X151515807Y-122661497D01*
X151512740Y-122659170D01*
X151470563Y-122602060D01*
X151467883Y-122593869D01*
X151464163Y-122581034D01*
X151463137Y-122577281D01*
X151458830Y-122560499D01*
X151457994Y-122557036D01*
X151453310Y-122536376D01*
X151452641Y-122533241D01*
X151447691Y-122508463D01*
X151447156Y-122505608D01*
X151444901Y-122492762D01*
X151442122Y-122476937D01*
X151441689Y-122474309D01*
X151436668Y-122441665D01*
X151435203Y-122422319D01*
X151435294Y-122362403D01*
X151435375Y-122358086D01*
X151438198Y-122279233D01*
X151438474Y-122274267D01*
X151443363Y-122209428D01*
X151443921Y-122203741D01*
X151450132Y-122152496D01*
X151451088Y-122146022D01*
X151457746Y-122107822D01*
X151459233Y-122100566D01*
X151465356Y-122074594D01*
X151467533Y-122066562D01*
X151472147Y-122051523D01*
X151474983Y-122043301D01*
X151475041Y-122043150D01*
X151504010Y-121998794D01*
X151509188Y-121993667D01*
X151512517Y-121990489D01*
X151521533Y-121982196D01*
X151537232Y-121969899D01*
X151610850Y-121921121D01*
X152646579Y-121234857D01*
X153218510Y-120855901D01*
X153227955Y-120850376D01*
X153229873Y-120849198D01*
X153234201Y-120846980D01*
X153238136Y-120844123D01*
X153238145Y-120844117D01*
X153255214Y-120831722D01*
X153259651Y-120828643D01*
X153274986Y-120818482D01*
X153274995Y-120818475D01*
X153278729Y-120816001D01*
X153282078Y-120813020D01*
X153283620Y-120811832D01*
X153286898Y-120809507D01*
X153288549Y-120808603D01*
X153304719Y-120796182D01*
X153313152Y-120789705D01*
X153315869Y-120787676D01*
X153334860Y-120773886D01*
X153334870Y-120773878D01*
X153338494Y-120771246D01*
X153339255Y-120770508D01*
X153340697Y-120769403D01*
X153342694Y-120768231D01*
X153365924Y-120749242D01*
X153368908Y-120746878D01*
X153390208Y-120730517D01*
X153391495Y-120729199D01*
X153393838Y-120727289D01*
X153396502Y-120725601D01*
X153418191Y-120706611D01*
X153421446Y-120703857D01*
X153437912Y-120690397D01*
X153437916Y-120690393D01*
X153441382Y-120687560D01*
X153443153Y-120685633D01*
X153446502Y-120682708D01*
X153449780Y-120680454D01*
X153469885Y-120661467D01*
X153473391Y-120658279D01*
X153488476Y-120645071D01*
X153491851Y-120642116D01*
X153494036Y-120639571D01*
X153498488Y-120635376D01*
X153502286Y-120632525D01*
X153520711Y-120613617D01*
X153524441Y-120609945D01*
X153538129Y-120597018D01*
X153541394Y-120593935D01*
X153543889Y-120590797D01*
X153548489Y-120586086D01*
X153550037Y-120584595D01*
X153553796Y-120581495D01*
X153570479Y-120562733D01*
X153574392Y-120558529D01*
X153586611Y-120545990D01*
X153589744Y-120542775D01*
X153592392Y-120539145D01*
X153592620Y-120538875D01*
X153597055Y-120533898D01*
X153600346Y-120530396D01*
X153603942Y-120527116D01*
X153618857Y-120508558D01*
X153622907Y-120503769D01*
X153633654Y-120491682D01*
X153633655Y-120491681D01*
X153636636Y-120488328D01*
X153639110Y-120484588D01*
X153641553Y-120481413D01*
X153645903Y-120476420D01*
X153645784Y-120476320D01*
X153648922Y-120472597D01*
X153652333Y-120469131D01*
X153665449Y-120450875D01*
X153669565Y-120445462D01*
X153678865Y-120433890D01*
X153681682Y-120430385D01*
X153683974Y-120426515D01*
X153686518Y-120422843D01*
X153686776Y-120423022D01*
X153692558Y-120415042D01*
X153692374Y-120414905D01*
X153695291Y-120411005D01*
X153698494Y-120407349D01*
X153701095Y-120403245D01*
X153701100Y-120403239D01*
X153709834Y-120389461D01*
X153713924Y-120383404D01*
X153721848Y-120372375D01*
X153721851Y-120372370D01*
X153724464Y-120368733D01*
X153726567Y-120364701D01*
X153726696Y-120364499D01*
X153728883Y-120360947D01*
X153728944Y-120360985D01*
X153736243Y-120349576D01*
X153736241Y-120349575D01*
X153736368Y-120349381D01*
X153738557Y-120345960D01*
X153741887Y-120341647D01*
X153751504Y-120324169D01*
X153755468Y-120317465D01*
X153762095Y-120307010D01*
X153764492Y-120303229D01*
X153767315Y-120296954D01*
X153777675Y-120278322D01*
X153779184Y-120276078D01*
X153779186Y-120276075D01*
X153781906Y-120272031D01*
X153789895Y-120254960D01*
X153793624Y-120247625D01*
X153799062Y-120237742D01*
X153801225Y-120233811D01*
X153803201Y-120228574D01*
X153809638Y-120215285D01*
X153809331Y-120215131D01*
X153811511Y-120210777D01*
X153814017Y-120206609D01*
X153822879Y-120184860D01*
X153825437Y-120179010D01*
X153826435Y-120176877D01*
X153826722Y-120176315D01*
X153827569Y-120174465D01*
X153827828Y-120173906D01*
X153827830Y-120173896D01*
X153828274Y-120172948D01*
X153830580Y-120168792D01*
X153831686Y-120165782D01*
X153831757Y-120165700D01*
X153831941Y-120165218D01*
X153831900Y-120165199D01*
X153832171Y-120164619D01*
X153834073Y-120160556D01*
X153835380Y-120156261D01*
X153835450Y-120156079D01*
X153837555Y-120149807D01*
X153839213Y-120145295D01*
X153841949Y-120139031D01*
X153841844Y-120138988D01*
X153843711Y-120134499D01*
X153845924Y-120130158D01*
X153847677Y-120124812D01*
X153849288Y-120120426D01*
X153849921Y-120118488D01*
X153851611Y-120114341D01*
X153852695Y-120109999D01*
X153854089Y-120105734D01*
X153854563Y-120105889D01*
X153856698Y-120099862D01*
X153856240Y-120099690D01*
X153857952Y-120095122D01*
X153860004Y-120090716D01*
X153861354Y-120086047D01*
X153861356Y-120086040D01*
X153861484Y-120085597D01*
X153862759Y-120081707D01*
X153863423Y-120079405D01*
X153864970Y-120075196D01*
X153865904Y-120070809D01*
X153867148Y-120066500D01*
X153867581Y-120066625D01*
X153869752Y-120059726D01*
X153869331Y-120059585D01*
X153870873Y-120054972D01*
X153872769Y-120050487D01*
X153873951Y-120045769D01*
X153873953Y-120045762D01*
X153873982Y-120045645D01*
X153874970Y-120042226D01*
X153875639Y-120039557D01*
X153877035Y-120035303D01*
X153877814Y-120030891D01*
X153878906Y-120026536D01*
X153879293Y-120026633D01*
X153881420Y-120018930D01*
X153881033Y-120018816D01*
X153882411Y-120014139D01*
X153884144Y-120009590D01*
X153885156Y-120004827D01*
X153885193Y-120004701D01*
X153885896Y-120001894D01*
X153886519Y-119998978D01*
X153887762Y-119994676D01*
X153888383Y-119990243D01*
X153889320Y-119985853D01*
X153889669Y-119985927D01*
X153891676Y-119977488D01*
X153891315Y-119977396D01*
X153892525Y-119972668D01*
X153894090Y-119968065D01*
X153894929Y-119963271D01*
X153895000Y-119962994D01*
X153895469Y-119960790D01*
X153896016Y-119957683D01*
X153897104Y-119953338D01*
X153897566Y-119948875D01*
X153898022Y-119946285D01*
X153898485Y-119942953D01*
X153898595Y-119942322D01*
X153900222Y-119935438D01*
X153900128Y-119935417D01*
X153901160Y-119930676D01*
X153902563Y-119926004D01*
X153903230Y-119921172D01*
X153903321Y-119920755D01*
X153903622Y-119919041D01*
X153904073Y-119915798D01*
X153905004Y-119911417D01*
X153905305Y-119906944D01*
X153905690Y-119904174D01*
X153906013Y-119901017D01*
X153906415Y-119898107D01*
X153907116Y-119893631D01*
X153908020Y-119888468D01*
X153911434Y-119868955D01*
X153911573Y-119864466D01*
X153912029Y-119860020D01*
X153912262Y-119860044D01*
X153912916Y-119853009D01*
X153939862Y-119682097D01*
X153942012Y-119671467D01*
X153944930Y-119659681D01*
X153945762Y-119650283D01*
X153946513Y-119641790D01*
X153947560Y-119633277D01*
X153949178Y-119623011D01*
X153949178Y-119623006D01*
X153949877Y-119618575D01*
X153950060Y-119605622D01*
X153950537Y-119596299D01*
X153965875Y-119422909D01*
X153967965Y-119399293D01*
X153969889Y-119385912D01*
X153969907Y-119385761D01*
X153970862Y-119380986D01*
X153971941Y-119355823D01*
X153972315Y-119350117D01*
X153973867Y-119332579D01*
X153973867Y-119332573D01*
X153974262Y-119328109D01*
X153974020Y-119323634D01*
X153974020Y-119323626D01*
X153973960Y-119322525D01*
X153973892Y-119310321D01*
X153976500Y-119249504D01*
X153983196Y-119093366D01*
X153983847Y-119087145D01*
X153983664Y-119087129D01*
X153984092Y-119082269D01*
X153984891Y-119077474D01*
X153984942Y-119072617D01*
X153984943Y-119072610D01*
X153985202Y-119048116D01*
X153985311Y-119044053D01*
X153986243Y-119022328D01*
X153986243Y-119022321D01*
X153986435Y-119017840D01*
X153985990Y-119013378D01*
X153985863Y-119008892D01*
X153985961Y-119008889D01*
X153985684Y-119002631D01*
X153987670Y-118815161D01*
X153988197Y-118765363D01*
X153988660Y-118758878D01*
X153988507Y-118758870D01*
X153988771Y-118754013D01*
X153989410Y-118749184D01*
X153988746Y-118720223D01*
X153988720Y-118716020D01*
X153988947Y-118694648D01*
X153988947Y-118694643D01*
X153988994Y-118690174D01*
X153988407Y-118685741D01*
X153988135Y-118681254D01*
X153988206Y-118681250D01*
X153987703Y-118674755D01*
X153986745Y-118632993D01*
X157744109Y-118632993D01*
X157744792Y-118662464D01*
X157744821Y-118666452D01*
X157744592Y-118692863D01*
X157745188Y-118697302D01*
X157745468Y-118701776D01*
X157745361Y-118701783D01*
X157745845Y-118707950D01*
X157748165Y-118808098D01*
X157747913Y-118815161D01*
X157747996Y-118815162D01*
X157747910Y-118820040D01*
X157747450Y-118824878D01*
X157747740Y-118829733D01*
X157749118Y-118852839D01*
X157749308Y-118857423D01*
X157749886Y-118882362D01*
X157750624Y-118886786D01*
X157751046Y-118891246D01*
X157751034Y-118891247D01*
X157751829Y-118898281D01*
X157753706Y-118929737D01*
X157757882Y-118999734D01*
X157757927Y-119011017D01*
X157757977Y-119012981D01*
X157757726Y-119017844D01*
X157760383Y-119043599D01*
X157760821Y-119048980D01*
X157762180Y-119071763D01*
X157763078Y-119076151D01*
X157763079Y-119076160D01*
X157763162Y-119076566D01*
X157765053Y-119088888D01*
X157775002Y-119185340D01*
X157775499Y-119190163D01*
X157776164Y-119202934D01*
X157776173Y-119210176D01*
X157776926Y-119214975D01*
X157776927Y-119214983D01*
X157779710Y-119232713D01*
X157780569Y-119239321D01*
X157782588Y-119258895D01*
X157783674Y-119263238D01*
X157783675Y-119263244D01*
X157784534Y-119266678D01*
X157786772Y-119277697D01*
X157802535Y-119378106D01*
X157803762Y-119389015D01*
X157804571Y-119400823D01*
X157805646Y-119405566D01*
X157808612Y-119418651D01*
X157810204Y-119426961D01*
X157812556Y-119441941D01*
X157813870Y-119446219D01*
X157816266Y-119454022D01*
X157818700Y-119463157D01*
X157839627Y-119555484D01*
X157841649Y-119566765D01*
X157842407Y-119572476D01*
X157842408Y-119572483D01*
X157843048Y-119577304D01*
X157844422Y-119581970D01*
X157848545Y-119595975D01*
X157850557Y-119603705D01*
X157850992Y-119605622D01*
X157854174Y-119619661D01*
X157855774Y-119623846D01*
X157858254Y-119630333D01*
X157861428Y-119639728D01*
X157864538Y-119650292D01*
X157867559Y-119662927D01*
X157868772Y-119669484D01*
X157873202Y-119682109D01*
X157876506Y-119691526D01*
X157878481Y-119697651D01*
X157880952Y-119706042D01*
X157884210Y-119717106D01*
X157886072Y-119721182D01*
X157887640Y-119725379D01*
X157887119Y-119725574D01*
X157893946Y-119746877D01*
X157896636Y-119760731D01*
X157896637Y-119760735D01*
X157898348Y-119769546D01*
X157902465Y-119777526D01*
X157902465Y-119777527D01*
X157902852Y-119778278D01*
X157912021Y-119801412D01*
X157914720Y-119810854D01*
X157919510Y-119818446D01*
X157919511Y-119818448D01*
X157938882Y-119849151D01*
X157944294Y-119858613D01*
X157945512Y-119860973D01*
X157949607Y-119868910D01*
X157950037Y-119869499D01*
X157950340Y-119870033D01*
X157966088Y-119900303D01*
X157972299Y-119906784D01*
X157977529Y-119914079D01*
X157976745Y-119914641D01*
X157977559Y-119915770D01*
X157978503Y-119915085D01*
X157983778Y-119922355D01*
X157987964Y-119930291D01*
X157994211Y-119936735D01*
X157994212Y-119936736D01*
X158013880Y-119957024D01*
X158014247Y-119957429D01*
X158014622Y-119957943D01*
X158039050Y-119982986D01*
X158065788Y-120010566D01*
X158066300Y-120010952D01*
X158066710Y-120011342D01*
X158067391Y-120012040D01*
X158090499Y-120035730D01*
X158113654Y-120048783D01*
X158123868Y-120055207D01*
X158134854Y-120062873D01*
X158136297Y-120063880D01*
X158140078Y-120066625D01*
X158158913Y-120080838D01*
X158162832Y-120083000D01*
X158166601Y-120085445D01*
X158166592Y-120085459D01*
X158172384Y-120089064D01*
X158177065Y-120092331D01*
X158197844Y-120102493D01*
X158203337Y-120105350D01*
X158219633Y-120114341D01*
X158254057Y-120133334D01*
X158261736Y-120135049D01*
X158273229Y-120140213D01*
X158278390Y-120142917D01*
X158283001Y-120144487D01*
X158283376Y-120144648D01*
X158286180Y-120145691D01*
X158289207Y-120147171D01*
X158293469Y-120148548D01*
X158293478Y-120148552D01*
X158321189Y-120157507D01*
X158323062Y-120158129D01*
X158359092Y-120170399D01*
X158363024Y-120171811D01*
X158386307Y-120180612D01*
X158386316Y-120180615D01*
X158390870Y-120182336D01*
X158395632Y-120183336D01*
X158396071Y-120183464D01*
X158400607Y-120184535D01*
X158404756Y-120185948D01*
X158435437Y-120191720D01*
X158438017Y-120192234D01*
X158548290Y-120215385D01*
X158555239Y-120217051D01*
X158569829Y-120220989D01*
X158576282Y-120222731D01*
X158584818Y-120223667D01*
X158596949Y-120225601D01*
X158597905Y-120225802D01*
X158597914Y-120225803D01*
X158602305Y-120226725D01*
X158624140Y-120228140D01*
X158624944Y-120228192D01*
X158630527Y-120228678D01*
X158754937Y-120242316D01*
X158766482Y-120244127D01*
X158776318Y-120246142D01*
X158781171Y-120246373D01*
X158781172Y-120246373D01*
X158787117Y-120246656D01*
X158796316Y-120247093D01*
X158804059Y-120247702D01*
X158816429Y-120249058D01*
X158816436Y-120249058D01*
X158820894Y-120249547D01*
X158825369Y-120249399D01*
X158825372Y-120249399D01*
X158827413Y-120249331D01*
X158831739Y-120249188D01*
X158841882Y-120249261D01*
X158974478Y-120255570D01*
X158985803Y-120256743D01*
X158987675Y-120256896D01*
X158992481Y-120257665D01*
X158997340Y-120257686D01*
X158997345Y-120257686D01*
X159007533Y-120257729D01*
X159018330Y-120257775D01*
X159023742Y-120257914D01*
X159046501Y-120258997D01*
X159050955Y-120258574D01*
X159050959Y-120258574D01*
X159051292Y-120258542D01*
X159051410Y-120258531D01*
X159063852Y-120257967D01*
X159139321Y-120258286D01*
X159205853Y-120258568D01*
X159212273Y-120258984D01*
X159212281Y-120258825D01*
X159217143Y-120259060D01*
X159221972Y-120259669D01*
X159229507Y-120259451D01*
X159251000Y-120258828D01*
X159255183Y-120258776D01*
X159276668Y-120258867D01*
X159281152Y-120258886D01*
X159285595Y-120258269D01*
X159290066Y-120257969D01*
X159290071Y-120258048D01*
X159296501Y-120257510D01*
X159416223Y-120254042D01*
X159446585Y-120253163D01*
X159452844Y-120253137D01*
X159455340Y-120253189D01*
X159460187Y-120253665D01*
X159490995Y-120251924D01*
X159494456Y-120251776D01*
X159517722Y-120251102D01*
X159522209Y-120250972D01*
X159526634Y-120250207D01*
X159530689Y-120249800D01*
X159536150Y-120249372D01*
X159606481Y-120245398D01*
X159689961Y-120240680D01*
X159696587Y-120240480D01*
X159696885Y-120240479D01*
X159701737Y-120240836D01*
X159706586Y-120240442D01*
X159706591Y-120240442D01*
X159733418Y-120238262D01*
X159736513Y-120238049D01*
X159765130Y-120236432D01*
X159769528Y-120235547D01*
X159771271Y-120235323D01*
X159777093Y-120234714D01*
X159871853Y-120227015D01*
X159929583Y-120222325D01*
X159936122Y-120221968D01*
X159940937Y-120222207D01*
X159945786Y-120221696D01*
X159945787Y-120221696D01*
X159950367Y-120221213D01*
X159972775Y-120218852D01*
X159975728Y-120218577D01*
X159985854Y-120217754D01*
X160000082Y-120216598D01*
X160000086Y-120216597D01*
X160004546Y-120216235D01*
X160008914Y-120215243D01*
X160010140Y-120215055D01*
X160016022Y-120214294D01*
X160159799Y-120199142D01*
X160166279Y-120198628D01*
X160167277Y-120198575D01*
X160172146Y-120198691D01*
X160176964Y-120198058D01*
X160176972Y-120198058D01*
X160203368Y-120194592D01*
X160206561Y-120194214D01*
X160230318Y-120191710D01*
X160230319Y-120191710D01*
X160234767Y-120191241D01*
X160239106Y-120190146D01*
X160241565Y-120189708D01*
X160247232Y-120188831D01*
X160374611Y-120172105D01*
X160380505Y-120171720D01*
X160380484Y-120171475D01*
X160385335Y-120171068D01*
X160390204Y-120171036D01*
X160395012Y-120170255D01*
X160395013Y-120170255D01*
X160419755Y-120166237D01*
X160423549Y-120165679D01*
X160445696Y-120162771D01*
X160450136Y-120162188D01*
X160454456Y-120160980D01*
X160458836Y-120160084D01*
X160458864Y-120160219D01*
X160464636Y-120158948D01*
X160573644Y-120141243D01*
X160582833Y-120140279D01*
X160586475Y-120139821D01*
X160591336Y-120139588D01*
X160617276Y-120134265D01*
X160622377Y-120133329D01*
X160641016Y-120130302D01*
X160641030Y-120130299D01*
X160645443Y-120129582D01*
X160649710Y-120128247D01*
X160650146Y-120128144D01*
X160661846Y-120125121D01*
X160753435Y-120106328D01*
X160764303Y-120104588D01*
X160776024Y-120103235D01*
X160793681Y-120098359D01*
X160801892Y-120096385D01*
X160812392Y-120094231D01*
X160812396Y-120094230D01*
X160816787Y-120093329D01*
X160828647Y-120089072D01*
X160837664Y-120086213D01*
X160922183Y-120062873D01*
X160923565Y-120062500D01*
X160956590Y-120053783D01*
X160956596Y-120053781D01*
X160961297Y-120052540D01*
X160964199Y-120051270D01*
X160964264Y-120051252D01*
X161029357Y-120022830D01*
X161045813Y-120016967D01*
X161064319Y-120011788D01*
X161072966Y-120009368D01*
X161134189Y-119971209D01*
X161195443Y-119933249D01*
X161201436Y-119926572D01*
X161205875Y-119922857D01*
X161211181Y-119919608D01*
X161217211Y-119912964D01*
X161217216Y-119912959D01*
X161236706Y-119891481D01*
X161240258Y-119887761D01*
X161243304Y-119885134D01*
X161262710Y-119862862D01*
X161264333Y-119861036D01*
X161308969Y-119811848D01*
X161311255Y-119807145D01*
X161314688Y-119803205D01*
X161321061Y-119789392D01*
X161330795Y-119768291D01*
X161332875Y-119769251D01*
X161334091Y-119764716D01*
X161333705Y-119764562D01*
X161337464Y-119755104D01*
X161348815Y-119733124D01*
X161349470Y-119732114D01*
X161349471Y-119732112D01*
X161354354Y-119724578D01*
X161358046Y-119712233D01*
X161364351Y-119695555D01*
X161375645Y-119671074D01*
X161376966Y-119662198D01*
X161379535Y-119653589D01*
X161379758Y-119653656D01*
X161383898Y-119638279D01*
X161384135Y-119637682D01*
X161387451Y-119629340D01*
X161388292Y-119620406D01*
X161388294Y-119620397D01*
X161388406Y-119619204D01*
X161393133Y-119594913D01*
X161393476Y-119593765D01*
X161393476Y-119593764D01*
X161396048Y-119585164D01*
X161396202Y-119559915D01*
X161397724Y-119541154D01*
X161401638Y-119516224D01*
X161397795Y-119486542D01*
X161396754Y-119469595D01*
X161396807Y-119460921D01*
X161396937Y-119439653D01*
X161394469Y-119431018D01*
X161393251Y-119422129D01*
X161393530Y-119422091D01*
X161391316Y-119409159D01*
X161390718Y-119399297D01*
X161382998Y-119272145D01*
X161382662Y-119266603D01*
X161382456Y-119260467D01*
X161382784Y-119255856D01*
X161381177Y-119236657D01*
X161380086Y-119223618D01*
X161379879Y-119220748D01*
X161378381Y-119196085D01*
X161378109Y-119191603D01*
X161377204Y-119187201D01*
X161377149Y-119186789D01*
X161376496Y-119180745D01*
X161361456Y-119001086D01*
X161361100Y-118995145D01*
X161360938Y-118990665D01*
X161361137Y-118985803D01*
X161357729Y-118955905D01*
X161357361Y-118952176D01*
X161355483Y-118929737D01*
X161355482Y-118929733D01*
X161355109Y-118925272D01*
X161354105Y-118920903D01*
X161353415Y-118916475D01*
X161353562Y-118916452D01*
X161352581Y-118910722D01*
X161332383Y-118733482D01*
X161331874Y-118724534D01*
X161331573Y-118720655D01*
X161331572Y-118715783D01*
X161327483Y-118689553D01*
X161326792Y-118684430D01*
X161324649Y-118665622D01*
X161324141Y-118661164D01*
X161323006Y-118656822D01*
X161322900Y-118656254D01*
X161320476Y-118644601D01*
X161294638Y-118478863D01*
X161293628Y-118468658D01*
X161293293Y-118465871D01*
X161293086Y-118461001D01*
X161292134Y-118456228D01*
X161292133Y-118456221D01*
X161287969Y-118435351D01*
X161287038Y-118430111D01*
X161286900Y-118429223D01*
X161283480Y-118407290D01*
X161282131Y-118402880D01*
X161279058Y-118390686D01*
X161271226Y-118351431D01*
X161270234Y-118344304D01*
X161270165Y-118344315D01*
X161269406Y-118339511D01*
X161269019Y-118334655D01*
X161267890Y-118329920D01*
X161267889Y-118329911D01*
X161262563Y-118307568D01*
X161261574Y-118303050D01*
X161256729Y-118278767D01*
X161255239Y-118274545D01*
X161254051Y-118270218D01*
X161252017Y-118263319D01*
X161243997Y-118229670D01*
X161241573Y-118216373D01*
X161241508Y-118215862D01*
X161241508Y-118215860D01*
X161240893Y-118211034D01*
X161234062Y-118187380D01*
X161232550Y-118181640D01*
X161227561Y-118160708D01*
X161225286Y-118154950D01*
X161221430Y-118143642D01*
X161211891Y-118110616D01*
X161209181Y-118099288D01*
X161208737Y-118096960D01*
X161207286Y-118089354D01*
X161205650Y-118084773D01*
X161205647Y-118084762D01*
X161200577Y-118070567D01*
X161198183Y-118063149D01*
X161194743Y-118051236D01*
X161194740Y-118051227D01*
X161193501Y-118046938D01*
X161189014Y-118036980D01*
X161185229Y-118027592D01*
X161172829Y-117992871D01*
X161170136Y-117984396D01*
X161166805Y-117972473D01*
X161166802Y-117972465D01*
X161165494Y-117967783D01*
X161160121Y-117955972D01*
X161156160Y-117946194D01*
X161154346Y-117941116D01*
X161154342Y-117941108D01*
X161152835Y-117936887D01*
X161144387Y-117920866D01*
X161141168Y-117914305D01*
X161122765Y-117873845D01*
X161120970Y-117869702D01*
X161110049Y-117843175D01*
X161107524Y-117839011D01*
X161107277Y-117838521D01*
X161105217Y-117834936D01*
X161104293Y-117833237D01*
X161102433Y-117829147D01*
X161094257Y-117816367D01*
X161086283Y-117803902D01*
X161084675Y-117801320D01*
X161060041Y-117760686D01*
X161060989Y-117760112D01*
X161057593Y-117756272D01*
X161057416Y-117756023D01*
X161044281Y-117732694D01*
X161041266Y-117728867D01*
X161041027Y-117728510D01*
X161038415Y-117725014D01*
X161036236Y-117721419D01*
X161016203Y-117697010D01*
X161014620Y-117695042D01*
X161009900Y-117689050D01*
X161011159Y-117688059D01*
X161007692Y-117685001D01*
X161006628Y-117682849D01*
X161001693Y-117677483D01*
X160994212Y-117666938D01*
X160989678Y-117662277D01*
X160983681Y-117655430D01*
X160981707Y-117653261D01*
X160978933Y-117649740D01*
X160975688Y-117646648D01*
X160974342Y-117645365D01*
X160974341Y-117645364D01*
X160971935Y-117643072D01*
X160967297Y-117637420D01*
X160963201Y-117634624D01*
X160962906Y-117634135D01*
X160962740Y-117634309D01*
X160960877Y-117632534D01*
X160957456Y-117629148D01*
X160954784Y-117626400D01*
X160952376Y-117623852D01*
X160949401Y-117620617D01*
X160948096Y-117618994D01*
X160943380Y-117613958D01*
X160938235Y-117606602D01*
X160931669Y-117601336D01*
X160930947Y-117600551D01*
X160929089Y-117599070D01*
X160927695Y-117597959D01*
X160924512Y-117595275D01*
X160922151Y-117592848D01*
X160912034Y-117585044D01*
X160909820Y-117583145D01*
X160906766Y-117580969D01*
X160900266Y-117574775D01*
X160895606Y-117572368D01*
X160895036Y-117571586D01*
X160894865Y-117571801D01*
X160893963Y-117571082D01*
X160894332Y-117570619D01*
X160894265Y-117570528D01*
X160893878Y-117571014D01*
X160891029Y-117568744D01*
X160890716Y-117568493D01*
X160882686Y-117562053D01*
X160851013Y-117536652D01*
X160846786Y-117534223D01*
X160844308Y-117532533D01*
X160838135Y-117528041D01*
X160838095Y-117528010D01*
X160831870Y-117522858D01*
X160831553Y-117522578D01*
X160824825Y-117516636D01*
X160816700Y-117512821D01*
X160816698Y-117512820D01*
X160787405Y-117499067D01*
X160777194Y-117493690D01*
X160765690Y-117486941D01*
X160765691Y-117486941D01*
X160757945Y-117482397D01*
X160749233Y-117480209D01*
X160744693Y-117478352D01*
X160736897Y-117474849D01*
X160705984Y-117459682D01*
X160694994Y-117453518D01*
X160694202Y-117453097D01*
X160690092Y-117450485D01*
X160685628Y-117448536D01*
X160685622Y-117448533D01*
X160666752Y-117440295D01*
X160661665Y-117437938D01*
X160645602Y-117430057D01*
X160645598Y-117430055D01*
X160641578Y-117428083D01*
X160636513Y-117426439D01*
X160625020Y-117422075D01*
X160582447Y-117403489D01*
X160576281Y-117400349D01*
X160576236Y-117400441D01*
X160571857Y-117398308D01*
X160567662Y-117395848D01*
X160563139Y-117394062D01*
X160563134Y-117394060D01*
X160541350Y-117385460D01*
X160537207Y-117383739D01*
X160535441Y-117382968D01*
X160514137Y-117373667D01*
X160509817Y-117372474D01*
X160505589Y-117370976D01*
X160505598Y-117370950D01*
X160499029Y-117368753D01*
X160449532Y-117349212D01*
X160444099Y-117346919D01*
X160439660Y-117344921D01*
X160435391Y-117342589D01*
X160430818Y-117340942D01*
X160430808Y-117340938D01*
X160407201Y-117332439D01*
X160403652Y-117331100D01*
X160378675Y-117321240D01*
X160374316Y-117320202D01*
X160370043Y-117318857D01*
X160370084Y-117318727D01*
X160364433Y-117317040D01*
X160306502Y-117296183D01*
X160300677Y-117293920D01*
X160298490Y-117293007D01*
X160294155Y-117290790D01*
X160264813Y-117281123D01*
X160261590Y-117280013D01*
X160235369Y-117270572D01*
X160230975Y-117269666D01*
X160227195Y-117268602D01*
X160221928Y-117266994D01*
X160156627Y-117245478D01*
X160150539Y-117243297D01*
X160149474Y-117242884D01*
X160145084Y-117240780D01*
X160114999Y-117231719D01*
X160111912Y-117230746D01*
X160089277Y-117223289D01*
X160089279Y-117223289D01*
X160085013Y-117221884D01*
X160080597Y-117221099D01*
X160078046Y-117220455D01*
X160072533Y-117218930D01*
X160000835Y-117197336D01*
X159994632Y-117195291D01*
X159993895Y-117195027D01*
X159989453Y-117193034D01*
X159959007Y-117184697D01*
X159955978Y-117183827D01*
X159928685Y-117175607D01*
X159924250Y-117174935D01*
X159922032Y-117174436D01*
X159916438Y-117173041D01*
X159840353Y-117152207D01*
X159834147Y-117150335D01*
X159833096Y-117149988D01*
X159828605Y-117148110D01*
X159823882Y-117146946D01*
X159823878Y-117146945D01*
X159798093Y-117140592D01*
X159795006Y-117139790D01*
X159767628Y-117132293D01*
X159763188Y-117131735D01*
X159760599Y-117131220D01*
X159755027Y-117129981D01*
X159676560Y-117110647D01*
X159670476Y-117108985D01*
X159668420Y-117108367D01*
X159663882Y-117106613D01*
X159659133Y-117105578D01*
X159659129Y-117105577D01*
X159633557Y-117100005D01*
X159630272Y-117099243D01*
X159603169Y-117092565D01*
X159598716Y-117092121D01*
X159595078Y-117091495D01*
X159589630Y-117090433D01*
X159529229Y-117077272D01*
X159510849Y-117073267D01*
X159504988Y-117071842D01*
X159501185Y-117070820D01*
X159496597Y-117069199D01*
X159466812Y-117063617D01*
X159463232Y-117062891D01*
X159436635Y-117057096D01*
X159432163Y-117056772D01*
X159427725Y-117056131D01*
X159427749Y-117055967D01*
X159422115Y-117055240D01*
X159343515Y-117040509D01*
X159337372Y-117038964D01*
X159337332Y-117039133D01*
X159332603Y-117038026D01*
X159327959Y-117036554D01*
X159323148Y-117035814D01*
X159299060Y-117032109D01*
X159295003Y-117031417D01*
X159273737Y-117027431D01*
X159273733Y-117027431D01*
X159269339Y-117026607D01*
X159264866Y-117026414D01*
X159260413Y-117025904D01*
X159260423Y-117025814D01*
X159254112Y-117025195D01*
X159175607Y-117013120D01*
X159168519Y-117011601D01*
X159168507Y-117011663D01*
X159163726Y-117010731D01*
X159159034Y-117009434D01*
X159154201Y-117008875D01*
X159154198Y-117008874D01*
X159131509Y-117006248D01*
X159126844Y-117005620D01*
X159112046Y-117003344D01*
X159102486Y-117001874D01*
X159098008Y-117001828D01*
X159093913Y-117001493D01*
X159086291Y-117001014D01*
X159008586Y-116992021D01*
X158996624Y-116989962D01*
X158995374Y-116989775D01*
X158990631Y-116988686D01*
X158965055Y-116986860D01*
X158959558Y-116986346D01*
X158948038Y-116985013D01*
X158941612Y-116984269D01*
X158941608Y-116984269D01*
X158937160Y-116983754D01*
X158932012Y-116983893D01*
X158919645Y-116983619D01*
X158897533Y-116982041D01*
X158843062Y-116978153D01*
X158830399Y-116976602D01*
X158828000Y-116976184D01*
X158827995Y-116976184D01*
X158823197Y-116975347D01*
X158800458Y-116974934D01*
X158793802Y-116974637D01*
X158782242Y-116973812D01*
X158778672Y-116973557D01*
X158778669Y-116973557D01*
X158774199Y-116973238D01*
X158769729Y-116973556D01*
X158769719Y-116973556D01*
X158766127Y-116973812D01*
X158754903Y-116974109D01*
X158679094Y-116972734D01*
X158667978Y-116972040D01*
X158661437Y-116971340D01*
X158661431Y-116971340D01*
X158656590Y-116970822D01*
X158651725Y-116971055D01*
X158651723Y-116971055D01*
X158637957Y-116971714D01*
X158629653Y-116971837D01*
X158618596Y-116971637D01*
X158618593Y-116971637D01*
X158614112Y-116971556D01*
X158601936Y-116973075D01*
X158592385Y-116973899D01*
X158516084Y-116977555D01*
X158507263Y-116977668D01*
X158489867Y-116977282D01*
X158485048Y-116977923D01*
X158485049Y-116977923D01*
X158477163Y-116978972D01*
X158466582Y-116979927D01*
X158456883Y-116980392D01*
X158440115Y-116983619D01*
X158438946Y-116983844D01*
X158431755Y-116985013D01*
X158397971Y-116989508D01*
X158397890Y-116989519D01*
X158372888Y-116992829D01*
X158370678Y-116993054D01*
X158368494Y-116993054D01*
X158364055Y-116993690D01*
X158364052Y-116993690D01*
X158336143Y-116997687D01*
X158334817Y-116997870D01*
X158305330Y-117001774D01*
X158266174Y-117006958D01*
X158263665Y-117008067D01*
X158260926Y-117008459D01*
X158247635Y-117014502D01*
X158238702Y-117018563D01*
X158220717Y-117025141D01*
X158197217Y-117031760D01*
X158189609Y-117036519D01*
X158189607Y-117036520D01*
X158171134Y-117048076D01*
X158156461Y-117055956D01*
X158136634Y-117064970D01*
X158136629Y-117064973D01*
X158128461Y-117068687D01*
X158121661Y-117074546D01*
X158120866Y-117075231D01*
X158099159Y-117090278D01*
X158094655Y-117092746D01*
X158094652Y-117092748D01*
X158086779Y-117097061D01*
X158076684Y-117107160D01*
X158076147Y-117106623D01*
X158073500Y-117108608D01*
X158073857Y-117108926D01*
X158073682Y-117109123D01*
X158067887Y-117115634D01*
X158067655Y-117115895D01*
X158062660Y-117121191D01*
X158051655Y-117132201D01*
X158044956Y-117138432D01*
X158007378Y-117170917D01*
X158002506Y-117178460D01*
X158002505Y-117178461D01*
X158001193Y-117180492D01*
X157995256Y-117188553D01*
X157990328Y-117192985D01*
X157985607Y-117200618D01*
X157964587Y-117234603D01*
X157959191Y-117242621D01*
X157954999Y-117248362D01*
X157954991Y-117248375D01*
X157952352Y-117251989D01*
X157950252Y-117255940D01*
X157950246Y-117255950D01*
X157945240Y-117265370D01*
X157941140Y-117272511D01*
X157940570Y-117273433D01*
X157931516Y-117288073D01*
X157931154Y-117288930D01*
X157928428Y-117293151D01*
X157926179Y-117300715D01*
X157925558Y-117302186D01*
X157923937Y-117305459D01*
X157909942Y-117331795D01*
X157901359Y-117347947D01*
X157899540Y-117356738D01*
X157899518Y-117356800D01*
X157891027Y-117382968D01*
X157885534Y-117395154D01*
X157883533Y-117399594D01*
X157882240Y-117404284D01*
X157882075Y-117404740D01*
X157881564Y-117406399D01*
X157880544Y-117408816D01*
X157875476Y-117428083D01*
X157871486Y-117443252D01*
X157871106Y-117444662D01*
X157860120Y-117484506D01*
X157859172Y-117487943D01*
X157855828Y-117498302D01*
X157851619Y-117509637D01*
X157850646Y-117514411D01*
X157848018Y-117527304D01*
X157846022Y-117535635D01*
X157842057Y-117550015D01*
X157841490Y-117554461D01*
X157841489Y-117554466D01*
X157840426Y-117562804D01*
X157838903Y-117572016D01*
X157830453Y-117613469D01*
X157830291Y-117614263D01*
X157827022Y-117626754D01*
X157826875Y-117627374D01*
X157825386Y-117632008D01*
X157821422Y-117657150D01*
X157820434Y-117662617D01*
X157815976Y-117684488D01*
X157815712Y-117688964D01*
X157815712Y-117688966D01*
X157815660Y-117689849D01*
X157814341Y-117702069D01*
X157806237Y-117753469D01*
X157804807Y-117759976D01*
X157804936Y-117760002D01*
X157803973Y-117764772D01*
X157802644Y-117769456D01*
X157800165Y-117789673D01*
X157799153Y-117797924D01*
X157798553Y-117802209D01*
X157794567Y-117827493D01*
X157794504Y-117831980D01*
X157794123Y-117836436D01*
X157794068Y-117836431D01*
X157793614Y-117843090D01*
X157785812Y-117906714D01*
X157784937Y-117912672D01*
X157784252Y-117916665D01*
X157783061Y-117921390D01*
X157782611Y-117926238D01*
X157780266Y-117951498D01*
X157779870Y-117955175D01*
X157776564Y-117982130D01*
X157776655Y-117986615D01*
X157776427Y-117991093D01*
X157776265Y-117991085D01*
X157776060Y-117996803D01*
X157772396Y-118036271D01*
X157769025Y-118072580D01*
X157768292Y-118078794D01*
X157767932Y-118081311D01*
X157766873Y-118086055D01*
X157766557Y-118090910D01*
X157764868Y-118116824D01*
X157764596Y-118120274D01*
X157762443Y-118143471D01*
X157762029Y-118147934D01*
X157762252Y-118152413D01*
X157762165Y-118156471D01*
X157761928Y-118161961D01*
X157757703Y-118226833D01*
X157756342Y-118247719D01*
X157755778Y-118253967D01*
X157755498Y-118256397D01*
X157754569Y-118261172D01*
X157754386Y-118266033D01*
X157754386Y-118266034D01*
X157753409Y-118291992D01*
X157753232Y-118295440D01*
X157751716Y-118318714D01*
X157751716Y-118318723D01*
X157751425Y-118323192D01*
X157751771Y-118327665D01*
X157751796Y-118331697D01*
X157751709Y-118337205D01*
X157748226Y-118429803D01*
X157747850Y-118435879D01*
X157747538Y-118439507D01*
X157746747Y-118444309D01*
X157746508Y-118471797D01*
X157746483Y-118474722D01*
X157746399Y-118478351D01*
X157745373Y-118505646D01*
X157745840Y-118510096D01*
X157745991Y-118514586D01*
X157745819Y-118514592D01*
X157746089Y-118520205D01*
X157745248Y-118617136D01*
X157744817Y-118623298D01*
X157745008Y-118623308D01*
X157744745Y-118628174D01*
X157744109Y-118632993D01*
X153986745Y-118632993D01*
X153974141Y-118083528D01*
X153974145Y-118077588D01*
X153974255Y-118073021D01*
X153974748Y-118068185D01*
X153973157Y-118038167D01*
X153973014Y-118034404D01*
X153972498Y-118011915D01*
X153972498Y-118011913D01*
X153972395Y-118007433D01*
X153971657Y-118003008D01*
X153971237Y-117998553D01*
X153971385Y-117998539D01*
X153970749Y-117992739D01*
X153970662Y-117991085D01*
X153954971Y-117695042D01*
X153938919Y-117392184D01*
X153938793Y-117387044D01*
X153939127Y-117382948D01*
X153936700Y-117349828D01*
X153936540Y-117347291D01*
X153935187Y-117321779D01*
X153934950Y-117317303D01*
X153934157Y-117313291D01*
X153933633Y-117307997D01*
X153925112Y-117191748D01*
X153893151Y-116755742D01*
X153893015Y-116752479D01*
X153893215Y-116749490D01*
X153892789Y-116744645D01*
X153892789Y-116744637D01*
X153890153Y-116714654D01*
X153890006Y-116712833D01*
X153888003Y-116685506D01*
X153888003Y-116685504D01*
X153887675Y-116681033D01*
X153887036Y-116678114D01*
X153886646Y-116674768D01*
X153884605Y-116651550D01*
X153847487Y-116229307D01*
X153847330Y-116226472D01*
X153847474Y-116223793D01*
X153846775Y-116216863D01*
X153843910Y-116188487D01*
X153843757Y-116186867D01*
X153841314Y-116159076D01*
X153841313Y-116159071D01*
X153840922Y-116154621D01*
X153840314Y-116152023D01*
X153839938Y-116149137D01*
X153799432Y-115747921D01*
X153798965Y-115728716D01*
X153799775Y-115713160D01*
X153799775Y-115713156D01*
X153800241Y-115704198D01*
X153798173Y-115695466D01*
X153798173Y-115695462D01*
X153791514Y-115667341D01*
X153791085Y-115665249D01*
X153790872Y-115663133D01*
X153783014Y-115631417D01*
X153782729Y-115630239D01*
X153775601Y-115600134D01*
X153775601Y-115600133D01*
X153774480Y-115595400D01*
X153773674Y-115593423D01*
X153773095Y-115591380D01*
X153771025Y-115583026D01*
X153764740Y-115557656D01*
X153750410Y-115533049D01*
X153742614Y-115517200D01*
X153547151Y-115037533D01*
X153545076Y-115032084D01*
X153507309Y-114925529D01*
X153366968Y-114529579D01*
X153365296Y-114524523D01*
X153362743Y-114516215D01*
X153212412Y-114027143D01*
X153211091Y-114022533D01*
X153080353Y-113531362D01*
X153079340Y-113527286D01*
X152999307Y-113180502D01*
X152967639Y-113043283D01*
X152966895Y-113039836D01*
X152871688Y-112566766D01*
X152870978Y-112562936D01*
X152713860Y-111634748D01*
X152713557Y-111632869D01*
X152461052Y-109990771D01*
X152460356Y-109983415D01*
X152460308Y-109983420D01*
X152459757Y-109978581D01*
X152459581Y-109973714D01*
X152454369Y-109946711D01*
X152453550Y-109941985D01*
X152450520Y-109922279D01*
X152449840Y-109917855D01*
X152448539Y-109913572D01*
X152447792Y-109910286D01*
X152445744Y-109902016D01*
X152387625Y-109600865D01*
X152386653Y-109593565D01*
X152386602Y-109593573D01*
X152385870Y-109588770D01*
X152385509Y-109583908D01*
X152384406Y-109579166D01*
X152384404Y-109579154D01*
X152379267Y-109557073D01*
X152378274Y-109552405D01*
X152374492Y-109532811D01*
X152374489Y-109532802D01*
X152373639Y-109528395D01*
X152372173Y-109524154D01*
X152371254Y-109520725D01*
X152368958Y-109512765D01*
X152303033Y-109229401D01*
X152300775Y-109216846D01*
X152300465Y-109214421D01*
X152300465Y-109214420D01*
X152299848Y-109209600D01*
X152293529Y-109187764D01*
X152291841Y-109181293D01*
X152288407Y-109166534D01*
X152288405Y-109166527D01*
X152287390Y-109162165D01*
X152284455Y-109154617D01*
X152280860Y-109143989D01*
X152202772Y-108874165D01*
X152200279Y-108863982D01*
X152198652Y-108855894D01*
X152198651Y-108855892D01*
X152197691Y-108851116D01*
X152191813Y-108835156D01*
X152189016Y-108826638D01*
X152186396Y-108817583D01*
X152186395Y-108817579D01*
X152185151Y-108813282D01*
X152179414Y-108800569D01*
X152176025Y-108792288D01*
X152110774Y-108615117D01*
X152085425Y-108546292D01*
X152081713Y-108534440D01*
X152079656Y-108526523D01*
X152077720Y-108522053D01*
X152070959Y-108506443D01*
X152068343Y-108499910D01*
X152061866Y-108482322D01*
X152059542Y-108478017D01*
X152057599Y-108474418D01*
X152052852Y-108464640D01*
X152038486Y-108431473D01*
X151980194Y-108296897D01*
X151977798Y-108290952D01*
X151977276Y-108289557D01*
X151975930Y-108284883D01*
X151973882Y-108280475D01*
X151973879Y-108280467D01*
X151962756Y-108256528D01*
X151961404Y-108253515D01*
X151951988Y-108231776D01*
X151951984Y-108231768D01*
X151950204Y-108227659D01*
X151947856Y-108223839D01*
X151946481Y-108221197D01*
X151943975Y-108216108D01*
X151878916Y-108076080D01*
X151876432Y-108070332D01*
X151875032Y-108065864D01*
X151860764Y-108036932D01*
X151859520Y-108034332D01*
X151849143Y-108011997D01*
X151849140Y-108011992D01*
X151847251Y-108007926D01*
X151844803Y-108004167D01*
X151844469Y-108003564D01*
X151841671Y-107998217D01*
X151778557Y-107870237D01*
X151776859Y-107866515D01*
X151775748Y-107863174D01*
X151760070Y-107832713D01*
X151759172Y-107830929D01*
X151745426Y-107803056D01*
X151743445Y-107800162D01*
X151741426Y-107796487D01*
X151678109Y-107673467D01*
X151677351Y-107671863D01*
X151676750Y-107670104D01*
X151659581Y-107637460D01*
X151659178Y-107636684D01*
X151643712Y-107606635D01*
X151642637Y-107605121D01*
X151641743Y-107603543D01*
X151453521Y-107245664D01*
X151453075Y-107244809D01*
X151343457Y-107032455D01*
X151342711Y-107030985D01*
X151225315Y-106796073D01*
X151224422Y-106794251D01*
X151130044Y-106597542D01*
X151096490Y-106527606D01*
X151095579Y-106525663D01*
X150959333Y-106228733D01*
X150954787Y-106218827D01*
X150953924Y-106216904D01*
X150950560Y-106209233D01*
X150798037Y-105861492D01*
X150797253Y-105859666D01*
X150744345Y-105733674D01*
X150624181Y-105447524D01*
X150623514Y-105445901D01*
X150595458Y-105376309D01*
X150431385Y-104969345D01*
X150430791Y-104967844D01*
X150217644Y-104418990D01*
X150217135Y-104417656D01*
X150180970Y-104321311D01*
X149981180Y-103789056D01*
X149980760Y-103787922D01*
X149951860Y-103708534D01*
X149732303Y-103105412D01*
X149731686Y-103103520D01*
X149731274Y-103101533D01*
X149718466Y-103067383D01*
X149718044Y-103066240D01*
X149708144Y-103039047D01*
X149706606Y-103034822D01*
X149705652Y-103033040D01*
X149704872Y-103031140D01*
X149664106Y-102922446D01*
X149633618Y-102841159D01*
X149632798Y-102838908D01*
X149607999Y-102768723D01*
X149564372Y-102645256D01*
X149563288Y-102642049D01*
X149535263Y-102555362D01*
X149534438Y-102552708D01*
X149507866Y-102463551D01*
X149507026Y-102460594D01*
X149481880Y-102367838D01*
X149481091Y-102364777D01*
X149479379Y-102357768D01*
X149469891Y-102318941D01*
X149456705Y-102264975D01*
X149456031Y-102262069D01*
X149431868Y-102151931D01*
X149431321Y-102149303D01*
X149418046Y-102081970D01*
X149406990Y-102025896D01*
X149406568Y-102023648D01*
X149405683Y-102018676D01*
X149381726Y-101884179D01*
X149381406Y-101882295D01*
X149379737Y-101872009D01*
X149355818Y-101724645D01*
X149355574Y-101723084D01*
X149328903Y-101544648D01*
X149328723Y-101543399D01*
X149300826Y-101343049D01*
X149300641Y-101341664D01*
X149283563Y-101208197D01*
X149241268Y-100877649D01*
X149240490Y-100869450D01*
X149240458Y-100868921D01*
X149223039Y-100587303D01*
X149216044Y-100474205D01*
X149215969Y-100472878D01*
X149196466Y-100092447D01*
X149195740Y-100078272D01*
X149195673Y-100076802D01*
X149180815Y-99700822D01*
X149180761Y-99699174D01*
X149171335Y-99342281D01*
X149171300Y-99340428D01*
X149169619Y-99196750D01*
X151489874Y-99196750D01*
X151490318Y-99201591D01*
X151490318Y-99201601D01*
X151490729Y-99206087D01*
X151491254Y-99218048D01*
X151491247Y-99219832D01*
X151491248Y-99219844D01*
X151491231Y-99224318D01*
X151494253Y-99246008D01*
X151494928Y-99251860D01*
X151506805Y-99381358D01*
X151507299Y-99390000D01*
X151507594Y-99402978D01*
X151507705Y-99407846D01*
X151508563Y-99412636D01*
X151509888Y-99420035D01*
X151511336Y-99430752D01*
X151511773Y-99435523D01*
X151511774Y-99435530D01*
X151512183Y-99439989D01*
X151513220Y-99444347D01*
X151513221Y-99444350D01*
X151516510Y-99458164D01*
X151517964Y-99465139D01*
X151542643Y-99602970D01*
X151543991Y-99612653D01*
X151545476Y-99627520D01*
X151546697Y-99632223D01*
X151546699Y-99632235D01*
X151549299Y-99642249D01*
X151551369Y-99651702D01*
X151553503Y-99663619D01*
X151554909Y-99667869D01*
X151554910Y-99667874D01*
X151558459Y-99678603D01*
X151560789Y-99686503D01*
X151588084Y-99791643D01*
X151589182Y-99797202D01*
X151589150Y-99802371D01*
X151601473Y-99845486D01*
X151606814Y-99864175D01*
X151607694Y-99867418D01*
X151613814Y-99891213D01*
X151615319Y-99897067D01*
X151617242Y-99901538D01*
X151617755Y-99903041D01*
X151619648Y-99909078D01*
X151629138Y-99942284D01*
X151639710Y-99959039D01*
X151649385Y-99977644D01*
X151657032Y-99995922D01*
X151656978Y-99995944D01*
X151661259Y-100004961D01*
X151667278Y-100021556D01*
X151671635Y-100029487D01*
X151676948Y-100040364D01*
X151679302Y-100045838D01*
X151681636Y-100049658D01*
X151681642Y-100049670D01*
X151690884Y-100064798D01*
X151693791Y-100069811D01*
X151716759Y-100111615D01*
X151720037Y-100118008D01*
X151727257Y-100133140D01*
X151727261Y-100133147D01*
X151729355Y-100137535D01*
X151732103Y-100141554D01*
X151734271Y-100144725D01*
X151740681Y-100155155D01*
X151741229Y-100156152D01*
X151743389Y-100160083D01*
X151756971Y-100178150D01*
X151760253Y-100182727D01*
X151785454Y-100219589D01*
X151789444Y-100225809D01*
X151794295Y-100233882D01*
X151800327Y-100243922D01*
X151803445Y-100247659D01*
X151803447Y-100247661D01*
X151806228Y-100250993D01*
X151813492Y-100260597D01*
X151816941Y-100265641D01*
X151825282Y-100274740D01*
X151831830Y-100281884D01*
X151835685Y-100286292D01*
X151861963Y-100317780D01*
X151866838Y-100324008D01*
X151875665Y-100336047D01*
X151875668Y-100336051D01*
X151878542Y-100339970D01*
X151881990Y-100343406D01*
X151885972Y-100347374D01*
X151893768Y-100355889D01*
X151898511Y-100361573D01*
X151904277Y-100366765D01*
X151913880Y-100375413D01*
X151918482Y-100379772D01*
X151944533Y-100405733D01*
X151950463Y-100412065D01*
X151962159Y-100425450D01*
X151969441Y-100431561D01*
X151971699Y-100433456D01*
X151979644Y-100440723D01*
X151983105Y-100444172D01*
X151986280Y-100447336D01*
X152001229Y-100458499D01*
X152006789Y-100462903D01*
X152031336Y-100483503D01*
X152038479Y-100489979D01*
X152049396Y-100500668D01*
X152057408Y-100506393D01*
X152061528Y-100509337D01*
X152069268Y-100515335D01*
X152074871Y-100520037D01*
X152074881Y-100520044D01*
X152078314Y-100522925D01*
X152092003Y-100531430D01*
X152098735Y-100535921D01*
X152120736Y-100551641D01*
X152129203Y-100558253D01*
X152138695Y-100566341D01*
X152153745Y-100575594D01*
X152160976Y-100580392D01*
X152172827Y-100588859D01*
X152176802Y-100590919D01*
X152184616Y-100594969D01*
X152192622Y-100599497D01*
X152211362Y-100611018D01*
X152221182Y-100617713D01*
X152221829Y-100618200D01*
X152228813Y-100623461D01*
X152233103Y-100625755D01*
X152233110Y-100625760D01*
X152246893Y-100633131D01*
X152253455Y-100636898D01*
X152268303Y-100646027D01*
X152274793Y-100648840D01*
X152277799Y-100650143D01*
X152287116Y-100654644D01*
X152302163Y-100662692D01*
X152313305Y-100669414D01*
X152318815Y-100673139D01*
X152323211Y-100675209D01*
X152323224Y-100675216D01*
X152339971Y-100683100D01*
X152345727Y-100685992D01*
X152359623Y-100693424D01*
X152363587Y-100695544D01*
X152367810Y-100697080D01*
X152367812Y-100697081D01*
X152370584Y-100698090D01*
X152381177Y-100702499D01*
X152397178Y-100710032D01*
X152407745Y-100715635D01*
X152415767Y-100720390D01*
X152420278Y-100722195D01*
X152435023Y-100728095D01*
X152441882Y-100731079D01*
X152457843Y-100738593D01*
X152462122Y-100739906D01*
X152462129Y-100739909D01*
X152467525Y-100741565D01*
X152477361Y-100745035D01*
X152568418Y-100781468D01*
X152580122Y-100786862D01*
X152586277Y-100790090D01*
X152590884Y-100791661D01*
X152590894Y-100791665D01*
X152608135Y-100797543D01*
X152614272Y-100799814D01*
X152632827Y-100807239D01*
X152637185Y-100808298D01*
X152637192Y-100808300D01*
X152640345Y-100809066D01*
X152651255Y-100812244D01*
X152739133Y-100842207D01*
X152744535Y-100844217D01*
X152748502Y-100846188D01*
X152753135Y-100847655D01*
X152753137Y-100847656D01*
X152779581Y-100856030D01*
X152782203Y-100856892D01*
X152810184Y-100866432D01*
X152814519Y-100867249D01*
X152820291Y-100868921D01*
X152938554Y-100906372D01*
X152939371Y-100906634D01*
X153080203Y-100952289D01*
X153084477Y-100953760D01*
X153210122Y-100999534D01*
X153215509Y-101001638D01*
X153262559Y-101021285D01*
X153267322Y-101023392D01*
X153272211Y-101025677D01*
X153311598Y-101044089D01*
X153317267Y-101046915D01*
X153354809Y-101066822D01*
X153361292Y-101070510D01*
X153392220Y-101089335D01*
X153399378Y-101094032D01*
X153424151Y-101111526D01*
X153431808Y-101117386D01*
X153451137Y-101133385D01*
X153459020Y-101140489D01*
X153474161Y-101155338D01*
X153481919Y-101163667D01*
X153488942Y-101171926D01*
X153494243Y-101178160D01*
X153501522Y-101187590D01*
X153512452Y-101203225D01*
X153518912Y-101213483D01*
X153529529Y-101232293D01*
X153534935Y-101243040D01*
X153543635Y-101262609D01*
X153549508Y-101284378D01*
X153550722Y-101284067D01*
X153552952Y-101292760D01*
X153553927Y-101301685D01*
X153567833Y-101335197D01*
X153572599Y-101348847D01*
X153582571Y-101383740D01*
X153587360Y-101391331D01*
X153587361Y-101391332D01*
X153592643Y-101399703D01*
X153602461Y-101418650D01*
X153609697Y-101436089D01*
X153615326Y-101443081D01*
X153619480Y-101450081D01*
X153621805Y-101453684D01*
X153626477Y-101460363D01*
X153630529Y-101468375D01*
X153639005Y-101477424D01*
X153653601Y-101496318D01*
X153655429Y-101499215D01*
X153660219Y-101506806D01*
X153666945Y-101512746D01*
X153666946Y-101512747D01*
X153674368Y-101519301D01*
X153689110Y-101534731D01*
X153700948Y-101549436D01*
X153708316Y-101554570D01*
X153714274Y-101560128D01*
X153717520Y-101562937D01*
X153723868Y-101568028D01*
X153730004Y-101574578D01*
X153737729Y-101579142D01*
X153737733Y-101579145D01*
X153740682Y-101580887D01*
X153759994Y-101594924D01*
X153769287Y-101603131D01*
X153786380Y-101611156D01*
X153804849Y-101621823D01*
X153820344Y-101632618D01*
X153828855Y-101635476D01*
X153836117Y-101639131D01*
X153840023Y-101640917D01*
X153847554Y-101644025D01*
X153855288Y-101648594D01*
X153866100Y-101651345D01*
X153867307Y-101651652D01*
X153889790Y-101659707D01*
X153901007Y-101664974D01*
X153909874Y-101666355D01*
X153909878Y-101666356D01*
X153919663Y-101667879D01*
X153940383Y-101672932D01*
X153958287Y-101678945D01*
X153967256Y-101679300D01*
X153975251Y-101680769D01*
X153979515Y-101681389D01*
X153987610Y-101682258D01*
X153996310Y-101684471D01*
X154005279Y-101684154D01*
X154005282Y-101684154D01*
X154035668Y-101683079D01*
X154045292Y-101682738D01*
X154054717Y-101682757D01*
X154103688Y-101684693D01*
X154112401Y-101682515D01*
X154120525Y-101681677D01*
X154124765Y-101681079D01*
X154132765Y-101679643D01*
X154141735Y-101679326D01*
X154157224Y-101674196D01*
X154178975Y-101669080D01*
X154186216Y-101668043D01*
X154195104Y-101666770D01*
X154208732Y-101660574D01*
X154230325Y-101653036D01*
X154236150Y-101651580D01*
X154236156Y-101651578D01*
X154244859Y-101649402D01*
X154252602Y-101644871D01*
X154260157Y-101641790D01*
X154264061Y-101640024D01*
X154271346Y-101636396D01*
X154279868Y-101633573D01*
X154293286Y-101624307D01*
X154312732Y-101613288D01*
X154319396Y-101610258D01*
X154319397Y-101610258D01*
X154327569Y-101606542D01*
X154338916Y-101596765D01*
X154357525Y-101583471D01*
X154362701Y-101580442D01*
X154370449Y-101575908D01*
X154376610Y-101569385D01*
X154382971Y-101564328D01*
X154386235Y-101561527D01*
X154392220Y-101555989D01*
X154399609Y-101550887D01*
X154406465Y-101542443D01*
X154409889Y-101538227D01*
X154425453Y-101522200D01*
X154431008Y-101517414D01*
X154431009Y-101517413D01*
X154437806Y-101511556D01*
X154445805Y-101499215D01*
X154445948Y-101498995D01*
X154460077Y-101481012D01*
X154464201Y-101476646D01*
X154464206Y-101476639D01*
X154470365Y-101470118D01*
X154474447Y-101462130D01*
X154479131Y-101455493D01*
X154481499Y-101451855D01*
X154485672Y-101444888D01*
X154491330Y-101437920D01*
X154497644Y-101422881D01*
X154508085Y-101403129D01*
X154512071Y-101396979D01*
X154512072Y-101396977D01*
X154516952Y-101389448D01*
X154528081Y-101352236D01*
X154532620Y-101339569D01*
X154544184Y-101312022D01*
X154547657Y-101303750D01*
X154548669Y-101294834D01*
X154550935Y-101286149D01*
X154551272Y-101286237D01*
X154557837Y-101261479D01*
X154568152Y-101237446D01*
X154573156Y-101227114D01*
X154583929Y-101207232D01*
X154589963Y-101197232D01*
X154600644Y-101181255D01*
X154607511Y-101171939D01*
X154618948Y-101157834D01*
X154626391Y-101149448D01*
X154639778Y-101135654D01*
X154647455Y-101128381D01*
X154664119Y-101113871D01*
X154671700Y-101107768D01*
X154692905Y-101092011D01*
X154700101Y-101087042D01*
X154726744Y-101069981D01*
X154733355Y-101066027D01*
X154757104Y-101052792D01*
X154766024Y-101047821D01*
X154771882Y-101044756D01*
X154810794Y-101025677D01*
X154815832Y-101023343D01*
X154856936Y-101005390D01*
X154862737Y-101003026D01*
X154977137Y-100959694D01*
X154981920Y-100957992D01*
X155113921Y-100913988D01*
X155114114Y-100913924D01*
X155373068Y-100828064D01*
X155384762Y-100824804D01*
X155393372Y-100822847D01*
X155413111Y-100815009D01*
X155419954Y-100812519D01*
X155432921Y-100808220D01*
X155432932Y-100808216D01*
X155437180Y-100806807D01*
X155445785Y-100802518D01*
X155455492Y-100798181D01*
X155471902Y-100791665D01*
X155539668Y-100764757D01*
X155551316Y-100760779D01*
X155554757Y-100759789D01*
X155554761Y-100759787D01*
X155559446Y-100758439D01*
X155579024Y-100749348D01*
X155585583Y-100746525D01*
X155598602Y-100741356D01*
X155598605Y-100741355D01*
X155602767Y-100739702D01*
X155610803Y-100735098D01*
X155620356Y-100730155D01*
X155627608Y-100726787D01*
X155631403Y-100725024D01*
X155643718Y-100720076D01*
X155644415Y-100719837D01*
X155649429Y-100718123D01*
X155670650Y-100706968D01*
X155676199Y-100704224D01*
X155691070Y-100697318D01*
X155691075Y-100697315D01*
X155695137Y-100695429D01*
X155698892Y-100692985D01*
X155698896Y-100692983D01*
X155700863Y-100691703D01*
X155710956Y-100685782D01*
X155721516Y-100680231D01*
X155732513Y-100675112D01*
X155740737Y-100671755D01*
X155744906Y-100669244D01*
X155744913Y-100669241D01*
X155758854Y-100660846D01*
X155765226Y-100657256D01*
X155777266Y-100650927D01*
X155781237Y-100648840D01*
X155789099Y-100643153D01*
X155797932Y-100637315D01*
X155812363Y-100628625D01*
X155822055Y-100623352D01*
X155828229Y-100620336D01*
X155828231Y-100620335D01*
X155832601Y-100618200D01*
X155847673Y-100607690D01*
X155854721Y-100603118D01*
X155867808Y-100595238D01*
X155871283Y-100592404D01*
X155871288Y-100592400D01*
X155877536Y-100587303D01*
X155885113Y-100581584D01*
X155903057Y-100569072D01*
X155911448Y-100563701D01*
X155919748Y-100558840D01*
X155923945Y-100556382D01*
X155936107Y-100546461D01*
X155943675Y-100540749D01*
X155950307Y-100536125D01*
X155950314Y-100536119D01*
X155953987Y-100533558D01*
X155965170Y-100523116D01*
X155971507Y-100517584D01*
X155992318Y-100500608D01*
X155999502Y-100495164D01*
X156009366Y-100488230D01*
X156009368Y-100488229D01*
X156013349Y-100485430D01*
X156022920Y-100476202D01*
X156030728Y-100469275D01*
X156035140Y-100465676D01*
X156038618Y-100462839D01*
X156050663Y-100449761D01*
X156055889Y-100444415D01*
X156078577Y-100422540D01*
X156084697Y-100417014D01*
X156095424Y-100407948D01*
X156095430Y-100407942D01*
X156099143Y-100404804D01*
X156102688Y-100400718D01*
X156106574Y-100396240D01*
X156114288Y-100388110D01*
X156117007Y-100385488D01*
X156117012Y-100385482D01*
X156120233Y-100382377D01*
X156132385Y-100366765D01*
X156136624Y-100361606D01*
X156160081Y-100334571D01*
X156165315Y-100328901D01*
X156176100Y-100317912D01*
X156176103Y-100317909D01*
X156179509Y-100314438D01*
X156185354Y-100306277D01*
X156192612Y-100297079D01*
X156197166Y-100291831D01*
X156199595Y-100288062D01*
X156208626Y-100274047D01*
X156212106Y-100268927D01*
X156235019Y-100236936D01*
X156239577Y-100230957D01*
X156239850Y-100230621D01*
X156252679Y-100214795D01*
X156257466Y-100206564D01*
X156263941Y-100196554D01*
X156265073Y-100194974D01*
X156265074Y-100194972D01*
X156267674Y-100191342D01*
X156270940Y-100185059D01*
X156277692Y-100172065D01*
X156280576Y-100166824D01*
X156301850Y-100130245D01*
X156305860Y-100123805D01*
X156314565Y-100110724D01*
X156314568Y-100110718D01*
X156317262Y-100106670D01*
X156321346Y-100097828D01*
X156326812Y-100087322D01*
X156327898Y-100085454D01*
X156330150Y-100081582D01*
X156331828Y-100077435D01*
X156331832Y-100077427D01*
X156338210Y-100061665D01*
X156340609Y-100056122D01*
X156349024Y-100037904D01*
X156357676Y-100022212D01*
X156367932Y-100006389D01*
X156372813Y-99998859D01*
X156383383Y-99963515D01*
X156383398Y-99963483D01*
X156383425Y-99963392D01*
X156383430Y-99963378D01*
X156392991Y-99931388D01*
X156393004Y-99931345D01*
X156393657Y-99929163D01*
X156394062Y-99927834D01*
X156445361Y-99763058D01*
X156448889Y-99753193D01*
X156451998Y-99745521D01*
X156451999Y-99745519D01*
X156453827Y-99741007D01*
X156457705Y-99724483D01*
X156460062Y-99715838D01*
X156464189Y-99702582D01*
X156466410Y-99688783D01*
X156468142Y-99680015D01*
X156482602Y-99618404D01*
X156500407Y-99542544D01*
X156502893Y-99533486D01*
X156506216Y-99522937D01*
X156506218Y-99522930D01*
X156507680Y-99518287D01*
X156509822Y-99504181D01*
X156511724Y-99494325D01*
X156513248Y-99487833D01*
X156513250Y-99487824D01*
X156514272Y-99483467D01*
X156515753Y-99466731D01*
X156516687Y-99458960D01*
X156517640Y-99452688D01*
X156536240Y-99330177D01*
X156537735Y-99322111D01*
X156540765Y-99308294D01*
X156540767Y-99308282D01*
X156541807Y-99303537D01*
X156542499Y-99292288D01*
X156543687Y-99281126D01*
X156544241Y-99277479D01*
X156544241Y-99277478D01*
X156544912Y-99273058D01*
X156545080Y-99253171D01*
X156545313Y-99246505D01*
X156552758Y-99125383D01*
X156553374Y-99118478D01*
X156555402Y-99101138D01*
X156555402Y-99101130D01*
X156555967Y-99096302D01*
X156555661Y-99088269D01*
X156555808Y-99075758D01*
X156556111Y-99070827D01*
X156555749Y-99066360D01*
X156555749Y-99066350D01*
X156554231Y-99047611D01*
X156553910Y-99042227D01*
X156549565Y-98928030D01*
X156549477Y-98922404D01*
X156549616Y-98901477D01*
X156549616Y-98901473D01*
X156549648Y-98896609D01*
X156548931Y-98891794D01*
X156548909Y-98891481D01*
X156548346Y-98885445D01*
X156548265Y-98885454D01*
X156547775Y-98880988D01*
X156547605Y-98876519D01*
X156546802Y-98872112D01*
X156542789Y-98850090D01*
X156542121Y-98846059D01*
X156526844Y-98743474D01*
X156526100Y-98738477D01*
X156525534Y-98734158D01*
X156522785Y-98709961D01*
X156522784Y-98709955D01*
X156522235Y-98705125D01*
X156520949Y-98700434D01*
X156520856Y-98699953D01*
X156519746Y-98695479D01*
X156519599Y-98694819D01*
X156518940Y-98690392D01*
X156510180Y-98661046D01*
X156509412Y-98658361D01*
X156481894Y-98558000D01*
X156481069Y-98554832D01*
X156474482Y-98528104D01*
X156474482Y-98528103D01*
X156473318Y-98523381D01*
X156471439Y-98518889D01*
X156471303Y-98518476D01*
X156470446Y-98516249D01*
X156469652Y-98513354D01*
X156455906Y-98481717D01*
X156455235Y-98480142D01*
X156416885Y-98388439D01*
X156415959Y-98386163D01*
X156404892Y-98358178D01*
X156404890Y-98358173D01*
X156403097Y-98353640D01*
X156400630Y-98349441D01*
X156400309Y-98348782D01*
X156400266Y-98348703D01*
X156399610Y-98347134D01*
X156382349Y-98318231D01*
X156379588Y-98313607D01*
X156379118Y-98312814D01*
X156342063Y-98249722D01*
X156331721Y-98232113D01*
X156330725Y-98230386D01*
X156315151Y-98202864D01*
X156312758Y-98198635D01*
X156310041Y-98195201D01*
X156309394Y-98194100D01*
X156307655Y-98191920D01*
X156307636Y-98191894D01*
X156281246Y-98158809D01*
X156280941Y-98158426D01*
X156266330Y-98139961D01*
X156227987Y-98091505D01*
X156226758Y-98089925D01*
X156204577Y-98060948D01*
X156201415Y-98057924D01*
X156200628Y-98056930D01*
X156167723Y-98025709D01*
X156124872Y-97984735D01*
X156108261Y-97968851D01*
X156106530Y-97967163D01*
X156085124Y-97945893D01*
X156085123Y-97945892D01*
X156081672Y-97942463D01*
X156077729Y-97939602D01*
X156077205Y-97939156D01*
X156075992Y-97937996D01*
X156043808Y-97914984D01*
X156043199Y-97914544D01*
X155976059Y-97865821D01*
X155973561Y-97863961D01*
X155951351Y-97846990D01*
X155947484Y-97844035D01*
X155943210Y-97841711D01*
X155942809Y-97841451D01*
X155941126Y-97840471D01*
X155938896Y-97838853D01*
X155907735Y-97822412D01*
X155906355Y-97821673D01*
X155834891Y-97782816D01*
X155831462Y-97780882D01*
X155805262Y-97765544D01*
X155800739Y-97763763D01*
X155800365Y-97763581D01*
X155796496Y-97761941D01*
X155792909Y-97759990D01*
X155762968Y-97748865D01*
X155760859Y-97748058D01*
X155687678Y-97719238D01*
X155683187Y-97717368D01*
X155657756Y-97706190D01*
X155653042Y-97704938D01*
X155652426Y-97704722D01*
X155649270Y-97703808D01*
X155645452Y-97702610D01*
X155641275Y-97700965D01*
X155613143Y-97694291D01*
X155609882Y-97693471D01*
X155536832Y-97674065D01*
X155531287Y-97672455D01*
X155507094Y-97664822D01*
X155502003Y-97664046D01*
X155495381Y-97662666D01*
X155495370Y-97662722D01*
X155490975Y-97661883D01*
X155486634Y-97660730D01*
X155460418Y-97657637D01*
X155456206Y-97657069D01*
X155428770Y-97652889D01*
X155384144Y-97646090D01*
X155377681Y-97644932D01*
X155373718Y-97644115D01*
X155354861Y-97640227D01*
X155347747Y-97639879D01*
X155336577Y-97638758D01*
X155335399Y-97638663D01*
X155330970Y-97637989D01*
X155306695Y-97637771D01*
X155301713Y-97637628D01*
X155258315Y-97635506D01*
X155230939Y-97634167D01*
X155223769Y-97633610D01*
X155207091Y-97631836D01*
X155207082Y-97631836D01*
X155202243Y-97631321D01*
X155197378Y-97631557D01*
X155197375Y-97631557D01*
X155193557Y-97631742D01*
X155181306Y-97631740D01*
X155180196Y-97631686D01*
X155180191Y-97631686D01*
X155175711Y-97631467D01*
X155171249Y-97631885D01*
X155171244Y-97631885D01*
X155153233Y-97633572D01*
X155147590Y-97633973D01*
X155123779Y-97635128D01*
X155078264Y-97637336D01*
X155070626Y-97637474D01*
X155058525Y-97637325D01*
X155055068Y-97637282D01*
X155055067Y-97637282D01*
X155050192Y-97637222D01*
X155040423Y-97638620D01*
X155028676Y-97639743D01*
X155021911Y-97640071D01*
X155017517Y-97640919D01*
X155017503Y-97640921D01*
X155000959Y-97644115D01*
X154994925Y-97645128D01*
X154927012Y-97654846D01*
X154919103Y-97655725D01*
X154899494Y-97657276D01*
X154894769Y-97658399D01*
X154894764Y-97658400D01*
X154889157Y-97659733D01*
X154877877Y-97661876D01*
X154874877Y-97662305D01*
X154874867Y-97662307D01*
X154870431Y-97662942D01*
X154866124Y-97664201D01*
X154866119Y-97664202D01*
X154850691Y-97668711D01*
X154844486Y-97670354D01*
X154777884Y-97686188D01*
X154769985Y-97687800D01*
X154755708Y-97690240D01*
X154755705Y-97690241D01*
X154750906Y-97691061D01*
X154746289Y-97692610D01*
X154746290Y-97692610D01*
X154740547Y-97694537D01*
X154729605Y-97697667D01*
X154721994Y-97699476D01*
X154717829Y-97701119D01*
X154717828Y-97701119D01*
X154703182Y-97706895D01*
X154697033Y-97709137D01*
X154631703Y-97731057D01*
X154624002Y-97733371D01*
X154609920Y-97737115D01*
X154609916Y-97737116D01*
X154605220Y-97738365D01*
X154600768Y-97740323D01*
X154600765Y-97740324D01*
X154595306Y-97742725D01*
X154584672Y-97746838D01*
X154582869Y-97747443D01*
X154581583Y-97747874D01*
X154581580Y-97747875D01*
X154577328Y-97749302D01*
X154573316Y-97751319D01*
X154573315Y-97751320D01*
X154559165Y-97758436D01*
X154553282Y-97761207D01*
X154489319Y-97789338D01*
X154482043Y-97792271D01*
X154467875Y-97797476D01*
X154467868Y-97797479D01*
X154463309Y-97799154D01*
X154459064Y-97801509D01*
X154454254Y-97804177D01*
X154443872Y-97809326D01*
X154441332Y-97810443D01*
X154441328Y-97810445D01*
X154437236Y-97812245D01*
X154433441Y-97814606D01*
X154433432Y-97814611D01*
X154419544Y-97823252D01*
X154414106Y-97826449D01*
X154351621Y-97861114D01*
X154344979Y-97864545D01*
X154326189Y-97873550D01*
X154322175Y-97876304D01*
X154318374Y-97878912D01*
X154308220Y-97885193D01*
X154302616Y-97888302D01*
X154299049Y-97891006D01*
X154299039Y-97891013D01*
X154285295Y-97901435D01*
X154280467Y-97904920D01*
X154225932Y-97942336D01*
X154219859Y-97946503D01*
X154213951Y-97950318D01*
X154195091Y-97961762D01*
X154191361Y-97964903D01*
X154191358Y-97964905D01*
X154188715Y-97967130D01*
X154178851Y-97974638D01*
X154178244Y-97975055D01*
X154174539Y-97977597D01*
X154174101Y-97978000D01*
X154109262Y-98004417D01*
X154039468Y-97991406D01*
X154018591Y-97976864D01*
X154018025Y-97977580D01*
X154014208Y-97974561D01*
X154010634Y-97971256D01*
X154003477Y-97966444D01*
X153993631Y-97959103D01*
X153992814Y-97958430D01*
X153992812Y-97958429D01*
X153989358Y-97955581D01*
X153970018Y-97943797D01*
X153965279Y-97940762D01*
X153902164Y-97898329D01*
X153895886Y-97893823D01*
X153883654Y-97884461D01*
X153883652Y-97884459D01*
X153879790Y-97881504D01*
X153870980Y-97876705D01*
X153860959Y-97870625D01*
X153858920Y-97869254D01*
X153858918Y-97869253D01*
X153855204Y-97866756D01*
X153851175Y-97864812D01*
X153851169Y-97864808D01*
X153836141Y-97857555D01*
X153830641Y-97854732D01*
X153793759Y-97834643D01*
X153765587Y-97819298D01*
X153758579Y-97815181D01*
X153752377Y-97811262D01*
X153746479Y-97807536D01*
X153746474Y-97807533D01*
X153742366Y-97804938D01*
X153737908Y-97803006D01*
X153737897Y-97803000D01*
X153732177Y-97800521D01*
X153722023Y-97795568D01*
X153718923Y-97793880D01*
X153714993Y-97791739D01*
X153710802Y-97790178D01*
X153710793Y-97790174D01*
X153696208Y-97784742D01*
X153690077Y-97782274D01*
X153646949Y-97763581D01*
X153623450Y-97753396D01*
X153615848Y-97749794D01*
X153599460Y-97741347D01*
X153588256Y-97737616D01*
X153577960Y-97733679D01*
X153574085Y-97731999D01*
X153574080Y-97731997D01*
X153569966Y-97730214D01*
X153551344Y-97725125D01*
X153544756Y-97723130D01*
X153527435Y-97717362D01*
X153476762Y-97700488D01*
X153468750Y-97697514D01*
X153456494Y-97692485D01*
X153456491Y-97692484D01*
X153451999Y-97690641D01*
X153440196Y-97687816D01*
X153429744Y-97684831D01*
X153421155Y-97681971D01*
X153402461Y-97678585D01*
X153395639Y-97677152D01*
X153326377Y-97660574D01*
X153318167Y-97658313D01*
X153314845Y-97657276D01*
X153300792Y-97652889D01*
X153288873Y-97651110D01*
X153278149Y-97649031D01*
X153273804Y-97647991D01*
X153273800Y-97647990D01*
X153269441Y-97646947D01*
X153253294Y-97645446D01*
X153250466Y-97645183D01*
X153243534Y-97644344D01*
X153173062Y-97633828D01*
X153164865Y-97632326D01*
X153151357Y-97629386D01*
X153151343Y-97629384D01*
X153146587Y-97628349D01*
X153136396Y-97627739D01*
X153135045Y-97627658D01*
X153123976Y-97626503D01*
X153120051Y-97625917D01*
X153120046Y-97625917D01*
X153115613Y-97625255D01*
X153096721Y-97625144D01*
X153096066Y-97625140D01*
X153089275Y-97624917D01*
X153072756Y-97623928D01*
X153017497Y-97620618D01*
X153009582Y-97619892D01*
X152990115Y-97617483D01*
X152979462Y-97617817D01*
X152967982Y-97617653D01*
X152964908Y-97617469D01*
X152964903Y-97617469D01*
X152960427Y-97617201D01*
X152939978Y-97618890D01*
X152933580Y-97619254D01*
X152881352Y-97620891D01*
X152860576Y-97621542D01*
X152853119Y-97621555D01*
X152848033Y-97621413D01*
X152832169Y-97620971D01*
X152827338Y-97621586D01*
X152827335Y-97621586D01*
X152822880Y-97622153D01*
X152810917Y-97623099D01*
X152810666Y-97623107D01*
X152804657Y-97623295D01*
X152793626Y-97625229D01*
X152783108Y-97627073D01*
X152777256Y-97627957D01*
X152711379Y-97636339D01*
X152703547Y-97637336D01*
X152703075Y-97637396D01*
X152696317Y-97638072D01*
X152673666Y-97639720D01*
X152666164Y-97641453D01*
X152653727Y-97643675D01*
X152649163Y-97644256D01*
X152626331Y-97650546D01*
X152621258Y-97651829D01*
X152599343Y-97656893D01*
X152546066Y-97669203D01*
X152540198Y-97670413D01*
X152515800Y-97674837D01*
X152510415Y-97676705D01*
X152503617Y-97678662D01*
X152503623Y-97678683D01*
X152499337Y-97680001D01*
X152494968Y-97681010D01*
X152490781Y-97682631D01*
X152490780Y-97682631D01*
X152470902Y-97690325D01*
X152466719Y-97691860D01*
X152390978Y-97718130D01*
X152386163Y-97719691D01*
X152360163Y-97727537D01*
X152355776Y-97729643D01*
X152352287Y-97730997D01*
X152351680Y-97731247D01*
X152351746Y-97731400D01*
X152347632Y-97733164D01*
X152343394Y-97734634D01*
X152318206Y-97747622D01*
X152315090Y-97749173D01*
X152239743Y-97785342D01*
X152235944Y-97787086D01*
X152208871Y-97798976D01*
X152204757Y-97801602D01*
X152204352Y-97801819D01*
X152200268Y-97804286D01*
X152200216Y-97804316D01*
X152196177Y-97806255D01*
X152170378Y-97823522D01*
X152168182Y-97824957D01*
X152094859Y-97871773D01*
X152091991Y-97873550D01*
X152078747Y-97881504D01*
X152071048Y-97886128D01*
X152064647Y-97889972D01*
X152060908Y-97893091D01*
X152060573Y-97893329D01*
X152058328Y-97895098D01*
X152055555Y-97896869D01*
X152052164Y-97899786D01*
X152052154Y-97899794D01*
X152029922Y-97918922D01*
X152028462Y-97920159D01*
X151959230Y-97977918D01*
X151957053Y-97979694D01*
X151930685Y-98000697D01*
X151927387Y-98004283D01*
X151926970Y-98004671D01*
X151926119Y-98005541D01*
X151924325Y-98007038D01*
X151921320Y-98010374D01*
X151899897Y-98034155D01*
X151899013Y-98035126D01*
X151836042Y-98103581D01*
X151834291Y-98105446D01*
X151810373Y-98130408D01*
X151807583Y-98134404D01*
X151807137Y-98134948D01*
X151806917Y-98135243D01*
X151805647Y-98136623D01*
X151803103Y-98140330D01*
X151783955Y-98168232D01*
X151783395Y-98169041D01*
X151739332Y-98232143D01*
X151728563Y-98247564D01*
X151727025Y-98249718D01*
X151706772Y-98277459D01*
X151704539Y-98281788D01*
X151704210Y-98282321D01*
X151703892Y-98282893D01*
X151702737Y-98284547D01*
X151700720Y-98288544D01*
X151685739Y-98318231D01*
X151685234Y-98319220D01*
X151639448Y-98407998D01*
X151637978Y-98410764D01*
X151624552Y-98435281D01*
X151624549Y-98435288D01*
X151622211Y-98439557D01*
X151620558Y-98444135D01*
X151620360Y-98444574D01*
X151619629Y-98446427D01*
X151618356Y-98448895D01*
X151616886Y-98453133D01*
X151606846Y-98482073D01*
X151606316Y-98483570D01*
X151570654Y-98582328D01*
X151569266Y-98585991D01*
X151558036Y-98614275D01*
X151556957Y-98619020D01*
X151556839Y-98619402D01*
X151555818Y-98623409D01*
X151554444Y-98627214D01*
X151550904Y-98644300D01*
X151547964Y-98658490D01*
X151547451Y-98660850D01*
X151540737Y-98690392D01*
X151524643Y-98761209D01*
X151523058Y-98768181D01*
X151521850Y-98773045D01*
X151514706Y-98799546D01*
X151514177Y-98804386D01*
X151513452Y-98808238D01*
X151513621Y-98808264D01*
X151512939Y-98812703D01*
X151511947Y-98817069D01*
X151511584Y-98821531D01*
X151509624Y-98845608D01*
X151509293Y-98849076D01*
X151496749Y-98963847D01*
X151495921Y-98970012D01*
X151493127Y-98987524D01*
X151492102Y-98993945D01*
X151492083Y-98998811D01*
X151492083Y-98998817D01*
X151492078Y-99000190D01*
X151491620Y-99008325D01*
X151491479Y-99012068D01*
X151490993Y-99016513D01*
X151491142Y-99020978D01*
X151491142Y-99020983D01*
X151491835Y-99041717D01*
X151491904Y-99046401D01*
X151491442Y-99168378D01*
X151491193Y-99175830D01*
X151489874Y-99196750D01*
X149169619Y-99196750D01*
X149168744Y-99121926D01*
X149167354Y-99003107D01*
X149167347Y-99001035D01*
X149167403Y-98989759D01*
X149168906Y-98683859D01*
X149168940Y-98681486D01*
X149169204Y-98670430D01*
X149172859Y-98517016D01*
X149176009Y-98384811D01*
X149176101Y-98382144D01*
X149188023Y-98120390D01*
X149188708Y-98111833D01*
X149189546Y-98104518D01*
X149448113Y-95846098D01*
X149451626Y-95827682D01*
X149464093Y-95781375D01*
X149604597Y-95259455D01*
X149606158Y-95254242D01*
X149607810Y-95250294D01*
X149608979Y-95245557D01*
X149615689Y-95218360D01*
X149616353Y-95215786D01*
X149622930Y-95191353D01*
X149624096Y-95187023D01*
X149624609Y-95182793D01*
X149625832Y-95177246D01*
X149767708Y-94602166D01*
X149769461Y-94595796D01*
X149771218Y-94591297D01*
X149778130Y-94560072D01*
X149778817Y-94557136D01*
X149784654Y-94533479D01*
X149784655Y-94533473D01*
X149785728Y-94529124D01*
X149786174Y-94524661D01*
X149786391Y-94523402D01*
X149787537Y-94517578D01*
X150055934Y-93305113D01*
X150057105Y-93300464D01*
X150058464Y-93296776D01*
X150065067Y-93263963D01*
X150065567Y-93261597D01*
X150071162Y-93236325D01*
X150071164Y-93236311D01*
X150072131Y-93231943D01*
X150072427Y-93228042D01*
X150073281Y-93223142D01*
X150075578Y-93211730D01*
X150577374Y-90718038D01*
X150577757Y-90716208D01*
X150595367Y-90635057D01*
X150849426Y-89464256D01*
X150850368Y-89460233D01*
X151164160Y-88213038D01*
X151165294Y-88208838D01*
X151171146Y-88188564D01*
X151343250Y-87592317D01*
X151344268Y-87588968D01*
X151378397Y-87482029D01*
X151464879Y-87211042D01*
X151541910Y-86969671D01*
X151543162Y-86965948D01*
X151696986Y-86531231D01*
X151762468Y-86346175D01*
X151763963Y-86342168D01*
X151768537Y-86330521D01*
X151996388Y-85750259D01*
X152003635Y-85734925D01*
X152199056Y-85384639D01*
X152201017Y-85381249D01*
X152410562Y-85031646D01*
X152412789Y-85028068D01*
X152620867Y-84705862D01*
X152623358Y-84702150D01*
X152830884Y-84404524D01*
X152833622Y-84400749D01*
X153041576Y-84124863D01*
X153044519Y-84121108D01*
X153254046Y-83863994D01*
X153257132Y-83860351D01*
X153469452Y-83619081D01*
X153472593Y-83615642D01*
X153689006Y-83387323D01*
X153692103Y-83384168D01*
X153914058Y-83165878D01*
X153917003Y-83163073D01*
X154145853Y-82952091D01*
X154148544Y-82949681D01*
X154385603Y-82743383D01*
X154387949Y-82741392D01*
X154632647Y-82538733D01*
X154635332Y-82536570D01*
X154986942Y-82261229D01*
X155164316Y-82122330D01*
X155166354Y-82120768D01*
X155169308Y-82118551D01*
X155496560Y-81872901D01*
X155724188Y-81702034D01*
X155731523Y-81696924D01*
X155766693Y-81674235D01*
X155766695Y-81674233D01*
X155774235Y-81669369D01*
X155807064Y-81631432D01*
X155813163Y-81624873D01*
X155848597Y-81589385D01*
X155852901Y-81581510D01*
X155852903Y-81581507D01*
X155874888Y-81541278D01*
X155878626Y-81534891D01*
X155892994Y-81511918D01*
X156177828Y-81056475D01*
X156179251Y-81054253D01*
X156492667Y-80575818D01*
X156494298Y-80573390D01*
X156632654Y-80372520D01*
X156815494Y-80107068D01*
X156817324Y-80104483D01*
X157146834Y-79651218D01*
X157148926Y-79648421D01*
X157487436Y-79208923D01*
X157489792Y-79205959D01*
X157837782Y-78781194D01*
X157840421Y-78778076D01*
X157856131Y-78760121D01*
X157928978Y-78676860D01*
X158169910Y-78401489D01*
X158229820Y-78363392D01*
X158300816Y-78363732D01*
X158360357Y-78402402D01*
X158388349Y-78460037D01*
X158394564Y-78491497D01*
X158396357Y-78503675D01*
X158397178Y-78512087D01*
X158398392Y-78516806D01*
X158402557Y-78532999D01*
X158404139Y-78539962D01*
X158407726Y-78558115D01*
X158409207Y-78562339D01*
X158409209Y-78562345D01*
X158410787Y-78566844D01*
X158413913Y-78577150D01*
X158423434Y-78614163D01*
X158425993Y-78626734D01*
X158427056Y-78633773D01*
X158428517Y-78638424D01*
X158428518Y-78638430D01*
X158433928Y-78655657D01*
X158435738Y-78661995D01*
X158440678Y-78681201D01*
X158442400Y-78685344D01*
X158443822Y-78689593D01*
X158443656Y-78689648D01*
X158446041Y-78696587D01*
X158446846Y-78700760D01*
X158455863Y-78725850D01*
X158457491Y-78730687D01*
X158463214Y-78748910D01*
X158463216Y-78748916D01*
X158464559Y-78753191D01*
X158466201Y-78756621D01*
X158468335Y-78762573D01*
X158468844Y-78764146D01*
X158469982Y-78768883D01*
X158479594Y-78792252D01*
X158481631Y-78797543D01*
X158484909Y-78806662D01*
X158489125Y-78818393D01*
X158491220Y-78822346D01*
X158491276Y-78822473D01*
X158493588Y-78828806D01*
X158493834Y-78828712D01*
X158495565Y-78833271D01*
X158496935Y-78837939D01*
X158507064Y-78859451D01*
X158509592Y-78865187D01*
X158517462Y-78884319D01*
X158519743Y-78888190D01*
X158521733Y-78892193D01*
X158521286Y-78892415D01*
X158524209Y-78898719D01*
X158524586Y-78898552D01*
X158526556Y-78902996D01*
X158528182Y-78907591D01*
X158530495Y-78911880D01*
X158538769Y-78927225D01*
X158541860Y-78933351D01*
X158550039Y-78950721D01*
X158552509Y-78954472D01*
X158554697Y-78958373D01*
X158554502Y-78958483D01*
X158559963Y-78968702D01*
X158560080Y-78968642D01*
X158562314Y-78972971D01*
X158564203Y-78977449D01*
X158566756Y-78981579D01*
X158566758Y-78981583D01*
X158573762Y-78992913D01*
X158579297Y-79004543D01*
X158579591Y-79004391D01*
X158583711Y-79012363D01*
X158586660Y-79020843D01*
X158591870Y-79028153D01*
X158617183Y-79063670D01*
X158621752Y-79070547D01*
X158623537Y-79073434D01*
X158629681Y-79083373D01*
X158637116Y-79092273D01*
X158642997Y-79099889D01*
X158671115Y-79139342D01*
X158678164Y-79144893D01*
X158682496Y-79149438D01*
X158688883Y-79155644D01*
X158693586Y-79159876D01*
X158699345Y-79166770D01*
X158706805Y-79171769D01*
X158706807Y-79171771D01*
X158739576Y-79193731D01*
X158747388Y-79199412D01*
X158752668Y-79203570D01*
X158758951Y-79208518D01*
X158763192Y-79210905D01*
X158763195Y-79210907D01*
X158768724Y-79214019D01*
X158783418Y-79223701D01*
X158799043Y-79235641D01*
X158799049Y-79235645D01*
X158806182Y-79241095D01*
X158814564Y-79244326D01*
X158814563Y-79244326D01*
X158815774Y-79244793D01*
X158815707Y-79244966D01*
X158817677Y-79246069D01*
X158820226Y-79247777D01*
X158834667Y-79252338D01*
X158842032Y-79254918D01*
X158873275Y-79266964D01*
X158873557Y-79267073D01*
X158932493Y-79289960D01*
X158932495Y-79289960D01*
X158940760Y-79293170D01*
X158941379Y-79293223D01*
X158941954Y-79293445D01*
X159013763Y-79299457D01*
X159014063Y-79299483D01*
X159049706Y-79302553D01*
X159085737Y-79305656D01*
X159086343Y-79305534D01*
X159086962Y-79305586D01*
X159157284Y-79291260D01*
X159157490Y-79292273D01*
X159159672Y-79291190D01*
X159165853Y-79291008D01*
X159174387Y-79288237D01*
X159176870Y-79287807D01*
X159184921Y-79285698D01*
X159219592Y-79278721D01*
X159219593Y-79278721D01*
X159228392Y-79276950D01*
X159250191Y-79265516D01*
X159269809Y-79257256D01*
X159281334Y-79253514D01*
X159304256Y-79246072D01*
X159337964Y-79223089D01*
X159348785Y-79216484D01*
X159384628Y-79197011D01*
X159415065Y-79166770D01*
X159430631Y-79151305D01*
X159433285Y-79148744D01*
X159482365Y-79102756D01*
X159483795Y-79101437D01*
X159507410Y-79079985D01*
X159511012Y-79076713D01*
X159513658Y-79073434D01*
X159514472Y-79072671D01*
X159516175Y-79070547D01*
X159544018Y-79035808D01*
X159544274Y-79035489D01*
X159599450Y-78967105D01*
X159607161Y-78958566D01*
X159608332Y-78957211D01*
X159611786Y-78953789D01*
X159627120Y-78933001D01*
X159630458Y-78928676D01*
X159641910Y-78914482D01*
X159641913Y-78914477D01*
X159644723Y-78910995D01*
X159647249Y-78906749D01*
X159654130Y-78896383D01*
X159718647Y-78808917D01*
X159719553Y-78807774D01*
X159720659Y-78806662D01*
X159742579Y-78776477D01*
X159743041Y-78775848D01*
X159760904Y-78751630D01*
X159760914Y-78751615D01*
X159763332Y-78748337D01*
X159764071Y-78746963D01*
X159764910Y-78745726D01*
X160001018Y-78420589D01*
X160002784Y-78418217D01*
X160014846Y-78402402D01*
X160116592Y-78268992D01*
X160140365Y-78237821D01*
X160143063Y-78234407D01*
X160282046Y-78064662D01*
X160286386Y-78059638D01*
X160391633Y-77944092D01*
X160452292Y-77907200D01*
X160523267Y-77908960D01*
G37*
%TD.AperFunction*%
%TD*%
%TA.AperFunction,Conductor*%
%TO.N,Net-(Q2-B)*%
G36*
X168526655Y-101643129D02*
G01*
X168596637Y-101650485D01*
X168622076Y-101653159D01*
X168666625Y-101657842D01*
X168686480Y-101661558D01*
X168705885Y-101666830D01*
X168705887Y-101666830D01*
X168822288Y-101698456D01*
X168841297Y-101705300D01*
X168879029Y-101722416D01*
X168950919Y-101755027D01*
X168950926Y-101755030D01*
X168950931Y-101755032D01*
X168950937Y-101755034D01*
X168969460Y-101763436D01*
X168987138Y-101773235D01*
X169104349Y-101851110D01*
X169120232Y-101863608D01*
X169177661Y-101916788D01*
X169223491Y-101959227D01*
X169237170Y-101974104D01*
X169323807Y-102084994D01*
X169334933Y-102101867D01*
X169338305Y-102108000D01*
X169393348Y-102208125D01*
X169404071Y-102227629D01*
X169411979Y-102245022D01*
X169426207Y-102283902D01*
X169438385Y-102317182D01*
X169441176Y-102325745D01*
X169466424Y-102413792D01*
X169468590Y-102422516D01*
X169484434Y-102497700D01*
X169486946Y-102516644D01*
X169490566Y-102581393D01*
X169494958Y-102659947D01*
X169494463Y-102680154D01*
X169493743Y-102687003D01*
X169493743Y-102687006D01*
X169480029Y-102817486D01*
X169479754Y-102820100D01*
X169477557Y-102831807D01*
X169477931Y-102831882D01*
X169477930Y-102831887D01*
X169476021Y-102839991D01*
X169476004Y-102840082D01*
X169475972Y-102840200D01*
X169475969Y-102840212D01*
X169439140Y-102975765D01*
X169432294Y-102994781D01*
X169374156Y-103122944D01*
X169364358Y-103140619D01*
X169286484Y-103257830D01*
X169273986Y-103273713D01*
X169197552Y-103356254D01*
X169178362Y-103376977D01*
X169169710Y-103384933D01*
X169169960Y-103385210D01*
X169166699Y-103388145D01*
X169163241Y-103390847D01*
X169160196Y-103393999D01*
X169160193Y-103394001D01*
X169085638Y-103471158D01*
X169065197Y-103492312D01*
X169064559Y-103491695D01*
X169006223Y-103529560D01*
X168544956Y-103661826D01*
X167497959Y-103962048D01*
X167420273Y-103990477D01*
X167363681Y-104011186D01*
X167363678Y-104011187D01*
X167359192Y-104012829D01*
X167355008Y-104015129D01*
X167355004Y-104015131D01*
X167150905Y-104127335D01*
X167150901Y-104127337D01*
X167146471Y-104129773D01*
X167142481Y-104132890D01*
X167142480Y-104132891D01*
X167054571Y-104201573D01*
X166955184Y-104279223D01*
X166951741Y-104282941D01*
X166951739Y-104282943D01*
X166793695Y-104453615D01*
X166793691Y-104453620D01*
X166790251Y-104457335D01*
X166655917Y-104659524D01*
X166555637Y-104880589D01*
X166491991Y-105114845D01*
X166466617Y-105356262D01*
X166480168Y-105598631D01*
X166510637Y-105743221D01*
X166548383Y-105874853D01*
X166549150Y-105876950D01*
X166549153Y-105876958D01*
X166592804Y-105996240D01*
X166599164Y-106013619D01*
X166601464Y-106017803D01*
X166601466Y-106017807D01*
X166706703Y-106209233D01*
X166716108Y-106226341D01*
X166719225Y-106230331D01*
X166719226Y-106230332D01*
X166730532Y-106244803D01*
X166865558Y-106417628D01*
X166869276Y-106421071D01*
X166869278Y-106421073D01*
X167039950Y-106579117D01*
X167039955Y-106579121D01*
X167043670Y-106582561D01*
X167245859Y-106716895D01*
X167250469Y-106718986D01*
X167462309Y-106815081D01*
X167462314Y-106815083D01*
X167466924Y-106817174D01*
X167566853Y-106844324D01*
X167696302Y-106879495D01*
X167696306Y-106879496D01*
X167701180Y-106880820D01*
X167813673Y-106892644D01*
X167937572Y-106905667D01*
X167937574Y-106905667D01*
X167942597Y-106906195D01*
X167981558Y-106904017D01*
X168180195Y-106892911D01*
X168180198Y-106892911D01*
X168184966Y-106892644D01*
X168189643Y-106891658D01*
X168189646Y-106891658D01*
X168327347Y-106862640D01*
X168327360Y-106862637D01*
X168329556Y-106862174D01*
X168331720Y-106861554D01*
X168331726Y-106861552D01*
X169627849Y-106489894D01*
X170383711Y-106273154D01*
X170416167Y-106261277D01*
X170497674Y-106231451D01*
X170506242Y-106228658D01*
X170529785Y-106221907D01*
X170599759Y-106201842D01*
X170608484Y-106199675D01*
X170657578Y-106189330D01*
X170683678Y-106183830D01*
X170702624Y-106181319D01*
X170736434Y-106179428D01*
X170845907Y-106173307D01*
X170866104Y-106173800D01*
X170936086Y-106181156D01*
X170961525Y-106183830D01*
X171006074Y-106188513D01*
X171025929Y-106192229D01*
X171045334Y-106197501D01*
X171045336Y-106197501D01*
X171161739Y-106229127D01*
X171180748Y-106235971D01*
X171308910Y-106294107D01*
X171326584Y-106303904D01*
X171443806Y-106381786D01*
X171459674Y-106394273D01*
X171562941Y-106489898D01*
X171576616Y-106504771D01*
X171654142Y-106604000D01*
X171663258Y-106615668D01*
X171674384Y-106632541D01*
X171716874Y-106709831D01*
X171716878Y-106709842D01*
X171743518Y-106758301D01*
X171751428Y-106775697D01*
X171777835Y-106847854D01*
X171780625Y-106856413D01*
X171800734Y-106926539D01*
X171805869Y-106944447D01*
X171808040Y-106953187D01*
X171813340Y-106978338D01*
X171823883Y-107028370D01*
X171826395Y-107047315D01*
X171828633Y-107087355D01*
X171834406Y-107190617D01*
X171833912Y-107210814D01*
X171833147Y-107218096D01*
X171833147Y-107218103D01*
X171819202Y-107350774D01*
X171815484Y-107370638D01*
X171778589Y-107506437D01*
X171771746Y-107525446D01*
X171713604Y-107653619D01*
X171703810Y-107671287D01*
X171625928Y-107788509D01*
X171613441Y-107804377D01*
X171517817Y-107907643D01*
X171502945Y-107921318D01*
X171442182Y-107968792D01*
X171392045Y-108007962D01*
X171375175Y-108019086D01*
X171249420Y-108088219D01*
X171232110Y-108096097D01*
X171231851Y-108096192D01*
X171214443Y-108101191D01*
X171172826Y-108109961D01*
X171172819Y-108109963D01*
X171170616Y-108110427D01*
X171168452Y-108111047D01*
X171168446Y-108111049D01*
X170482595Y-108307714D01*
X169116461Y-108699447D01*
X169038775Y-108727876D01*
X168982183Y-108748585D01*
X168982180Y-108748586D01*
X168977694Y-108750228D01*
X168973510Y-108752528D01*
X168973506Y-108752530D01*
X168769407Y-108864734D01*
X168769403Y-108864736D01*
X168764973Y-108867172D01*
X168573686Y-109016622D01*
X168570243Y-109020340D01*
X168570241Y-109020342D01*
X168412197Y-109191014D01*
X168412193Y-109191019D01*
X168408753Y-109194734D01*
X168274419Y-109396923D01*
X168174139Y-109617988D01*
X168110493Y-109852244D01*
X168085119Y-110093661D01*
X168098670Y-110336030D01*
X168129139Y-110480620D01*
X168166885Y-110612252D01*
X168217666Y-110751018D01*
X168219966Y-110755202D01*
X168219968Y-110755206D01*
X168319021Y-110935383D01*
X168334610Y-110963740D01*
X168337727Y-110967730D01*
X168337728Y-110967731D01*
X168413559Y-111064790D01*
X168484060Y-111155027D01*
X168487778Y-111158470D01*
X168487780Y-111158472D01*
X168658452Y-111316516D01*
X168658457Y-111316520D01*
X168662172Y-111319960D01*
X168864361Y-111454294D01*
X168868971Y-111456385D01*
X169080811Y-111552480D01*
X169080816Y-111552482D01*
X169085426Y-111554573D01*
X169193327Y-111583889D01*
X169314804Y-111616894D01*
X169314808Y-111616895D01*
X169319682Y-111618219D01*
X169432175Y-111630043D01*
X169556074Y-111643066D01*
X169556076Y-111643066D01*
X169561099Y-111643594D01*
X169600060Y-111641416D01*
X169798697Y-111630310D01*
X169798700Y-111630310D01*
X169803468Y-111630043D01*
X169808145Y-111629057D01*
X169808148Y-111629057D01*
X169945849Y-111600039D01*
X169945862Y-111600036D01*
X169948058Y-111599573D01*
X169950222Y-111598953D01*
X169950228Y-111598951D01*
X170829829Y-111346729D01*
X171828591Y-111060339D01*
X171856284Y-111055655D01*
X171951966Y-111050305D01*
X172021097Y-111066472D01*
X172070513Y-111117449D01*
X172085000Y-111176108D01*
X172085000Y-112964143D01*
X172064998Y-113032264D01*
X172011342Y-113078757D01*
X171993731Y-113085262D01*
X171874163Y-113119548D01*
X171715042Y-113165175D01*
X171706302Y-113167346D01*
X171589750Y-113191907D01*
X171589737Y-113191910D01*
X171587541Y-113192373D01*
X171585377Y-113192993D01*
X171585371Y-113192995D01*
X170648109Y-113461751D01*
X169533386Y-113781393D01*
X169508019Y-113790676D01*
X169399108Y-113830531D01*
X169399105Y-113830532D01*
X169394619Y-113832174D01*
X169390435Y-113834474D01*
X169390431Y-113834476D01*
X169186332Y-113946680D01*
X169186328Y-113946682D01*
X169181898Y-113949118D01*
X169177908Y-113952235D01*
X169177907Y-113952236D01*
X169084949Y-114024863D01*
X168990611Y-114098568D01*
X168987168Y-114102286D01*
X168987166Y-114102288D01*
X168829122Y-114272960D01*
X168829118Y-114272965D01*
X168825678Y-114276680D01*
X168691344Y-114478869D01*
X168591064Y-114699934D01*
X168568234Y-114783962D01*
X168531774Y-114918159D01*
X168527418Y-114934190D01*
X168502044Y-115175607D01*
X168502326Y-115180650D01*
X168514391Y-115396434D01*
X168515595Y-115417976D01*
X168546064Y-115562566D01*
X168583810Y-115694198D01*
X168634591Y-115832964D01*
X168636891Y-115837148D01*
X168636893Y-115837152D01*
X168652351Y-115865269D01*
X168751535Y-116045686D01*
X168754652Y-116049676D01*
X168754653Y-116049677D01*
X168788109Y-116092499D01*
X168900985Y-116236973D01*
X168904703Y-116240416D01*
X168904705Y-116240418D01*
X169075377Y-116398462D01*
X169075382Y-116398466D01*
X169079097Y-116401906D01*
X169281286Y-116536240D01*
X169285896Y-116538331D01*
X169497736Y-116634426D01*
X169497741Y-116634428D01*
X169502351Y-116636519D01*
X169617483Y-116667800D01*
X169731729Y-116698840D01*
X169731733Y-116698841D01*
X169736607Y-116700165D01*
X169849100Y-116711989D01*
X169972999Y-116725012D01*
X169973001Y-116725012D01*
X169978024Y-116725540D01*
X170016985Y-116723362D01*
X170215622Y-116712256D01*
X170215625Y-116712256D01*
X170220393Y-116711989D01*
X170225070Y-116711003D01*
X170225073Y-116711003D01*
X170362774Y-116681985D01*
X170362787Y-116681982D01*
X170364983Y-116681519D01*
X170367147Y-116680899D01*
X170367153Y-116680897D01*
X171924270Y-116234401D01*
X171995265Y-116234852D01*
X172054746Y-116273614D01*
X172083829Y-116338380D01*
X172085000Y-116355520D01*
X172085000Y-119254000D01*
X172064998Y-119322121D01*
X172011342Y-119368614D01*
X171959000Y-119380000D01*
X162686000Y-119380000D01*
X162617879Y-119359998D01*
X162571386Y-119306342D01*
X162560000Y-119254000D01*
X162560000Y-102234000D01*
X162580002Y-102165879D01*
X162633658Y-102119386D01*
X162686000Y-102108000D01*
X166647803Y-102108000D01*
X166649990Y-102107847D01*
X166649992Y-102107847D01*
X166683153Y-102105528D01*
X166718503Y-102103056D01*
X166753233Y-102098175D01*
X166755374Y-102097720D01*
X166755385Y-102097718D01*
X166789493Y-102090468D01*
X166822557Y-102083440D01*
X168260286Y-101671178D01*
X168269034Y-101669005D01*
X168344230Y-101653159D01*
X168363176Y-101650648D01*
X168408267Y-101648127D01*
X168506458Y-101642636D01*
X168526655Y-101643129D01*
G37*
%TD.AperFunction*%
%TD*%
%TA.AperFunction,Conductor*%
%TO.N,VCC*%
G36*
X165770617Y-96541675D02*
G01*
X165852680Y-96597253D01*
X165854469Y-96598488D01*
X166426472Y-97000959D01*
X166428735Y-97002589D01*
X166541509Y-97085831D01*
X166992563Y-97418768D01*
X166995406Y-97420930D01*
X167540890Y-97847976D01*
X167544329Y-97850767D01*
X168061141Y-98285508D01*
X168065270Y-98289138D01*
X168543117Y-98728088D01*
X168548047Y-98732871D01*
X168821819Y-99013362D01*
X168980665Y-99176107D01*
X168984927Y-99180697D01*
X169174232Y-99394993D01*
X169177387Y-99398706D01*
X169357648Y-99619403D01*
X169359576Y-99621824D01*
X169777532Y-100159994D01*
X169908454Y-100328573D01*
X169910234Y-100330922D01*
X170311528Y-100873565D01*
X170406393Y-101001845D01*
X170408368Y-101004593D01*
X170528216Y-101176136D01*
X170855543Y-101644653D01*
X170857672Y-101647800D01*
X171247634Y-102243448D01*
X171260574Y-102263214D01*
X171262789Y-102266723D01*
X171626166Y-102863785D01*
X171628392Y-102867589D01*
X171957189Y-103453006D01*
X171959339Y-103457002D01*
X172258357Y-104037404D01*
X172260351Y-104041452D01*
X172534466Y-104623843D01*
X172536230Y-104627763D01*
X172639057Y-104867220D01*
X172790114Y-105218994D01*
X172791625Y-105222673D01*
X173018336Y-105800259D01*
X173029847Y-105829586D01*
X173031077Y-105832850D01*
X173258152Y-106462319D01*
X173259120Y-106465104D01*
X173412058Y-106922315D01*
X173478612Y-107121281D01*
X173479601Y-107124368D01*
X173652348Y-107688858D01*
X173917878Y-108556542D01*
X173918561Y-108558856D01*
X174370362Y-110143000D01*
X174373505Y-110156997D01*
X174528274Y-111092776D01*
X174529338Y-111100801D01*
X174621454Y-112022135D01*
X174621960Y-112029202D01*
X174660434Y-112915007D01*
X174660552Y-112921059D01*
X174656647Y-113763437D01*
X174656525Y-113768412D01*
X174621598Y-114559329D01*
X174621374Y-114563117D01*
X174599040Y-114862892D01*
X174566894Y-115294372D01*
X174566656Y-115297147D01*
X174551271Y-115456136D01*
X174524801Y-115522014D01*
X174466917Y-115563122D01*
X174425857Y-115570000D01*
X172148486Y-115570000D01*
X172080365Y-115549998D01*
X172033872Y-115496342D01*
X172025549Y-115471612D01*
X171986365Y-115297147D01*
X171657641Y-113833544D01*
X171662229Y-113762695D01*
X171704392Y-113705574D01*
X171745845Y-113684815D01*
X172450991Y-113482617D01*
X172578915Y-113435804D01*
X172585269Y-113433479D01*
X172585272Y-113433478D01*
X172589758Y-113431836D01*
X172593942Y-113429536D01*
X172593946Y-113429534D01*
X172798045Y-113317330D01*
X172798049Y-113317328D01*
X172802479Y-113314892D01*
X172877740Y-113256092D01*
X172989770Y-113168564D01*
X172993766Y-113165442D01*
X173027483Y-113129031D01*
X173155255Y-112991050D01*
X173155259Y-112991045D01*
X173158699Y-112987330D01*
X173293033Y-112785141D01*
X173393313Y-112564076D01*
X173429811Y-112429741D01*
X173455634Y-112334698D01*
X173455635Y-112334694D01*
X173456959Y-112329820D01*
X173482333Y-112088403D01*
X173468782Y-111846034D01*
X173438313Y-111701444D01*
X173400567Y-111569812D01*
X173384878Y-111526938D01*
X173351429Y-111435535D01*
X173351428Y-111435532D01*
X173349786Y-111431046D01*
X173344127Y-111420752D01*
X173235280Y-111222758D01*
X173235278Y-111222754D01*
X173232842Y-111218324D01*
X173083392Y-111027037D01*
X173026112Y-110973995D01*
X172909000Y-110865548D01*
X172908995Y-110865544D01*
X172905280Y-110862104D01*
X172703091Y-110727770D01*
X172626147Y-110692867D01*
X172486641Y-110629584D01*
X172486636Y-110629582D01*
X172482026Y-110627491D01*
X172316399Y-110582491D01*
X172252648Y-110565170D01*
X172252644Y-110565169D01*
X172247770Y-110563845D01*
X172127062Y-110551158D01*
X172011378Y-110538998D01*
X172011376Y-110538998D01*
X172006353Y-110538470D01*
X171967392Y-110540648D01*
X171768755Y-110551754D01*
X171768752Y-110551754D01*
X171763984Y-110552021D01*
X171759307Y-110553007D01*
X171759304Y-110553007D01*
X171621603Y-110582025D01*
X171621590Y-110582028D01*
X171619394Y-110582491D01*
X171617230Y-110583111D01*
X171617224Y-110583113D01*
X171365120Y-110655403D01*
X171097719Y-110732079D01*
X171026725Y-110731628D01*
X170967244Y-110692867D01*
X170940054Y-110638574D01*
X170750871Y-109796258D01*
X170560077Y-108946769D01*
X170564665Y-108875920D01*
X170606828Y-108818799D01*
X170648284Y-108798038D01*
X170921894Y-108719581D01*
X171313120Y-108607399D01*
X171441044Y-108560586D01*
X171447398Y-108558261D01*
X171447401Y-108558260D01*
X171451887Y-108556618D01*
X171456071Y-108554318D01*
X171456075Y-108554316D01*
X171660174Y-108442112D01*
X171660178Y-108442110D01*
X171664608Y-108439674D01*
X171855895Y-108290224D01*
X171860841Y-108284883D01*
X172017384Y-108115832D01*
X172017388Y-108115827D01*
X172020828Y-108112112D01*
X172155162Y-107909923D01*
X172255442Y-107688858D01*
X172319088Y-107454602D01*
X172338364Y-107271203D01*
X172343934Y-107218210D01*
X172343934Y-107218208D01*
X172344462Y-107213185D01*
X172330911Y-106970816D01*
X172300442Y-106826226D01*
X172262696Y-106694594D01*
X172257356Y-106680000D01*
X172213558Y-106560317D01*
X172213557Y-106560314D01*
X172211915Y-106555828D01*
X172162040Y-106465105D01*
X172097409Y-106347540D01*
X172097407Y-106347536D01*
X172094971Y-106343106D01*
X172054454Y-106291246D01*
X171948643Y-106155815D01*
X171945521Y-106151819D01*
X171941801Y-106148374D01*
X171771129Y-105990330D01*
X171771124Y-105990326D01*
X171767409Y-105986886D01*
X171565220Y-105852552D01*
X171363954Y-105761254D01*
X171348770Y-105754366D01*
X171348765Y-105754364D01*
X171344155Y-105752273D01*
X171178528Y-105707273D01*
X171114777Y-105689952D01*
X171114773Y-105689951D01*
X171109899Y-105688627D01*
X170989190Y-105675939D01*
X170873507Y-105663780D01*
X170873505Y-105663780D01*
X170868482Y-105663252D01*
X170829521Y-105665430D01*
X170630884Y-105676536D01*
X170630881Y-105676536D01*
X170626113Y-105676803D01*
X170621436Y-105677789D01*
X170621433Y-105677789D01*
X170483732Y-105706807D01*
X170483719Y-105706810D01*
X170481523Y-105707273D01*
X170479359Y-105707893D01*
X170479353Y-105707895D01*
X170326253Y-105751796D01*
X170001729Y-105844852D01*
X170000156Y-105845303D01*
X169929161Y-105844852D01*
X169869680Y-105806090D01*
X169842489Y-105751796D01*
X169430633Y-103918057D01*
X169435221Y-103847208D01*
X169475997Y-103791156D01*
X169512451Y-103762675D01*
X169512456Y-103762670D01*
X169516446Y-103759553D01*
X169570287Y-103701410D01*
X169677935Y-103585161D01*
X169677939Y-103585156D01*
X169681379Y-103581441D01*
X169815713Y-103379252D01*
X169915993Y-103158187D01*
X169966199Y-102973399D01*
X169978314Y-102928809D01*
X169978315Y-102928805D01*
X169979639Y-102923931D01*
X169998960Y-102740108D01*
X170004485Y-102687539D01*
X170004485Y-102687537D01*
X170005013Y-102682514D01*
X169992329Y-102455649D01*
X169991729Y-102444918D01*
X169991729Y-102444916D01*
X169991462Y-102440145D01*
X169960993Y-102295555D01*
X169923247Y-102163923D01*
X169921689Y-102159664D01*
X169874109Y-102029646D01*
X169874108Y-102029643D01*
X169872466Y-102025157D01*
X169838513Y-101963396D01*
X169757960Y-101816869D01*
X169757958Y-101816865D01*
X169755522Y-101812435D01*
X169606072Y-101621148D01*
X169522817Y-101544053D01*
X169431680Y-101459659D01*
X169431675Y-101459655D01*
X169427960Y-101456215D01*
X169225771Y-101321881D01*
X169160790Y-101292405D01*
X169009321Y-101223695D01*
X169009316Y-101223693D01*
X169004706Y-101221602D01*
X168839079Y-101176602D01*
X168775328Y-101159281D01*
X168775324Y-101159280D01*
X168770450Y-101157956D01*
X168649741Y-101145268D01*
X168534058Y-101133109D01*
X168534056Y-101133109D01*
X168529033Y-101132581D01*
X168490072Y-101134759D01*
X168291435Y-101145865D01*
X168291432Y-101145865D01*
X168286664Y-101146132D01*
X168281987Y-101147118D01*
X168281984Y-101147118D01*
X168144283Y-101176136D01*
X168144270Y-101176139D01*
X168142074Y-101176602D01*
X168139910Y-101177222D01*
X168139904Y-101177224D01*
X166682533Y-101595119D01*
X166647803Y-101600000D01*
X161925000Y-101600000D01*
X161925000Y-106554000D01*
X161904998Y-106622121D01*
X161851342Y-106668614D01*
X161799000Y-106680000D01*
X158876000Y-106680000D01*
X158807879Y-106659998D01*
X158761386Y-106606342D01*
X158750000Y-106554000D01*
X158750000Y-96646000D01*
X158770002Y-96577879D01*
X158823658Y-96531386D01*
X158876000Y-96520000D01*
X165699962Y-96520000D01*
X165770617Y-96541675D01*
G37*
%TD.AperFunction*%
%TD*%
M02*
