<?xml version="1.0" encoding="UTF-8" standalone="no"?>
<!-- Created with Inkscape (http://www.inkscape.org/) -->

<svg
   version="1.1"
   id="svg71"
   width="260"
   height="280"
   viewBox="0 0 260 280"
   sodipodi:docname="cat_sillhoulete.svg"
   inkscape:version="1.1.1 (3bf5ae0d25, 2021-09-20, custom)"
   xmlns:inkscape="http://www.inkscape.org/namespaces/inkscape"
   xmlns:sodipodi="http://sodipodi.sourceforge.net/DTD/sodipodi-0.dtd"
   xmlns="http://www.w3.org/2000/svg"
   xmlns:svg="http://www.w3.org/2000/svg">
  <defs
     id="defs75">
    <inkscape:path-effect
       effect="powerclip"
       id="path-effect27811"
       is_visible="true"
       lpeversion="1"
       inverse="true"
       flatten="false"
       hide_clip="false"
       message="Use fill-rule evenodd on &lt;b&gt;fill and stroke&lt;/b&gt; dialog if no flatten result after convert clip to paths." />
    <clipPath
       clipPathUnits="userSpaceOnUse"
       id="clipPath27807">
      <path
         style="display:none;fill:none;stroke:#ff0000;stroke-width:1px;stroke-linecap:butt;stroke-linejoin:miter;stroke-opacity:1"
         d="m 110.26661,193.15465 c -1.03788,0.27786 -0.43211,8.22378 -0.0901,8.69185 0.11238,1.22527 9.97477,0.64788 10.36801,-0.38069 0.70757,-0.72727 0.12497,-3.21306 -1.42948,-6.47144 -0.31255,-0.4375 -0.27772,-1.35875 -8.84847,-1.83972 z"
         id="path27809"
         sodipodi:nodetypes="ccccc" />
      <path
         id="lpe_path-effect27811"
         style="fill:none;stroke:#ff0000;stroke-width:1px;stroke-linecap:butt;stroke-linejoin:miter;stroke-opacity:1"
         class="powerclip"
         d="M 65.102625,20.97803 H 220.68338 V 225.69601 H 65.102625 Z m 45.163985,172.17662 c -1.03788,0.27786 -0.43211,8.22378 -0.0901,8.69185 0.11238,1.22527 9.97477,0.64788 10.36801,-0.38069 0.70757,-0.72727 0.12497,-3.21306 -1.42948,-6.47144 -0.31255,-0.4375 -0.27772,-1.35875 -8.84847,-1.83972 z" />
    </clipPath>
  </defs>
  <sodipodi:namedview
     id="namedview73"
     pagecolor="#ffffff"
     bordercolor="#666666"
     borderopacity="1.0"
     inkscape:pageshadow="2"
     inkscape:pageopacity="0.0"
     inkscape:pagecheckerboard="false"
     showgrid="false"
     inkscape:showpageshadow="false"
     showborder="false"
     inkscape:zoom="90.509668"
     inkscape:cx="112.73934"
     inkscape:cy="183.39477"
     inkscape:window-width="1868"
     inkscape:window-height="1892"
     inkscape:window-x="21"
     inkscape:window-y="234"
     inkscape:window-maximized="1"
     inkscape:current-layer="g77" />
  <g
     inkscape:groupmode="layer"
     inkscape:label="Image"
     id="g77">
    <path
       style="fill:#333333;stroke:#000000;stroke-width:0.413851;stroke-linecap:butt;stroke-linejoin:miter;stroke-miterlimit:4;stroke-dasharray:none;stroke-opacity:1"
       d="m 80.885614,209.84992 7.254914,-4.80702 c 0.958205,-0.67787 1.691309,-1.46962 1.822682,-2.56576 0.893529,-4.31464 -0.492673,-16.72887 -0.492673,-16.72887 -5.170673,-11.85825 -4.380983,-22.94181 -6.999589,-29.21097 -2.232844,-5.34563 -3.667732,-5.60641 -9.750499,-22.55175 -1.028877,-2.71857 -1.365003,-3.62087 -2.098172,-9.60686 -0.315413,-4.72376 -0.398634,-8.68207 -0.220205,-11.77782 l 1.106049,-9.66058 c 4.062678,-14.416746 4.851221,-28.084104 10.72031,-42.281248 4.896145,-9.084525 9.467237,-12.597401 16.133998,-17.559123 3.411931,-5.576597 7.151181,-10.738054 11.465051,-15.170716 0.71369,-0.808059 1.90054,-0.245613 1.90054,-0.245613 1.04648,0.370917 0.3714,3.298152 1.55343,5.083839 0.46604,0.724343 6.22011,-10.718715 8.31435,-4.956944 1.67775,7.01396 0.16587,3.520518 2.56115,14.7536 1.02921,2.970519 3.03585,2.593846 5.85041,4.988607 5.21391,5.110399 4.40054,4.803823 6.77203,12.082383 0.35622,0.862632 1.85297,3.532415 3.37106,4.078752 0.66653,0.246626 3.25065,2.789475 3.25687,4.523552 -2.63525,5.599088 -2.27231,9.745075 -6.23544,13.660729 -3.6236,5.005952 -15.30464,6.262837 -10.52977,12.102382 3.20659,3.219017 22.80889,13.24261 30.97683,23.68428 12.93498,16.29789 15.79864,25.32417 21.15934,44.42428 4.45977,22.1804 -5.23225,40.13269 5.0196,30.48613 16.85975,-13.32809 20.64993,-27.88568 18.44744,-46.8088 -3.21134,-19.21788 7.75377,-22.94003 12.80049,3.46216 1.08444,12.69905 -0.11462,21.30604 -1.01342,25.42513 -5.07494,22.97712 -26.22639,42.69649 -50.68234,45.52107 -25.96401,1.70207 -42.17874,-4.75629 -65.75011,0.0106 -5.856114,0.59604 -9.918193,-0.36862 -16.0188,-3.65055 -0.985187,-0.78444 -1.609972,-0.8194 -1.885596,-3.0208 -0.03646,-2.63878 0.585362,-3.13357 1.19007,-3.6841 z"
       id="path782"
       sodipodi:nodetypes="ccccscccccccccccccccccccccccccccc"
       clip-path="url(#clipPath27807)"
       inkscape:path-effect="#path-effect27811"
       inkscape:original-d="m 80.885614,209.84992 7.254914,-4.80702 c 0.958205,-0.67787 1.691309,-1.46962 1.822682,-2.56576 0.893529,-4.31464 -0.492673,-16.72887 -0.492673,-16.72887 -5.170673,-11.85825 -4.380983,-22.94181 -6.999589,-29.21097 -2.232844,-5.34563 -3.667732,-5.60641 -9.750499,-22.55175 -1.028877,-2.71857 -1.365003,-3.62087 -2.098172,-9.60686 -0.315413,-4.72376 -0.398634,-8.68207 -0.220205,-11.77782 l 1.106049,-9.66058 c 4.062678,-14.416746 4.851221,-28.084104 10.72031,-42.281248 4.896145,-9.084525 9.467237,-12.597401 16.133998,-17.559123 3.411931,-5.576597 7.151181,-10.738054 11.465051,-15.170716 0.71369,-0.808059 1.90054,-0.245613 1.90054,-0.245613 1.04648,0.370917 0.3714,3.298152 1.55343,5.083839 0.46604,0.724343 6.22011,-10.718715 8.31435,-4.956944 1.67775,7.01396 0.16587,3.520518 2.56115,14.7536 1.02921,2.970519 3.03585,2.593846 5.85041,4.988607 5.21391,5.110399 4.40054,4.803823 6.77203,12.082383 0.35622,0.862632 1.85297,3.532415 3.37106,4.078752 0.66653,0.246626 3.25065,2.789475 3.25687,4.523552 -2.63525,5.599088 -2.27231,9.745075 -6.23544,13.660729 -3.6236,5.005952 -15.30464,6.262837 -10.52977,12.102382 3.20659,3.219017 22.80889,13.24261 30.97683,23.68428 12.93498,16.29789 15.79864,25.32417 21.15934,44.42428 4.45977,22.1804 -5.23225,40.13269 5.0196,30.48613 16.85975,-13.32809 20.64993,-27.88568 18.44744,-46.8088 -3.21134,-19.21788 7.75377,-22.94003 12.80049,3.46216 1.08444,12.69905 -0.11462,21.30604 -1.01342,25.42513 -5.07494,22.97712 -26.22639,42.69649 -50.68234,45.52107 -25.96401,1.70207 -42.17874,-4.75629 -65.75011,0.0106 -5.856114,0.59604 -9.918193,-0.36862 -16.0188,-3.65055 -0.985187,-0.78444 -1.609972,-0.8194 -1.885596,-3.0208 -0.03646,-2.63878 0.585362,-3.13357 1.19007,-3.6841 z"
       transform="matrix(0.91325863,0,0,0.91325863,5.8784504,2.386457)" />
    <path
       style="fill:none;stroke:#000000;stroke-width:0.37957;stroke-linecap:butt;stroke-linejoin:miter;stroke-miterlimit:4;stroke-dasharray:none;stroke-opacity:1"
       d="m 106.55325,178.89456 c -0.41704,0.10347 -1.03249,5.46105 -0.0836,7.87903 0.56336,1.16951 9.373,0.18966 9.62129,-0.34508 0.58086,-0.89878 -0.86383,-5.82173 -1.72268,-6.21348 -1.74126,-0.893 -5.63296,-1.71585 -7.81503,-1.32047 z"
       id="path117"
       sodipodi:nodetypes="cccccc" />
    <path
       style="fill:none;stroke:#000000;stroke-width:0.388274;stroke-linecap:butt;stroke-linejoin:miter;stroke-miterlimit:4;stroke-dasharray:none;stroke-opacity:1"
       d="m 99.551995,111.04161 c -1.161058,4.2018 -8.767459,6.69441 -9.190226,6.69441 -0.437634,0.008 -8.207375,-2.2876 -9.539,-6.2671 -2.41574,-8.57032 9.461274,-9.19776 9.481718,-3.79477 -0.02368,-5.40324 11.092283,-4.62148 9.247508,3.36746 z"
       id="path13867"
       sodipodi:nodetypes="ccccc" />
  </g>
</svg>
